M48
;GenerationSoftware,Autodesk,EAGLE,9.4.2*%
;CreationDate,2019-10-01T05:16:46Z*%
FMAT,2
ICI,OFF
METRIC,TZ,000.000
T6C0.305
T5C0.350
T4C0.914
T3C1.016
T2C1.321
T1C2.750
%
G90
M71
T1
X61500Y3500
X61500Y52500
X3500Y52500
X3500Y3500
T2
X29000Y68420
X38000Y68420
X20000Y68420
X29000Y78580
X38000Y78580
X47000Y68420
X47000Y78580
X56000Y68420
X56000Y78580
X11000Y68420
X11000Y78580
X20000Y78580
X2000Y68420
X2000Y78580
X45244Y0
X45244Y10160
T3
X18530Y51230
X21070Y51230
X8370Y53770
X10910Y53770
X13450Y53770
X15990Y53770
X18530Y53770
X21070Y53770
X23610Y51230
X23610Y53770
X26150Y51230
X28690Y51230
X31230Y51230
X33770Y51230
X36310Y51230
X38850Y51230
X28690Y53770
X31230Y53770
X36310Y53770
X38850Y53770
X41390Y51230
X41390Y53770
X43930Y51230
X46470Y51230
X49010Y51230
X26150Y53770
X54090Y51230
X56630Y51230
X43930Y53770
X46470Y53770
X49010Y53770
X51550Y53770
X54090Y53770
X56630Y53770
X82233Y42863
X51550Y51230
X82233Y27622
X82233Y30162
X82233Y32702
X82233Y35243
X82233Y37783
X82233Y40323
X82233Y45402
X33770Y53770
X8370Y51230
X10910Y51230
X56450Y36660
X56450Y13800
X58990Y13800
X61530Y13800
X64070Y13800
X66610Y13800
X69150Y13800
X10319Y47307
X58990Y36660
X61530Y36660
X64070Y36660
X66610Y36660
X69150Y36660
X13450Y51230
X15990Y51230
X10478Y11271
X10478Y13811
X10319Y44767
T4
X6032Y25241
X8573Y30321
X8573Y25241
X6032Y30321
X6032Y27781
X8573Y27781
T5
X4604Y25400
T6
X52070Y18574
X51562Y21233
X37148Y19209
X16986Y24447
X11906Y25400
X10636Y23812
X24765Y14446
X45704Y22615
X4604Y26987
X10636Y27146
X24924Y27305
X11112Y31274
X48883Y22565
X4763Y31591
X10636Y28099
X24130Y27940
X14605Y2223
X28892Y5239
X45720Y20638
X47982Y21885
X50841Y22945
X16669Y33020
X29051Y34925
X33814Y20796
X66500Y74000
X66500Y76953
X66500Y68000
X52864Y20479
X52387Y13970
X40481Y9049
X40481Y7461
X52291Y21516
X53022Y15081
X62230Y32861
X5398Y35560
X9843Y35084
X14446Y35084
X7302Y35878
X9366Y35878
X48495Y23246
X53975Y13176
X52070Y23336
X52705Y23336
X55086Y23336
X55086Y22701
X55721Y23336
X30639Y28892
X16669Y37465
X7461Y16034
X50006Y10795
X49530Y10319
X55086Y10795
X55086Y9525
X55086Y10160
X49301Y24468
X77670Y4525
X62865Y23812
X50538Y27336
X73501Y32702
X50165Y28257
X74771Y35243
X51117Y25241
X50165Y25241
X4604Y19526
X7937Y19526
X52387Y25082
X52229Y27464
X48603Y24916
X46037Y27305
X50836Y17133
X71273Y6192
X29210Y2223
X14287Y9525
X11112Y16034
X19844Y23177
X29051Y22860
X27146Y39688
X34608Y1270
X56515Y15716
X80486Y54927
X81915Y52387
X16669Y13176
X21273Y17780
X32702Y7620
X47466Y16351
X37941Y10160
X34766Y13652
X43180Y42069
X50052Y21129
X40005Y18891
X28099Y47307
X24765Y49054
X50800Y18733
X39053Y19050
X48853Y21744
X33973Y23654
X46310Y22143
X28892Y24924
X46120Y23320
X26987Y25717
X45887Y24049
X25876Y26829
X46037Y16986
X41593Y25559
X39688Y16986
X48098Y20795
X35401Y20320
X49354Y25248
X71320Y16590
X65405Y22384
X8731Y40799
X7779Y41593
X8731Y41593
X9684Y41593
X10636Y41593
X11589Y41593
X10636Y40799
X9684Y40799
X10001Y19368
X29369Y28892
X10001Y22860
X50136Y22456
X26194Y23812
X10478Y25082
X2064Y31274
X5715Y37941
X48007Y24353
X48895Y20955
X41593Y18733
X50823Y21015
X36195Y18098
M30