G75*
%MOIN*%
%OFA0B0*%
%FSLAX25Y25*%
%IPPOS*%
%LPD*%
%AMOC8*
5,1,8,0,0,1.08239X$1,22.5*
%
%ADD10C,0.00000*%
%ADD11C,0.00400*%
%ADD12C,0.00050*%
%ADD13C,0.00200*%
%ADD14C,0.07800*%
%ADD15R,0.05400X0.07100*%
%ADD16R,0.16548X0.03753*%
%ADD17C,0.01422*%
%ADD18C,0.08450*%
%ADD19C,0.03600*%
D10*
X0011031Y0023276D02*
X0164078Y0023276D01*
X0164078Y0102026D01*
X0011031Y0102026D01*
X0011228Y0101238D02*
X0012409Y0102026D01*
X0033276Y0102026D01*
X0011228Y0101238D02*
X0011228Y0059900D01*
X0012409Y0058719D01*
X0033276Y0058719D01*
X0033472Y0058719D02*
X0041740Y0058719D01*
X0041864Y0058717D01*
X0041987Y0058711D01*
X0042111Y0058702D01*
X0042233Y0058688D01*
X0042356Y0058671D01*
X0042478Y0058649D01*
X0042599Y0058624D01*
X0042719Y0058595D01*
X0042838Y0058563D01*
X0042957Y0058526D01*
X0043074Y0058486D01*
X0043189Y0058443D01*
X0043304Y0058395D01*
X0043416Y0058344D01*
X0043527Y0058290D01*
X0043637Y0058232D01*
X0043744Y0058171D01*
X0043850Y0058106D01*
X0043953Y0058038D01*
X0044054Y0057967D01*
X0044153Y0057893D01*
X0044250Y0057816D01*
X0044344Y0057735D01*
X0044435Y0057652D01*
X0044524Y0057566D01*
X0044610Y0057477D01*
X0044693Y0057386D01*
X0044774Y0057292D01*
X0044851Y0057195D01*
X0044925Y0057096D01*
X0044996Y0056995D01*
X0045064Y0056892D01*
X0045129Y0056786D01*
X0045190Y0056679D01*
X0045248Y0056569D01*
X0045302Y0056458D01*
X0045353Y0056346D01*
X0045401Y0056231D01*
X0045444Y0056116D01*
X0045484Y0055999D01*
X0045521Y0055880D01*
X0045553Y0055761D01*
X0045582Y0055641D01*
X0045607Y0055520D01*
X0045629Y0055398D01*
X0045646Y0055275D01*
X0045660Y0055153D01*
X0045669Y0055029D01*
X0045675Y0054906D01*
X0045677Y0054782D01*
X0045675Y0054658D01*
X0045669Y0054535D01*
X0045660Y0054411D01*
X0045646Y0054289D01*
X0045629Y0054166D01*
X0045607Y0054044D01*
X0045582Y0053923D01*
X0045553Y0053803D01*
X0045521Y0053684D01*
X0045484Y0053565D01*
X0045444Y0053448D01*
X0045401Y0053333D01*
X0045353Y0053218D01*
X0045302Y0053106D01*
X0045248Y0052995D01*
X0045190Y0052885D01*
X0045129Y0052778D01*
X0045064Y0052672D01*
X0044996Y0052569D01*
X0044925Y0052468D01*
X0044851Y0052369D01*
X0044774Y0052272D01*
X0044693Y0052178D01*
X0044610Y0052087D01*
X0044524Y0051998D01*
X0044435Y0051912D01*
X0044344Y0051829D01*
X0044250Y0051748D01*
X0044153Y0051671D01*
X0044054Y0051597D01*
X0043953Y0051526D01*
X0043850Y0051458D01*
X0043744Y0051393D01*
X0043637Y0051332D01*
X0043527Y0051274D01*
X0043416Y0051220D01*
X0043304Y0051169D01*
X0043189Y0051121D01*
X0043074Y0051078D01*
X0042957Y0051038D01*
X0042838Y0051001D01*
X0042719Y0050969D01*
X0042599Y0050940D01*
X0042478Y0050915D01*
X0042356Y0050893D01*
X0042233Y0050876D01*
X0042111Y0050862D01*
X0041987Y0050853D01*
X0041864Y0050847D01*
X0041740Y0050845D01*
X0012409Y0050845D01*
X0011228Y0049664D01*
X0011228Y0024467D01*
X0012409Y0023286D01*
X0056504Y0023286D01*
D11*
X0080033Y0025976D02*
X0080033Y0030580D01*
X0083103Y0030580D02*
X0083103Y0025976D01*
X0084637Y0026743D02*
X0084637Y0028278D01*
X0086172Y0028278D01*
X0087706Y0029812D02*
X0087706Y0026743D01*
X0086939Y0025976D01*
X0085405Y0025976D01*
X0084637Y0026743D01*
X0083103Y0028278D02*
X0080033Y0028278D01*
X0084637Y0029812D02*
X0085405Y0030580D01*
X0086939Y0030580D01*
X0087706Y0029812D01*
X0069922Y0063476D02*
X0068387Y0065010D01*
X0068387Y0068080D01*
X0066853Y0066545D02*
X0065318Y0068080D01*
X0065318Y0063476D01*
X0066853Y0063476D02*
X0063783Y0063476D01*
X0062249Y0063476D02*
X0061481Y0063476D01*
X0061481Y0064243D01*
X0062249Y0064243D01*
X0062249Y0063476D01*
X0059947Y0064243D02*
X0056877Y0067312D01*
X0056877Y0064243D01*
X0057645Y0063476D01*
X0059179Y0063476D01*
X0059947Y0064243D01*
X0059947Y0067312D01*
X0059179Y0068080D01*
X0057645Y0068080D01*
X0056877Y0067312D01*
X0069922Y0063476D02*
X0071456Y0065010D01*
X0071456Y0068080D01*
X0072364Y0092506D02*
X0073899Y0092506D01*
X0074666Y0093274D01*
X0074666Y0094808D01*
X0073899Y0095576D01*
X0072364Y0095576D01*
X0071597Y0094808D01*
X0071597Y0094041D01*
X0074666Y0094041D01*
X0076201Y0095576D02*
X0079270Y0092506D01*
X0076201Y0092506D01*
X0080805Y0092506D02*
X0082340Y0092506D01*
X0081572Y0092506D02*
X0081572Y0095576D01*
X0082340Y0095576D01*
X0083874Y0095576D02*
X0085409Y0095576D01*
X0084641Y0096343D02*
X0084641Y0093274D01*
X0083874Y0092506D01*
X0086943Y0092506D02*
X0088478Y0092506D01*
X0087711Y0092506D02*
X0087711Y0095576D01*
X0088478Y0095576D01*
X0087711Y0097110D02*
X0087711Y0097878D01*
X0090013Y0096343D02*
X0090780Y0097110D01*
X0092315Y0097110D01*
X0093082Y0096343D01*
X0093082Y0093274D01*
X0092315Y0092506D01*
X0090780Y0092506D01*
X0090013Y0093274D01*
X0081572Y0097110D02*
X0081572Y0097878D01*
X0079270Y0095576D02*
X0076201Y0095576D01*
X0070062Y0095576D02*
X0070062Y0092506D01*
X0066993Y0092506D02*
X0066993Y0094808D01*
X0067760Y0095576D01*
X0070062Y0095576D01*
X0065458Y0095576D02*
X0064691Y0094808D01*
X0063157Y0094808D01*
X0062389Y0094041D01*
X0062389Y0093274D01*
X0063157Y0092506D01*
X0064691Y0092506D01*
X0065458Y0093274D01*
X0065458Y0095576D02*
X0065458Y0096343D01*
X0064691Y0097110D01*
X0063157Y0097110D01*
X0062389Y0096343D01*
X0060855Y0094808D02*
X0060087Y0095576D01*
X0058553Y0095576D01*
X0057785Y0094808D01*
X0057785Y0094041D01*
X0060855Y0094041D01*
X0060855Y0093274D02*
X0060855Y0094808D01*
X0060855Y0093274D02*
X0060087Y0092506D01*
X0058553Y0092506D01*
X0056251Y0092506D02*
X0056251Y0095576D01*
X0053949Y0095576D01*
X0053181Y0094808D01*
X0053181Y0092506D01*
X0051647Y0092506D02*
X0049345Y0092506D01*
X0048577Y0093274D01*
X0049345Y0094041D01*
X0050879Y0094041D01*
X0051647Y0094808D01*
X0050879Y0095576D01*
X0048577Y0095576D01*
X0047043Y0094808D02*
X0047043Y0093274D01*
X0046275Y0092506D01*
X0044741Y0092506D01*
X0043973Y0093274D01*
X0043973Y0094808D01*
X0044741Y0095576D01*
X0046275Y0095576D01*
X0047043Y0094808D01*
X0042439Y0094041D02*
X0040904Y0095576D01*
X0040137Y0095576D01*
X0042439Y0095576D02*
X0042439Y0092506D01*
D12*
X0097186Y0092598D02*
X0101678Y0092598D01*
X0101650Y0092550D02*
X0097186Y0092550D01*
X0097186Y0092501D02*
X0101623Y0092501D01*
X0101596Y0092453D02*
X0097186Y0092453D01*
X0097186Y0092404D02*
X0101569Y0092404D01*
X0101541Y0092356D02*
X0097186Y0092356D01*
X0097187Y0092307D02*
X0101514Y0092307D01*
X0101499Y0092281D02*
X0101790Y0092797D01*
X0101964Y0092950D01*
X0102358Y0093188D01*
X0103005Y0093438D01*
X0103255Y0093450D01*
X0103749Y0093408D01*
X0104486Y0093245D01*
X0104584Y0093196D01*
X0107084Y0091757D01*
X0109879Y0090140D01*
X0109947Y0090099D01*
X0110253Y0090274D01*
X0110671Y0090514D01*
X0111267Y0090909D01*
X0111981Y0091537D01*
X0112071Y0091714D01*
X0112174Y0092117D01*
X0112208Y0092672D01*
X0112138Y0092824D01*
X0111871Y0093186D01*
X0111413Y0093674D01*
X0111373Y0093701D01*
X0110875Y0093995D01*
X0109859Y0094588D01*
X0109341Y0094888D01*
X0108003Y0095663D01*
X0106183Y0096720D01*
X0105700Y0097002D01*
X0104777Y0097535D01*
X0103797Y0098094D01*
X0103662Y0098157D01*
X0103286Y0098289D01*
X0102724Y0098450D01*
X0102510Y0098484D01*
X0101902Y0098507D01*
X0101083Y0098484D01*
X0100696Y0098400D01*
X0099930Y0098129D01*
X0103723Y0098129D01*
X0103822Y0098080D02*
X0099832Y0098080D01*
X0099734Y0098032D02*
X0103907Y0098032D01*
X0103992Y0097983D02*
X0099637Y0097983D01*
X0099539Y0097935D02*
X0104077Y0097935D01*
X0104162Y0097886D02*
X0099441Y0097886D01*
X0099343Y0097838D02*
X0104247Y0097838D01*
X0104332Y0097789D02*
X0099245Y0097789D01*
X0099148Y0097741D02*
X0104417Y0097741D01*
X0104502Y0097692D02*
X0099050Y0097692D01*
X0098952Y0097644D02*
X0104587Y0097644D01*
X0104672Y0097595D02*
X0098891Y0097595D01*
X0098930Y0097633D02*
X0098541Y0097259D01*
X0097913Y0096341D01*
X0097201Y0094717D01*
X0097183Y0094568D01*
X0097188Y0091057D01*
X0097218Y0086656D01*
X0097232Y0086159D01*
X0097260Y0085578D01*
X0097399Y0084712D01*
X0097550Y0084331D01*
X0097872Y0083707D01*
X0098493Y0082828D01*
X0098756Y0082603D01*
X0099196Y0082262D01*
X0100226Y0081586D01*
X0100443Y0081462D01*
X0100671Y0081333D01*
X0100899Y0081214D01*
X0101150Y0081051D01*
X0101172Y0081048D01*
X0101213Y0081081D01*
X0101197Y0081882D01*
X0101182Y0084190D01*
X0101183Y0086587D01*
X0101183Y0088980D01*
X0101263Y0091647D01*
X0101327Y0091868D01*
X0101499Y0092281D01*
X0101490Y0092259D02*
X0097187Y0092259D01*
X0097187Y0092210D02*
X0101470Y0092210D01*
X0101450Y0092162D02*
X0097187Y0092162D01*
X0097187Y0092113D02*
X0101429Y0092113D01*
X0101409Y0092065D02*
X0097187Y0092065D01*
X0097187Y0092016D02*
X0101389Y0092016D01*
X0101369Y0091968D02*
X0097187Y0091968D01*
X0097187Y0091919D02*
X0101349Y0091919D01*
X0101328Y0091871D02*
X0097187Y0091871D01*
X0097187Y0091822D02*
X0101314Y0091822D01*
X0101300Y0091774D02*
X0097187Y0091774D01*
X0097187Y0091725D02*
X0101286Y0091725D01*
X0101272Y0091677D02*
X0097187Y0091677D01*
X0097188Y0091628D02*
X0101263Y0091628D01*
X0101261Y0091580D02*
X0097188Y0091580D01*
X0097188Y0091531D02*
X0101260Y0091531D01*
X0101258Y0091483D02*
X0097188Y0091483D01*
X0097188Y0091434D02*
X0101257Y0091434D01*
X0101255Y0091386D02*
X0097188Y0091386D01*
X0097188Y0091337D02*
X0101254Y0091337D01*
X0101253Y0091289D02*
X0097188Y0091289D01*
X0097188Y0091240D02*
X0101251Y0091240D01*
X0101250Y0091192D02*
X0097188Y0091192D01*
X0097188Y0091143D02*
X0101248Y0091143D01*
X0101247Y0091095D02*
X0097188Y0091095D01*
X0097188Y0091046D02*
X0101245Y0091046D01*
X0101244Y0090998D02*
X0097189Y0090998D01*
X0097189Y0090949D02*
X0101242Y0090949D01*
X0101241Y0090901D02*
X0097189Y0090901D01*
X0097190Y0090852D02*
X0101239Y0090852D01*
X0101238Y0090804D02*
X0097190Y0090804D01*
X0097190Y0090755D02*
X0101237Y0090755D01*
X0101235Y0090707D02*
X0097191Y0090707D01*
X0097191Y0090658D02*
X0101234Y0090658D01*
X0101232Y0090610D02*
X0097191Y0090610D01*
X0097192Y0090561D02*
X0101231Y0090561D01*
X0101229Y0090512D02*
X0097192Y0090512D01*
X0097192Y0090464D02*
X0101228Y0090464D01*
X0101226Y0090415D02*
X0097193Y0090415D01*
X0097193Y0090367D02*
X0101225Y0090367D01*
X0101223Y0090318D02*
X0097193Y0090318D01*
X0097194Y0090270D02*
X0101222Y0090270D01*
X0101221Y0090221D02*
X0097194Y0090221D01*
X0097194Y0090173D02*
X0101219Y0090173D01*
X0101218Y0090124D02*
X0097195Y0090124D01*
X0097195Y0090076D02*
X0101216Y0090076D01*
X0101215Y0090027D02*
X0097195Y0090027D01*
X0097196Y0089979D02*
X0101213Y0089979D01*
X0101212Y0089930D02*
X0097196Y0089930D01*
X0097196Y0089882D02*
X0101210Y0089882D01*
X0101209Y0089833D02*
X0097197Y0089833D01*
X0097197Y0089785D02*
X0101207Y0089785D01*
X0101206Y0089736D02*
X0097197Y0089736D01*
X0097198Y0089688D02*
X0101205Y0089688D01*
X0101203Y0089639D02*
X0097198Y0089639D01*
X0097198Y0089591D02*
X0101202Y0089591D01*
X0101200Y0089542D02*
X0097199Y0089542D01*
X0097199Y0089494D02*
X0101199Y0089494D01*
X0101197Y0089445D02*
X0097199Y0089445D01*
X0097200Y0089397D02*
X0101196Y0089397D01*
X0101194Y0089348D02*
X0097200Y0089348D01*
X0097200Y0089300D02*
X0101193Y0089300D01*
X0101191Y0089251D02*
X0097201Y0089251D01*
X0097201Y0089203D02*
X0101190Y0089203D01*
X0101189Y0089154D02*
X0097201Y0089154D01*
X0097202Y0089106D02*
X0101187Y0089106D01*
X0101186Y0089057D02*
X0097202Y0089057D01*
X0097202Y0089009D02*
X0101184Y0089009D01*
X0101183Y0088960D02*
X0097203Y0088960D01*
X0097203Y0088912D02*
X0101183Y0088912D01*
X0101183Y0088863D02*
X0097203Y0088863D01*
X0097204Y0088815D02*
X0101183Y0088815D01*
X0101183Y0088766D02*
X0097204Y0088766D01*
X0097204Y0088718D02*
X0101183Y0088718D01*
X0101183Y0088669D02*
X0097205Y0088669D01*
X0097205Y0088621D02*
X0101183Y0088621D01*
X0101183Y0088572D02*
X0097205Y0088572D01*
X0097206Y0088524D02*
X0101183Y0088524D01*
X0101183Y0088475D02*
X0097206Y0088475D01*
X0097206Y0088427D02*
X0101183Y0088427D01*
X0101183Y0088378D02*
X0097207Y0088378D01*
X0097207Y0088329D02*
X0101183Y0088329D01*
X0101183Y0088281D02*
X0097207Y0088281D01*
X0097208Y0088232D02*
X0101183Y0088232D01*
X0101183Y0088184D02*
X0097208Y0088184D01*
X0097208Y0088135D02*
X0101183Y0088135D01*
X0101183Y0088087D02*
X0097209Y0088087D01*
X0097209Y0088038D02*
X0101183Y0088038D01*
X0101183Y0087990D02*
X0097209Y0087990D01*
X0097210Y0087941D02*
X0101183Y0087941D01*
X0101183Y0087893D02*
X0097210Y0087893D01*
X0097210Y0087844D02*
X0101183Y0087844D01*
X0101183Y0087796D02*
X0097211Y0087796D01*
X0097211Y0087747D02*
X0101183Y0087747D01*
X0101183Y0087699D02*
X0097211Y0087699D01*
X0097212Y0087650D02*
X0101183Y0087650D01*
X0101183Y0087602D02*
X0097212Y0087602D01*
X0097212Y0087553D02*
X0101183Y0087553D01*
X0101183Y0087505D02*
X0097213Y0087505D01*
X0097213Y0087456D02*
X0101183Y0087456D01*
X0101183Y0087408D02*
X0097213Y0087408D01*
X0097213Y0087359D02*
X0101183Y0087359D01*
X0101183Y0087311D02*
X0097214Y0087311D01*
X0097214Y0087262D02*
X0101183Y0087262D01*
X0101183Y0087214D02*
X0097214Y0087214D01*
X0097215Y0087165D02*
X0101183Y0087165D01*
X0101183Y0087117D02*
X0097215Y0087117D01*
X0097215Y0087068D02*
X0101183Y0087068D01*
X0101183Y0087020D02*
X0097216Y0087020D01*
X0097216Y0086971D02*
X0101183Y0086971D01*
X0101183Y0086923D02*
X0097216Y0086923D01*
X0097217Y0086874D02*
X0101183Y0086874D01*
X0101183Y0086826D02*
X0097217Y0086826D01*
X0097217Y0086777D02*
X0101183Y0086777D01*
X0101183Y0086729D02*
X0097218Y0086729D01*
X0097218Y0086680D02*
X0101183Y0086680D01*
X0101183Y0086632D02*
X0097219Y0086632D01*
X0097220Y0086583D02*
X0101183Y0086583D01*
X0101183Y0086535D02*
X0097222Y0086535D01*
X0097223Y0086486D02*
X0101183Y0086486D01*
X0101183Y0086438D02*
X0097224Y0086438D01*
X0097226Y0086389D02*
X0101183Y0086389D01*
X0101183Y0086341D02*
X0097227Y0086341D01*
X0097228Y0086292D02*
X0101183Y0086292D01*
X0101183Y0086243D02*
X0097230Y0086243D01*
X0097231Y0086195D02*
X0101183Y0086195D01*
X0101183Y0086146D02*
X0097233Y0086146D01*
X0097235Y0086098D02*
X0101183Y0086098D01*
X0101183Y0086049D02*
X0097237Y0086049D01*
X0097240Y0086001D02*
X0101183Y0086001D01*
X0101183Y0085952D02*
X0097242Y0085952D01*
X0097244Y0085904D02*
X0101183Y0085904D01*
X0101183Y0085855D02*
X0097247Y0085855D01*
X0097249Y0085807D02*
X0101183Y0085807D01*
X0101183Y0085758D02*
X0097251Y0085758D01*
X0097253Y0085710D02*
X0101183Y0085710D01*
X0101183Y0085661D02*
X0097256Y0085661D01*
X0097258Y0085613D02*
X0101183Y0085613D01*
X0101183Y0085564D02*
X0097262Y0085564D01*
X0097270Y0085516D02*
X0101183Y0085516D01*
X0101183Y0085467D02*
X0097278Y0085467D01*
X0097285Y0085419D02*
X0101183Y0085419D01*
X0101183Y0085370D02*
X0097293Y0085370D01*
X0097301Y0085322D02*
X0101183Y0085322D01*
X0101183Y0085273D02*
X0097309Y0085273D01*
X0097317Y0085225D02*
X0101183Y0085225D01*
X0101183Y0085176D02*
X0097325Y0085176D01*
X0097332Y0085128D02*
X0101183Y0085128D01*
X0101183Y0085079D02*
X0097340Y0085079D01*
X0097348Y0085031D02*
X0101182Y0085031D01*
X0101182Y0084982D02*
X0097356Y0084982D01*
X0097364Y0084934D02*
X0101182Y0084934D01*
X0101182Y0084885D02*
X0097372Y0084885D01*
X0097379Y0084837D02*
X0101182Y0084837D01*
X0101182Y0084788D02*
X0097387Y0084788D01*
X0097395Y0084740D02*
X0101182Y0084740D01*
X0101182Y0084691D02*
X0097408Y0084691D01*
X0097427Y0084643D02*
X0101182Y0084643D01*
X0101182Y0084594D02*
X0097446Y0084594D01*
X0097465Y0084546D02*
X0101182Y0084546D01*
X0101182Y0084497D02*
X0097485Y0084497D01*
X0097504Y0084449D02*
X0101182Y0084449D01*
X0101182Y0084400D02*
X0097523Y0084400D01*
X0097542Y0084352D02*
X0101182Y0084352D01*
X0101182Y0084303D02*
X0097565Y0084303D01*
X0097590Y0084255D02*
X0101182Y0084255D01*
X0101182Y0084206D02*
X0097615Y0084206D01*
X0097640Y0084158D02*
X0101183Y0084158D01*
X0101183Y0084109D02*
X0097665Y0084109D01*
X0097690Y0084060D02*
X0101183Y0084060D01*
X0101183Y0084012D02*
X0097715Y0084012D01*
X0097740Y0083963D02*
X0101184Y0083963D01*
X0101184Y0083915D02*
X0097765Y0083915D01*
X0097790Y0083866D02*
X0101184Y0083866D01*
X0101185Y0083818D02*
X0097815Y0083818D01*
X0097840Y0083769D02*
X0101185Y0083769D01*
X0101185Y0083721D02*
X0097865Y0083721D01*
X0097897Y0083672D02*
X0101186Y0083672D01*
X0101186Y0083624D02*
X0097931Y0083624D01*
X0097965Y0083575D02*
X0101186Y0083575D01*
X0101187Y0083527D02*
X0097999Y0083527D01*
X0098034Y0083478D02*
X0101187Y0083478D01*
X0101187Y0083430D02*
X0098068Y0083430D01*
X0098102Y0083381D02*
X0101188Y0083381D01*
X0101188Y0083333D02*
X0098136Y0083333D01*
X0098170Y0083284D02*
X0101188Y0083284D01*
X0101189Y0083236D02*
X0098205Y0083236D01*
X0098239Y0083187D02*
X0101189Y0083187D01*
X0101189Y0083139D02*
X0098273Y0083139D01*
X0098307Y0083090D02*
X0101189Y0083090D01*
X0101190Y0083042D02*
X0098342Y0083042D01*
X0098376Y0082993D02*
X0101190Y0082993D01*
X0101190Y0082945D02*
X0098410Y0082945D01*
X0098444Y0082896D02*
X0101191Y0082896D01*
X0101191Y0082848D02*
X0098479Y0082848D01*
X0098526Y0082799D02*
X0101191Y0082799D01*
X0101192Y0082751D02*
X0098583Y0082751D01*
X0098640Y0082702D02*
X0101192Y0082702D01*
X0101192Y0082654D02*
X0098696Y0082654D01*
X0098753Y0082605D02*
X0101193Y0082605D01*
X0101193Y0082557D02*
X0098815Y0082557D01*
X0098878Y0082508D02*
X0101193Y0082508D01*
X0101194Y0082460D02*
X0098941Y0082460D01*
X0099003Y0082411D02*
X0101194Y0082411D01*
X0101194Y0082363D02*
X0099066Y0082363D01*
X0099128Y0082314D02*
X0101195Y0082314D01*
X0101195Y0082266D02*
X0099191Y0082266D01*
X0099264Y0082217D02*
X0101195Y0082217D01*
X0101196Y0082169D02*
X0099338Y0082169D01*
X0099412Y0082120D02*
X0101196Y0082120D01*
X0101196Y0082072D02*
X0099486Y0082072D01*
X0099560Y0082023D02*
X0101196Y0082023D01*
X0101197Y0081974D02*
X0099634Y0081974D01*
X0099707Y0081926D02*
X0101197Y0081926D01*
X0101197Y0081877D02*
X0099781Y0081877D01*
X0099855Y0081829D02*
X0101198Y0081829D01*
X0101199Y0081780D02*
X0099929Y0081780D01*
X0100003Y0081732D02*
X0101200Y0081732D01*
X0101201Y0081683D02*
X0100077Y0081683D01*
X0100151Y0081635D02*
X0101202Y0081635D01*
X0101203Y0081586D02*
X0100225Y0081586D01*
X0100310Y0081538D02*
X0101204Y0081538D01*
X0101205Y0081489D02*
X0100395Y0081489D01*
X0100481Y0081441D02*
X0101206Y0081441D01*
X0101207Y0081392D02*
X0100567Y0081392D01*
X0100653Y0081344D02*
X0101208Y0081344D01*
X0101209Y0081295D02*
X0100744Y0081295D01*
X0100837Y0081247D02*
X0101210Y0081247D01*
X0101211Y0081198D02*
X0100923Y0081198D01*
X0100998Y0081150D02*
X0101211Y0081150D01*
X0101212Y0081101D02*
X0101073Y0081101D01*
X0101148Y0081053D02*
X0101177Y0081053D01*
X0102201Y0081295D02*
X0113462Y0081295D01*
X0113380Y0081247D02*
X0102213Y0081247D01*
X0102226Y0081198D02*
X0113297Y0081198D01*
X0113214Y0081150D02*
X0102242Y0081150D01*
X0102229Y0081183D02*
X0102307Y0080981D01*
X0102591Y0080443D01*
X0103020Y0079745D01*
X0103286Y0079451D01*
X0103905Y0078924D01*
X0104834Y0078306D01*
X0105352Y0078156D01*
X0106461Y0078071D01*
X0108224Y0078267D01*
X0108361Y0078326D01*
X0111400Y0080086D01*
X0115196Y0082312D01*
X0115619Y0082572D01*
X0116109Y0082887D01*
X0116788Y0083441D01*
X0117043Y0083762D01*
X0117423Y0084353D01*
X0117874Y0085330D01*
X0117937Y0085670D01*
X0118013Y0086221D01*
X0118083Y0087451D01*
X0118081Y0087702D01*
X0118079Y0087963D01*
X0118068Y0088220D01*
X0118084Y0088519D01*
X0118076Y0088539D01*
X0118027Y0088559D01*
X0117341Y0088145D01*
X0115349Y0086978D01*
X0113273Y0085780D01*
X0111201Y0084584D01*
X0108851Y0083319D01*
X0108628Y0083264D01*
X0108184Y0083207D01*
X0107592Y0083200D01*
X0107372Y0083275D01*
X0106969Y0083497D01*
X0106429Y0083932D01*
X0106294Y0084143D01*
X0106083Y0084592D01*
X0105856Y0085312D01*
X0105849Y0085420D01*
X0105845Y0088306D01*
X0105848Y0091534D01*
X0105850Y0091613D01*
X0105545Y0091791D01*
X0105128Y0092034D01*
X0104488Y0092352D01*
X0103587Y0092656D01*
X0103389Y0092646D01*
X0102989Y0092534D01*
X0102491Y0092285D01*
X0102395Y0092149D01*
X0102214Y0091737D01*
X0102020Y0091096D01*
X0102017Y0091048D01*
X0102012Y0090470D01*
X0102006Y0089293D01*
X0102006Y0088694D01*
X0102003Y0087148D01*
X0101998Y0085043D01*
X0101995Y0084485D01*
X0101995Y0083419D01*
X0102000Y0082291D01*
X0102014Y0082142D01*
X0102088Y0081751D01*
X0102229Y0081183D01*
X0102261Y0081101D02*
X0113131Y0081101D01*
X0113049Y0081053D02*
X0102279Y0081053D01*
X0102298Y0081004D02*
X0112966Y0081004D01*
X0112883Y0080956D02*
X0102320Y0080956D01*
X0102346Y0080907D02*
X0112801Y0080907D01*
X0112718Y0080859D02*
X0102372Y0080859D01*
X0102397Y0080810D02*
X0112635Y0080810D01*
X0112552Y0080762D02*
X0102423Y0080762D01*
X0102448Y0080713D02*
X0112470Y0080713D01*
X0112387Y0080665D02*
X0102474Y0080665D01*
X0102500Y0080616D02*
X0112304Y0080616D01*
X0112222Y0080568D02*
X0102525Y0080568D01*
X0102551Y0080519D02*
X0112139Y0080519D01*
X0112056Y0080471D02*
X0102576Y0080471D01*
X0102604Y0080422D02*
X0111973Y0080422D01*
X0111891Y0080374D02*
X0102634Y0080374D01*
X0102663Y0080325D02*
X0111808Y0080325D01*
X0111725Y0080277D02*
X0102693Y0080277D01*
X0102723Y0080228D02*
X0111643Y0080228D01*
X0111560Y0080180D02*
X0102753Y0080180D01*
X0102783Y0080131D02*
X0111477Y0080131D01*
X0111394Y0080083D02*
X0102813Y0080083D01*
X0102842Y0080034D02*
X0111311Y0080034D01*
X0111227Y0079986D02*
X0102872Y0079986D01*
X0102902Y0079937D02*
X0111143Y0079937D01*
X0111059Y0079889D02*
X0102932Y0079889D01*
X0102962Y0079840D02*
X0110976Y0079840D01*
X0110892Y0079791D02*
X0102991Y0079791D01*
X0103022Y0079743D02*
X0110808Y0079743D01*
X0110724Y0079694D02*
X0103066Y0079694D01*
X0103110Y0079646D02*
X0110641Y0079646D01*
X0110557Y0079597D02*
X0103154Y0079597D01*
X0103198Y0079549D02*
X0110473Y0079549D01*
X0110389Y0079500D02*
X0103242Y0079500D01*
X0103286Y0079452D02*
X0110306Y0079452D01*
X0110222Y0079403D02*
X0103342Y0079403D01*
X0103399Y0079355D02*
X0110138Y0079355D01*
X0110054Y0079306D02*
X0103456Y0079306D01*
X0103513Y0079258D02*
X0109971Y0079258D01*
X0109887Y0079209D02*
X0103570Y0079209D01*
X0103627Y0079161D02*
X0109803Y0079161D01*
X0109719Y0079112D02*
X0103684Y0079112D01*
X0103740Y0079064D02*
X0109636Y0079064D01*
X0109552Y0079015D02*
X0103797Y0079015D01*
X0103854Y0078967D02*
X0109468Y0078967D01*
X0109384Y0078918D02*
X0103913Y0078918D01*
X0103986Y0078870D02*
X0109301Y0078870D01*
X0109217Y0078821D02*
X0104059Y0078821D01*
X0104132Y0078773D02*
X0109133Y0078773D01*
X0109050Y0078724D02*
X0104205Y0078724D01*
X0104278Y0078676D02*
X0108966Y0078676D01*
X0108882Y0078627D02*
X0104351Y0078627D01*
X0104424Y0078579D02*
X0108798Y0078579D01*
X0108715Y0078530D02*
X0104497Y0078530D01*
X0104570Y0078482D02*
X0108631Y0078482D01*
X0108547Y0078433D02*
X0104643Y0078433D01*
X0104716Y0078385D02*
X0108463Y0078385D01*
X0108380Y0078336D02*
X0104789Y0078336D01*
X0104897Y0078288D02*
X0108273Y0078288D01*
X0107975Y0078239D02*
X0105064Y0078239D01*
X0105232Y0078191D02*
X0107537Y0078191D01*
X0107100Y0078142D02*
X0105531Y0078142D01*
X0106168Y0078094D02*
X0106662Y0078094D01*
X0102189Y0081344D02*
X0113545Y0081344D01*
X0113628Y0081392D02*
X0102177Y0081392D01*
X0102165Y0081441D02*
X0113711Y0081441D01*
X0113793Y0081489D02*
X0102153Y0081489D01*
X0102141Y0081538D02*
X0113876Y0081538D01*
X0113959Y0081586D02*
X0102129Y0081586D01*
X0102117Y0081635D02*
X0114041Y0081635D01*
X0114124Y0081683D02*
X0102105Y0081683D01*
X0102092Y0081732D02*
X0114207Y0081732D01*
X0114290Y0081780D02*
X0102082Y0081780D01*
X0102073Y0081829D02*
X0114372Y0081829D01*
X0114455Y0081877D02*
X0102064Y0081877D01*
X0102055Y0081926D02*
X0114538Y0081926D01*
X0114620Y0081974D02*
X0102045Y0081974D01*
X0102036Y0082023D02*
X0114703Y0082023D01*
X0114786Y0082072D02*
X0102027Y0082072D01*
X0102018Y0082120D02*
X0114869Y0082120D01*
X0114951Y0082169D02*
X0102011Y0082169D01*
X0102007Y0082217D02*
X0115034Y0082217D01*
X0115117Y0082266D02*
X0102003Y0082266D01*
X0102000Y0082314D02*
X0115199Y0082314D01*
X0115278Y0082363D02*
X0102000Y0082363D01*
X0102000Y0082411D02*
X0115357Y0082411D01*
X0115436Y0082460D02*
X0102000Y0082460D01*
X0101999Y0082508D02*
X0115515Y0082508D01*
X0115594Y0082557D02*
X0101999Y0082557D01*
X0101999Y0082605D02*
X0115670Y0082605D01*
X0115746Y0082654D02*
X0101999Y0082654D01*
X0101998Y0082702D02*
X0115821Y0082702D01*
X0115897Y0082751D02*
X0101998Y0082751D01*
X0101998Y0082799D02*
X0115972Y0082799D01*
X0116048Y0082848D02*
X0101998Y0082848D01*
X0101997Y0082896D02*
X0116120Y0082896D01*
X0116180Y0082945D02*
X0101997Y0082945D01*
X0101997Y0082993D02*
X0116239Y0082993D01*
X0116299Y0083042D02*
X0101997Y0083042D01*
X0101997Y0083090D02*
X0116358Y0083090D01*
X0116418Y0083139D02*
X0101996Y0083139D01*
X0101996Y0083187D02*
X0116478Y0083187D01*
X0116537Y0083236D02*
X0108407Y0083236D01*
X0108709Y0083284D02*
X0116597Y0083284D01*
X0116656Y0083333D02*
X0108876Y0083333D01*
X0108966Y0083381D02*
X0116716Y0083381D01*
X0116775Y0083430D02*
X0109056Y0083430D01*
X0109146Y0083478D02*
X0116818Y0083478D01*
X0116857Y0083527D02*
X0109236Y0083527D01*
X0109327Y0083575D02*
X0116895Y0083575D01*
X0116934Y0083624D02*
X0109417Y0083624D01*
X0109507Y0083672D02*
X0116972Y0083672D01*
X0117011Y0083721D02*
X0109597Y0083721D01*
X0109687Y0083769D02*
X0117048Y0083769D01*
X0117079Y0083818D02*
X0109777Y0083818D01*
X0109867Y0083866D02*
X0117111Y0083866D01*
X0117142Y0083915D02*
X0109958Y0083915D01*
X0110048Y0083963D02*
X0117173Y0083963D01*
X0117204Y0084012D02*
X0110138Y0084012D01*
X0110228Y0084060D02*
X0117235Y0084060D01*
X0117266Y0084109D02*
X0110318Y0084109D01*
X0110408Y0084158D02*
X0117298Y0084158D01*
X0117329Y0084206D02*
X0110499Y0084206D01*
X0110589Y0084255D02*
X0117360Y0084255D01*
X0117391Y0084303D02*
X0110679Y0084303D01*
X0110769Y0084352D02*
X0117422Y0084352D01*
X0117445Y0084400D02*
X0110859Y0084400D01*
X0110949Y0084449D02*
X0117467Y0084449D01*
X0117490Y0084497D02*
X0111039Y0084497D01*
X0111130Y0084546D02*
X0117512Y0084546D01*
X0117534Y0084594D02*
X0111219Y0084594D01*
X0111303Y0084643D02*
X0117557Y0084643D01*
X0117579Y0084691D02*
X0111387Y0084691D01*
X0111471Y0084740D02*
X0117602Y0084740D01*
X0117624Y0084788D02*
X0111555Y0084788D01*
X0111639Y0084837D02*
X0117646Y0084837D01*
X0117669Y0084885D02*
X0111723Y0084885D01*
X0111807Y0084934D02*
X0117691Y0084934D01*
X0117714Y0084982D02*
X0111891Y0084982D01*
X0111975Y0085031D02*
X0117736Y0085031D01*
X0117758Y0085079D02*
X0112059Y0085079D01*
X0112143Y0085128D02*
X0117781Y0085128D01*
X0117803Y0085176D02*
X0112227Y0085176D01*
X0112311Y0085225D02*
X0117826Y0085225D01*
X0117848Y0085273D02*
X0112395Y0085273D01*
X0112479Y0085322D02*
X0117870Y0085322D01*
X0117882Y0085370D02*
X0112564Y0085370D01*
X0112648Y0085419D02*
X0117891Y0085419D01*
X0117900Y0085467D02*
X0112732Y0085467D01*
X0112816Y0085516D02*
X0117909Y0085516D01*
X0117918Y0085564D02*
X0112900Y0085564D01*
X0112984Y0085613D02*
X0117927Y0085613D01*
X0117936Y0085661D02*
X0113068Y0085661D01*
X0113152Y0085710D02*
X0117943Y0085710D01*
X0117949Y0085758D02*
X0113236Y0085758D01*
X0113320Y0085807D02*
X0117956Y0085807D01*
X0117963Y0085855D02*
X0113404Y0085855D01*
X0113488Y0085904D02*
X0117969Y0085904D01*
X0117976Y0085952D02*
X0113572Y0085952D01*
X0113656Y0086001D02*
X0117982Y0086001D01*
X0117989Y0086049D02*
X0113741Y0086049D01*
X0113825Y0086098D02*
X0117996Y0086098D01*
X0118002Y0086146D02*
X0113909Y0086146D01*
X0113993Y0086195D02*
X0118009Y0086195D01*
X0118014Y0086243D02*
X0114077Y0086243D01*
X0114161Y0086292D02*
X0118017Y0086292D01*
X0118019Y0086341D02*
X0114245Y0086341D01*
X0114329Y0086389D02*
X0118022Y0086389D01*
X0118025Y0086438D02*
X0114413Y0086438D01*
X0114497Y0086486D02*
X0118028Y0086486D01*
X0118031Y0086535D02*
X0114581Y0086535D01*
X0114665Y0086583D02*
X0118033Y0086583D01*
X0118036Y0086632D02*
X0114749Y0086632D01*
X0114833Y0086680D02*
X0118039Y0086680D01*
X0118042Y0086729D02*
X0114918Y0086729D01*
X0115002Y0086777D02*
X0118044Y0086777D01*
X0118047Y0086826D02*
X0115086Y0086826D01*
X0115170Y0086874D02*
X0118050Y0086874D01*
X0118053Y0086923D02*
X0115254Y0086923D01*
X0115338Y0086971D02*
X0118056Y0086971D01*
X0118058Y0087020D02*
X0115421Y0087020D01*
X0115504Y0087068D02*
X0118061Y0087068D01*
X0118064Y0087117D02*
X0115586Y0087117D01*
X0115669Y0087165D02*
X0118067Y0087165D01*
X0118070Y0087214D02*
X0115752Y0087214D01*
X0115835Y0087262D02*
X0118072Y0087262D01*
X0118075Y0087311D02*
X0115917Y0087311D01*
X0116000Y0087359D02*
X0118078Y0087359D01*
X0118081Y0087408D02*
X0116083Y0087408D01*
X0116166Y0087456D02*
X0118083Y0087456D01*
X0118083Y0087505D02*
X0116249Y0087505D01*
X0116331Y0087553D02*
X0118082Y0087553D01*
X0118082Y0087602D02*
X0116414Y0087602D01*
X0116497Y0087650D02*
X0118082Y0087650D01*
X0118081Y0087699D02*
X0116580Y0087699D01*
X0116662Y0087747D02*
X0118081Y0087747D01*
X0118081Y0087796D02*
X0116745Y0087796D01*
X0116828Y0087844D02*
X0118080Y0087844D01*
X0118080Y0087893D02*
X0116911Y0087893D01*
X0116993Y0087941D02*
X0118079Y0087941D01*
X0118078Y0087990D02*
X0117076Y0087990D01*
X0117159Y0088038D02*
X0118076Y0088038D01*
X0118074Y0088087D02*
X0117242Y0088087D01*
X0117325Y0088135D02*
X0118072Y0088135D01*
X0118070Y0088184D02*
X0117405Y0088184D01*
X0117486Y0088232D02*
X0118069Y0088232D01*
X0118071Y0088281D02*
X0117566Y0088281D01*
X0117647Y0088329D02*
X0118074Y0088329D01*
X0118077Y0088378D02*
X0117727Y0088378D01*
X0117807Y0088427D02*
X0118079Y0088427D01*
X0118082Y0088475D02*
X0117888Y0088475D01*
X0117968Y0088524D02*
X0118082Y0088524D01*
X0117472Y0089203D02*
X0110110Y0089203D01*
X0110193Y0089251D02*
X0117522Y0089251D01*
X0117573Y0089300D02*
X0110277Y0089300D01*
X0110361Y0089348D02*
X0117623Y0089348D01*
X0117664Y0089388D02*
X0117243Y0088982D01*
X0116941Y0088722D01*
X0116819Y0088636D01*
X0115845Y0088067D01*
X0114922Y0087534D01*
X0114437Y0087257D01*
X0112611Y0086210D01*
X0111271Y0085439D01*
X0110752Y0085140D01*
X0109730Y0084556D01*
X0109227Y0084272D01*
X0109184Y0084251D01*
X0108532Y0084098D01*
X0108085Y0084048D01*
X0107918Y0084064D01*
X0107454Y0084370D01*
X0107157Y0084661D01*
X0107049Y0084827D01*
X0106862Y0085759D01*
X0106818Y0086473D01*
X0106819Y0086956D01*
X0106821Y0087308D01*
X0106890Y0087347D01*
X0109688Y0088958D01*
X0112184Y0090404D01*
X0112275Y0090464D01*
X0118337Y0090464D01*
X0118363Y0090512D02*
X0112319Y0090512D01*
X0112275Y0090464D02*
X0112785Y0091021D01*
X0113069Y0091428D01*
X0113184Y0091651D01*
X0113290Y0092336D01*
X0113281Y0092796D01*
X0113236Y0093023D01*
X0112934Y0093533D01*
X0112662Y0093888D01*
X0112503Y0094054D01*
X0110233Y0095457D01*
X0108161Y0096654D01*
X0106086Y0097853D01*
X0104079Y0098994D01*
X0103377Y0099381D01*
X0103370Y0099433D01*
X0103384Y0099450D01*
X0103650Y0099586D01*
X0103867Y0099724D01*
X0104092Y0099857D01*
X0104308Y0099984D01*
X0105409Y0100538D01*
X0105924Y0100748D01*
X0106251Y0100863D01*
X0107322Y0100961D01*
X0108024Y0100928D01*
X0108429Y0100868D01*
X0109249Y0100556D01*
X0109766Y0100289D01*
X0110203Y0100053D01*
X0114029Y0097878D01*
X0117073Y0096127D01*
X0117192Y0096037D01*
X0118243Y0094608D01*
X0118724Y0093606D01*
X0118853Y0093082D01*
X0118783Y0091968D01*
X0113233Y0091968D01*
X0113241Y0092016D02*
X0118786Y0092016D01*
X0118783Y0091968D02*
X0118635Y0091169D01*
X0118514Y0090792D01*
X0118124Y0090071D01*
X0117800Y0089556D01*
X0117664Y0089388D01*
X0117671Y0089397D02*
X0110445Y0089397D01*
X0110529Y0089445D02*
X0117710Y0089445D01*
X0117750Y0089494D02*
X0110612Y0089494D01*
X0110696Y0089542D02*
X0117789Y0089542D01*
X0117822Y0089591D02*
X0110780Y0089591D01*
X0110864Y0089639D02*
X0117852Y0089639D01*
X0117883Y0089688D02*
X0110947Y0089688D01*
X0111031Y0089736D02*
X0117913Y0089736D01*
X0117944Y0089785D02*
X0111115Y0089785D01*
X0111199Y0089833D02*
X0117974Y0089833D01*
X0118005Y0089882D02*
X0111282Y0089882D01*
X0111366Y0089930D02*
X0118035Y0089930D01*
X0118066Y0089979D02*
X0111450Y0089979D01*
X0111534Y0090027D02*
X0118096Y0090027D01*
X0118127Y0090076D02*
X0111617Y0090076D01*
X0111701Y0090124D02*
X0118153Y0090124D01*
X0118179Y0090173D02*
X0111785Y0090173D01*
X0111869Y0090221D02*
X0118205Y0090221D01*
X0118232Y0090270D02*
X0111952Y0090270D01*
X0112036Y0090318D02*
X0118258Y0090318D01*
X0118284Y0090367D02*
X0112120Y0090367D01*
X0112201Y0090415D02*
X0118310Y0090415D01*
X0118389Y0090561D02*
X0112364Y0090561D01*
X0112408Y0090610D02*
X0118415Y0090610D01*
X0118442Y0090658D02*
X0112453Y0090658D01*
X0112497Y0090707D02*
X0118468Y0090707D01*
X0118494Y0090755D02*
X0112542Y0090755D01*
X0112586Y0090804D02*
X0118518Y0090804D01*
X0118533Y0090852D02*
X0112630Y0090852D01*
X0112675Y0090901D02*
X0118549Y0090901D01*
X0118565Y0090949D02*
X0112719Y0090949D01*
X0112764Y0090998D02*
X0118580Y0090998D01*
X0118596Y0091046D02*
X0112803Y0091046D01*
X0112837Y0091095D02*
X0118611Y0091095D01*
X0118627Y0091143D02*
X0112870Y0091143D01*
X0112904Y0091192D02*
X0118639Y0091192D01*
X0118648Y0091240D02*
X0112938Y0091240D01*
X0112972Y0091289D02*
X0118657Y0091289D01*
X0118666Y0091337D02*
X0113005Y0091337D01*
X0113039Y0091386D02*
X0118675Y0091386D01*
X0118684Y0091434D02*
X0113072Y0091434D01*
X0113097Y0091483D02*
X0118693Y0091483D01*
X0118702Y0091531D02*
X0113122Y0091531D01*
X0113147Y0091580D02*
X0118711Y0091580D01*
X0118720Y0091628D02*
X0113172Y0091628D01*
X0113188Y0091677D02*
X0118729Y0091677D01*
X0118738Y0091725D02*
X0113195Y0091725D01*
X0113203Y0091774D02*
X0118747Y0091774D01*
X0118756Y0091822D02*
X0113210Y0091822D01*
X0113218Y0091871D02*
X0118765Y0091871D01*
X0118774Y0091919D02*
X0113225Y0091919D01*
X0113248Y0092065D02*
X0118789Y0092065D01*
X0118792Y0092113D02*
X0113256Y0092113D01*
X0113263Y0092162D02*
X0118795Y0092162D01*
X0118798Y0092210D02*
X0113271Y0092210D01*
X0113278Y0092259D02*
X0118801Y0092259D01*
X0118804Y0092307D02*
X0113286Y0092307D01*
X0113290Y0092356D02*
X0118807Y0092356D01*
X0118811Y0092404D02*
X0113289Y0092404D01*
X0113288Y0092453D02*
X0118814Y0092453D01*
X0118817Y0092501D02*
X0113287Y0092501D01*
X0113286Y0092550D02*
X0118820Y0092550D01*
X0118823Y0092598D02*
X0113285Y0092598D01*
X0113284Y0092647D02*
X0118826Y0092647D01*
X0118829Y0092695D02*
X0113283Y0092695D01*
X0113282Y0092744D02*
X0118832Y0092744D01*
X0118835Y0092793D02*
X0113281Y0092793D01*
X0113272Y0092841D02*
X0118838Y0092841D01*
X0118841Y0092890D02*
X0113263Y0092890D01*
X0113253Y0092938D02*
X0118844Y0092938D01*
X0118847Y0092987D02*
X0113243Y0092987D01*
X0113229Y0093035D02*
X0118850Y0093035D01*
X0118853Y0093084D02*
X0113200Y0093084D01*
X0113172Y0093132D02*
X0118841Y0093132D01*
X0118829Y0093181D02*
X0113143Y0093181D01*
X0113114Y0093229D02*
X0118817Y0093229D01*
X0118805Y0093278D02*
X0113085Y0093278D01*
X0113057Y0093326D02*
X0118793Y0093326D01*
X0118781Y0093375D02*
X0113028Y0093375D01*
X0112999Y0093423D02*
X0118769Y0093423D01*
X0118757Y0093472D02*
X0112970Y0093472D01*
X0112942Y0093520D02*
X0118746Y0093520D01*
X0118734Y0093569D02*
X0112907Y0093569D01*
X0112870Y0093617D02*
X0118719Y0093617D01*
X0118696Y0093666D02*
X0112833Y0093666D01*
X0112796Y0093714D02*
X0118672Y0093714D01*
X0118649Y0093763D02*
X0112758Y0093763D01*
X0112721Y0093811D02*
X0118626Y0093811D01*
X0118603Y0093860D02*
X0112684Y0093860D01*
X0112643Y0093908D02*
X0118579Y0093908D01*
X0118556Y0093957D02*
X0112597Y0093957D01*
X0112550Y0094005D02*
X0118533Y0094005D01*
X0118509Y0094054D02*
X0112504Y0094054D01*
X0112425Y0094102D02*
X0118486Y0094102D01*
X0118463Y0094151D02*
X0112347Y0094151D01*
X0112268Y0094199D02*
X0118440Y0094199D01*
X0118416Y0094248D02*
X0112190Y0094248D01*
X0112111Y0094296D02*
X0118393Y0094296D01*
X0118370Y0094345D02*
X0112033Y0094345D01*
X0111954Y0094393D02*
X0118346Y0094393D01*
X0118323Y0094442D02*
X0111876Y0094442D01*
X0111797Y0094490D02*
X0118300Y0094490D01*
X0118277Y0094539D02*
X0111719Y0094539D01*
X0111640Y0094587D02*
X0118253Y0094587D01*
X0118223Y0094636D02*
X0111562Y0094636D01*
X0111483Y0094684D02*
X0118187Y0094684D01*
X0118152Y0094733D02*
X0111405Y0094733D01*
X0111326Y0094781D02*
X0118116Y0094781D01*
X0118080Y0094830D02*
X0111248Y0094830D01*
X0111169Y0094879D02*
X0118045Y0094879D01*
X0118009Y0094927D02*
X0111091Y0094927D01*
X0111012Y0094976D02*
X0117973Y0094976D01*
X0117938Y0095024D02*
X0110934Y0095024D01*
X0110855Y0095073D02*
X0117902Y0095073D01*
X0117866Y0095121D02*
X0110777Y0095121D01*
X0110698Y0095170D02*
X0117831Y0095170D01*
X0117795Y0095218D02*
X0110620Y0095218D01*
X0110541Y0095267D02*
X0117759Y0095267D01*
X0117724Y0095315D02*
X0110463Y0095315D01*
X0110384Y0095364D02*
X0117688Y0095364D01*
X0117652Y0095412D02*
X0110306Y0095412D01*
X0110227Y0095461D02*
X0117617Y0095461D01*
X0117581Y0095509D02*
X0110143Y0095509D01*
X0110059Y0095558D02*
X0117545Y0095558D01*
X0117510Y0095606D02*
X0109975Y0095606D01*
X0109891Y0095655D02*
X0117474Y0095655D01*
X0117438Y0095703D02*
X0109807Y0095703D01*
X0109723Y0095752D02*
X0117403Y0095752D01*
X0117367Y0095800D02*
X0109639Y0095800D01*
X0109555Y0095849D02*
X0117331Y0095849D01*
X0117296Y0095897D02*
X0109471Y0095897D01*
X0109387Y0095946D02*
X0117260Y0095946D01*
X0117224Y0095994D02*
X0109303Y0095994D01*
X0109219Y0096043D02*
X0117185Y0096043D01*
X0117121Y0096091D02*
X0109135Y0096091D01*
X0109051Y0096140D02*
X0117051Y0096140D01*
X0116966Y0096188D02*
X0108967Y0096188D01*
X0108883Y0096237D02*
X0116882Y0096237D01*
X0116798Y0096285D02*
X0108799Y0096285D01*
X0108715Y0096334D02*
X0116713Y0096334D01*
X0116629Y0096382D02*
X0108631Y0096382D01*
X0108547Y0096431D02*
X0116545Y0096431D01*
X0116461Y0096479D02*
X0108463Y0096479D01*
X0108379Y0096528D02*
X0116376Y0096528D01*
X0116292Y0096576D02*
X0108295Y0096576D01*
X0108211Y0096625D02*
X0116208Y0096625D01*
X0116123Y0096673D02*
X0108127Y0096673D01*
X0108043Y0096722D02*
X0116039Y0096722D01*
X0115955Y0096770D02*
X0107959Y0096770D01*
X0107875Y0096819D02*
X0115870Y0096819D01*
X0115786Y0096867D02*
X0107791Y0096867D01*
X0107707Y0096916D02*
X0115702Y0096916D01*
X0115618Y0096964D02*
X0107623Y0096964D01*
X0107539Y0097013D02*
X0115533Y0097013D01*
X0115449Y0097062D02*
X0107456Y0097062D01*
X0107372Y0097110D02*
X0115365Y0097110D01*
X0115280Y0097159D02*
X0107288Y0097159D01*
X0107204Y0097207D02*
X0115196Y0097207D01*
X0115112Y0097256D02*
X0107120Y0097256D01*
X0107036Y0097304D02*
X0115027Y0097304D01*
X0114943Y0097353D02*
X0106952Y0097353D01*
X0106868Y0097401D02*
X0114859Y0097401D01*
X0114774Y0097450D02*
X0106784Y0097450D01*
X0106700Y0097498D02*
X0114690Y0097498D01*
X0114606Y0097547D02*
X0106616Y0097547D01*
X0106532Y0097595D02*
X0114522Y0097595D01*
X0114437Y0097644D02*
X0106448Y0097644D01*
X0106364Y0097692D02*
X0114353Y0097692D01*
X0114269Y0097741D02*
X0106280Y0097741D01*
X0106196Y0097789D02*
X0114184Y0097789D01*
X0114100Y0097838D02*
X0106112Y0097838D01*
X0106027Y0097886D02*
X0114016Y0097886D01*
X0113930Y0097935D02*
X0105942Y0097935D01*
X0105856Y0097983D02*
X0113845Y0097983D01*
X0113759Y0098032D02*
X0105771Y0098032D01*
X0105686Y0098080D02*
X0113674Y0098080D01*
X0113589Y0098129D02*
X0105600Y0098129D01*
X0105515Y0098177D02*
X0113503Y0098177D01*
X0113418Y0098226D02*
X0105430Y0098226D01*
X0105345Y0098274D02*
X0113333Y0098274D01*
X0113247Y0098323D02*
X0105259Y0098323D01*
X0105174Y0098371D02*
X0113162Y0098371D01*
X0113077Y0098420D02*
X0105089Y0098420D01*
X0105003Y0098468D02*
X0112991Y0098468D01*
X0112906Y0098517D02*
X0104918Y0098517D01*
X0104833Y0098565D02*
X0112820Y0098565D01*
X0112735Y0098614D02*
X0104747Y0098614D01*
X0104662Y0098662D02*
X0112650Y0098662D01*
X0112564Y0098711D02*
X0104577Y0098711D01*
X0104491Y0098759D02*
X0112479Y0098759D01*
X0112394Y0098808D02*
X0104406Y0098808D01*
X0104321Y0098856D02*
X0112308Y0098856D01*
X0112223Y0098905D02*
X0104236Y0098905D01*
X0104150Y0098953D02*
X0112138Y0098953D01*
X0112052Y0099002D02*
X0104064Y0099002D01*
X0103977Y0099050D02*
X0111967Y0099050D01*
X0111882Y0099099D02*
X0103889Y0099099D01*
X0103801Y0099148D02*
X0111796Y0099148D01*
X0111711Y0099196D02*
X0103713Y0099196D01*
X0103625Y0099245D02*
X0111625Y0099245D01*
X0111540Y0099293D02*
X0103537Y0099293D01*
X0103449Y0099342D02*
X0111455Y0099342D01*
X0111369Y0099390D02*
X0103376Y0099390D01*
X0103374Y0099439D02*
X0111284Y0099439D01*
X0111199Y0099487D02*
X0103455Y0099487D01*
X0103551Y0099536D02*
X0111113Y0099536D01*
X0111028Y0099584D02*
X0103646Y0099584D01*
X0103723Y0099633D02*
X0110943Y0099633D01*
X0110857Y0099681D02*
X0103800Y0099681D01*
X0103877Y0099730D02*
X0110772Y0099730D01*
X0110687Y0099778D02*
X0103959Y0099778D01*
X0104041Y0099827D02*
X0110601Y0099827D01*
X0110516Y0099875D02*
X0104124Y0099875D01*
X0104206Y0099924D02*
X0110430Y0099924D01*
X0110345Y0099972D02*
X0104289Y0099972D01*
X0104382Y0100021D02*
X0110260Y0100021D01*
X0110173Y0100069D02*
X0104479Y0100069D01*
X0104575Y0100118D02*
X0110083Y0100118D01*
X0109994Y0100166D02*
X0104671Y0100166D01*
X0104768Y0100215D02*
X0109904Y0100215D01*
X0109814Y0100263D02*
X0104864Y0100263D01*
X0104961Y0100312D02*
X0109722Y0100312D01*
X0109628Y0100360D02*
X0105057Y0100360D01*
X0105153Y0100409D02*
X0109534Y0100409D01*
X0109440Y0100457D02*
X0105250Y0100457D01*
X0105346Y0100506D02*
X0109346Y0100506D01*
X0109252Y0100554D02*
X0105450Y0100554D01*
X0105569Y0100603D02*
X0109126Y0100603D01*
X0108998Y0100651D02*
X0105688Y0100651D01*
X0105806Y0100700D02*
X0108871Y0100700D01*
X0108743Y0100748D02*
X0105925Y0100748D01*
X0106062Y0100797D02*
X0108616Y0100797D01*
X0108488Y0100845D02*
X0106200Y0100845D01*
X0106585Y0100894D02*
X0108253Y0100894D01*
X0107719Y0100942D02*
X0107117Y0100942D01*
X0102828Y0098420D02*
X0100785Y0098420D01*
X0100614Y0098371D02*
X0102998Y0098371D01*
X0103167Y0098323D02*
X0100477Y0098323D01*
X0100340Y0098274D02*
X0103327Y0098274D01*
X0103466Y0098226D02*
X0100203Y0098226D01*
X0100067Y0098177D02*
X0103604Y0098177D01*
X0102607Y0098468D02*
X0101010Y0098468D01*
X0099930Y0098129D02*
X0098930Y0097633D01*
X0098840Y0097547D02*
X0104757Y0097547D01*
X0104841Y0097498D02*
X0098790Y0097498D01*
X0098739Y0097450D02*
X0104925Y0097450D01*
X0105009Y0097401D02*
X0098689Y0097401D01*
X0098638Y0097353D02*
X0105093Y0097353D01*
X0105177Y0097304D02*
X0098588Y0097304D01*
X0098538Y0097256D02*
X0105261Y0097256D01*
X0105345Y0097207D02*
X0098505Y0097207D01*
X0098472Y0097159D02*
X0105429Y0097159D01*
X0105513Y0097110D02*
X0098439Y0097110D01*
X0098406Y0097062D02*
X0105597Y0097062D01*
X0105681Y0097013D02*
X0098373Y0097013D01*
X0098339Y0096964D02*
X0105764Y0096964D01*
X0105847Y0096916D02*
X0098306Y0096916D01*
X0098273Y0096867D02*
X0105930Y0096867D01*
X0106013Y0096819D02*
X0098240Y0096819D01*
X0098207Y0096770D02*
X0106097Y0096770D01*
X0106180Y0096722D02*
X0098174Y0096722D01*
X0098140Y0096673D02*
X0106263Y0096673D01*
X0106347Y0096625D02*
X0098107Y0096625D01*
X0098074Y0096576D02*
X0106430Y0096576D01*
X0106514Y0096528D02*
X0098041Y0096528D01*
X0098008Y0096479D02*
X0106597Y0096479D01*
X0106681Y0096431D02*
X0097975Y0096431D01*
X0097941Y0096382D02*
X0106764Y0096382D01*
X0106848Y0096334D02*
X0097910Y0096334D01*
X0097889Y0096285D02*
X0106931Y0096285D01*
X0107015Y0096237D02*
X0097868Y0096237D01*
X0097846Y0096188D02*
X0107098Y0096188D01*
X0107182Y0096140D02*
X0097825Y0096140D01*
X0097804Y0096091D02*
X0107266Y0096091D01*
X0107349Y0096043D02*
X0097782Y0096043D01*
X0097761Y0095994D02*
X0107433Y0095994D01*
X0107516Y0095946D02*
X0097740Y0095946D01*
X0097719Y0095897D02*
X0107600Y0095897D01*
X0107683Y0095849D02*
X0097697Y0095849D01*
X0097676Y0095800D02*
X0107767Y0095800D01*
X0107850Y0095752D02*
X0097655Y0095752D01*
X0097634Y0095703D02*
X0107934Y0095703D01*
X0108017Y0095655D02*
X0097612Y0095655D01*
X0097591Y0095606D02*
X0108101Y0095606D01*
X0108185Y0095558D02*
X0097570Y0095558D01*
X0097549Y0095509D02*
X0108268Y0095509D01*
X0108352Y0095461D02*
X0097527Y0095461D01*
X0097506Y0095412D02*
X0108436Y0095412D01*
X0108520Y0095364D02*
X0097485Y0095364D01*
X0097463Y0095315D02*
X0108603Y0095315D01*
X0108687Y0095267D02*
X0097442Y0095267D01*
X0097421Y0095218D02*
X0108771Y0095218D01*
X0108854Y0095170D02*
X0097400Y0095170D01*
X0097378Y0095121D02*
X0108938Y0095121D01*
X0109022Y0095073D02*
X0097357Y0095073D01*
X0097336Y0095024D02*
X0109105Y0095024D01*
X0109189Y0094976D02*
X0097315Y0094976D01*
X0097293Y0094927D02*
X0109273Y0094927D01*
X0109357Y0094879D02*
X0097272Y0094879D01*
X0097251Y0094830D02*
X0109441Y0094830D01*
X0109524Y0094781D02*
X0097229Y0094781D01*
X0097208Y0094733D02*
X0109608Y0094733D01*
X0109692Y0094684D02*
X0097197Y0094684D01*
X0097191Y0094636D02*
X0109776Y0094636D01*
X0109860Y0094587D02*
X0097186Y0094587D01*
X0097183Y0094539D02*
X0109943Y0094539D01*
X0110026Y0094490D02*
X0097183Y0094490D01*
X0097183Y0094442D02*
X0110109Y0094442D01*
X0110192Y0094393D02*
X0097184Y0094393D01*
X0097184Y0094345D02*
X0110275Y0094345D01*
X0110359Y0094296D02*
X0097184Y0094296D01*
X0097184Y0094248D02*
X0110442Y0094248D01*
X0110525Y0094199D02*
X0097184Y0094199D01*
X0097184Y0094151D02*
X0110608Y0094151D01*
X0110691Y0094102D02*
X0097184Y0094102D01*
X0097184Y0094054D02*
X0110774Y0094054D01*
X0110857Y0094005D02*
X0097184Y0094005D01*
X0097184Y0093957D02*
X0110939Y0093957D01*
X0111022Y0093908D02*
X0097184Y0093908D01*
X0097184Y0093860D02*
X0111104Y0093860D01*
X0111186Y0093811D02*
X0097184Y0093811D01*
X0097184Y0093763D02*
X0111268Y0093763D01*
X0111351Y0093714D02*
X0097185Y0093714D01*
X0097185Y0093666D02*
X0111421Y0093666D01*
X0111467Y0093617D02*
X0097185Y0093617D01*
X0097185Y0093569D02*
X0111512Y0093569D01*
X0111558Y0093520D02*
X0097185Y0093520D01*
X0097185Y0093472D02*
X0111603Y0093472D01*
X0111649Y0093423D02*
X0103573Y0093423D01*
X0103900Y0093375D02*
X0111694Y0093375D01*
X0111740Y0093326D02*
X0104119Y0093326D01*
X0104338Y0093278D02*
X0111785Y0093278D01*
X0111831Y0093229D02*
X0104518Y0093229D01*
X0104611Y0093181D02*
X0111875Y0093181D01*
X0111911Y0093132D02*
X0104695Y0093132D01*
X0104779Y0093084D02*
X0111947Y0093084D01*
X0111982Y0093035D02*
X0104864Y0093035D01*
X0104948Y0092987D02*
X0112018Y0092987D01*
X0112054Y0092938D02*
X0105032Y0092938D01*
X0105116Y0092890D02*
X0112090Y0092890D01*
X0112125Y0092841D02*
X0105201Y0092841D01*
X0105285Y0092793D02*
X0112152Y0092793D01*
X0112175Y0092744D02*
X0105369Y0092744D01*
X0105454Y0092695D02*
X0112197Y0092695D01*
X0112206Y0092647D02*
X0105538Y0092647D01*
X0105622Y0092598D02*
X0112203Y0092598D01*
X0112200Y0092550D02*
X0105706Y0092550D01*
X0105791Y0092501D02*
X0112198Y0092501D01*
X0112195Y0092453D02*
X0105875Y0092453D01*
X0105959Y0092404D02*
X0112192Y0092404D01*
X0112189Y0092356D02*
X0106044Y0092356D01*
X0106128Y0092307D02*
X0112186Y0092307D01*
X0112183Y0092259D02*
X0106212Y0092259D01*
X0106296Y0092210D02*
X0112180Y0092210D01*
X0112177Y0092162D02*
X0106381Y0092162D01*
X0106465Y0092113D02*
X0112173Y0092113D01*
X0112161Y0092065D02*
X0106549Y0092065D01*
X0106634Y0092016D02*
X0112148Y0092016D01*
X0112136Y0091968D02*
X0106718Y0091968D01*
X0106802Y0091919D02*
X0112123Y0091919D01*
X0112111Y0091871D02*
X0106887Y0091871D01*
X0106971Y0091822D02*
X0112099Y0091822D01*
X0112086Y0091774D02*
X0107055Y0091774D01*
X0107139Y0091725D02*
X0112074Y0091725D01*
X0112052Y0091677D02*
X0107223Y0091677D01*
X0107307Y0091628D02*
X0112027Y0091628D01*
X0112003Y0091580D02*
X0107391Y0091580D01*
X0107474Y0091531D02*
X0111974Y0091531D01*
X0111919Y0091483D02*
X0107558Y0091483D01*
X0107642Y0091434D02*
X0111864Y0091434D01*
X0111809Y0091386D02*
X0107726Y0091386D01*
X0107810Y0091337D02*
X0111754Y0091337D01*
X0111698Y0091289D02*
X0107894Y0091289D01*
X0107977Y0091240D02*
X0111643Y0091240D01*
X0111588Y0091192D02*
X0108061Y0091192D01*
X0108145Y0091143D02*
X0111533Y0091143D01*
X0111478Y0091095D02*
X0108229Y0091095D01*
X0108313Y0091046D02*
X0111423Y0091046D01*
X0111367Y0090998D02*
X0108397Y0090998D01*
X0108480Y0090949D02*
X0111312Y0090949D01*
X0111254Y0090901D02*
X0108564Y0090901D01*
X0108648Y0090852D02*
X0111181Y0090852D01*
X0111108Y0090804D02*
X0108732Y0090804D01*
X0108816Y0090755D02*
X0111035Y0090755D01*
X0110961Y0090707D02*
X0108900Y0090707D01*
X0108984Y0090658D02*
X0110888Y0090658D01*
X0110815Y0090610D02*
X0109067Y0090610D01*
X0109151Y0090561D02*
X0110742Y0090561D01*
X0110669Y0090512D02*
X0109235Y0090512D01*
X0109319Y0090464D02*
X0110584Y0090464D01*
X0110499Y0090415D02*
X0109403Y0090415D01*
X0109487Y0090367D02*
X0110415Y0090367D01*
X0110330Y0090318D02*
X0109570Y0090318D01*
X0109654Y0090270D02*
X0110245Y0090270D01*
X0110160Y0090221D02*
X0109738Y0090221D01*
X0109822Y0090173D02*
X0110076Y0090173D01*
X0109991Y0090124D02*
X0109905Y0090124D01*
X0110026Y0089154D02*
X0117422Y0089154D01*
X0117372Y0089106D02*
X0109942Y0089106D01*
X0109858Y0089057D02*
X0117321Y0089057D01*
X0117271Y0089009D02*
X0109775Y0089009D01*
X0109691Y0088960D02*
X0117218Y0088960D01*
X0117162Y0088912D02*
X0109607Y0088912D01*
X0109523Y0088863D02*
X0117105Y0088863D01*
X0117049Y0088815D02*
X0109438Y0088815D01*
X0109354Y0088766D02*
X0116993Y0088766D01*
X0116935Y0088718D02*
X0109270Y0088718D01*
X0109186Y0088669D02*
X0116866Y0088669D01*
X0116793Y0088621D02*
X0109101Y0088621D01*
X0109017Y0088572D02*
X0116710Y0088572D01*
X0116627Y0088524D02*
X0108933Y0088524D01*
X0108849Y0088475D02*
X0116544Y0088475D01*
X0116461Y0088427D02*
X0108765Y0088427D01*
X0108680Y0088378D02*
X0116377Y0088378D01*
X0116294Y0088329D02*
X0108596Y0088329D01*
X0108512Y0088281D02*
X0116211Y0088281D01*
X0116128Y0088232D02*
X0108428Y0088232D01*
X0108344Y0088184D02*
X0116045Y0088184D01*
X0115962Y0088135D02*
X0108259Y0088135D01*
X0108175Y0088087D02*
X0115879Y0088087D01*
X0115795Y0088038D02*
X0108091Y0088038D01*
X0108007Y0087990D02*
X0115711Y0087990D01*
X0115627Y0087941D02*
X0107923Y0087941D01*
X0107838Y0087893D02*
X0115543Y0087893D01*
X0115459Y0087844D02*
X0107754Y0087844D01*
X0107670Y0087796D02*
X0115375Y0087796D01*
X0115291Y0087747D02*
X0107586Y0087747D01*
X0107501Y0087699D02*
X0115207Y0087699D01*
X0115123Y0087650D02*
X0107417Y0087650D01*
X0107333Y0087602D02*
X0115039Y0087602D01*
X0114954Y0087553D02*
X0107249Y0087553D01*
X0107165Y0087505D02*
X0114870Y0087505D01*
X0114785Y0087456D02*
X0107080Y0087456D01*
X0106996Y0087408D02*
X0114700Y0087408D01*
X0114615Y0087359D02*
X0106912Y0087359D01*
X0106825Y0087311D02*
X0114530Y0087311D01*
X0114445Y0087262D02*
X0106820Y0087262D01*
X0106820Y0087214D02*
X0114361Y0087214D01*
X0114276Y0087165D02*
X0106820Y0087165D01*
X0106820Y0087117D02*
X0114192Y0087117D01*
X0114107Y0087068D02*
X0106820Y0087068D01*
X0106820Y0087020D02*
X0114022Y0087020D01*
X0113938Y0086971D02*
X0106819Y0086971D01*
X0106819Y0086923D02*
X0113853Y0086923D01*
X0113769Y0086874D02*
X0106819Y0086874D01*
X0106819Y0086826D02*
X0113684Y0086826D01*
X0113600Y0086777D02*
X0106819Y0086777D01*
X0106819Y0086729D02*
X0113515Y0086729D01*
X0113431Y0086680D02*
X0106818Y0086680D01*
X0106818Y0086632D02*
X0113346Y0086632D01*
X0113262Y0086583D02*
X0106818Y0086583D01*
X0106818Y0086535D02*
X0113177Y0086535D01*
X0113093Y0086486D02*
X0106818Y0086486D01*
X0106820Y0086438D02*
X0113008Y0086438D01*
X0112924Y0086389D02*
X0106823Y0086389D01*
X0106826Y0086341D02*
X0112839Y0086341D01*
X0112755Y0086292D02*
X0106829Y0086292D01*
X0106832Y0086243D02*
X0112670Y0086243D01*
X0112586Y0086195D02*
X0106835Y0086195D01*
X0106838Y0086146D02*
X0112501Y0086146D01*
X0112417Y0086098D02*
X0106841Y0086098D01*
X0106844Y0086049D02*
X0112333Y0086049D01*
X0112248Y0086001D02*
X0106847Y0086001D01*
X0106850Y0085952D02*
X0112164Y0085952D01*
X0112079Y0085904D02*
X0106853Y0085904D01*
X0106856Y0085855D02*
X0111995Y0085855D01*
X0111911Y0085807D02*
X0106859Y0085807D01*
X0106862Y0085758D02*
X0111826Y0085758D01*
X0111742Y0085710D02*
X0106872Y0085710D01*
X0106882Y0085661D02*
X0111658Y0085661D01*
X0111573Y0085613D02*
X0106892Y0085613D01*
X0106901Y0085564D02*
X0111489Y0085564D01*
X0111405Y0085516D02*
X0106911Y0085516D01*
X0106921Y0085467D02*
X0111320Y0085467D01*
X0111236Y0085419D02*
X0106930Y0085419D01*
X0106940Y0085370D02*
X0111152Y0085370D01*
X0111068Y0085322D02*
X0106950Y0085322D01*
X0106960Y0085273D02*
X0110984Y0085273D01*
X0110900Y0085225D02*
X0106969Y0085225D01*
X0106979Y0085176D02*
X0110815Y0085176D01*
X0110731Y0085128D02*
X0106989Y0085128D01*
X0106998Y0085079D02*
X0110646Y0085079D01*
X0110561Y0085031D02*
X0107008Y0085031D01*
X0107018Y0084982D02*
X0110476Y0084982D01*
X0110391Y0084934D02*
X0107028Y0084934D01*
X0107037Y0084885D02*
X0110306Y0084885D01*
X0110221Y0084837D02*
X0107047Y0084837D01*
X0107074Y0084788D02*
X0110136Y0084788D01*
X0110051Y0084740D02*
X0107106Y0084740D01*
X0107138Y0084691D02*
X0109966Y0084691D01*
X0109881Y0084643D02*
X0107176Y0084643D01*
X0107226Y0084594D02*
X0109796Y0084594D01*
X0109711Y0084546D02*
X0107275Y0084546D01*
X0107325Y0084497D02*
X0109625Y0084497D01*
X0109539Y0084449D02*
X0107374Y0084449D01*
X0107424Y0084400D02*
X0109453Y0084400D01*
X0109367Y0084352D02*
X0107483Y0084352D01*
X0107556Y0084303D02*
X0109282Y0084303D01*
X0109192Y0084255D02*
X0107629Y0084255D01*
X0107703Y0084206D02*
X0108993Y0084206D01*
X0108785Y0084158D02*
X0107776Y0084158D01*
X0107850Y0084109D02*
X0108578Y0084109D01*
X0108195Y0084060D02*
X0107952Y0084060D01*
X0107487Y0083236D02*
X0101996Y0083236D01*
X0101996Y0083284D02*
X0107354Y0083284D01*
X0107266Y0083333D02*
X0101995Y0083333D01*
X0101995Y0083381D02*
X0107178Y0083381D01*
X0107090Y0083430D02*
X0101995Y0083430D01*
X0101995Y0083478D02*
X0107002Y0083478D01*
X0106932Y0083527D02*
X0101995Y0083527D01*
X0101995Y0083575D02*
X0106871Y0083575D01*
X0106811Y0083624D02*
X0101995Y0083624D01*
X0101995Y0083672D02*
X0106751Y0083672D01*
X0106691Y0083721D02*
X0101995Y0083721D01*
X0101995Y0083769D02*
X0106631Y0083769D01*
X0106571Y0083818D02*
X0101995Y0083818D01*
X0101995Y0083866D02*
X0106510Y0083866D01*
X0106450Y0083915D02*
X0101995Y0083915D01*
X0101995Y0083963D02*
X0106409Y0083963D01*
X0106378Y0084012D02*
X0101995Y0084012D01*
X0101995Y0084060D02*
X0106347Y0084060D01*
X0106315Y0084109D02*
X0101995Y0084109D01*
X0101995Y0084158D02*
X0106287Y0084158D01*
X0106264Y0084206D02*
X0101995Y0084206D01*
X0101995Y0084255D02*
X0106241Y0084255D01*
X0106218Y0084303D02*
X0101995Y0084303D01*
X0101995Y0084352D02*
X0106196Y0084352D01*
X0106173Y0084400D02*
X0101995Y0084400D01*
X0101995Y0084449D02*
X0106150Y0084449D01*
X0106127Y0084497D02*
X0101995Y0084497D01*
X0101996Y0084546D02*
X0106105Y0084546D01*
X0106082Y0084594D02*
X0101996Y0084594D01*
X0101996Y0084643D02*
X0106067Y0084643D01*
X0106052Y0084691D02*
X0101996Y0084691D01*
X0101996Y0084740D02*
X0106036Y0084740D01*
X0106021Y0084788D02*
X0101997Y0084788D01*
X0101997Y0084837D02*
X0106006Y0084837D01*
X0105990Y0084885D02*
X0101997Y0084885D01*
X0101997Y0084934D02*
X0105975Y0084934D01*
X0105960Y0084982D02*
X0101998Y0084982D01*
X0101998Y0085031D02*
X0105945Y0085031D01*
X0105929Y0085079D02*
X0101998Y0085079D01*
X0101998Y0085128D02*
X0105914Y0085128D01*
X0105899Y0085176D02*
X0101998Y0085176D01*
X0101998Y0085225D02*
X0105883Y0085225D01*
X0105868Y0085273D02*
X0101998Y0085273D01*
X0101999Y0085322D02*
X0105855Y0085322D01*
X0105852Y0085370D02*
X0101999Y0085370D01*
X0101999Y0085419D02*
X0105849Y0085419D01*
X0105849Y0085467D02*
X0101999Y0085467D01*
X0101999Y0085516D02*
X0105849Y0085516D01*
X0105849Y0085564D02*
X0101999Y0085564D01*
X0101999Y0085613D02*
X0105849Y0085613D01*
X0105849Y0085661D02*
X0101999Y0085661D01*
X0102000Y0085710D02*
X0105849Y0085710D01*
X0105849Y0085758D02*
X0102000Y0085758D01*
X0102000Y0085807D02*
X0105849Y0085807D01*
X0105849Y0085855D02*
X0102000Y0085855D01*
X0102000Y0085904D02*
X0105849Y0085904D01*
X0105849Y0085952D02*
X0102000Y0085952D01*
X0102000Y0086001D02*
X0105848Y0086001D01*
X0105848Y0086049D02*
X0102000Y0086049D01*
X0102001Y0086098D02*
X0105848Y0086098D01*
X0105848Y0086146D02*
X0102001Y0086146D01*
X0102001Y0086195D02*
X0105848Y0086195D01*
X0105848Y0086243D02*
X0102001Y0086243D01*
X0102001Y0086292D02*
X0105848Y0086292D01*
X0105848Y0086341D02*
X0102001Y0086341D01*
X0102001Y0086389D02*
X0105848Y0086389D01*
X0105848Y0086438D02*
X0102001Y0086438D01*
X0102002Y0086486D02*
X0105848Y0086486D01*
X0105848Y0086535D02*
X0102002Y0086535D01*
X0102002Y0086583D02*
X0105848Y0086583D01*
X0105848Y0086632D02*
X0102002Y0086632D01*
X0102002Y0086680D02*
X0105848Y0086680D01*
X0105847Y0086729D02*
X0102002Y0086729D01*
X0102002Y0086777D02*
X0105847Y0086777D01*
X0105847Y0086826D02*
X0102002Y0086826D01*
X0102003Y0086874D02*
X0105847Y0086874D01*
X0105847Y0086923D02*
X0102003Y0086923D01*
X0102003Y0086971D02*
X0105847Y0086971D01*
X0105847Y0087020D02*
X0102003Y0087020D01*
X0102003Y0087068D02*
X0105847Y0087068D01*
X0105847Y0087117D02*
X0102003Y0087117D01*
X0102003Y0087165D02*
X0105847Y0087165D01*
X0105847Y0087214D02*
X0102003Y0087214D01*
X0102003Y0087262D02*
X0105847Y0087262D01*
X0105847Y0087311D02*
X0102004Y0087311D01*
X0102004Y0087359D02*
X0105847Y0087359D01*
X0105847Y0087408D02*
X0102004Y0087408D01*
X0102004Y0087456D02*
X0105846Y0087456D01*
X0105846Y0087505D02*
X0102004Y0087505D01*
X0102004Y0087553D02*
X0105846Y0087553D01*
X0105846Y0087602D02*
X0102004Y0087602D01*
X0102004Y0087650D02*
X0105846Y0087650D01*
X0105846Y0087699D02*
X0102004Y0087699D01*
X0102004Y0087747D02*
X0105846Y0087747D01*
X0105846Y0087796D02*
X0102004Y0087796D01*
X0102004Y0087844D02*
X0105846Y0087844D01*
X0105846Y0087893D02*
X0102005Y0087893D01*
X0102005Y0087941D02*
X0105846Y0087941D01*
X0105846Y0087990D02*
X0102005Y0087990D01*
X0102005Y0088038D02*
X0105846Y0088038D01*
X0105846Y0088087D02*
X0102005Y0088087D01*
X0102005Y0088135D02*
X0105846Y0088135D01*
X0105845Y0088184D02*
X0102005Y0088184D01*
X0102005Y0088232D02*
X0105845Y0088232D01*
X0105845Y0088281D02*
X0102005Y0088281D01*
X0102005Y0088329D02*
X0105845Y0088329D01*
X0105845Y0088378D02*
X0102005Y0088378D01*
X0102005Y0088427D02*
X0105845Y0088427D01*
X0105845Y0088475D02*
X0102005Y0088475D01*
X0102006Y0088524D02*
X0105846Y0088524D01*
X0105846Y0088572D02*
X0102006Y0088572D01*
X0102006Y0088621D02*
X0105846Y0088621D01*
X0105846Y0088669D02*
X0102006Y0088669D01*
X0102006Y0088718D02*
X0105846Y0088718D01*
X0105846Y0088766D02*
X0102006Y0088766D01*
X0102006Y0088815D02*
X0105846Y0088815D01*
X0105846Y0088863D02*
X0102006Y0088863D01*
X0102006Y0088912D02*
X0105846Y0088912D01*
X0105846Y0088960D02*
X0102006Y0088960D01*
X0102006Y0089009D02*
X0105846Y0089009D01*
X0105846Y0089057D02*
X0102006Y0089057D01*
X0102006Y0089106D02*
X0105846Y0089106D01*
X0105846Y0089154D02*
X0102006Y0089154D01*
X0102006Y0089203D02*
X0105846Y0089203D01*
X0105846Y0089251D02*
X0102006Y0089251D01*
X0102006Y0089300D02*
X0105846Y0089300D01*
X0105846Y0089348D02*
X0102006Y0089348D01*
X0102007Y0089397D02*
X0105846Y0089397D01*
X0105846Y0089445D02*
X0102007Y0089445D01*
X0102007Y0089494D02*
X0105846Y0089494D01*
X0105847Y0089542D02*
X0102007Y0089542D01*
X0102008Y0089591D02*
X0105847Y0089591D01*
X0105847Y0089639D02*
X0102008Y0089639D01*
X0102008Y0089688D02*
X0105847Y0089688D01*
X0105847Y0089736D02*
X0102008Y0089736D01*
X0102009Y0089785D02*
X0105847Y0089785D01*
X0105847Y0089833D02*
X0102009Y0089833D01*
X0102009Y0089882D02*
X0105847Y0089882D01*
X0105847Y0089930D02*
X0102009Y0089930D01*
X0102010Y0089979D02*
X0105847Y0089979D01*
X0105847Y0090027D02*
X0102010Y0090027D01*
X0102010Y0090076D02*
X0105847Y0090076D01*
X0105847Y0090124D02*
X0102010Y0090124D01*
X0102010Y0090173D02*
X0105847Y0090173D01*
X0105847Y0090221D02*
X0102011Y0090221D01*
X0102011Y0090270D02*
X0105847Y0090270D01*
X0105847Y0090318D02*
X0102011Y0090318D01*
X0102011Y0090367D02*
X0105847Y0090367D01*
X0105847Y0090415D02*
X0102012Y0090415D01*
X0102012Y0090464D02*
X0105847Y0090464D01*
X0105847Y0090512D02*
X0102012Y0090512D01*
X0102013Y0090561D02*
X0105847Y0090561D01*
X0105848Y0090610D02*
X0102013Y0090610D01*
X0102014Y0090658D02*
X0105848Y0090658D01*
X0105848Y0090707D02*
X0102014Y0090707D01*
X0102015Y0090755D02*
X0105848Y0090755D01*
X0105848Y0090804D02*
X0102015Y0090804D01*
X0102016Y0090852D02*
X0105848Y0090852D01*
X0105848Y0090901D02*
X0102016Y0090901D01*
X0102016Y0090949D02*
X0105848Y0090949D01*
X0105848Y0090998D02*
X0102017Y0090998D01*
X0102017Y0091046D02*
X0105848Y0091046D01*
X0105848Y0091095D02*
X0102020Y0091095D01*
X0102035Y0091143D02*
X0105848Y0091143D01*
X0105848Y0091192D02*
X0102049Y0091192D01*
X0102064Y0091240D02*
X0105848Y0091240D01*
X0105848Y0091289D02*
X0102079Y0091289D01*
X0102093Y0091337D02*
X0105848Y0091337D01*
X0105848Y0091386D02*
X0102108Y0091386D01*
X0102123Y0091434D02*
X0105848Y0091434D01*
X0105848Y0091483D02*
X0102138Y0091483D01*
X0102152Y0091531D02*
X0105848Y0091531D01*
X0105849Y0091580D02*
X0102167Y0091580D01*
X0102182Y0091628D02*
X0105825Y0091628D01*
X0105741Y0091677D02*
X0102196Y0091677D01*
X0102211Y0091725D02*
X0105658Y0091725D01*
X0105575Y0091774D02*
X0102231Y0091774D01*
X0102252Y0091822D02*
X0105491Y0091822D01*
X0105408Y0091871D02*
X0102273Y0091871D01*
X0102294Y0091919D02*
X0105325Y0091919D01*
X0105241Y0091968D02*
X0102315Y0091968D01*
X0102337Y0092016D02*
X0105158Y0092016D01*
X0105065Y0092065D02*
X0102358Y0092065D01*
X0102379Y0092113D02*
X0104968Y0092113D01*
X0104870Y0092162D02*
X0102404Y0092162D01*
X0102438Y0092210D02*
X0104773Y0092210D01*
X0104675Y0092259D02*
X0102473Y0092259D01*
X0102535Y0092307D02*
X0104577Y0092307D01*
X0104476Y0092356D02*
X0102633Y0092356D01*
X0102730Y0092404D02*
X0104333Y0092404D01*
X0104189Y0092453D02*
X0102827Y0092453D01*
X0102924Y0092501D02*
X0104046Y0092501D01*
X0103902Y0092550D02*
X0103047Y0092550D01*
X0103221Y0092598D02*
X0103758Y0092598D01*
X0103615Y0092647D02*
X0103416Y0092647D01*
X0102965Y0093423D02*
X0097185Y0093423D01*
X0097185Y0093375D02*
X0102840Y0093375D01*
X0102714Y0093326D02*
X0097185Y0093326D01*
X0097185Y0093278D02*
X0102589Y0093278D01*
X0102463Y0093229D02*
X0097185Y0093229D01*
X0097185Y0093181D02*
X0102345Y0093181D01*
X0102265Y0093132D02*
X0097185Y0093132D01*
X0097185Y0093084D02*
X0102184Y0093084D01*
X0102104Y0093035D02*
X0097186Y0093035D01*
X0097186Y0092987D02*
X0102024Y0092987D01*
X0101950Y0092938D02*
X0097186Y0092938D01*
X0097186Y0092890D02*
X0101895Y0092890D01*
X0101839Y0092841D02*
X0097186Y0092841D01*
X0097186Y0092793D02*
X0101787Y0092793D01*
X0101760Y0092744D02*
X0097186Y0092744D01*
X0097186Y0092695D02*
X0101732Y0092695D01*
X0101705Y0092647D02*
X0097186Y0092647D01*
D13*
X0100902Y0076937D02*
X0100902Y0076570D01*
X0100535Y0076203D02*
X0100535Y0074368D01*
X0100902Y0074001D01*
X0101635Y0074001D01*
X0102002Y0074368D01*
X0102002Y0076203D01*
X0101635Y0076570D02*
X0101635Y0076937D01*
X0102744Y0076203D02*
X0102744Y0074001D01*
X0104212Y0074001D02*
X0104212Y0076203D01*
X0103478Y0075469D01*
X0102744Y0076203D01*
X0099793Y0076203D02*
X0098325Y0074001D01*
X0098325Y0076203D01*
X0097583Y0075836D02*
X0097583Y0074368D01*
X0097216Y0074001D01*
X0096482Y0074001D01*
X0096115Y0074368D01*
X0095373Y0074001D02*
X0095373Y0076203D01*
X0096115Y0075836D02*
X0096482Y0076203D01*
X0097216Y0076203D01*
X0097583Y0075836D01*
X0099793Y0076203D02*
X0099793Y0074001D01*
X0095373Y0075102D02*
X0093905Y0075102D01*
X0093163Y0075102D02*
X0092429Y0075102D01*
X0091695Y0076203D02*
X0093163Y0076203D01*
X0093163Y0074001D01*
X0091695Y0074001D01*
X0090953Y0074001D02*
X0090953Y0076203D01*
X0089485Y0074001D01*
X0089485Y0076203D01*
X0093905Y0076203D02*
X0093905Y0074001D01*
X0107164Y0074368D02*
X0107531Y0074001D01*
X0108632Y0074001D01*
X0108632Y0076203D01*
X0107531Y0076203D01*
X0107164Y0075836D01*
X0107164Y0075469D01*
X0107531Y0075102D01*
X0108632Y0075102D01*
X0109374Y0075102D02*
X0110842Y0075102D01*
X0110842Y0075469D02*
X0110108Y0076203D01*
X0109374Y0075469D01*
X0109374Y0074001D01*
X0110842Y0074001D02*
X0110842Y0075469D01*
X0111584Y0074001D02*
X0113052Y0074001D01*
X0113052Y0076203D01*
X0113794Y0075836D02*
X0113794Y0075469D01*
X0114161Y0075102D01*
X0115262Y0075102D01*
X0116004Y0075102D02*
X0117472Y0075102D01*
X0117472Y0075469D02*
X0116738Y0076203D01*
X0116004Y0075469D01*
X0116004Y0074001D01*
X0115262Y0074001D02*
X0114161Y0074001D01*
X0113794Y0074368D01*
X0113794Y0074735D01*
X0114161Y0075102D01*
X0113794Y0075836D02*
X0114161Y0076203D01*
X0115262Y0076203D01*
X0115262Y0074001D01*
X0117472Y0074001D02*
X0117472Y0075469D01*
X0118214Y0076203D02*
X0119681Y0076203D01*
X0119681Y0074001D01*
X0119681Y0075102D02*
X0118948Y0075102D01*
X0107531Y0075102D02*
X0107164Y0074735D01*
X0107164Y0074368D01*
D14*
X0052906Y0076401D03*
X0052906Y0086401D03*
X0052906Y0066401D03*
D15*
X0050031Y0028276D03*
X0056031Y0028276D03*
X0062031Y0028276D03*
D16*
X0156282Y0028497D03*
X0156282Y0032434D03*
X0156282Y0036371D03*
X0156282Y0040308D03*
X0156282Y0044245D03*
X0156282Y0048182D03*
X0156282Y0061450D03*
X0156282Y0065387D03*
X0156282Y0069324D03*
X0156282Y0073261D03*
X0156282Y0077198D03*
X0156282Y0081135D03*
X0156282Y0085072D03*
X0156282Y0089009D03*
X0156282Y0092946D03*
X0156282Y0096883D03*
X0156282Y0100820D03*
X0156282Y0024560D03*
D17*
X0033358Y0024187D02*
X0018232Y0024187D01*
X0018232Y0026321D01*
X0033358Y0026321D01*
X0033358Y0024187D01*
X0033358Y0025608D02*
X0018232Y0025608D01*
X0018232Y0028124D02*
X0033358Y0028124D01*
X0018232Y0028124D02*
X0018232Y0030258D01*
X0033358Y0030258D01*
X0033358Y0028124D01*
X0033358Y0029545D02*
X0018232Y0029545D01*
X0018232Y0032061D02*
X0033358Y0032061D01*
X0018232Y0032061D02*
X0018232Y0034195D01*
X0033358Y0034195D01*
X0033358Y0032061D01*
X0033358Y0033482D02*
X0018232Y0033482D01*
X0018232Y0035998D02*
X0033358Y0035998D01*
X0018232Y0035998D02*
X0018232Y0038132D01*
X0033358Y0038132D01*
X0033358Y0035998D01*
X0033358Y0037419D02*
X0018232Y0037419D01*
X0018232Y0039935D02*
X0033358Y0039935D01*
X0018232Y0039935D02*
X0018232Y0042069D01*
X0033358Y0042069D01*
X0033358Y0039935D01*
X0033358Y0041356D02*
X0018232Y0041356D01*
X0018232Y0043872D02*
X0033358Y0043872D01*
X0018232Y0043872D02*
X0018232Y0046006D01*
X0033358Y0046006D01*
X0033358Y0043872D01*
X0033358Y0045293D02*
X0018232Y0045293D01*
X0018232Y0047809D02*
X0033358Y0047809D01*
X0018232Y0047809D02*
X0018232Y0049943D01*
X0033358Y0049943D01*
X0033358Y0047809D01*
X0033358Y0049230D02*
X0018232Y0049230D01*
X0018232Y0059620D02*
X0033358Y0059620D01*
X0018232Y0059620D02*
X0018232Y0061754D01*
X0033358Y0061754D01*
X0033358Y0059620D01*
X0033358Y0061041D02*
X0018232Y0061041D01*
X0018232Y0063557D02*
X0033358Y0063557D01*
X0018232Y0063557D02*
X0018232Y0065691D01*
X0033358Y0065691D01*
X0033358Y0063557D01*
X0033358Y0064978D02*
X0018232Y0064978D01*
X0018232Y0067494D02*
X0033358Y0067494D01*
X0018232Y0067494D02*
X0018232Y0069628D01*
X0033358Y0069628D01*
X0033358Y0067494D01*
X0033358Y0068915D02*
X0018232Y0068915D01*
X0018232Y0071431D02*
X0033358Y0071431D01*
X0018232Y0071431D02*
X0018232Y0073565D01*
X0033358Y0073565D01*
X0033358Y0071431D01*
X0033358Y0072852D02*
X0018232Y0072852D01*
X0018232Y0075368D02*
X0033358Y0075368D01*
X0018232Y0075368D02*
X0018232Y0077502D01*
X0033358Y0077502D01*
X0033358Y0075368D01*
X0033358Y0076789D02*
X0018232Y0076789D01*
X0018232Y0079305D02*
X0033358Y0079305D01*
X0018232Y0079305D02*
X0018232Y0081439D01*
X0033358Y0081439D01*
X0033358Y0079305D01*
X0033358Y0080726D02*
X0018232Y0080726D01*
X0018232Y0083242D02*
X0033358Y0083242D01*
X0018232Y0083242D02*
X0018232Y0085376D01*
X0033358Y0085376D01*
X0033358Y0083242D01*
X0033358Y0084663D02*
X0018232Y0084663D01*
X0018232Y0087179D02*
X0033358Y0087179D01*
X0018232Y0087179D02*
X0018232Y0089313D01*
X0033358Y0089313D01*
X0033358Y0087179D01*
X0033358Y0088600D02*
X0018232Y0088600D01*
X0018232Y0091116D02*
X0033358Y0091116D01*
X0018232Y0091116D02*
X0018232Y0093250D01*
X0033358Y0093250D01*
X0033358Y0091116D01*
X0033358Y0092537D02*
X0018232Y0092537D01*
X0018232Y0095053D02*
X0033358Y0095053D01*
X0018232Y0095053D02*
X0018232Y0097187D01*
X0033358Y0097187D01*
X0033358Y0095053D01*
X0033358Y0096474D02*
X0018232Y0096474D01*
X0018232Y0098990D02*
X0033358Y0098990D01*
X0018232Y0098990D02*
X0018232Y0101124D01*
X0033358Y0101124D01*
X0033358Y0098990D01*
X0033358Y0100411D02*
X0018232Y0100411D01*
D18*
X0094156Y0067651D03*
X0114156Y0047651D03*
X0134156Y0067651D03*
X0134156Y0027651D03*
X0094156Y0027651D03*
D19*
X0071031Y0025776D03*
X0056656Y0030151D03*
X0046031Y0027651D03*
X0041656Y0033276D03*
X0037281Y0032026D03*
X0037281Y0037026D03*
X0036031Y0042026D03*
X0041031Y0043901D03*
X0049156Y0047026D03*
X0055406Y0060776D03*
X0046656Y0067651D03*
X0041656Y0063276D03*
X0036656Y0064526D03*
X0059781Y0072026D03*
X0072281Y0077026D03*
X0073531Y0068276D03*
X0086031Y0065151D03*
X0109156Y0066401D03*
X0124781Y0067026D03*
X0139781Y0073901D03*
X0144156Y0068276D03*
X0144781Y0060151D03*
X0147281Y0057026D03*
X0156031Y0055151D03*
X0143531Y0045776D03*
X0144781Y0042026D03*
X0144156Y0033901D03*
X0144156Y0030151D03*
X0127906Y0038276D03*
X0124781Y0042651D03*
X0129156Y0057651D03*
X0134781Y0080151D03*
X0145406Y0080151D03*
X0139156Y0090151D03*
X0135406Y0097651D03*
X0074156Y0087651D03*
X0037906Y0090776D03*
X0037906Y0098276D03*
M02*
