%
M48
M72
T01C0.01200
T02C0.03600
T03C0.05100
%
T01
X37906Y98276
X37906Y90776
X46031Y27651
X41656Y33276
X37281Y32026
X37281Y37026
X36031Y42026
X41031Y43901
X49156Y47026
X55406Y60776
X46656Y67651
X41656Y63276
X36656Y64526
X59781Y72026
X72281Y77026
X73531Y68276
X86031Y65151
X109156Y66401
X124781Y67026
X139781Y73901
X144156Y68276
X144781Y60151
X147281Y57026
X156031Y55151
X143531Y45776
X144781Y42026
X144156Y33901
X144156Y30151
X127906Y38276
X124781Y42651
X129156Y57651
X134781Y80151
X145406Y80151
X139156Y90151
X135406Y97651
X74156Y87651
X56656Y30151
X71031Y25776
T02
X52906Y66401
X52906Y76401
X52906Y86401
T03
X94156Y27651
X114156Y47651
X94156Y67651
X134156Y67651
X134156Y27651
M30
