G75*
%MOIN*%
%OFA0B0*%
%FSLAX25Y25*%
%IPPOS*%
%LPD*%
%AMOC8*
5,1,8,0,0,1.08239X$1,22.5*
%
%ADD10C,0.00000*%
%ADD11R,0.06706X0.05918*%
%ADD12R,0.05918X0.06706*%
%ADD13R,0.07099X0.07887*%
%ADD14R,0.07887X0.07099*%
%ADD15R,0.04737X0.02375*%
%ADD16C,0.07800*%
%ADD17R,0.16548X0.03753*%
%ADD18C,0.01422*%
%ADD19C,0.08450*%
%ADD20C,0.03600*%
D10*
X0011031Y0023276D02*
X0164078Y0023276D01*
X0164078Y0102026D01*
X0011031Y0102026D01*
X0011228Y0101238D02*
X0012409Y0102026D01*
X0033276Y0102026D01*
X0011228Y0101238D02*
X0011228Y0059900D01*
X0012409Y0058719D01*
X0033276Y0058719D01*
X0033472Y0058719D02*
X0041740Y0058719D01*
X0041864Y0058717D01*
X0041987Y0058711D01*
X0042111Y0058702D01*
X0042233Y0058688D01*
X0042356Y0058671D01*
X0042478Y0058649D01*
X0042599Y0058624D01*
X0042719Y0058595D01*
X0042838Y0058563D01*
X0042957Y0058526D01*
X0043074Y0058486D01*
X0043189Y0058443D01*
X0043304Y0058395D01*
X0043416Y0058344D01*
X0043527Y0058290D01*
X0043637Y0058232D01*
X0043744Y0058171D01*
X0043850Y0058106D01*
X0043953Y0058038D01*
X0044054Y0057967D01*
X0044153Y0057893D01*
X0044250Y0057816D01*
X0044344Y0057735D01*
X0044435Y0057652D01*
X0044524Y0057566D01*
X0044610Y0057477D01*
X0044693Y0057386D01*
X0044774Y0057292D01*
X0044851Y0057195D01*
X0044925Y0057096D01*
X0044996Y0056995D01*
X0045064Y0056892D01*
X0045129Y0056786D01*
X0045190Y0056679D01*
X0045248Y0056569D01*
X0045302Y0056458D01*
X0045353Y0056346D01*
X0045401Y0056231D01*
X0045444Y0056116D01*
X0045484Y0055999D01*
X0045521Y0055880D01*
X0045553Y0055761D01*
X0045582Y0055641D01*
X0045607Y0055520D01*
X0045629Y0055398D01*
X0045646Y0055275D01*
X0045660Y0055153D01*
X0045669Y0055029D01*
X0045675Y0054906D01*
X0045677Y0054782D01*
X0045675Y0054658D01*
X0045669Y0054535D01*
X0045660Y0054411D01*
X0045646Y0054289D01*
X0045629Y0054166D01*
X0045607Y0054044D01*
X0045582Y0053923D01*
X0045553Y0053803D01*
X0045521Y0053684D01*
X0045484Y0053565D01*
X0045444Y0053448D01*
X0045401Y0053333D01*
X0045353Y0053218D01*
X0045302Y0053106D01*
X0045248Y0052995D01*
X0045190Y0052885D01*
X0045129Y0052778D01*
X0045064Y0052672D01*
X0044996Y0052569D01*
X0044925Y0052468D01*
X0044851Y0052369D01*
X0044774Y0052272D01*
X0044693Y0052178D01*
X0044610Y0052087D01*
X0044524Y0051998D01*
X0044435Y0051912D01*
X0044344Y0051829D01*
X0044250Y0051748D01*
X0044153Y0051671D01*
X0044054Y0051597D01*
X0043953Y0051526D01*
X0043850Y0051458D01*
X0043744Y0051393D01*
X0043637Y0051332D01*
X0043527Y0051274D01*
X0043416Y0051220D01*
X0043304Y0051169D01*
X0043189Y0051121D01*
X0043074Y0051078D01*
X0042957Y0051038D01*
X0042838Y0051001D01*
X0042719Y0050969D01*
X0042599Y0050940D01*
X0042478Y0050915D01*
X0042356Y0050893D01*
X0042233Y0050876D01*
X0042111Y0050862D01*
X0041987Y0050853D01*
X0041864Y0050847D01*
X0041740Y0050845D01*
X0012409Y0050845D01*
X0011228Y0049664D01*
X0011228Y0024467D01*
X0012409Y0023286D01*
X0056504Y0023286D01*
D11*
X0058531Y0048286D03*
X0066656Y0048286D03*
X0076656Y0048286D03*
X0076656Y0055766D03*
X0066656Y0055766D03*
X0058531Y0055766D03*
X0094156Y0090161D03*
X0094156Y0097641D03*
X0127281Y0086391D03*
X0127281Y0078911D03*
D12*
X0114147Y0090151D03*
X0106666Y0090151D03*
X0106666Y0097651D03*
X0114147Y0097651D03*
X0067272Y0086401D03*
X0059791Y0086401D03*
X0059791Y0066401D03*
X0067272Y0066401D03*
X0077916Y0031401D03*
X0085397Y0031401D03*
D13*
X0087793Y0077026D03*
X0076770Y0077026D03*
D14*
X0085406Y0086514D03*
X0085406Y0097538D03*
D15*
X0101501Y0083360D03*
X0101501Y0080801D03*
X0101501Y0078242D03*
X0101501Y0075683D03*
X0119316Y0075683D03*
X0119316Y0078242D03*
X0119316Y0080801D03*
X0119316Y0083360D03*
X0070562Y0038993D03*
X0070562Y0036434D03*
X0070562Y0033875D03*
X0070562Y0031316D03*
X0052747Y0031316D03*
X0052747Y0033875D03*
X0052747Y0036434D03*
X0052747Y0038993D03*
D16*
X0052906Y0066401D03*
X0052906Y0076401D03*
X0052906Y0086401D03*
D17*
X0156282Y0085072D03*
X0156282Y0089009D03*
X0156282Y0092946D03*
X0156282Y0096883D03*
X0156282Y0100820D03*
X0156282Y0081135D03*
X0156282Y0077198D03*
X0156282Y0073261D03*
X0156282Y0069324D03*
X0156282Y0065387D03*
X0156282Y0061450D03*
X0156282Y0048182D03*
X0156282Y0044245D03*
X0156282Y0040308D03*
X0156282Y0036371D03*
X0156282Y0032434D03*
X0156282Y0028497D03*
X0156282Y0024560D03*
D18*
X0033358Y0024187D02*
X0018232Y0024187D01*
X0018232Y0026321D01*
X0033358Y0026321D01*
X0033358Y0024187D01*
X0033358Y0025608D02*
X0018232Y0025608D01*
X0018232Y0028124D02*
X0033358Y0028124D01*
X0018232Y0028124D02*
X0018232Y0030258D01*
X0033358Y0030258D01*
X0033358Y0028124D01*
X0033358Y0029545D02*
X0018232Y0029545D01*
X0018232Y0032061D02*
X0033358Y0032061D01*
X0018232Y0032061D02*
X0018232Y0034195D01*
X0033358Y0034195D01*
X0033358Y0032061D01*
X0033358Y0033482D02*
X0018232Y0033482D01*
X0018232Y0035998D02*
X0033358Y0035998D01*
X0018232Y0035998D02*
X0018232Y0038132D01*
X0033358Y0038132D01*
X0033358Y0035998D01*
X0033358Y0037419D02*
X0018232Y0037419D01*
X0018232Y0039935D02*
X0033358Y0039935D01*
X0018232Y0039935D02*
X0018232Y0042069D01*
X0033358Y0042069D01*
X0033358Y0039935D01*
X0033358Y0041356D02*
X0018232Y0041356D01*
X0018232Y0043872D02*
X0033358Y0043872D01*
X0018232Y0043872D02*
X0018232Y0046006D01*
X0033358Y0046006D01*
X0033358Y0043872D01*
X0033358Y0045293D02*
X0018232Y0045293D01*
X0018232Y0047809D02*
X0033358Y0047809D01*
X0018232Y0047809D02*
X0018232Y0049943D01*
X0033358Y0049943D01*
X0033358Y0047809D01*
X0033358Y0049230D02*
X0018232Y0049230D01*
X0018232Y0059620D02*
X0033358Y0059620D01*
X0018232Y0059620D02*
X0018232Y0061754D01*
X0033358Y0061754D01*
X0033358Y0059620D01*
X0033358Y0061041D02*
X0018232Y0061041D01*
X0018232Y0063557D02*
X0033358Y0063557D01*
X0018232Y0063557D02*
X0018232Y0065691D01*
X0033358Y0065691D01*
X0033358Y0063557D01*
X0033358Y0064978D02*
X0018232Y0064978D01*
X0018232Y0067494D02*
X0033358Y0067494D01*
X0018232Y0067494D02*
X0018232Y0069628D01*
X0033358Y0069628D01*
X0033358Y0067494D01*
X0033358Y0068915D02*
X0018232Y0068915D01*
X0018232Y0071431D02*
X0033358Y0071431D01*
X0018232Y0071431D02*
X0018232Y0073565D01*
X0033358Y0073565D01*
X0033358Y0071431D01*
X0033358Y0072852D02*
X0018232Y0072852D01*
X0018232Y0075368D02*
X0033358Y0075368D01*
X0018232Y0075368D02*
X0018232Y0077502D01*
X0033358Y0077502D01*
X0033358Y0075368D01*
X0033358Y0076789D02*
X0018232Y0076789D01*
X0018232Y0079305D02*
X0033358Y0079305D01*
X0018232Y0079305D02*
X0018232Y0081439D01*
X0033358Y0081439D01*
X0033358Y0079305D01*
X0033358Y0080726D02*
X0018232Y0080726D01*
X0018232Y0083242D02*
X0033358Y0083242D01*
X0018232Y0083242D02*
X0018232Y0085376D01*
X0033358Y0085376D01*
X0033358Y0083242D01*
X0033358Y0084663D02*
X0018232Y0084663D01*
X0018232Y0087179D02*
X0033358Y0087179D01*
X0018232Y0087179D02*
X0018232Y0089313D01*
X0033358Y0089313D01*
X0033358Y0087179D01*
X0033358Y0088600D02*
X0018232Y0088600D01*
X0018232Y0091116D02*
X0033358Y0091116D01*
X0018232Y0091116D02*
X0018232Y0093250D01*
X0033358Y0093250D01*
X0033358Y0091116D01*
X0033358Y0092537D02*
X0018232Y0092537D01*
X0018232Y0095053D02*
X0033358Y0095053D01*
X0018232Y0095053D02*
X0018232Y0097187D01*
X0033358Y0097187D01*
X0033358Y0095053D01*
X0033358Y0096474D02*
X0018232Y0096474D01*
X0018232Y0098990D02*
X0033358Y0098990D01*
X0018232Y0098990D02*
X0018232Y0101124D01*
X0033358Y0101124D01*
X0033358Y0098990D01*
X0033358Y0100411D02*
X0018232Y0100411D01*
D19*
X0094156Y0067651D03*
X0114156Y0047651D03*
X0134156Y0067651D03*
X0134156Y0027651D03*
X0094156Y0027651D03*
D20*
X0071031Y0025776D03*
X0056656Y0030151D03*
X0046031Y0027651D03*
X0041656Y0033276D03*
X0037281Y0032026D03*
X0037281Y0037026D03*
X0036031Y0042026D03*
X0041031Y0043901D03*
X0049156Y0047026D03*
X0055406Y0060776D03*
X0046656Y0067651D03*
X0041656Y0063276D03*
X0036656Y0064526D03*
X0059781Y0072026D03*
X0072281Y0077026D03*
X0073531Y0068276D03*
X0086031Y0065151D03*
X0109156Y0066401D03*
X0124781Y0067026D03*
X0139781Y0073901D03*
X0144156Y0068276D03*
X0144781Y0060151D03*
X0147281Y0057026D03*
X0156031Y0055151D03*
X0143531Y0045776D03*
X0144781Y0042026D03*
X0144156Y0033901D03*
X0144156Y0030151D03*
X0127906Y0038276D03*
X0124781Y0042651D03*
X0129156Y0057651D03*
X0134781Y0080151D03*
X0145406Y0080151D03*
X0139156Y0090151D03*
X0135406Y0097651D03*
X0074156Y0087651D03*
X0037906Y0090776D03*
X0037906Y0098276D03*
M02*
