G75*
%MOIN*%
%OFA0B0*%
%FSLAX25Y25*%
%IPPOS*%
%LPD*%
%AMOC8*
5,1,8,0,0,1.08239X$1,22.5*
%
%ADD10C,0.00000*%
%ADD11R,0.05906X0.05118*%
%ADD12R,0.05118X0.05906*%
%ADD13R,0.06299X0.07087*%
%ADD14R,0.07087X0.06299*%
%ADD15R,0.03937X0.01575*%
%ADD16C,0.07000*%
%ADD17R,0.15748X0.02953*%
%ADD18C,0.01102*%
%ADD19C,0.07650*%
%ADD20C,0.00800*%
%ADD21C,0.02800*%
D10*
X0011031Y0023276D02*
X0164078Y0023276D01*
X0164078Y0102026D01*
X0011031Y0102026D01*
X0011228Y0101238D02*
X0012409Y0102026D01*
X0033276Y0102026D01*
X0011228Y0101238D02*
X0011228Y0059900D01*
X0012409Y0058719D01*
X0033276Y0058719D01*
X0033472Y0058719D02*
X0041740Y0058719D01*
X0041864Y0058717D01*
X0041987Y0058711D01*
X0042111Y0058702D01*
X0042233Y0058688D01*
X0042356Y0058671D01*
X0042478Y0058649D01*
X0042599Y0058624D01*
X0042719Y0058595D01*
X0042838Y0058563D01*
X0042957Y0058526D01*
X0043074Y0058486D01*
X0043189Y0058443D01*
X0043304Y0058395D01*
X0043416Y0058344D01*
X0043527Y0058290D01*
X0043637Y0058232D01*
X0043744Y0058171D01*
X0043850Y0058106D01*
X0043953Y0058038D01*
X0044054Y0057967D01*
X0044153Y0057893D01*
X0044250Y0057816D01*
X0044344Y0057735D01*
X0044435Y0057652D01*
X0044524Y0057566D01*
X0044610Y0057477D01*
X0044693Y0057386D01*
X0044774Y0057292D01*
X0044851Y0057195D01*
X0044925Y0057096D01*
X0044996Y0056995D01*
X0045064Y0056892D01*
X0045129Y0056786D01*
X0045190Y0056679D01*
X0045248Y0056569D01*
X0045302Y0056458D01*
X0045353Y0056346D01*
X0045401Y0056231D01*
X0045444Y0056116D01*
X0045484Y0055999D01*
X0045521Y0055880D01*
X0045553Y0055761D01*
X0045582Y0055641D01*
X0045607Y0055520D01*
X0045629Y0055398D01*
X0045646Y0055275D01*
X0045660Y0055153D01*
X0045669Y0055029D01*
X0045675Y0054906D01*
X0045677Y0054782D01*
X0045675Y0054658D01*
X0045669Y0054535D01*
X0045660Y0054411D01*
X0045646Y0054289D01*
X0045629Y0054166D01*
X0045607Y0054044D01*
X0045582Y0053923D01*
X0045553Y0053803D01*
X0045521Y0053684D01*
X0045484Y0053565D01*
X0045444Y0053448D01*
X0045401Y0053333D01*
X0045353Y0053218D01*
X0045302Y0053106D01*
X0045248Y0052995D01*
X0045190Y0052885D01*
X0045129Y0052778D01*
X0045064Y0052672D01*
X0044996Y0052569D01*
X0044925Y0052468D01*
X0044851Y0052369D01*
X0044774Y0052272D01*
X0044693Y0052178D01*
X0044610Y0052087D01*
X0044524Y0051998D01*
X0044435Y0051912D01*
X0044344Y0051829D01*
X0044250Y0051748D01*
X0044153Y0051671D01*
X0044054Y0051597D01*
X0043953Y0051526D01*
X0043850Y0051458D01*
X0043744Y0051393D01*
X0043637Y0051332D01*
X0043527Y0051274D01*
X0043416Y0051220D01*
X0043304Y0051169D01*
X0043189Y0051121D01*
X0043074Y0051078D01*
X0042957Y0051038D01*
X0042838Y0051001D01*
X0042719Y0050969D01*
X0042599Y0050940D01*
X0042478Y0050915D01*
X0042356Y0050893D01*
X0042233Y0050876D01*
X0042111Y0050862D01*
X0041987Y0050853D01*
X0041864Y0050847D01*
X0041740Y0050845D01*
X0012409Y0050845D01*
X0011228Y0049664D01*
X0011228Y0024467D01*
X0012409Y0023286D01*
X0056504Y0023286D01*
D11*
X0058531Y0048286D03*
X0066656Y0048286D03*
X0076656Y0048286D03*
X0076656Y0055766D03*
X0066656Y0055766D03*
X0058531Y0055766D03*
X0094156Y0090161D03*
X0094156Y0097641D03*
X0127281Y0086391D03*
X0127281Y0078911D03*
D12*
X0114147Y0090151D03*
X0106666Y0090151D03*
X0106666Y0097651D03*
X0114147Y0097651D03*
X0067272Y0086401D03*
X0059791Y0086401D03*
X0059791Y0066401D03*
X0067272Y0066401D03*
X0077916Y0031401D03*
X0085397Y0031401D03*
D13*
X0087793Y0077026D03*
X0076770Y0077026D03*
D14*
X0085406Y0086514D03*
X0085406Y0097538D03*
D15*
X0101501Y0083360D03*
X0101501Y0080801D03*
X0101501Y0078242D03*
X0101501Y0075683D03*
X0119316Y0075683D03*
X0119316Y0078242D03*
X0119316Y0080801D03*
X0119316Y0083360D03*
X0070562Y0038993D03*
X0070562Y0036434D03*
X0070562Y0033875D03*
X0070562Y0031316D03*
X0052747Y0031316D03*
X0052747Y0033875D03*
X0052747Y0036434D03*
X0052747Y0038993D03*
D16*
X0052906Y0066401D03*
X0052906Y0076401D03*
X0052906Y0086401D03*
D17*
X0156282Y0085072D03*
X0156282Y0089009D03*
X0156282Y0092946D03*
X0156282Y0096883D03*
X0156282Y0100820D03*
X0156282Y0081135D03*
X0156282Y0077198D03*
X0156282Y0073261D03*
X0156282Y0069324D03*
X0156282Y0065387D03*
X0156282Y0061450D03*
X0156282Y0048182D03*
X0156282Y0044245D03*
X0156282Y0040308D03*
X0156282Y0036371D03*
X0156282Y0032434D03*
X0156282Y0028497D03*
X0156282Y0024560D03*
D18*
X0033118Y0024427D02*
X0018472Y0024427D01*
X0018472Y0026081D01*
X0033118Y0026081D01*
X0033118Y0024427D01*
X0033118Y0025528D02*
X0018472Y0025528D01*
X0018472Y0028364D02*
X0033118Y0028364D01*
X0018472Y0028364D02*
X0018472Y0030018D01*
X0033118Y0030018D01*
X0033118Y0028364D01*
X0033118Y0029465D02*
X0018472Y0029465D01*
X0018472Y0032301D02*
X0033118Y0032301D01*
X0018472Y0032301D02*
X0018472Y0033955D01*
X0033118Y0033955D01*
X0033118Y0032301D01*
X0033118Y0033402D02*
X0018472Y0033402D01*
X0018472Y0036238D02*
X0033118Y0036238D01*
X0018472Y0036238D02*
X0018472Y0037892D01*
X0033118Y0037892D01*
X0033118Y0036238D01*
X0033118Y0037339D02*
X0018472Y0037339D01*
X0018472Y0040175D02*
X0033118Y0040175D01*
X0018472Y0040175D02*
X0018472Y0041829D01*
X0033118Y0041829D01*
X0033118Y0040175D01*
X0033118Y0041276D02*
X0018472Y0041276D01*
X0018472Y0044112D02*
X0033118Y0044112D01*
X0018472Y0044112D02*
X0018472Y0045766D01*
X0033118Y0045766D01*
X0033118Y0044112D01*
X0033118Y0045213D02*
X0018472Y0045213D01*
X0018472Y0048049D02*
X0033118Y0048049D01*
X0018472Y0048049D02*
X0018472Y0049703D01*
X0033118Y0049703D01*
X0033118Y0048049D01*
X0033118Y0049150D02*
X0018472Y0049150D01*
X0018472Y0059860D02*
X0033118Y0059860D01*
X0018472Y0059860D02*
X0018472Y0061514D01*
X0033118Y0061514D01*
X0033118Y0059860D01*
X0033118Y0060961D02*
X0018472Y0060961D01*
X0018472Y0063797D02*
X0033118Y0063797D01*
X0018472Y0063797D02*
X0018472Y0065451D01*
X0033118Y0065451D01*
X0033118Y0063797D01*
X0033118Y0064898D02*
X0018472Y0064898D01*
X0018472Y0067734D02*
X0033118Y0067734D01*
X0018472Y0067734D02*
X0018472Y0069388D01*
X0033118Y0069388D01*
X0033118Y0067734D01*
X0033118Y0068835D02*
X0018472Y0068835D01*
X0018472Y0071671D02*
X0033118Y0071671D01*
X0018472Y0071671D02*
X0018472Y0073325D01*
X0033118Y0073325D01*
X0033118Y0071671D01*
X0033118Y0072772D02*
X0018472Y0072772D01*
X0018472Y0075608D02*
X0033118Y0075608D01*
X0018472Y0075608D02*
X0018472Y0077262D01*
X0033118Y0077262D01*
X0033118Y0075608D01*
X0033118Y0076709D02*
X0018472Y0076709D01*
X0018472Y0079545D02*
X0033118Y0079545D01*
X0018472Y0079545D02*
X0018472Y0081199D01*
X0033118Y0081199D01*
X0033118Y0079545D01*
X0033118Y0080646D02*
X0018472Y0080646D01*
X0018472Y0083482D02*
X0033118Y0083482D01*
X0018472Y0083482D02*
X0018472Y0085136D01*
X0033118Y0085136D01*
X0033118Y0083482D01*
X0033118Y0084583D02*
X0018472Y0084583D01*
X0018472Y0087419D02*
X0033118Y0087419D01*
X0018472Y0087419D02*
X0018472Y0089073D01*
X0033118Y0089073D01*
X0033118Y0087419D01*
X0033118Y0088520D02*
X0018472Y0088520D01*
X0018472Y0091356D02*
X0033118Y0091356D01*
X0018472Y0091356D02*
X0018472Y0093010D01*
X0033118Y0093010D01*
X0033118Y0091356D01*
X0033118Y0092457D02*
X0018472Y0092457D01*
X0018472Y0095293D02*
X0033118Y0095293D01*
X0018472Y0095293D02*
X0018472Y0096947D01*
X0033118Y0096947D01*
X0033118Y0095293D01*
X0033118Y0096394D02*
X0018472Y0096394D01*
X0018472Y0099230D02*
X0033118Y0099230D01*
X0018472Y0099230D02*
X0018472Y0100884D01*
X0033118Y0100884D01*
X0033118Y0099230D01*
X0033118Y0100331D02*
X0018472Y0100331D01*
D19*
X0094156Y0067651D03*
X0114156Y0047651D03*
X0134156Y0067651D03*
X0134156Y0027651D03*
X0094156Y0027651D03*
D20*
X0089754Y0025671D02*
X0082282Y0025671D01*
X0082236Y0025626D02*
X0083056Y0026446D01*
X0083056Y0027448D01*
X0088370Y0027448D01*
X0088956Y0028034D01*
X0088956Y0034768D01*
X0088370Y0035354D01*
X0086797Y0035354D01*
X0086797Y0035811D01*
X0097236Y0046251D01*
X0109514Y0046251D01*
X0110066Y0044918D01*
X0111423Y0043560D01*
X0113197Y0042826D01*
X0115116Y0042826D01*
X0116890Y0043560D01*
X0118247Y0044918D01*
X0118981Y0046691D01*
X0118981Y0048611D01*
X0118247Y0050384D01*
X0116890Y0051741D01*
X0115116Y0052476D01*
X0113197Y0052476D01*
X0111423Y0051741D01*
X0110066Y0050384D01*
X0109514Y0049051D01*
X0096077Y0049051D01*
X0095256Y0048231D01*
X0083997Y0036971D01*
X0083997Y0035354D01*
X0083056Y0035354D01*
X0083056Y0043866D01*
X0080609Y0046313D01*
X0080609Y0051259D01*
X0080023Y0051845D01*
X0073290Y0051845D01*
X0072704Y0051259D01*
X0072704Y0045312D01*
X0073290Y0044727D01*
X0078236Y0044727D01*
X0080256Y0042706D01*
X0080256Y0035354D01*
X0074943Y0035354D01*
X0074357Y0034768D01*
X0074357Y0032716D01*
X0073530Y0032716D01*
X0073530Y0035077D01*
X0073453Y0035155D01*
X0073530Y0035233D01*
X0073530Y0037636D01*
X0073453Y0037714D01*
X0073530Y0037792D01*
X0073530Y0040195D01*
X0072945Y0040781D01*
X0071962Y0040781D01*
X0071962Y0042226D01*
X0072431Y0042696D01*
X0072431Y0059684D01*
X0082898Y0070151D01*
X0089969Y0070151D01*
X0089331Y0068611D01*
X0089331Y0066691D01*
X0090066Y0064918D01*
X0091423Y0063560D01*
X0091748Y0063426D01*
X0082327Y0063426D01*
X0081506Y0062606D01*
X0081086Y0062186D01*
X0080266Y0061366D01*
X0080266Y0061356D01*
X0078236Y0059325D01*
X0073290Y0059325D01*
X0072704Y0058739D01*
X0072704Y0052793D01*
X0073290Y0052207D01*
X0080023Y0052207D01*
X0080609Y0052793D01*
X0080609Y0057739D01*
X0082246Y0059376D01*
X0083066Y0060196D01*
X0083066Y0060206D01*
X0083486Y0060626D01*
X0112861Y0060626D01*
X0122386Y0070151D01*
X0122906Y0070151D01*
X0125406Y0072651D01*
X0131031Y0072651D01*
X0131459Y0073126D01*
X0131611Y0073126D01*
X0134284Y0075798D01*
X0147408Y0075798D01*
X0147408Y0075307D01*
X0147486Y0075230D01*
X0147408Y0075152D01*
X0147408Y0073508D01*
X0147327Y0073426D01*
X0142327Y0073426D01*
X0141506Y0072606D01*
X0138551Y0069650D01*
X0138247Y0070384D01*
X0136890Y0071741D01*
X0135116Y0072476D01*
X0133197Y0072476D01*
X0131423Y0071741D01*
X0130066Y0070384D01*
X0129331Y0068611D01*
X0129331Y0066691D01*
X0130066Y0064918D01*
X0131423Y0063560D01*
X0132756Y0063008D01*
X0132756Y0057606D01*
X0121702Y0046551D01*
X0120881Y0045731D01*
X0120881Y0032071D01*
X0125881Y0027071D01*
X0126702Y0026251D01*
X0129514Y0026251D01*
X0130066Y0024918D01*
X0130308Y0024676D01*
X0098005Y0024676D01*
X0098247Y0024918D01*
X0098981Y0026691D01*
X0098981Y0028611D01*
X0098247Y0030384D01*
X0096890Y0031741D01*
X0095116Y0032476D01*
X0093197Y0032476D01*
X0091423Y0031741D01*
X0090066Y0030384D01*
X0089331Y0028611D01*
X0089331Y0026691D01*
X0090066Y0024918D01*
X0090308Y0024676D01*
X0057094Y0024676D01*
X0057084Y0024686D01*
X0034669Y0024686D01*
X0034669Y0026723D01*
X0034453Y0026940D01*
X0034679Y0027166D01*
X0034936Y0027611D01*
X0035069Y0028107D01*
X0035069Y0028902D01*
X0026084Y0028902D01*
X0026084Y0029480D01*
X0035069Y0029480D01*
X0035069Y0030275D01*
X0034936Y0030771D01*
X0034679Y0031216D01*
X0034453Y0031442D01*
X0034669Y0031659D01*
X0034669Y0031809D01*
X0035409Y0032548D01*
X0035409Y0032548D01*
X0035986Y0033126D01*
X0039256Y0033126D01*
X0039256Y0032798D01*
X0039622Y0031916D01*
X0040297Y0031241D01*
X0041179Y0030876D01*
X0042134Y0030876D01*
X0043016Y0031241D01*
X0043691Y0031916D01*
X0044056Y0032798D01*
X0044056Y0033753D01*
X0043691Y0034635D01*
X0043016Y0035310D01*
X0042134Y0035676D01*
X0041236Y0035676D01*
X0040986Y0035926D01*
X0039424Y0035926D01*
X0039681Y0036548D01*
X0039681Y0037503D01*
X0039316Y0038385D01*
X0038641Y0039060D01*
X0037759Y0039426D01*
X0036804Y0039426D01*
X0035922Y0039060D01*
X0035287Y0038426D01*
X0034669Y0038426D01*
X0034669Y0038534D01*
X0034170Y0039034D01*
X0034669Y0039533D01*
X0034669Y0039602D01*
X0035588Y0039602D01*
X0035611Y0039626D01*
X0036509Y0039626D01*
X0037391Y0039991D01*
X0038066Y0040666D01*
X0038431Y0041548D01*
X0038431Y0042503D01*
X0038066Y0043385D01*
X0037912Y0043539D01*
X0038631Y0043539D01*
X0038631Y0043423D01*
X0038997Y0042541D01*
X0039672Y0041866D01*
X0040554Y0041501D01*
X0041509Y0041501D01*
X0042391Y0041866D01*
X0043066Y0042541D01*
X0043431Y0043423D01*
X0043431Y0044378D01*
X0043066Y0045260D01*
X0042391Y0045935D01*
X0041509Y0046301D01*
X0040611Y0046301D01*
X0040573Y0046339D01*
X0034669Y0046339D01*
X0034669Y0046408D01*
X0034453Y0046625D01*
X0034679Y0046851D01*
X0034936Y0047296D01*
X0035069Y0047793D01*
X0035069Y0048587D01*
X0026084Y0048587D01*
X0026084Y0049165D01*
X0035069Y0049165D01*
X0035069Y0049445D01*
X0042958Y0049445D01*
X0045153Y0050502D01*
X0045153Y0050502D01*
X0046672Y0052407D01*
X0046672Y0052407D01*
X0047214Y0054782D01*
X0046672Y0057157D01*
X0045153Y0059062D01*
X0042958Y0060119D01*
X0040479Y0060119D01*
X0041236Y0060876D01*
X0042134Y0060876D01*
X0043016Y0061241D01*
X0043691Y0061916D01*
X0044056Y0062798D01*
X0044056Y0063753D01*
X0043691Y0064635D01*
X0043016Y0065310D01*
X0042134Y0065676D01*
X0041179Y0065676D01*
X0040297Y0065310D01*
X0039622Y0064635D01*
X0039256Y0063753D01*
X0039256Y0062856D01*
X0038488Y0062087D01*
X0034669Y0062087D01*
X0034669Y0062157D01*
X0034453Y0062373D01*
X0034679Y0062599D01*
X0034936Y0063044D01*
X0035069Y0063541D01*
X0035069Y0064335D01*
X0026084Y0064335D01*
X0026084Y0064913D01*
X0035069Y0064913D01*
X0035069Y0065708D01*
X0034936Y0066204D01*
X0034679Y0066649D01*
X0034453Y0066876D01*
X0034669Y0067092D01*
X0034669Y0067161D01*
X0044262Y0067161D01*
X0044622Y0066291D01*
X0045297Y0065616D01*
X0046179Y0065251D01*
X0047134Y0065251D01*
X0048016Y0065616D01*
X0048406Y0066007D01*
X0048406Y0065506D01*
X0049092Y0063852D01*
X0050357Y0062586D01*
X0052011Y0061901D01*
X0053275Y0061901D01*
X0053006Y0061253D01*
X0053006Y0060356D01*
X0047756Y0055106D01*
X0047756Y0051981D01*
X0044631Y0048856D01*
X0044631Y0029645D01*
X0043997Y0029010D01*
X0043631Y0028128D01*
X0043631Y0027173D01*
X0043997Y0026291D01*
X0044672Y0025616D01*
X0045554Y0025251D01*
X0046509Y0025251D01*
X0047391Y0025616D01*
X0048066Y0026291D01*
X0048431Y0027173D01*
X0048431Y0028128D01*
X0048066Y0029010D01*
X0047431Y0029645D01*
X0047431Y0047696D01*
X0049736Y0050001D01*
X0050556Y0050821D01*
X0050556Y0053946D01*
X0054579Y0057968D01*
X0054579Y0052793D01*
X0055165Y0052207D01*
X0061898Y0052207D01*
X0062484Y0052793D01*
X0062484Y0058739D01*
X0061898Y0059325D01*
X0059931Y0059325D01*
X0059931Y0062448D01*
X0062131Y0062448D01*
X0062131Y0060821D01*
X0062952Y0060001D01*
X0063627Y0059325D01*
X0063290Y0059325D01*
X0062704Y0058739D01*
X0062704Y0052793D01*
X0063290Y0052207D01*
X0069631Y0052207D01*
X0069631Y0051845D01*
X0063290Y0051845D01*
X0062704Y0051259D01*
X0062704Y0045312D01*
X0063290Y0044727D01*
X0064631Y0044727D01*
X0064631Y0034571D01*
X0065452Y0033751D01*
X0066727Y0032475D01*
X0067594Y0032475D01*
X0067594Y0030569D01*
X0062887Y0035275D01*
X0056886Y0035275D01*
X0058486Y0036876D01*
X0059306Y0037696D01*
X0059306Y0044727D01*
X0061898Y0044727D01*
X0062484Y0045312D01*
X0062484Y0051259D01*
X0061898Y0051845D01*
X0055165Y0051845D01*
X0054579Y0051259D01*
X0054579Y0045312D01*
X0055165Y0044727D01*
X0056506Y0044727D01*
X0056506Y0040393D01*
X0055517Y0040393D01*
X0055130Y0040781D01*
X0050364Y0040781D01*
X0049779Y0040195D01*
X0049779Y0037792D01*
X0049856Y0037714D01*
X0049779Y0037636D01*
X0049779Y0035233D01*
X0049856Y0035155D01*
X0049779Y0035077D01*
X0049779Y0032674D01*
X0049856Y0032596D01*
X0049779Y0032518D01*
X0049779Y0030115D01*
X0050364Y0029529D01*
X0054316Y0029529D01*
X0054622Y0028791D01*
X0055297Y0028116D01*
X0056179Y0027751D01*
X0057134Y0027751D01*
X0058016Y0028116D01*
X0058691Y0028791D01*
X0059056Y0029673D01*
X0059056Y0030628D01*
X0058691Y0031510D01*
X0058016Y0032185D01*
X0057316Y0032475D01*
X0061727Y0032475D01*
X0065881Y0028321D01*
X0065881Y0028321D01*
X0066702Y0027501D01*
X0072327Y0027501D01*
X0073381Y0026446D01*
X0074202Y0025626D01*
X0082236Y0025626D01*
X0083056Y0026470D02*
X0089423Y0026470D01*
X0089331Y0027268D02*
X0083056Y0027268D01*
X0081656Y0027026D02*
X0081656Y0043286D01*
X0076656Y0048286D01*
X0072704Y0048030D02*
X0072431Y0048030D01*
X0072431Y0048828D02*
X0072704Y0048828D01*
X0072704Y0049627D02*
X0072431Y0049627D01*
X0072431Y0050425D02*
X0072704Y0050425D01*
X0072704Y0051224D02*
X0072431Y0051224D01*
X0072431Y0052022D02*
X0112102Y0052022D01*
X0110906Y0051224D02*
X0080609Y0051224D01*
X0080609Y0050425D02*
X0110107Y0050425D01*
X0109752Y0049627D02*
X0080609Y0049627D01*
X0080609Y0048828D02*
X0095854Y0048828D01*
X0095055Y0048030D02*
X0080609Y0048030D01*
X0080609Y0047231D02*
X0094257Y0047231D01*
X0093458Y0046433D02*
X0080609Y0046433D01*
X0081288Y0045634D02*
X0092660Y0045634D01*
X0091861Y0044836D02*
X0082086Y0044836D01*
X0082885Y0044037D02*
X0091063Y0044037D01*
X0090264Y0043239D02*
X0083056Y0043239D01*
X0083056Y0042440D02*
X0089466Y0042440D01*
X0088667Y0041642D02*
X0083056Y0041642D01*
X0083056Y0040843D02*
X0087869Y0040843D01*
X0087070Y0040045D02*
X0083056Y0040045D01*
X0083056Y0039246D02*
X0086272Y0039246D01*
X0085473Y0038448D02*
X0083056Y0038448D01*
X0083056Y0037649D02*
X0084675Y0037649D01*
X0083997Y0036850D02*
X0083056Y0036850D01*
X0083056Y0036052D02*
X0083997Y0036052D01*
X0085397Y0036391D02*
X0096656Y0047651D01*
X0114156Y0047651D01*
X0118561Y0049627D02*
X0124777Y0049627D01*
X0123979Y0048828D02*
X0118891Y0048828D01*
X0118981Y0048030D02*
X0123180Y0048030D01*
X0122382Y0047231D02*
X0118981Y0047231D01*
X0118874Y0046433D02*
X0121583Y0046433D01*
X0120881Y0045634D02*
X0118544Y0045634D01*
X0118165Y0044836D02*
X0120881Y0044836D01*
X0120881Y0044037D02*
X0117366Y0044037D01*
X0116113Y0043239D02*
X0120881Y0043239D01*
X0120881Y0042440D02*
X0093426Y0042440D01*
X0094224Y0043239D02*
X0112200Y0043239D01*
X0110947Y0044037D02*
X0095023Y0044037D01*
X0095821Y0044836D02*
X0110148Y0044836D01*
X0109769Y0045634D02*
X0096620Y0045634D01*
X0092627Y0041642D02*
X0120881Y0041642D01*
X0120881Y0040843D02*
X0091829Y0040843D01*
X0091030Y0040045D02*
X0120881Y0040045D01*
X0120881Y0039246D02*
X0090232Y0039246D01*
X0089433Y0038448D02*
X0120881Y0038448D01*
X0120881Y0037649D02*
X0088635Y0037649D01*
X0087836Y0036850D02*
X0120881Y0036850D01*
X0120881Y0036052D02*
X0087038Y0036052D01*
X0088470Y0035253D02*
X0120881Y0035253D01*
X0120881Y0034455D02*
X0088956Y0034455D01*
X0088956Y0033656D02*
X0120881Y0033656D01*
X0120881Y0032858D02*
X0088956Y0032858D01*
X0088956Y0032059D02*
X0092192Y0032059D01*
X0090943Y0031261D02*
X0088956Y0031261D01*
X0088956Y0030462D02*
X0090145Y0030462D01*
X0089768Y0029664D02*
X0088956Y0029664D01*
X0088956Y0028865D02*
X0089437Y0028865D01*
X0089331Y0028067D02*
X0088956Y0028067D01*
X0090111Y0024873D02*
X0034669Y0024873D01*
X0034669Y0025671D02*
X0044617Y0025671D01*
X0043923Y0026470D02*
X0034669Y0026470D01*
X0034738Y0027268D02*
X0043631Y0027268D01*
X0043631Y0028067D02*
X0035058Y0028067D01*
X0035069Y0028865D02*
X0043937Y0028865D01*
X0044631Y0029664D02*
X0035069Y0029664D01*
X0035019Y0030462D02*
X0044631Y0030462D01*
X0044631Y0031261D02*
X0043036Y0031261D01*
X0043750Y0032059D02*
X0044631Y0032059D01*
X0044631Y0032858D02*
X0044056Y0032858D01*
X0044056Y0033656D02*
X0044631Y0033656D01*
X0044631Y0034455D02*
X0043766Y0034455D01*
X0043073Y0035253D02*
X0044631Y0035253D01*
X0044631Y0036052D02*
X0039476Y0036052D01*
X0039681Y0036850D02*
X0044631Y0036850D01*
X0044631Y0037649D02*
X0039621Y0037649D01*
X0039254Y0038448D02*
X0044631Y0038448D01*
X0044631Y0039246D02*
X0038193Y0039246D01*
X0037444Y0040045D02*
X0044631Y0040045D01*
X0044631Y0040843D02*
X0038139Y0040843D01*
X0038431Y0041642D02*
X0040214Y0041642D01*
X0039098Y0042440D02*
X0038431Y0042440D01*
X0038708Y0043239D02*
X0038127Y0043239D01*
X0036031Y0042026D02*
X0035008Y0041002D01*
X0025795Y0041002D01*
X0025795Y0044939D02*
X0039993Y0044939D01*
X0041031Y0043901D01*
X0043242Y0044836D02*
X0044631Y0044836D01*
X0044631Y0045634D02*
X0042692Y0045634D01*
X0044631Y0046433D02*
X0034645Y0046433D01*
X0034899Y0047231D02*
X0044631Y0047231D01*
X0044631Y0048030D02*
X0035069Y0048030D01*
X0042958Y0049445D02*
X0042958Y0049445D01*
X0043336Y0049627D02*
X0045402Y0049627D01*
X0044994Y0050425D02*
X0046201Y0050425D01*
X0045729Y0051224D02*
X0046999Y0051224D01*
X0046366Y0052022D02*
X0047756Y0052022D01*
X0047756Y0052821D02*
X0046767Y0052821D01*
X0046949Y0053619D02*
X0047756Y0053619D01*
X0047756Y0054418D02*
X0047131Y0054418D01*
X0047214Y0054782D02*
X0047214Y0054782D01*
X0047115Y0055216D02*
X0047867Y0055216D01*
X0048666Y0056015D02*
X0046933Y0056015D01*
X0046751Y0056813D02*
X0049464Y0056813D01*
X0050263Y0057612D02*
X0046310Y0057612D01*
X0046672Y0057157D02*
X0046672Y0057157D01*
X0045673Y0058410D02*
X0051061Y0058410D01*
X0051860Y0059209D02*
X0044848Y0059209D01*
X0045153Y0059062D02*
X0045153Y0059062D01*
X0045153Y0059062D01*
X0043190Y0060007D02*
X0052658Y0060007D01*
X0053006Y0060806D02*
X0041166Y0060806D01*
X0039068Y0060687D02*
X0041656Y0063276D01*
X0039256Y0063201D02*
X0034978Y0063201D01*
X0035069Y0064000D02*
X0039359Y0064000D01*
X0039785Y0064798D02*
X0026084Y0064798D01*
X0025506Y0064798D02*
X0012628Y0064798D01*
X0012628Y0064000D02*
X0016521Y0064000D01*
X0016521Y0064335D02*
X0016521Y0063541D01*
X0016654Y0063044D01*
X0016911Y0062599D01*
X0017138Y0062373D01*
X0016921Y0062157D01*
X0016921Y0060119D01*
X0012989Y0060119D01*
X0012628Y0060480D01*
X0012628Y0100489D01*
X0012833Y0100626D01*
X0016521Y0100626D01*
X0016521Y0100346D01*
X0025506Y0100346D01*
X0025506Y0099768D01*
X0016521Y0099768D01*
X0016521Y0098974D01*
X0016654Y0098477D01*
X0016911Y0098032D01*
X0017138Y0097806D01*
X0016921Y0097590D01*
X0016921Y0094651D01*
X0017420Y0094152D01*
X0016921Y0093653D01*
X0016921Y0090714D01*
X0017138Y0090498D01*
X0016911Y0090271D01*
X0016654Y0089826D01*
X0016521Y0089330D01*
X0016521Y0088535D01*
X0025506Y0088535D01*
X0025506Y0087957D01*
X0016521Y0087957D01*
X0016521Y0087163D01*
X0016654Y0086666D01*
X0016911Y0086221D01*
X0017138Y0085995D01*
X0016921Y0085779D01*
X0016921Y0082840D01*
X0017138Y0082624D01*
X0016911Y0082397D01*
X0016654Y0081952D01*
X0016521Y0081456D01*
X0016521Y0080661D01*
X0025506Y0080661D01*
X0025506Y0080083D01*
X0016521Y0080083D01*
X0016521Y0079289D01*
X0016654Y0078792D01*
X0016911Y0078347D01*
X0017138Y0078121D01*
X0016921Y0077905D01*
X0016921Y0074966D01*
X0017420Y0074467D01*
X0016921Y0073968D01*
X0016921Y0071029D01*
X0017420Y0070530D01*
X0016921Y0070031D01*
X0016921Y0067092D01*
X0017138Y0066876D01*
X0016911Y0066649D01*
X0016654Y0066204D01*
X0016521Y0065708D01*
X0016521Y0064913D01*
X0025506Y0064913D01*
X0025506Y0064335D01*
X0016521Y0064335D01*
X0016612Y0063201D02*
X0012628Y0063201D01*
X0012628Y0062403D02*
X0017108Y0062403D01*
X0016921Y0061604D02*
X0012628Y0061604D01*
X0012628Y0060806D02*
X0016921Y0060806D01*
X0016521Y0065597D02*
X0012628Y0065597D01*
X0012628Y0066395D02*
X0016765Y0066395D01*
X0016921Y0067194D02*
X0012628Y0067194D01*
X0012628Y0067992D02*
X0016921Y0067992D01*
X0016921Y0068791D02*
X0012628Y0068791D01*
X0012628Y0069589D02*
X0016921Y0069589D01*
X0017279Y0070388D02*
X0012628Y0070388D01*
X0012628Y0071186D02*
X0016921Y0071186D01*
X0016921Y0071985D02*
X0012628Y0071985D01*
X0012628Y0072784D02*
X0016921Y0072784D01*
X0016921Y0073582D02*
X0012628Y0073582D01*
X0012628Y0074381D02*
X0017334Y0074381D01*
X0016921Y0075179D02*
X0012628Y0075179D01*
X0012628Y0075978D02*
X0016921Y0075978D01*
X0016921Y0076776D02*
X0012628Y0076776D01*
X0012628Y0077575D02*
X0016921Y0077575D01*
X0016896Y0078373D02*
X0012628Y0078373D01*
X0012628Y0079172D02*
X0016553Y0079172D01*
X0016521Y0079970D02*
X0012628Y0079970D01*
X0012628Y0080769D02*
X0016521Y0080769D01*
X0016551Y0081567D02*
X0012628Y0081567D01*
X0012628Y0082366D02*
X0016893Y0082366D01*
X0016921Y0083164D02*
X0012628Y0083164D01*
X0012628Y0083963D02*
X0016921Y0083963D01*
X0016921Y0084761D02*
X0012628Y0084761D01*
X0012628Y0085560D02*
X0016921Y0085560D01*
X0016832Y0086358D02*
X0012628Y0086358D01*
X0012628Y0087157D02*
X0016523Y0087157D01*
X0016521Y0087955D02*
X0012628Y0087955D01*
X0012628Y0088754D02*
X0016521Y0088754D01*
X0016581Y0089552D02*
X0012628Y0089552D01*
X0012628Y0090351D02*
X0016991Y0090351D01*
X0016921Y0091149D02*
X0012628Y0091149D01*
X0012628Y0091948D02*
X0016921Y0091948D01*
X0016921Y0092746D02*
X0012628Y0092746D01*
X0012628Y0093545D02*
X0016921Y0093545D01*
X0017229Y0094343D02*
X0012628Y0094343D01*
X0012628Y0095142D02*
X0016921Y0095142D01*
X0016921Y0095940D02*
X0012628Y0095940D01*
X0012628Y0096739D02*
X0016921Y0096739D01*
X0016921Y0097537D02*
X0012628Y0097537D01*
X0012628Y0098336D02*
X0016736Y0098336D01*
X0016521Y0099134D02*
X0012628Y0099134D01*
X0012628Y0099933D02*
X0025506Y0099933D01*
X0026084Y0099933D02*
X0036169Y0099933D01*
X0035872Y0099635D02*
X0035506Y0098753D01*
X0035506Y0097856D01*
X0035171Y0097520D01*
X0034669Y0097520D01*
X0034669Y0097590D01*
X0034453Y0097806D01*
X0034679Y0098032D01*
X0034936Y0098477D01*
X0035069Y0098974D01*
X0035069Y0099768D01*
X0026084Y0099768D01*
X0026084Y0100346D01*
X0035069Y0100346D01*
X0035069Y0100626D01*
X0037308Y0100626D01*
X0036547Y0100310D01*
X0035872Y0099635D01*
X0035664Y0099134D02*
X0035069Y0099134D01*
X0034855Y0098336D02*
X0035506Y0098336D01*
X0035188Y0097537D02*
X0034669Y0097537D01*
X0035751Y0096120D02*
X0037906Y0098276D01*
X0040306Y0098336D02*
X0068531Y0098336D01*
X0068531Y0099134D02*
X0040149Y0099134D01*
X0040306Y0098753D02*
X0039941Y0099635D01*
X0039266Y0100310D01*
X0038505Y0100626D01*
X0068531Y0100626D01*
X0068531Y0090754D01*
X0067672Y0090754D01*
X0067672Y0086801D01*
X0066872Y0086801D01*
X0066872Y0090754D01*
X0064528Y0090754D01*
X0064172Y0090658D01*
X0063853Y0090474D01*
X0063592Y0090213D01*
X0063408Y0089894D01*
X0063350Y0089679D01*
X0063350Y0089768D01*
X0062765Y0090354D01*
X0056818Y0090354D01*
X0056232Y0089768D01*
X0056232Y0089439D01*
X0055456Y0090216D01*
X0053802Y0090901D01*
X0052011Y0090901D01*
X0050357Y0090216D01*
X0049092Y0088950D01*
X0048406Y0087296D01*
X0048406Y0085506D01*
X0049092Y0083852D01*
X0050357Y0082586D01*
X0052011Y0081901D01*
X0053802Y0081901D01*
X0055456Y0082586D01*
X0056232Y0083363D01*
X0056232Y0083034D01*
X0056818Y0082448D01*
X0061764Y0082448D01*
X0062131Y0082081D01*
X0062131Y0072624D01*
X0061816Y0073385D01*
X0061141Y0074060D01*
X0060259Y0074426D01*
X0059304Y0074426D01*
X0058422Y0074060D01*
X0057747Y0073385D01*
X0057505Y0072801D01*
X0055670Y0072801D01*
X0056721Y0073852D01*
X0057406Y0075506D01*
X0057406Y0077296D01*
X0056721Y0078950D01*
X0055456Y0080216D01*
X0053802Y0080901D01*
X0052011Y0080901D01*
X0050357Y0080216D01*
X0049092Y0078950D01*
X0048616Y0077801D01*
X0034669Y0077801D01*
X0034669Y0077905D01*
X0034453Y0078121D01*
X0034679Y0078347D01*
X0034936Y0078792D01*
X0035069Y0079289D01*
X0035069Y0080083D01*
X0026084Y0080083D01*
X0026084Y0080661D01*
X0035069Y0080661D01*
X0035069Y0081456D01*
X0034936Y0081952D01*
X0034679Y0082397D01*
X0034453Y0082624D01*
X0034669Y0082840D01*
X0034669Y0085779D01*
X0034453Y0085995D01*
X0034679Y0086221D01*
X0034936Y0086666D01*
X0035069Y0087163D01*
X0035069Y0087957D01*
X0026084Y0087957D01*
X0026084Y0088535D01*
X0035069Y0088535D01*
X0035069Y0089330D01*
X0034936Y0089826D01*
X0034679Y0090271D01*
X0034453Y0090498D01*
X0034669Y0090714D01*
X0034669Y0090783D01*
X0035506Y0090783D01*
X0035506Y0090298D01*
X0035872Y0089416D01*
X0036547Y0088741D01*
X0037429Y0088376D01*
X0038384Y0088376D01*
X0039266Y0088741D01*
X0039941Y0089416D01*
X0040306Y0090298D01*
X0040306Y0091253D01*
X0039941Y0092135D01*
X0039266Y0092810D01*
X0038384Y0093176D01*
X0037486Y0093176D01*
X0037079Y0093583D01*
X0034669Y0093583D01*
X0034669Y0093653D01*
X0034170Y0094152D01*
X0034669Y0094651D01*
X0034669Y0094720D01*
X0036331Y0094720D01*
X0037486Y0095876D01*
X0038384Y0095876D01*
X0039266Y0096241D01*
X0039941Y0096916D01*
X0040306Y0097798D01*
X0040306Y0098753D01*
X0040198Y0097537D02*
X0068531Y0097537D01*
X0068531Y0096739D02*
X0039764Y0096739D01*
X0038540Y0095940D02*
X0068531Y0095940D01*
X0068531Y0095142D02*
X0036752Y0095142D01*
X0035751Y0096120D02*
X0025795Y0096120D01*
X0025795Y0092183D02*
X0036499Y0092183D01*
X0037906Y0090776D01*
X0040019Y0091948D02*
X0068531Y0091948D01*
X0068531Y0092746D02*
X0039330Y0092746D01*
X0040306Y0091149D02*
X0068531Y0091149D01*
X0067672Y0090351D02*
X0066872Y0090351D01*
X0066872Y0089552D02*
X0067672Y0089552D01*
X0067672Y0088754D02*
X0066872Y0088754D01*
X0066872Y0087955D02*
X0067672Y0087955D01*
X0067672Y0087157D02*
X0066872Y0087157D01*
X0066872Y0086001D02*
X0067672Y0086001D01*
X0067672Y0082048D01*
X0068531Y0082048D01*
X0068531Y0070754D01*
X0067672Y0070754D01*
X0067672Y0066801D01*
X0071231Y0066801D01*
X0071231Y0069538D01*
X0071135Y0069894D01*
X0070987Y0070151D01*
X0078938Y0070151D01*
X0069631Y0060844D01*
X0069631Y0059325D01*
X0067587Y0059325D01*
X0064931Y0061981D01*
X0064931Y0062048D01*
X0066872Y0062048D01*
X0066872Y0066001D01*
X0067672Y0066001D01*
X0067672Y0066801D01*
X0066872Y0066801D01*
X0066872Y0070754D01*
X0064931Y0070754D01*
X0064931Y0082048D01*
X0066872Y0082048D01*
X0066872Y0086001D01*
X0066872Y0085560D02*
X0067672Y0085560D01*
X0067672Y0084761D02*
X0066872Y0084761D01*
X0066872Y0083963D02*
X0067672Y0083963D01*
X0067672Y0083164D02*
X0066872Y0083164D01*
X0066872Y0082366D02*
X0067672Y0082366D01*
X0068531Y0081567D02*
X0064931Y0081567D01*
X0064931Y0080769D02*
X0068531Y0080769D01*
X0068531Y0079970D02*
X0064931Y0079970D01*
X0064931Y0079172D02*
X0068531Y0079172D01*
X0068531Y0078373D02*
X0064931Y0078373D01*
X0064931Y0077575D02*
X0068531Y0077575D01*
X0068531Y0076776D02*
X0064931Y0076776D01*
X0064931Y0075978D02*
X0068531Y0075978D01*
X0068531Y0075179D02*
X0064931Y0075179D01*
X0064931Y0074381D02*
X0068531Y0074381D01*
X0068531Y0073582D02*
X0064931Y0073582D01*
X0064931Y0072784D02*
X0068531Y0072784D01*
X0068531Y0071985D02*
X0064931Y0071985D01*
X0064931Y0071186D02*
X0068531Y0071186D01*
X0067672Y0070388D02*
X0066872Y0070388D01*
X0066872Y0069589D02*
X0067672Y0069589D01*
X0067672Y0068791D02*
X0066872Y0068791D01*
X0066872Y0067992D02*
X0067672Y0067992D01*
X0067672Y0067194D02*
X0066872Y0067194D01*
X0067672Y0066395D02*
X0075183Y0066395D01*
X0074385Y0065597D02*
X0071231Y0065597D01*
X0071231Y0066001D02*
X0067672Y0066001D01*
X0067672Y0062048D01*
X0070015Y0062048D01*
X0070371Y0062143D01*
X0070690Y0062328D01*
X0070951Y0062588D01*
X0071135Y0062908D01*
X0071231Y0063264D01*
X0071231Y0066001D01*
X0071231Y0067194D02*
X0075982Y0067194D01*
X0076780Y0067992D02*
X0071231Y0067992D01*
X0071231Y0068791D02*
X0077579Y0068791D01*
X0078377Y0069589D02*
X0071217Y0069589D01*
X0071031Y0072026D02*
X0071031Y0100626D01*
X0080863Y0100626D01*
X0080863Y0093974D01*
X0081449Y0093388D01*
X0087576Y0093388D01*
X0090204Y0090760D01*
X0090204Y0090292D01*
X0090070Y0090523D01*
X0089809Y0090784D01*
X0089490Y0090968D01*
X0089134Y0091064D01*
X0085806Y0091064D01*
X0085806Y0086914D01*
X0085007Y0086914D01*
X0085007Y0091064D01*
X0081679Y0091064D01*
X0081323Y0090968D01*
X0081004Y0090784D01*
X0080743Y0090523D01*
X0080559Y0090204D01*
X0080463Y0089848D01*
X0080463Y0086914D01*
X0085006Y0086914D01*
X0085006Y0086114D01*
X0080463Y0086114D01*
X0080463Y0083949D01*
X0076556Y0087856D01*
X0076556Y0088128D01*
X0076191Y0089010D01*
X0075516Y0089685D01*
X0074634Y0090051D01*
X0073679Y0090051D01*
X0072797Y0089685D01*
X0072122Y0089010D01*
X0071756Y0088128D01*
X0071756Y0087173D01*
X0072122Y0086291D01*
X0072797Y0085616D01*
X0073679Y0085251D01*
X0074634Y0085251D01*
X0075035Y0085417D01*
X0078483Y0081969D01*
X0077170Y0081969D01*
X0077170Y0077426D01*
X0081319Y0077426D01*
X0081319Y0079133D01*
X0083644Y0076809D01*
X0083644Y0074856D01*
X0080813Y0072026D01*
X0071031Y0072026D01*
X0071031Y0072784D02*
X0072407Y0072784D01*
X0072315Y0072942D02*
X0072500Y0072623D01*
X0072760Y0072362D01*
X0073080Y0072178D01*
X0073436Y0072082D01*
X0076370Y0072082D01*
X0076370Y0076626D01*
X0077170Y0076626D01*
X0077170Y0077426D01*
X0076370Y0077426D01*
X0076370Y0081969D01*
X0073436Y0081969D01*
X0073080Y0081874D01*
X0072760Y0081689D01*
X0072500Y0081429D01*
X0072315Y0081109D01*
X0072220Y0080753D01*
X0072220Y0077426D01*
X0076370Y0077426D01*
X0076370Y0076626D01*
X0072220Y0076626D01*
X0072220Y0073298D01*
X0072315Y0072942D01*
X0072220Y0073582D02*
X0071031Y0073582D01*
X0071031Y0074381D02*
X0072220Y0074381D01*
X0072220Y0075179D02*
X0071031Y0075179D01*
X0071031Y0075978D02*
X0072220Y0075978D01*
X0071031Y0076776D02*
X0076370Y0076776D01*
X0076370Y0075978D02*
X0077170Y0075978D01*
X0077170Y0076626D02*
X0077170Y0072082D01*
X0080104Y0072082D01*
X0080460Y0072178D01*
X0080779Y0072362D01*
X0081040Y0072623D01*
X0081224Y0072942D01*
X0081319Y0073298D01*
X0081319Y0076626D01*
X0077170Y0076626D01*
X0077170Y0076776D02*
X0083644Y0076776D01*
X0083644Y0075978D02*
X0081319Y0075978D01*
X0081319Y0075179D02*
X0083644Y0075179D01*
X0083168Y0074381D02*
X0081319Y0074381D01*
X0081319Y0073582D02*
X0082370Y0073582D01*
X0081571Y0072784D02*
X0081132Y0072784D01*
X0077170Y0072784D02*
X0076370Y0072784D01*
X0076370Y0073582D02*
X0077170Y0073582D01*
X0077170Y0074381D02*
X0076370Y0074381D01*
X0076370Y0075179D02*
X0077170Y0075179D01*
X0077170Y0077575D02*
X0076370Y0077575D01*
X0076370Y0078373D02*
X0077170Y0078373D01*
X0077170Y0079172D02*
X0076370Y0079172D01*
X0076370Y0079970D02*
X0077170Y0079970D01*
X0077170Y0080769D02*
X0076370Y0080769D01*
X0076370Y0081567D02*
X0077170Y0081567D01*
X0078087Y0082366D02*
X0071031Y0082366D01*
X0071031Y0083164D02*
X0077288Y0083164D01*
X0076490Y0083963D02*
X0071031Y0083963D01*
X0071031Y0084761D02*
X0075691Y0084761D01*
X0078852Y0085560D02*
X0080463Y0085560D01*
X0080463Y0084761D02*
X0079651Y0084761D01*
X0080450Y0083963D02*
X0080463Y0083963D01*
X0082448Y0081964D02*
X0085007Y0081964D01*
X0085007Y0086114D01*
X0085806Y0086114D01*
X0085806Y0081964D01*
X0089134Y0081964D01*
X0089490Y0082060D01*
X0089809Y0082244D01*
X0090070Y0082505D01*
X0090254Y0082824D01*
X0090350Y0083180D01*
X0090350Y0086114D01*
X0085807Y0086114D01*
X0085807Y0086914D01*
X0090350Y0086914D01*
X0090350Y0087041D01*
X0090790Y0086602D01*
X0092756Y0086602D01*
X0092756Y0082071D01*
X0095426Y0079401D01*
X0098532Y0079401D01*
X0098532Y0077041D01*
X0098610Y0076963D01*
X0098532Y0076885D01*
X0098532Y0074482D01*
X0099118Y0073896D01*
X0103884Y0073896D01*
X0104469Y0074482D01*
X0104469Y0076885D01*
X0104392Y0076963D01*
X0104469Y0077041D01*
X0104469Y0079376D01*
X0106702Y0079376D01*
X0107756Y0078321D01*
X0107756Y0072026D01*
X0099261Y0072026D01*
X0097431Y0073856D01*
X0096611Y0074676D01*
X0092123Y0074676D01*
X0091943Y0074856D01*
X0091943Y0080983D01*
X0091357Y0081569D01*
X0084229Y0081569D01*
X0083644Y0080983D01*
X0083644Y0080768D01*
X0082448Y0081964D01*
X0082845Y0081567D02*
X0084228Y0081567D01*
X0083644Y0080769D02*
X0083644Y0080769D01*
X0085007Y0082366D02*
X0085806Y0082366D01*
X0085806Y0083164D02*
X0085007Y0083164D01*
X0085007Y0083963D02*
X0085806Y0083963D01*
X0085806Y0084761D02*
X0085007Y0084761D01*
X0085007Y0085560D02*
X0085806Y0085560D01*
X0085807Y0086358D02*
X0092756Y0086358D01*
X0092756Y0085560D02*
X0090350Y0085560D01*
X0090350Y0084761D02*
X0092756Y0084761D01*
X0092756Y0083963D02*
X0090350Y0083963D01*
X0090346Y0083164D02*
X0092756Y0083164D01*
X0092756Y0082366D02*
X0089931Y0082366D01*
X0091359Y0081567D02*
X0093260Y0081567D01*
X0094059Y0080769D02*
X0091943Y0080769D01*
X0091943Y0079970D02*
X0094857Y0079970D01*
X0096006Y0080801D02*
X0094156Y0082651D01*
X0094156Y0090161D01*
X0092783Y0090161D01*
X0085406Y0097538D01*
X0080863Y0097537D02*
X0071031Y0097537D01*
X0071031Y0096739D02*
X0080863Y0096739D01*
X0080863Y0095940D02*
X0071031Y0095940D01*
X0071031Y0095142D02*
X0080863Y0095142D01*
X0080863Y0094343D02*
X0071031Y0094343D01*
X0071031Y0093545D02*
X0081292Y0093545D01*
X0080643Y0090351D02*
X0071031Y0090351D01*
X0071031Y0091149D02*
X0089815Y0091149D01*
X0090170Y0090351D02*
X0090204Y0090351D01*
X0089016Y0091948D02*
X0071031Y0091948D01*
X0071031Y0092746D02*
X0088218Y0092746D01*
X0085806Y0090351D02*
X0085007Y0090351D01*
X0085007Y0089552D02*
X0085806Y0089552D01*
X0085806Y0088754D02*
X0085007Y0088754D01*
X0085007Y0087955D02*
X0085806Y0087955D01*
X0085806Y0087157D02*
X0085007Y0087157D01*
X0085006Y0086358D02*
X0078054Y0086358D01*
X0077255Y0087157D02*
X0080463Y0087157D01*
X0080463Y0087955D02*
X0076556Y0087955D01*
X0076297Y0088754D02*
X0080463Y0088754D01*
X0080463Y0089552D02*
X0075649Y0089552D01*
X0074781Y0087651D02*
X0085406Y0077026D01*
X0087793Y0077026D01*
X0071031Y0060264D01*
X0071031Y0043276D01*
X0070562Y0042806D01*
X0070562Y0038993D01*
X0071962Y0040843D02*
X0080256Y0040843D01*
X0080256Y0040045D02*
X0073530Y0040045D01*
X0073530Y0039246D02*
X0080256Y0039246D01*
X0080256Y0038448D02*
X0073530Y0038448D01*
X0073517Y0037649D02*
X0080256Y0037649D01*
X0080256Y0036850D02*
X0073530Y0036850D01*
X0073530Y0036052D02*
X0080256Y0036052D01*
X0085397Y0036391D02*
X0085397Y0031401D01*
X0077916Y0031401D02*
X0077832Y0031316D01*
X0070562Y0031316D01*
X0067594Y0031261D02*
X0066901Y0031261D01*
X0067594Y0032059D02*
X0066103Y0032059D01*
X0066344Y0032858D02*
X0065304Y0032858D01*
X0065546Y0033656D02*
X0064506Y0033656D01*
X0064747Y0034455D02*
X0063707Y0034455D01*
X0062909Y0035253D02*
X0064631Y0035253D01*
X0064631Y0036052D02*
X0057663Y0036052D01*
X0058461Y0036850D02*
X0064631Y0036850D01*
X0064631Y0037649D02*
X0059260Y0037649D01*
X0059306Y0038448D02*
X0064631Y0038448D01*
X0064631Y0039246D02*
X0059306Y0039246D01*
X0059306Y0040045D02*
X0064631Y0040045D01*
X0064631Y0040843D02*
X0059306Y0040843D01*
X0059306Y0041642D02*
X0064631Y0041642D01*
X0064631Y0042440D02*
X0059306Y0042440D01*
X0059306Y0043239D02*
X0064631Y0043239D01*
X0064631Y0044037D02*
X0059306Y0044037D01*
X0056506Y0044037D02*
X0047431Y0044037D01*
X0047431Y0043239D02*
X0056506Y0043239D01*
X0056506Y0042440D02*
X0047431Y0042440D01*
X0047431Y0041642D02*
X0056506Y0041642D01*
X0056506Y0040843D02*
X0047431Y0040843D01*
X0047431Y0040045D02*
X0049779Y0040045D01*
X0049779Y0039246D02*
X0047431Y0039246D01*
X0047431Y0038448D02*
X0049779Y0038448D01*
X0049792Y0037649D02*
X0047431Y0037649D01*
X0047431Y0036850D02*
X0049779Y0036850D01*
X0049779Y0036052D02*
X0047431Y0036052D01*
X0047431Y0035253D02*
X0049779Y0035253D01*
X0049779Y0034455D02*
X0047431Y0034455D01*
X0047431Y0033656D02*
X0049779Y0033656D01*
X0049779Y0032858D02*
X0047431Y0032858D01*
X0047431Y0032059D02*
X0049779Y0032059D01*
X0049779Y0031261D02*
X0047431Y0031261D01*
X0047431Y0030462D02*
X0049779Y0030462D01*
X0050229Y0029664D02*
X0047431Y0029664D01*
X0048126Y0028865D02*
X0054591Y0028865D01*
X0055416Y0028067D02*
X0048431Y0028067D01*
X0048431Y0027268D02*
X0072559Y0027268D01*
X0073358Y0026470D02*
X0048140Y0026470D01*
X0047446Y0025671D02*
X0074156Y0025671D01*
X0074781Y0027026D02*
X0081656Y0027026D01*
X0074781Y0027026D02*
X0072906Y0028901D01*
X0067281Y0028901D01*
X0062307Y0033875D01*
X0052747Y0033875D01*
X0052747Y0031316D02*
X0056116Y0031316D01*
X0056656Y0030151D01*
X0058794Y0031261D02*
X0062941Y0031261D01*
X0062143Y0032059D02*
X0058142Y0032059D01*
X0059056Y0030462D02*
X0063740Y0030462D01*
X0064538Y0029664D02*
X0059053Y0029664D01*
X0058722Y0028865D02*
X0065337Y0028865D01*
X0066136Y0028067D02*
X0057897Y0028067D01*
X0066031Y0035151D02*
X0067307Y0033875D01*
X0070562Y0033875D01*
X0073530Y0033656D02*
X0074357Y0033656D01*
X0074357Y0032858D02*
X0073530Y0032858D01*
X0073530Y0034455D02*
X0074357Y0034455D01*
X0074843Y0035253D02*
X0073530Y0035253D01*
X0070562Y0036434D02*
X0066065Y0036434D01*
X0066031Y0036401D01*
X0066031Y0047661D01*
X0066656Y0048286D01*
X0062704Y0048030D02*
X0062484Y0048030D01*
X0062484Y0048828D02*
X0062704Y0048828D01*
X0062704Y0049627D02*
X0062484Y0049627D01*
X0062484Y0050425D02*
X0062704Y0050425D01*
X0062704Y0051224D02*
X0062484Y0051224D01*
X0062484Y0052821D02*
X0062704Y0052821D01*
X0062704Y0053619D02*
X0062484Y0053619D01*
X0062484Y0054418D02*
X0062704Y0054418D01*
X0062704Y0055216D02*
X0062484Y0055216D01*
X0062484Y0056015D02*
X0062704Y0056015D01*
X0062704Y0056813D02*
X0062484Y0056813D01*
X0062484Y0057612D02*
X0062704Y0057612D01*
X0062704Y0058410D02*
X0062484Y0058410D01*
X0062015Y0059209D02*
X0063173Y0059209D01*
X0062945Y0060007D02*
X0059931Y0060007D01*
X0059931Y0060806D02*
X0062147Y0060806D01*
X0062131Y0061604D02*
X0059931Y0061604D01*
X0059931Y0062403D02*
X0062131Y0062403D01*
X0063531Y0061401D02*
X0063531Y0082661D01*
X0059791Y0086401D01*
X0052906Y0086401D01*
X0048406Y0086358D02*
X0034758Y0086358D01*
X0034669Y0085560D02*
X0048406Y0085560D01*
X0048715Y0084761D02*
X0034669Y0084761D01*
X0034669Y0083963D02*
X0049046Y0083963D01*
X0049779Y0083164D02*
X0034669Y0083164D01*
X0034698Y0082366D02*
X0050889Y0082366D01*
X0051692Y0080769D02*
X0035069Y0080769D01*
X0035039Y0081567D02*
X0062131Y0081567D01*
X0062131Y0080769D02*
X0054121Y0080769D01*
X0055701Y0079970D02*
X0062131Y0079970D01*
X0062131Y0079172D02*
X0056500Y0079172D01*
X0056960Y0078373D02*
X0062131Y0078373D01*
X0062131Y0077575D02*
X0057291Y0077575D01*
X0057406Y0076776D02*
X0062131Y0076776D01*
X0062131Y0075978D02*
X0057406Y0075978D01*
X0057271Y0075179D02*
X0062131Y0075179D01*
X0062131Y0074381D02*
X0060368Y0074381D01*
X0059195Y0074381D02*
X0056940Y0074381D01*
X0056452Y0073582D02*
X0057944Y0073582D01*
X0059781Y0072026D02*
X0059156Y0071401D01*
X0037906Y0071401D01*
X0036809Y0072498D01*
X0025795Y0072498D01*
X0025830Y0076401D02*
X0025795Y0076435D01*
X0025830Y0076401D02*
X0052906Y0076401D01*
X0048853Y0078373D02*
X0034694Y0078373D01*
X0035038Y0079172D02*
X0049313Y0079172D01*
X0050112Y0079970D02*
X0035069Y0079970D01*
X0035068Y0087157D02*
X0048406Y0087157D01*
X0048680Y0087955D02*
X0035069Y0087955D01*
X0035069Y0088754D02*
X0036534Y0088754D01*
X0035816Y0089552D02*
X0035010Y0089552D01*
X0034600Y0090351D02*
X0035506Y0090351D01*
X0039279Y0088754D02*
X0049010Y0088754D01*
X0049694Y0089552D02*
X0039997Y0089552D01*
X0040306Y0090351D02*
X0050683Y0090351D01*
X0055130Y0090351D02*
X0056815Y0090351D01*
X0056232Y0089552D02*
X0056119Y0089552D01*
X0062767Y0090351D02*
X0063730Y0090351D01*
X0068531Y0093545D02*
X0037117Y0093545D01*
X0034362Y0094343D02*
X0068531Y0094343D01*
X0071031Y0098336D02*
X0080863Y0098336D01*
X0080863Y0099134D02*
X0071031Y0099134D01*
X0071031Y0099933D02*
X0080863Y0099933D01*
X0068531Y0099933D02*
X0039644Y0099933D01*
X0056034Y0083164D02*
X0056232Y0083164D01*
X0054924Y0082366D02*
X0061847Y0082366D01*
X0071031Y0081567D02*
X0072638Y0081567D01*
X0072224Y0080769D02*
X0071031Y0080769D01*
X0071031Y0079970D02*
X0072220Y0079970D01*
X0072220Y0079172D02*
X0071031Y0079172D01*
X0071031Y0078373D02*
X0072220Y0078373D01*
X0072220Y0077575D02*
X0071031Y0077575D01*
X0081319Y0077575D02*
X0082878Y0077575D01*
X0082079Y0078373D02*
X0081319Y0078373D01*
X0087793Y0077026D02*
X0091543Y0073276D01*
X0096031Y0073276D01*
X0105406Y0063901D01*
X0111656Y0063901D01*
X0119156Y0071401D01*
X0119156Y0075776D01*
X0119064Y0075683D01*
X0119316Y0075683D01*
X0117756Y0073896D02*
X0117756Y0072026D01*
X0110556Y0072026D01*
X0110556Y0079481D01*
X0108681Y0081356D01*
X0107861Y0082176D01*
X0104469Y0082176D01*
X0104469Y0084562D01*
X0103884Y0085148D01*
X0102901Y0085148D01*
X0102901Y0086915D01*
X0103107Y0087122D01*
X0103107Y0086784D01*
X0103693Y0086198D01*
X0109640Y0086198D01*
X0110225Y0086784D01*
X0110225Y0086873D01*
X0110283Y0086658D01*
X0110467Y0086338D01*
X0110728Y0086078D01*
X0111047Y0085893D01*
X0111403Y0085798D01*
X0113747Y0085798D01*
X0113747Y0089751D01*
X0114547Y0089751D01*
X0114547Y0090551D01*
X0118106Y0090551D01*
X0118106Y0093288D01*
X0118010Y0093644D01*
X0117862Y0093901D01*
X0118010Y0094158D01*
X0118106Y0094514D01*
X0118106Y0097251D01*
X0114547Y0097251D01*
X0114547Y0098051D01*
X0118106Y0098051D01*
X0118106Y0100626D01*
X0132027Y0100626D01*
X0131702Y0100301D01*
X0130881Y0099481D01*
X0130881Y0095821D01*
X0132756Y0093946D01*
X0133531Y0093171D01*
X0133531Y0088901D01*
X0134781Y0087651D01*
X0134781Y0078598D01*
X0133124Y0078598D01*
X0132304Y0077778D01*
X0131234Y0076708D01*
X0131234Y0081884D01*
X0130648Y0082470D01*
X0125330Y0082470D01*
X0125692Y0082832D01*
X0130648Y0082832D01*
X0131234Y0083418D01*
X0131234Y0089364D01*
X0130648Y0089950D01*
X0123915Y0089950D01*
X0123329Y0089364D01*
X0123329Y0084428D01*
X0122684Y0083784D01*
X0122684Y0084332D01*
X0122589Y0084688D01*
X0122405Y0085007D01*
X0122144Y0085268D01*
X0121825Y0085452D01*
X0121469Y0085548D01*
X0119316Y0085548D01*
X0119316Y0083361D01*
X0119316Y0083361D01*
X0119316Y0085548D01*
X0117163Y0085548D01*
X0116807Y0085452D01*
X0116488Y0085268D01*
X0116227Y0085007D01*
X0116043Y0084688D01*
X0115947Y0084332D01*
X0115947Y0083360D01*
X0115947Y0082389D01*
X0116043Y0082033D01*
X0116227Y0081713D01*
X0116347Y0081593D01*
X0116347Y0079600D01*
X0116425Y0079522D01*
X0116347Y0079444D01*
X0116347Y0077041D01*
X0116425Y0076963D01*
X0116347Y0076885D01*
X0116347Y0074482D01*
X0116933Y0073896D01*
X0117756Y0073896D01*
X0117756Y0073582D02*
X0110556Y0073582D01*
X0110556Y0072784D02*
X0117756Y0072784D01*
X0116449Y0074381D02*
X0110556Y0074381D01*
X0110556Y0075179D02*
X0116347Y0075179D01*
X0116347Y0075978D02*
X0110556Y0075978D01*
X0110556Y0076776D02*
X0116347Y0076776D01*
X0116347Y0077575D02*
X0110556Y0077575D01*
X0110556Y0078373D02*
X0116347Y0078373D01*
X0116347Y0079172D02*
X0110556Y0079172D01*
X0110067Y0079970D02*
X0116347Y0079970D01*
X0116347Y0080769D02*
X0109269Y0080769D01*
X0108470Y0081567D02*
X0116347Y0081567D01*
X0115954Y0082366D02*
X0104469Y0082366D01*
X0104469Y0083164D02*
X0115947Y0083164D01*
X0115947Y0083360D02*
X0119316Y0083360D01*
X0119316Y0083360D01*
X0115947Y0083360D01*
X0115947Y0083963D02*
X0104469Y0083963D01*
X0104270Y0084761D02*
X0116085Y0084761D01*
X0116890Y0085798D02*
X0114547Y0085798D01*
X0114547Y0089751D01*
X0118106Y0089751D01*
X0118106Y0087014D01*
X0118010Y0086658D01*
X0117826Y0086338D01*
X0117565Y0086078D01*
X0117246Y0085893D01*
X0116890Y0085798D01*
X0117837Y0086358D02*
X0123329Y0086358D01*
X0123329Y0085560D02*
X0102901Y0085560D01*
X0102901Y0086358D02*
X0103533Y0086358D01*
X0101501Y0087495D02*
X0104156Y0090151D01*
X0106666Y0090151D01*
X0106666Y0097651D01*
X0094166Y0097651D01*
X0094156Y0097641D01*
X0101501Y0087495D02*
X0101501Y0083360D01*
X0101501Y0080801D02*
X0101527Y0080776D01*
X0107281Y0080776D01*
X0109156Y0078901D01*
X0109156Y0066401D01*
X0114638Y0062403D02*
X0132756Y0062403D01*
X0132756Y0061604D02*
X0113840Y0061604D01*
X0113041Y0060806D02*
X0132756Y0060806D01*
X0132756Y0060007D02*
X0082878Y0060007D01*
X0082079Y0059209D02*
X0132756Y0059209D01*
X0132756Y0058410D02*
X0081281Y0058410D01*
X0080609Y0057612D02*
X0132756Y0057612D01*
X0131964Y0056813D02*
X0080609Y0056813D01*
X0080609Y0056015D02*
X0131166Y0056015D01*
X0130367Y0055216D02*
X0080609Y0055216D01*
X0080609Y0054418D02*
X0129569Y0054418D01*
X0128770Y0053619D02*
X0080609Y0053619D01*
X0080609Y0052821D02*
X0127972Y0052821D01*
X0127173Y0052022D02*
X0116211Y0052022D01*
X0117407Y0051224D02*
X0126374Y0051224D01*
X0125576Y0050425D02*
X0118206Y0050425D01*
X0124745Y0045634D02*
X0141131Y0045634D01*
X0141131Y0045298D02*
X0141497Y0044416D01*
X0142172Y0043741D01*
X0142830Y0043469D01*
X0142747Y0043385D01*
X0142381Y0042503D01*
X0142381Y0041548D01*
X0142747Y0040666D01*
X0143422Y0039991D01*
X0144304Y0039626D01*
X0145202Y0039626D01*
X0145919Y0038908D01*
X0147408Y0038908D01*
X0147408Y0038426D01*
X0143486Y0038426D01*
X0142236Y0039676D01*
X0129901Y0039676D01*
X0129266Y0040310D01*
X0128384Y0040676D01*
X0127429Y0040676D01*
X0126547Y0040310D01*
X0125872Y0039635D01*
X0125506Y0038753D01*
X0125506Y0037798D01*
X0125872Y0036916D01*
X0126547Y0036241D01*
X0127429Y0035876D01*
X0128384Y0035876D01*
X0129266Y0036241D01*
X0129901Y0036876D01*
X0141077Y0036876D01*
X0142327Y0035626D01*
X0147408Y0035626D01*
X0147408Y0034481D01*
X0147486Y0034403D01*
X0147408Y0034325D01*
X0147408Y0032883D01*
X0146114Y0031588D01*
X0145516Y0032185D01*
X0144634Y0032551D01*
X0143679Y0032551D01*
X0142797Y0032185D01*
X0142122Y0031510D01*
X0141756Y0030628D01*
X0141756Y0029673D01*
X0142122Y0028791D01*
X0142797Y0028116D01*
X0143679Y0027751D01*
X0144634Y0027751D01*
X0145516Y0028116D01*
X0146151Y0028751D01*
X0147236Y0028751D01*
X0147321Y0028835D01*
X0155944Y0028835D01*
X0155944Y0028159D01*
X0147008Y0028159D01*
X0147008Y0026837D01*
X0147104Y0026480D01*
X0147288Y0026161D01*
X0147408Y0026041D01*
X0147408Y0024676D01*
X0138005Y0024676D01*
X0138247Y0024918D01*
X0138981Y0026691D01*
X0138981Y0028611D01*
X0138247Y0030384D01*
X0136890Y0031741D01*
X0135116Y0032476D01*
X0133197Y0032476D01*
X0131423Y0031741D01*
X0130066Y0030384D01*
X0129514Y0029051D01*
X0127861Y0029051D01*
X0123681Y0033231D01*
X0123681Y0044571D01*
X0135556Y0056446D01*
X0135556Y0063008D01*
X0136890Y0063560D01*
X0138247Y0064918D01*
X0138793Y0066236D01*
X0139097Y0066236D01*
X0139917Y0067056D01*
X0141857Y0068997D01*
X0141756Y0068753D01*
X0141756Y0067798D01*
X0142122Y0066916D01*
X0142797Y0066241D01*
X0143679Y0065876D01*
X0144634Y0065876D01*
X0145516Y0066241D01*
X0146191Y0066916D01*
X0146556Y0067798D01*
X0146556Y0067924D01*
X0147408Y0067924D01*
X0147408Y0067843D01*
X0147288Y0067723D01*
X0147104Y0067404D01*
X0147008Y0067048D01*
X0147008Y0065725D01*
X0155944Y0065725D01*
X0155944Y0065049D01*
X0147008Y0065049D01*
X0147008Y0063726D01*
X0147104Y0063370D01*
X0147288Y0063051D01*
X0147408Y0062931D01*
X0147408Y0059559D01*
X0147542Y0059426D01*
X0146804Y0059426D01*
X0145922Y0059060D01*
X0145247Y0058385D01*
X0144881Y0057503D01*
X0144881Y0056548D01*
X0145247Y0055666D01*
X0145922Y0054991D01*
X0146804Y0054626D01*
X0147759Y0054626D01*
X0148641Y0054991D01*
X0149316Y0055666D01*
X0149681Y0056548D01*
X0149681Y0057446D01*
X0151209Y0058974D01*
X0162678Y0058974D01*
X0162678Y0051059D01*
X0156621Y0051059D01*
X0156621Y0048521D01*
X0155944Y0048521D01*
X0155944Y0051059D01*
X0148224Y0051059D01*
X0147868Y0050963D01*
X0147549Y0050779D01*
X0147288Y0050518D01*
X0147104Y0050199D01*
X0147008Y0049843D01*
X0147008Y0048520D01*
X0155944Y0048520D01*
X0155944Y0047844D01*
X0147008Y0047844D01*
X0147008Y0047176D01*
X0145526Y0047176D01*
X0144891Y0047810D01*
X0144009Y0048176D01*
X0143054Y0048176D01*
X0142172Y0047810D01*
X0141497Y0047135D01*
X0141131Y0046253D01*
X0141131Y0045298D01*
X0141323Y0044836D02*
X0123946Y0044836D01*
X0123681Y0044037D02*
X0141876Y0044037D01*
X0142686Y0043239D02*
X0123681Y0043239D01*
X0123681Y0042440D02*
X0142381Y0042440D01*
X0142381Y0041642D02*
X0123681Y0041642D01*
X0123681Y0040843D02*
X0142674Y0040843D01*
X0143369Y0040045D02*
X0129532Y0040045D01*
X0127906Y0038276D02*
X0141656Y0038276D01*
X0142906Y0037026D01*
X0148531Y0037026D01*
X0149156Y0036401D01*
X0156253Y0036401D01*
X0156282Y0036371D01*
X0156282Y0040308D02*
X0146499Y0040308D01*
X0144781Y0042026D01*
X0147906Y0045151D02*
X0155377Y0045151D01*
X0156282Y0044245D01*
X0155944Y0048030D02*
X0144362Y0048030D01*
X0145470Y0047231D02*
X0147008Y0047231D01*
X0147281Y0045776D02*
X0147906Y0045151D01*
X0147281Y0045776D02*
X0143531Y0045776D01*
X0141206Y0046433D02*
X0125543Y0046433D01*
X0126342Y0047231D02*
X0141593Y0047231D01*
X0142701Y0048030D02*
X0127140Y0048030D01*
X0127939Y0048828D02*
X0147008Y0048828D01*
X0147008Y0049627D02*
X0128737Y0049627D01*
X0129536Y0050425D02*
X0147234Y0050425D01*
X0145697Y0055216D02*
X0134327Y0055216D01*
X0133528Y0054418D02*
X0162678Y0054418D01*
X0162678Y0055216D02*
X0148866Y0055216D01*
X0149460Y0056015D02*
X0162678Y0056015D01*
X0162678Y0056813D02*
X0149681Y0056813D01*
X0149847Y0057612D02*
X0162678Y0057612D01*
X0162678Y0058410D02*
X0150646Y0058410D01*
X0151706Y0061450D02*
X0147281Y0057026D01*
X0145103Y0056015D02*
X0135125Y0056015D01*
X0135556Y0056813D02*
X0144881Y0056813D01*
X0144926Y0057612D02*
X0135556Y0057612D01*
X0135556Y0058410D02*
X0145272Y0058410D01*
X0146280Y0059209D02*
X0135556Y0059209D01*
X0135556Y0060007D02*
X0147408Y0060007D01*
X0147408Y0060806D02*
X0135556Y0060806D01*
X0135556Y0061604D02*
X0147408Y0061604D01*
X0147408Y0062403D02*
X0135556Y0062403D01*
X0136023Y0063201D02*
X0147201Y0063201D01*
X0147008Y0064000D02*
X0137329Y0064000D01*
X0138128Y0064798D02*
X0147008Y0064798D01*
X0147008Y0066395D02*
X0145670Y0066395D01*
X0146306Y0067194D02*
X0147048Y0067194D01*
X0145205Y0069324D02*
X0144156Y0068276D01*
X0145205Y0069324D02*
X0156282Y0069324D01*
X0156282Y0073261D02*
X0149156Y0073276D01*
X0147906Y0072026D01*
X0142906Y0072026D01*
X0138517Y0067636D01*
X0134142Y0067636D01*
X0134156Y0067651D01*
X0134156Y0057026D01*
X0122281Y0045151D01*
X0122281Y0032651D01*
X0127281Y0027651D01*
X0134156Y0027651D01*
X0129754Y0025671D02*
X0098559Y0025671D01*
X0098890Y0026470D02*
X0126483Y0026470D01*
X0125684Y0027268D02*
X0098981Y0027268D01*
X0098981Y0028067D02*
X0124886Y0028067D01*
X0124087Y0028865D02*
X0098876Y0028865D01*
X0098545Y0029664D02*
X0123288Y0029664D01*
X0122490Y0030462D02*
X0098168Y0030462D01*
X0097370Y0031261D02*
X0121691Y0031261D01*
X0120893Y0032059D02*
X0096121Y0032059D01*
X0098202Y0024873D02*
X0130111Y0024873D01*
X0138202Y0024873D02*
X0147408Y0024873D01*
X0147408Y0025671D02*
X0138559Y0025671D01*
X0138890Y0026470D02*
X0147110Y0026470D01*
X0147008Y0027268D02*
X0138981Y0027268D01*
X0138981Y0028067D02*
X0142916Y0028067D01*
X0142091Y0028865D02*
X0138876Y0028865D01*
X0138545Y0029664D02*
X0141760Y0029664D01*
X0141756Y0030462D02*
X0138168Y0030462D01*
X0137370Y0031261D02*
X0142019Y0031261D01*
X0142671Y0032059D02*
X0136121Y0032059D01*
X0132192Y0032059D02*
X0124853Y0032059D01*
X0125651Y0031261D02*
X0130943Y0031261D01*
X0130145Y0030462D02*
X0126450Y0030462D01*
X0127248Y0029664D02*
X0129768Y0029664D01*
X0124054Y0032858D02*
X0147384Y0032858D01*
X0147408Y0033656D02*
X0123681Y0033656D01*
X0123681Y0034455D02*
X0147434Y0034455D01*
X0147408Y0035253D02*
X0123681Y0035253D01*
X0123681Y0036052D02*
X0127004Y0036052D01*
X0125938Y0036850D02*
X0123681Y0036850D01*
X0123681Y0037649D02*
X0125568Y0037649D01*
X0125506Y0038448D02*
X0123681Y0038448D01*
X0123681Y0039246D02*
X0125711Y0039246D01*
X0126281Y0040045D02*
X0123681Y0040045D01*
X0129875Y0036850D02*
X0141102Y0036850D01*
X0141900Y0036052D02*
X0128809Y0036052D01*
X0142666Y0039246D02*
X0145581Y0039246D01*
X0147408Y0038448D02*
X0143465Y0038448D01*
X0145642Y0032059D02*
X0146585Y0032059D01*
X0146656Y0030151D02*
X0148940Y0032434D01*
X0156282Y0032434D01*
X0146656Y0030151D02*
X0144156Y0030151D01*
X0145397Y0028067D02*
X0147008Y0028067D01*
X0155944Y0048828D02*
X0156621Y0048828D01*
X0156621Y0049627D02*
X0155944Y0049627D01*
X0155944Y0050425D02*
X0156621Y0050425D01*
X0162678Y0051224D02*
X0130334Y0051224D01*
X0131133Y0052022D02*
X0162678Y0052022D01*
X0162678Y0052821D02*
X0131931Y0052821D01*
X0132730Y0053619D02*
X0162678Y0053619D01*
X0156282Y0061450D02*
X0151706Y0061450D01*
X0155944Y0065597D02*
X0138528Y0065597D01*
X0139256Y0066395D02*
X0142643Y0066395D01*
X0142007Y0067194D02*
X0140055Y0067194D01*
X0139917Y0067056D02*
X0139917Y0067056D01*
X0140853Y0067992D02*
X0141756Y0067992D01*
X0141772Y0068791D02*
X0141652Y0068791D01*
X0139289Y0070388D02*
X0138243Y0070388D01*
X0137444Y0071186D02*
X0140087Y0071186D01*
X0140886Y0071985D02*
X0136301Y0071985D01*
X0132866Y0074381D02*
X0147408Y0074381D01*
X0147436Y0075179D02*
X0133665Y0075179D01*
X0132068Y0073582D02*
X0147408Y0073582D01*
X0141684Y0072784D02*
X0131151Y0072784D01*
X0132012Y0071985D02*
X0124741Y0071985D01*
X0123942Y0071186D02*
X0130869Y0071186D01*
X0130070Y0070388D02*
X0123144Y0070388D01*
X0121825Y0069589D02*
X0129737Y0069589D01*
X0129406Y0068791D02*
X0121027Y0068791D01*
X0120228Y0067992D02*
X0129331Y0067992D01*
X0129331Y0067194D02*
X0119430Y0067194D01*
X0118631Y0066395D02*
X0129454Y0066395D01*
X0129785Y0065597D02*
X0117832Y0065597D01*
X0117034Y0064798D02*
X0130185Y0064798D01*
X0130984Y0064000D02*
X0116235Y0064000D01*
X0115437Y0063201D02*
X0132290Y0063201D01*
X0141506Y0072606D02*
X0141506Y0072606D01*
X0133704Y0077198D02*
X0156282Y0077198D01*
X0155944Y0080797D02*
X0147008Y0080797D01*
X0147008Y0079474D01*
X0147104Y0079118D01*
X0147288Y0078799D01*
X0147408Y0078679D01*
X0147408Y0078598D01*
X0136623Y0078598D01*
X0136816Y0078791D01*
X0137181Y0079673D01*
X0137181Y0080628D01*
X0136816Y0081510D01*
X0136656Y0081670D01*
X0136656Y0088901D01*
X0135406Y0090151D01*
X0135406Y0095251D01*
X0135884Y0095251D01*
X0136445Y0095483D01*
X0147408Y0095483D01*
X0147408Y0094992D01*
X0147486Y0094915D01*
X0147408Y0094837D01*
X0147408Y0094346D01*
X0141372Y0094346D01*
X0139577Y0092551D01*
X0138679Y0092551D01*
X0137797Y0092185D01*
X0137122Y0091510D01*
X0136756Y0090628D01*
X0136756Y0089673D01*
X0137122Y0088791D01*
X0137797Y0088116D01*
X0138679Y0087751D01*
X0139634Y0087751D01*
X0140516Y0088116D01*
X0141191Y0088791D01*
X0141556Y0089673D01*
X0141556Y0090571D01*
X0142532Y0091546D01*
X0147408Y0091546D01*
X0147408Y0091465D01*
X0147288Y0091345D01*
X0147104Y0091026D01*
X0147008Y0090670D01*
X0147008Y0089347D01*
X0155944Y0089347D01*
X0155944Y0088671D01*
X0147008Y0088671D01*
X0147008Y0087348D01*
X0147104Y0086992D01*
X0147288Y0086673D01*
X0147408Y0086553D01*
X0147408Y0083591D01*
X0147288Y0083471D01*
X0147104Y0083152D01*
X0147008Y0082796D01*
X0147008Y0081473D01*
X0155944Y0081473D01*
X0155944Y0080797D01*
X0147008Y0080769D02*
X0137123Y0080769D01*
X0137181Y0079970D02*
X0147008Y0079970D01*
X0147090Y0079172D02*
X0136974Y0079172D01*
X0134781Y0079172D02*
X0131234Y0079172D01*
X0131234Y0079970D02*
X0134781Y0079970D01*
X0134781Y0080769D02*
X0131234Y0080769D01*
X0131234Y0081567D02*
X0134781Y0081567D01*
X0134781Y0082366D02*
X0130753Y0082366D01*
X0130981Y0083164D02*
X0134781Y0083164D01*
X0134781Y0083963D02*
X0131234Y0083963D01*
X0131234Y0084761D02*
X0134781Y0084761D01*
X0134781Y0085560D02*
X0131234Y0085560D01*
X0131234Y0086358D02*
X0134781Y0086358D01*
X0134781Y0087157D02*
X0131234Y0087157D01*
X0131234Y0087955D02*
X0134477Y0087955D01*
X0133679Y0088754D02*
X0131234Y0088754D01*
X0131046Y0089552D02*
X0133531Y0089552D01*
X0133531Y0090351D02*
X0114547Y0090351D01*
X0114547Y0090551D02*
X0113747Y0090551D01*
X0113747Y0094504D01*
X0113747Y0097251D01*
X0114547Y0097251D01*
X0114547Y0090551D01*
X0114547Y0091149D02*
X0113747Y0091149D01*
X0113747Y0091948D02*
X0114547Y0091948D01*
X0114547Y0092746D02*
X0113747Y0092746D01*
X0113747Y0093545D02*
X0114547Y0093545D01*
X0114547Y0094343D02*
X0113747Y0094343D01*
X0113747Y0095142D02*
X0114547Y0095142D01*
X0114547Y0095940D02*
X0113747Y0095940D01*
X0113747Y0096739D02*
X0114547Y0096739D01*
X0114547Y0097537D02*
X0130881Y0097537D01*
X0130881Y0096739D02*
X0118106Y0096739D01*
X0118106Y0095940D02*
X0130881Y0095940D01*
X0131561Y0095142D02*
X0118106Y0095142D01*
X0118060Y0094343D02*
X0132359Y0094343D01*
X0133158Y0093545D02*
X0118037Y0093545D01*
X0118106Y0092746D02*
X0133531Y0092746D01*
X0133531Y0091948D02*
X0118106Y0091948D01*
X0118106Y0091149D02*
X0133531Y0091149D01*
X0135406Y0091149D02*
X0136972Y0091149D01*
X0136756Y0090351D02*
X0135406Y0090351D01*
X0136005Y0089552D02*
X0136807Y0089552D01*
X0136656Y0088754D02*
X0137159Y0088754D01*
X0136656Y0087955D02*
X0138186Y0087955D01*
X0136656Y0087157D02*
X0147060Y0087157D01*
X0147008Y0087955D02*
X0140127Y0087955D01*
X0141154Y0088754D02*
X0155944Y0088754D01*
X0156282Y0092946D02*
X0141952Y0092946D01*
X0139156Y0090151D01*
X0141556Y0090351D02*
X0147008Y0090351D01*
X0147008Y0089552D02*
X0141506Y0089552D01*
X0142135Y0091149D02*
X0147175Y0091149D01*
X0141369Y0094343D02*
X0135406Y0094343D01*
X0135406Y0093545D02*
X0140571Y0093545D01*
X0139772Y0092746D02*
X0135406Y0092746D01*
X0135406Y0091948D02*
X0137559Y0091948D01*
X0138531Y0094526D02*
X0134156Y0094526D01*
X0132281Y0096401D01*
X0132281Y0098901D01*
X0134201Y0100820D01*
X0156282Y0100820D01*
X0156282Y0096883D02*
X0136174Y0096883D01*
X0135406Y0097651D01*
X0135406Y0095142D02*
X0147408Y0095142D01*
X0147408Y0086358D02*
X0136656Y0086358D01*
X0136656Y0085560D02*
X0147408Y0085560D01*
X0147408Y0084761D02*
X0136656Y0084761D01*
X0136656Y0083963D02*
X0147408Y0083963D01*
X0147111Y0083164D02*
X0136656Y0083164D01*
X0136656Y0082366D02*
X0147008Y0082366D01*
X0147008Y0081567D02*
X0136759Y0081567D01*
X0132899Y0078373D02*
X0131234Y0078373D01*
X0131234Y0077575D02*
X0132100Y0077575D01*
X0131302Y0076776D02*
X0131234Y0076776D01*
X0131031Y0074526D02*
X0133704Y0077198D01*
X0131031Y0074526D02*
X0124781Y0074526D01*
X0112281Y0062026D01*
X0082906Y0062026D01*
X0081666Y0060786D01*
X0081666Y0060776D01*
X0076656Y0055766D01*
X0072704Y0056015D02*
X0072431Y0056015D01*
X0072431Y0056813D02*
X0072704Y0056813D01*
X0072704Y0057612D02*
X0072431Y0057612D01*
X0072431Y0058410D02*
X0072704Y0058410D01*
X0072431Y0059209D02*
X0073173Y0059209D01*
X0072755Y0060007D02*
X0078918Y0060007D01*
X0079716Y0060806D02*
X0073553Y0060806D01*
X0074352Y0061604D02*
X0080505Y0061604D01*
X0081086Y0062186D02*
X0081086Y0062186D01*
X0081304Y0062403D02*
X0075150Y0062403D01*
X0075949Y0063201D02*
X0082102Y0063201D01*
X0081506Y0062606D02*
X0081506Y0062606D01*
X0078344Y0065597D02*
X0089785Y0065597D01*
X0089454Y0066395D02*
X0079143Y0066395D01*
X0079941Y0067194D02*
X0089331Y0067194D01*
X0089331Y0067992D02*
X0080740Y0067992D01*
X0081538Y0068791D02*
X0089406Y0068791D01*
X0089737Y0069589D02*
X0082337Y0069589D01*
X0077546Y0064798D02*
X0090185Y0064798D01*
X0090984Y0064000D02*
X0076747Y0064000D01*
X0073586Y0064798D02*
X0071231Y0064798D01*
X0071231Y0064000D02*
X0072787Y0064000D01*
X0071989Y0063201D02*
X0071214Y0063201D01*
X0071190Y0062403D02*
X0070765Y0062403D01*
X0070392Y0061604D02*
X0065308Y0061604D01*
X0066106Y0060806D02*
X0069631Y0060806D01*
X0069631Y0060007D02*
X0066905Y0060007D01*
X0066656Y0058276D02*
X0063531Y0061401D01*
X0066872Y0062403D02*
X0067672Y0062403D01*
X0067672Y0063201D02*
X0066872Y0063201D01*
X0066872Y0064000D02*
X0067672Y0064000D01*
X0067672Y0064798D02*
X0066872Y0064798D01*
X0066872Y0065597D02*
X0067672Y0065597D01*
X0059791Y0066401D02*
X0058531Y0065141D01*
X0058531Y0055766D01*
X0054579Y0056015D02*
X0052625Y0056015D01*
X0051827Y0055216D02*
X0054579Y0055216D01*
X0054579Y0054418D02*
X0051028Y0054418D01*
X0050556Y0053619D02*
X0054579Y0053619D01*
X0054579Y0052821D02*
X0050556Y0052821D01*
X0050556Y0052022D02*
X0069631Y0052022D01*
X0072431Y0052821D02*
X0072704Y0052821D01*
X0072704Y0053619D02*
X0072431Y0053619D01*
X0072431Y0054418D02*
X0072704Y0054418D01*
X0072704Y0055216D02*
X0072431Y0055216D01*
X0066656Y0055766D02*
X0066656Y0058276D01*
X0055406Y0060776D02*
X0049156Y0054526D01*
X0049156Y0051401D01*
X0046031Y0048276D01*
X0046031Y0027651D01*
X0040277Y0031261D02*
X0034634Y0031261D01*
X0034920Y0032059D02*
X0039563Y0032059D01*
X0039256Y0032858D02*
X0035719Y0032858D01*
X0035406Y0034526D02*
X0040406Y0034526D01*
X0041656Y0033276D01*
X0037281Y0037026D02*
X0025835Y0037026D01*
X0025795Y0037065D01*
X0025795Y0033128D02*
X0034009Y0033128D01*
X0035406Y0034526D01*
X0035309Y0038448D02*
X0034669Y0038448D01*
X0034382Y0039246D02*
X0036370Y0039246D01*
X0041849Y0041642D02*
X0044631Y0041642D01*
X0044631Y0042440D02*
X0042965Y0042440D01*
X0043355Y0043239D02*
X0044631Y0043239D01*
X0044631Y0044037D02*
X0043431Y0044037D01*
X0047431Y0044836D02*
X0055055Y0044836D01*
X0054579Y0045634D02*
X0047431Y0045634D01*
X0047431Y0046433D02*
X0054579Y0046433D01*
X0054579Y0047231D02*
X0047431Y0047231D01*
X0047765Y0048030D02*
X0054579Y0048030D01*
X0054579Y0048828D02*
X0048564Y0048828D01*
X0049362Y0049627D02*
X0054579Y0049627D01*
X0054579Y0050425D02*
X0050161Y0050425D01*
X0050556Y0051224D02*
X0054579Y0051224D01*
X0057906Y0047661D02*
X0058531Y0048286D01*
X0057906Y0047661D02*
X0057906Y0038901D01*
X0057814Y0038993D01*
X0052747Y0038993D01*
X0052747Y0036434D02*
X0056065Y0036434D01*
X0057906Y0038276D01*
X0057906Y0038901D01*
X0066031Y0036401D02*
X0066031Y0035151D01*
X0071962Y0041642D02*
X0080256Y0041642D01*
X0080256Y0042440D02*
X0072176Y0042440D01*
X0072431Y0043239D02*
X0079724Y0043239D01*
X0078925Y0044037D02*
X0072431Y0044037D01*
X0072431Y0044836D02*
X0073180Y0044836D01*
X0072704Y0045634D02*
X0072431Y0045634D01*
X0072431Y0046433D02*
X0072704Y0046433D01*
X0072704Y0047231D02*
X0072431Y0047231D01*
X0063180Y0044836D02*
X0062007Y0044836D01*
X0062484Y0045634D02*
X0062704Y0045634D01*
X0062704Y0046433D02*
X0062484Y0046433D01*
X0062484Y0047231D02*
X0062704Y0047231D01*
X0054579Y0056813D02*
X0053424Y0056813D01*
X0054222Y0057612D02*
X0054579Y0057612D01*
X0053152Y0061604D02*
X0043379Y0061604D01*
X0043893Y0062403D02*
X0050799Y0062403D01*
X0049742Y0063201D02*
X0044056Y0063201D01*
X0043954Y0064000D02*
X0049030Y0064000D01*
X0048699Y0064798D02*
X0043528Y0064798D01*
X0042324Y0065597D02*
X0045344Y0065597D01*
X0044579Y0066395D02*
X0034826Y0066395D01*
X0035069Y0065597D02*
X0040989Y0065597D01*
X0038804Y0062403D02*
X0034483Y0062403D01*
X0039068Y0060687D02*
X0025795Y0060687D01*
X0025795Y0068561D02*
X0045746Y0068561D01*
X0046656Y0067651D01*
X0047969Y0065597D02*
X0048406Y0065597D01*
X0052906Y0066401D02*
X0059791Y0066401D01*
X0062065Y0072784D02*
X0062131Y0072784D01*
X0062131Y0073582D02*
X0061619Y0073582D01*
X0071031Y0085560D02*
X0072933Y0085560D01*
X0072094Y0086358D02*
X0071031Y0086358D01*
X0071031Y0087157D02*
X0071763Y0087157D01*
X0071756Y0087955D02*
X0071031Y0087955D01*
X0071031Y0088754D02*
X0072016Y0088754D01*
X0072664Y0089552D02*
X0071031Y0089552D01*
X0074156Y0087651D02*
X0074781Y0087651D01*
X0091943Y0079172D02*
X0098532Y0079172D01*
X0098532Y0078373D02*
X0091943Y0078373D01*
X0091943Y0077575D02*
X0098532Y0077575D01*
X0098532Y0076776D02*
X0091943Y0076776D01*
X0091943Y0075978D02*
X0098532Y0075978D01*
X0098532Y0075179D02*
X0091943Y0075179D01*
X0096907Y0074381D02*
X0098634Y0074381D01*
X0097705Y0073582D02*
X0107756Y0073582D01*
X0107756Y0072784D02*
X0098504Y0072784D01*
X0104368Y0074381D02*
X0107756Y0074381D01*
X0107756Y0075179D02*
X0104469Y0075179D01*
X0104469Y0075978D02*
X0107756Y0075978D01*
X0107756Y0076776D02*
X0104469Y0076776D01*
X0104469Y0077575D02*
X0107756Y0077575D01*
X0107704Y0078373D02*
X0104469Y0078373D01*
X0104469Y0079172D02*
X0106906Y0079172D01*
X0101501Y0080801D02*
X0096006Y0080801D01*
X0109800Y0086358D02*
X0110456Y0086358D01*
X0113747Y0086358D02*
X0114547Y0086358D01*
X0114547Y0087157D02*
X0113747Y0087157D01*
X0113747Y0087955D02*
X0114547Y0087955D01*
X0114547Y0088754D02*
X0113747Y0088754D01*
X0113747Y0089552D02*
X0114547Y0089552D01*
X0118106Y0089552D02*
X0123517Y0089552D01*
X0123329Y0088754D02*
X0118106Y0088754D01*
X0118106Y0087955D02*
X0123329Y0087955D01*
X0123329Y0087157D02*
X0118106Y0087157D01*
X0119316Y0084761D02*
X0119316Y0084761D01*
X0119316Y0083963D02*
X0119316Y0083963D01*
X0122547Y0084761D02*
X0123329Y0084761D01*
X0122863Y0083963D02*
X0122684Y0083963D01*
X0125406Y0084526D02*
X0126041Y0084526D01*
X0127281Y0086391D01*
X0125406Y0084526D02*
X0121692Y0080811D01*
X0121692Y0080801D01*
X0119316Y0080801D01*
X0119316Y0078242D02*
X0125988Y0078242D01*
X0127281Y0078911D01*
X0130881Y0098336D02*
X0118106Y0098336D01*
X0118106Y0099134D02*
X0130881Y0099134D01*
X0131334Y0099933D02*
X0118106Y0099933D01*
X0044631Y0048828D02*
X0026084Y0048828D01*
X0025506Y0048828D02*
X0012628Y0048828D01*
X0012628Y0049084D02*
X0012989Y0049445D01*
X0016521Y0049445D01*
X0016521Y0049165D01*
X0025506Y0049165D01*
X0025506Y0048587D01*
X0016521Y0048587D01*
X0016521Y0047793D01*
X0016654Y0047296D01*
X0016911Y0046851D01*
X0017138Y0046625D01*
X0016921Y0046408D01*
X0016921Y0043470D01*
X0017420Y0042971D01*
X0016921Y0042471D01*
X0016921Y0039533D01*
X0017420Y0039034D01*
X0016921Y0038534D01*
X0016921Y0035596D01*
X0017420Y0035097D01*
X0016921Y0034597D01*
X0016921Y0031659D01*
X0017138Y0031442D01*
X0016911Y0031216D01*
X0016654Y0030771D01*
X0016521Y0030275D01*
X0016521Y0029480D01*
X0025506Y0029480D01*
X0025506Y0028902D01*
X0016521Y0028902D01*
X0016521Y0028107D01*
X0016654Y0027611D01*
X0016911Y0027166D01*
X0017138Y0026940D01*
X0016921Y0026723D01*
X0016921Y0024686D01*
X0012989Y0024686D01*
X0012628Y0025047D01*
X0012628Y0049084D01*
X0012628Y0048030D02*
X0016521Y0048030D01*
X0016692Y0047231D02*
X0012628Y0047231D01*
X0012628Y0046433D02*
X0016945Y0046433D01*
X0016921Y0045634D02*
X0012628Y0045634D01*
X0012628Y0044836D02*
X0016921Y0044836D01*
X0016921Y0044037D02*
X0012628Y0044037D01*
X0012628Y0043239D02*
X0017153Y0043239D01*
X0016921Y0042440D02*
X0012628Y0042440D01*
X0012628Y0041642D02*
X0016921Y0041642D01*
X0016921Y0040843D02*
X0012628Y0040843D01*
X0012628Y0040045D02*
X0016921Y0040045D01*
X0017208Y0039246D02*
X0012628Y0039246D01*
X0012628Y0038448D02*
X0016921Y0038448D01*
X0016921Y0037649D02*
X0012628Y0037649D01*
X0012628Y0036850D02*
X0016921Y0036850D01*
X0016921Y0036052D02*
X0012628Y0036052D01*
X0012628Y0035253D02*
X0017264Y0035253D01*
X0016921Y0034455D02*
X0012628Y0034455D01*
X0012628Y0033656D02*
X0016921Y0033656D01*
X0016921Y0032858D02*
X0012628Y0032858D01*
X0012628Y0032059D02*
X0016921Y0032059D01*
X0016956Y0031261D02*
X0012628Y0031261D01*
X0012628Y0030462D02*
X0016572Y0030462D01*
X0016521Y0029664D02*
X0012628Y0029664D01*
X0012628Y0028865D02*
X0016521Y0028865D01*
X0016532Y0028067D02*
X0012628Y0028067D01*
X0012628Y0027268D02*
X0016852Y0027268D01*
X0016921Y0026470D02*
X0012628Y0026470D01*
X0012628Y0025671D02*
X0016921Y0025671D01*
X0016921Y0024873D02*
X0012802Y0024873D01*
D21*
X0037281Y0032026D03*
X0041656Y0033276D03*
X0037281Y0037026D03*
X0036031Y0042026D03*
X0041031Y0043901D03*
X0049156Y0047026D03*
X0055406Y0060776D03*
X0046656Y0067651D03*
X0041656Y0063276D03*
X0036656Y0064526D03*
X0059781Y0072026D03*
X0072281Y0077026D03*
X0073531Y0068276D03*
X0086031Y0065151D03*
X0109156Y0066401D03*
X0124781Y0067026D03*
X0139781Y0073901D03*
X0144156Y0068276D03*
X0144781Y0060151D03*
X0147281Y0057026D03*
X0156031Y0055151D03*
X0143531Y0045776D03*
X0144781Y0042026D03*
X0144156Y0033901D03*
X0144156Y0030151D03*
X0127906Y0038276D03*
X0124781Y0042651D03*
X0129156Y0057651D03*
X0134781Y0080151D03*
X0145406Y0080151D03*
X0139156Y0090151D03*
X0135406Y0097651D03*
X0074156Y0087651D03*
X0037906Y0090776D03*
X0037906Y0098276D03*
X0056656Y0030151D03*
X0046031Y0027651D03*
X0071031Y0025776D03*
M02*
