G75*
%MOIN*%
%OFA0B0*%
%FSLAX25Y25*%
%IPPOS*%
%LPD*%
%AMOC8*
5,1,8,0,0,1.08239X$1,22.5*
%
%ADD10C,0.00000*%
%ADD11R,0.04600X0.06300*%
%ADD12R,0.15748X0.02953*%
D10*
X0011031Y0023276D02*
X0164078Y0023276D01*
X0164078Y0102026D01*
X0011031Y0102026D01*
X0011228Y0101238D02*
X0012409Y0102026D01*
X0033276Y0102026D01*
X0011228Y0101238D02*
X0011228Y0059900D01*
X0012409Y0058719D01*
X0033276Y0058719D01*
X0033472Y0058719D02*
X0041740Y0058719D01*
X0041864Y0058717D01*
X0041987Y0058711D01*
X0042111Y0058702D01*
X0042233Y0058688D01*
X0042356Y0058671D01*
X0042478Y0058649D01*
X0042599Y0058624D01*
X0042719Y0058595D01*
X0042838Y0058563D01*
X0042957Y0058526D01*
X0043074Y0058486D01*
X0043189Y0058443D01*
X0043304Y0058395D01*
X0043416Y0058344D01*
X0043527Y0058290D01*
X0043637Y0058232D01*
X0043744Y0058171D01*
X0043850Y0058106D01*
X0043953Y0058038D01*
X0044054Y0057967D01*
X0044153Y0057893D01*
X0044250Y0057816D01*
X0044344Y0057735D01*
X0044435Y0057652D01*
X0044524Y0057566D01*
X0044610Y0057477D01*
X0044693Y0057386D01*
X0044774Y0057292D01*
X0044851Y0057195D01*
X0044925Y0057096D01*
X0044996Y0056995D01*
X0045064Y0056892D01*
X0045129Y0056786D01*
X0045190Y0056679D01*
X0045248Y0056569D01*
X0045302Y0056458D01*
X0045353Y0056346D01*
X0045401Y0056231D01*
X0045444Y0056116D01*
X0045484Y0055999D01*
X0045521Y0055880D01*
X0045553Y0055761D01*
X0045582Y0055641D01*
X0045607Y0055520D01*
X0045629Y0055398D01*
X0045646Y0055275D01*
X0045660Y0055153D01*
X0045669Y0055029D01*
X0045675Y0054906D01*
X0045677Y0054782D01*
X0045675Y0054658D01*
X0045669Y0054535D01*
X0045660Y0054411D01*
X0045646Y0054289D01*
X0045629Y0054166D01*
X0045607Y0054044D01*
X0045582Y0053923D01*
X0045553Y0053803D01*
X0045521Y0053684D01*
X0045484Y0053565D01*
X0045444Y0053448D01*
X0045401Y0053333D01*
X0045353Y0053218D01*
X0045302Y0053106D01*
X0045248Y0052995D01*
X0045190Y0052885D01*
X0045129Y0052778D01*
X0045064Y0052672D01*
X0044996Y0052569D01*
X0044925Y0052468D01*
X0044851Y0052369D01*
X0044774Y0052272D01*
X0044693Y0052178D01*
X0044610Y0052087D01*
X0044524Y0051998D01*
X0044435Y0051912D01*
X0044344Y0051829D01*
X0044250Y0051748D01*
X0044153Y0051671D01*
X0044054Y0051597D01*
X0043953Y0051526D01*
X0043850Y0051458D01*
X0043744Y0051393D01*
X0043637Y0051332D01*
X0043527Y0051274D01*
X0043416Y0051220D01*
X0043304Y0051169D01*
X0043189Y0051121D01*
X0043074Y0051078D01*
X0042957Y0051038D01*
X0042838Y0051001D01*
X0042719Y0050969D01*
X0042599Y0050940D01*
X0042478Y0050915D01*
X0042356Y0050893D01*
X0042233Y0050876D01*
X0042111Y0050862D01*
X0041987Y0050853D01*
X0041864Y0050847D01*
X0041740Y0050845D01*
X0012409Y0050845D01*
X0011228Y0049664D01*
X0011228Y0024467D01*
X0012409Y0023286D01*
X0056504Y0023286D01*
D11*
X0056031Y0028276D03*
X0050031Y0028276D03*
X0062031Y0028276D03*
D12*
X0156282Y0028497D03*
X0156282Y0032434D03*
X0156282Y0036371D03*
X0156282Y0040308D03*
X0156282Y0044245D03*
X0156282Y0048182D03*
X0156282Y0061450D03*
X0156282Y0065387D03*
X0156282Y0069324D03*
X0156282Y0073261D03*
X0156282Y0077198D03*
X0156282Y0081135D03*
X0156282Y0085072D03*
X0156282Y0089009D03*
X0156282Y0092946D03*
X0156282Y0096883D03*
X0156282Y0100820D03*
X0156282Y0024560D03*
M02*
