G75*
%MOIN*%
%OFA0B0*%
%FSLAX25Y25*%
%IPPOS*%
%LPD*%
%AMOC8*
5,1,8,0,0,1.08239X$1,22.5*
%
%ADD10C,0.00000*%
%ADD11C,0.07000*%
%ADD12R,0.04600X0.06300*%
%ADD13R,0.15748X0.02953*%
%ADD14C,0.01102*%
%ADD15C,0.07650*%
%ADD16C,0.02800*%
%ADD17C,0.00800*%
%ADD18C,0.03200*%
D10*
X0011031Y0023276D02*
X0164078Y0023276D01*
X0164078Y0102026D01*
X0011031Y0102026D01*
X0011228Y0101238D02*
X0012409Y0102026D01*
X0033276Y0102026D01*
X0011228Y0101238D02*
X0011228Y0059900D01*
X0012409Y0058719D01*
X0033276Y0058719D01*
X0033472Y0058719D02*
X0041740Y0058719D01*
X0041864Y0058717D01*
X0041987Y0058711D01*
X0042111Y0058702D01*
X0042233Y0058688D01*
X0042356Y0058671D01*
X0042478Y0058649D01*
X0042599Y0058624D01*
X0042719Y0058595D01*
X0042838Y0058563D01*
X0042957Y0058526D01*
X0043074Y0058486D01*
X0043189Y0058443D01*
X0043304Y0058395D01*
X0043416Y0058344D01*
X0043527Y0058290D01*
X0043637Y0058232D01*
X0043744Y0058171D01*
X0043850Y0058106D01*
X0043953Y0058038D01*
X0044054Y0057967D01*
X0044153Y0057893D01*
X0044250Y0057816D01*
X0044344Y0057735D01*
X0044435Y0057652D01*
X0044524Y0057566D01*
X0044610Y0057477D01*
X0044693Y0057386D01*
X0044774Y0057292D01*
X0044851Y0057195D01*
X0044925Y0057096D01*
X0044996Y0056995D01*
X0045064Y0056892D01*
X0045129Y0056786D01*
X0045190Y0056679D01*
X0045248Y0056569D01*
X0045302Y0056458D01*
X0045353Y0056346D01*
X0045401Y0056231D01*
X0045444Y0056116D01*
X0045484Y0055999D01*
X0045521Y0055880D01*
X0045553Y0055761D01*
X0045582Y0055641D01*
X0045607Y0055520D01*
X0045629Y0055398D01*
X0045646Y0055275D01*
X0045660Y0055153D01*
X0045669Y0055029D01*
X0045675Y0054906D01*
X0045677Y0054782D01*
X0045675Y0054658D01*
X0045669Y0054535D01*
X0045660Y0054411D01*
X0045646Y0054289D01*
X0045629Y0054166D01*
X0045607Y0054044D01*
X0045582Y0053923D01*
X0045553Y0053803D01*
X0045521Y0053684D01*
X0045484Y0053565D01*
X0045444Y0053448D01*
X0045401Y0053333D01*
X0045353Y0053218D01*
X0045302Y0053106D01*
X0045248Y0052995D01*
X0045190Y0052885D01*
X0045129Y0052778D01*
X0045064Y0052672D01*
X0044996Y0052569D01*
X0044925Y0052468D01*
X0044851Y0052369D01*
X0044774Y0052272D01*
X0044693Y0052178D01*
X0044610Y0052087D01*
X0044524Y0051998D01*
X0044435Y0051912D01*
X0044344Y0051829D01*
X0044250Y0051748D01*
X0044153Y0051671D01*
X0044054Y0051597D01*
X0043953Y0051526D01*
X0043850Y0051458D01*
X0043744Y0051393D01*
X0043637Y0051332D01*
X0043527Y0051274D01*
X0043416Y0051220D01*
X0043304Y0051169D01*
X0043189Y0051121D01*
X0043074Y0051078D01*
X0042957Y0051038D01*
X0042838Y0051001D01*
X0042719Y0050969D01*
X0042599Y0050940D01*
X0042478Y0050915D01*
X0042356Y0050893D01*
X0042233Y0050876D01*
X0042111Y0050862D01*
X0041987Y0050853D01*
X0041864Y0050847D01*
X0041740Y0050845D01*
X0012409Y0050845D01*
X0011228Y0049664D01*
X0011228Y0024467D01*
X0012409Y0023286D01*
X0056504Y0023286D01*
D11*
X0052906Y0066401D03*
X0052906Y0076401D03*
X0052906Y0086401D03*
D12*
X0050031Y0028276D03*
X0056031Y0028276D03*
X0062031Y0028276D03*
D13*
X0156282Y0028497D03*
X0156282Y0032434D03*
X0156282Y0036371D03*
X0156282Y0040308D03*
X0156282Y0044245D03*
X0156282Y0048182D03*
X0156282Y0061450D03*
X0156282Y0065387D03*
X0156282Y0069324D03*
X0156282Y0073261D03*
X0156282Y0077198D03*
X0156282Y0081135D03*
X0156282Y0085072D03*
X0156282Y0089009D03*
X0156282Y0092946D03*
X0156282Y0096883D03*
X0156282Y0100820D03*
X0156282Y0024560D03*
D14*
X0033118Y0024427D02*
X0018472Y0024427D01*
X0018472Y0026081D01*
X0033118Y0026081D01*
X0033118Y0024427D01*
X0033118Y0025528D02*
X0018472Y0025528D01*
X0018472Y0028364D02*
X0033118Y0028364D01*
X0018472Y0028364D02*
X0018472Y0030018D01*
X0033118Y0030018D01*
X0033118Y0028364D01*
X0033118Y0029465D02*
X0018472Y0029465D01*
X0018472Y0032301D02*
X0033118Y0032301D01*
X0018472Y0032301D02*
X0018472Y0033955D01*
X0033118Y0033955D01*
X0033118Y0032301D01*
X0033118Y0033402D02*
X0018472Y0033402D01*
X0018472Y0036238D02*
X0033118Y0036238D01*
X0018472Y0036238D02*
X0018472Y0037892D01*
X0033118Y0037892D01*
X0033118Y0036238D01*
X0033118Y0037339D02*
X0018472Y0037339D01*
X0018472Y0040175D02*
X0033118Y0040175D01*
X0018472Y0040175D02*
X0018472Y0041829D01*
X0033118Y0041829D01*
X0033118Y0040175D01*
X0033118Y0041276D02*
X0018472Y0041276D01*
X0018472Y0044112D02*
X0033118Y0044112D01*
X0018472Y0044112D02*
X0018472Y0045766D01*
X0033118Y0045766D01*
X0033118Y0044112D01*
X0033118Y0045213D02*
X0018472Y0045213D01*
X0018472Y0048049D02*
X0033118Y0048049D01*
X0018472Y0048049D02*
X0018472Y0049703D01*
X0033118Y0049703D01*
X0033118Y0048049D01*
X0033118Y0049150D02*
X0018472Y0049150D01*
X0018472Y0059860D02*
X0033118Y0059860D01*
X0018472Y0059860D02*
X0018472Y0061514D01*
X0033118Y0061514D01*
X0033118Y0059860D01*
X0033118Y0060961D02*
X0018472Y0060961D01*
X0018472Y0063797D02*
X0033118Y0063797D01*
X0018472Y0063797D02*
X0018472Y0065451D01*
X0033118Y0065451D01*
X0033118Y0063797D01*
X0033118Y0064898D02*
X0018472Y0064898D01*
X0018472Y0067734D02*
X0033118Y0067734D01*
X0018472Y0067734D02*
X0018472Y0069388D01*
X0033118Y0069388D01*
X0033118Y0067734D01*
X0033118Y0068835D02*
X0018472Y0068835D01*
X0018472Y0071671D02*
X0033118Y0071671D01*
X0018472Y0071671D02*
X0018472Y0073325D01*
X0033118Y0073325D01*
X0033118Y0071671D01*
X0033118Y0072772D02*
X0018472Y0072772D01*
X0018472Y0075608D02*
X0033118Y0075608D01*
X0018472Y0075608D02*
X0018472Y0077262D01*
X0033118Y0077262D01*
X0033118Y0075608D01*
X0033118Y0076709D02*
X0018472Y0076709D01*
X0018472Y0079545D02*
X0033118Y0079545D01*
X0018472Y0079545D02*
X0018472Y0081199D01*
X0033118Y0081199D01*
X0033118Y0079545D01*
X0033118Y0080646D02*
X0018472Y0080646D01*
X0018472Y0083482D02*
X0033118Y0083482D01*
X0018472Y0083482D02*
X0018472Y0085136D01*
X0033118Y0085136D01*
X0033118Y0083482D01*
X0033118Y0084583D02*
X0018472Y0084583D01*
X0018472Y0087419D02*
X0033118Y0087419D01*
X0018472Y0087419D02*
X0018472Y0089073D01*
X0033118Y0089073D01*
X0033118Y0087419D01*
X0033118Y0088520D02*
X0018472Y0088520D01*
X0018472Y0091356D02*
X0033118Y0091356D01*
X0018472Y0091356D02*
X0018472Y0093010D01*
X0033118Y0093010D01*
X0033118Y0091356D01*
X0033118Y0092457D02*
X0018472Y0092457D01*
X0018472Y0095293D02*
X0033118Y0095293D01*
X0018472Y0095293D02*
X0018472Y0096947D01*
X0033118Y0096947D01*
X0033118Y0095293D01*
X0033118Y0096394D02*
X0018472Y0096394D01*
X0018472Y0099230D02*
X0033118Y0099230D01*
X0018472Y0099230D02*
X0018472Y0100884D01*
X0033118Y0100884D01*
X0033118Y0099230D01*
X0033118Y0100331D02*
X0018472Y0100331D01*
D15*
X0094156Y0067651D03*
X0114156Y0047651D03*
X0134156Y0067651D03*
X0134156Y0027651D03*
X0094156Y0027651D03*
D16*
X0071031Y0025776D03*
X0056656Y0030151D03*
X0046031Y0027651D03*
X0041656Y0033276D03*
X0037281Y0032026D03*
X0037281Y0037026D03*
X0036031Y0042026D03*
X0041031Y0043901D03*
X0049156Y0047026D03*
X0055406Y0060776D03*
X0046656Y0067651D03*
X0041656Y0063276D03*
X0036656Y0064526D03*
X0059781Y0072026D03*
X0072281Y0077026D03*
X0073531Y0068276D03*
X0086031Y0065151D03*
X0109156Y0066401D03*
X0124781Y0067026D03*
X0139781Y0073901D03*
X0144156Y0068276D03*
X0144781Y0060151D03*
X0147281Y0057026D03*
X0156031Y0055151D03*
X0143531Y0045776D03*
X0144781Y0042026D03*
X0144156Y0033901D03*
X0144156Y0030151D03*
X0127906Y0038276D03*
X0124781Y0042651D03*
X0129156Y0057651D03*
X0134781Y0080151D03*
X0145406Y0080151D03*
X0139156Y0090151D03*
X0135406Y0097651D03*
X0074156Y0087651D03*
X0037906Y0090776D03*
X0037906Y0098276D03*
D17*
X0038531Y0098901D01*
X0134156Y0098901D01*
X0135406Y0097651D01*
X0139014Y0096883D02*
X0132281Y0090151D01*
X0076656Y0090151D01*
X0074156Y0087651D01*
X0064781Y0097026D01*
X0041031Y0097026D01*
X0039501Y0095495D01*
X0026312Y0095495D01*
X0026031Y0095776D01*
X0025795Y0096120D01*
X0025795Y0092183D02*
X0034939Y0092183D01*
X0036031Y0093276D01*
X0039781Y0093276D01*
X0041656Y0095151D01*
X0062281Y0095151D01*
X0072906Y0084526D01*
X0127281Y0084526D01*
X0131031Y0088276D01*
X0132906Y0088276D01*
X0137577Y0092946D01*
X0156282Y0092946D01*
X0156282Y0096883D02*
X0139014Y0096883D01*
X0139156Y0090151D02*
X0135406Y0086401D01*
X0132281Y0086401D01*
X0128531Y0082651D01*
X0072281Y0082651D01*
X0061656Y0093276D01*
X0042281Y0093276D01*
X0039781Y0090776D01*
X0037906Y0090776D01*
X0040377Y0088246D02*
X0025795Y0088246D01*
X0025795Y0084309D02*
X0040623Y0084309D01*
X0043531Y0081401D01*
X0067906Y0081401D01*
X0072281Y0077026D01*
X0071656Y0080776D02*
X0061031Y0091401D01*
X0043531Y0091401D01*
X0040377Y0088246D01*
X0026558Y0100820D02*
X0025795Y0100057D01*
X0026558Y0100820D02*
X0156282Y0100820D01*
X0156282Y0089009D02*
X0142281Y0088901D01*
X0136765Y0083384D01*
X0133640Y0083384D01*
X0131031Y0080776D01*
X0071656Y0080776D01*
X0062906Y0073276D02*
X0061031Y0075151D01*
X0058531Y0075151D01*
X0054781Y0071401D01*
X0046031Y0071401D01*
X0044934Y0072498D01*
X0025795Y0072498D01*
X0025795Y0068561D02*
X0035121Y0068561D01*
X0035406Y0068276D01*
X0041656Y0068276D01*
X0054156Y0055776D01*
X0097906Y0055776D01*
X0103531Y0061401D01*
X0129781Y0061401D01*
X0131031Y0060151D01*
X0139781Y0060151D01*
X0148955Y0069324D01*
X0156282Y0069324D01*
X0155944Y0065725D02*
X0155944Y0065049D01*
X0147008Y0065049D01*
X0147008Y0063726D01*
X0147104Y0063370D01*
X0147288Y0063051D01*
X0147408Y0062931D01*
X0147408Y0059559D01*
X0147542Y0059426D01*
X0146804Y0059426D01*
X0145922Y0059060D01*
X0145247Y0058385D01*
X0144881Y0057503D01*
X0144881Y0056606D01*
X0144202Y0055926D01*
X0125361Y0055926D01*
X0121286Y0060001D01*
X0129202Y0060001D01*
X0130452Y0058751D01*
X0140361Y0058751D01*
X0141181Y0059571D01*
X0147336Y0065725D01*
X0155944Y0065725D01*
X0155944Y0065597D02*
X0147207Y0065597D01*
X0147008Y0064798D02*
X0146409Y0064798D01*
X0147008Y0064000D02*
X0145610Y0064000D01*
X0144812Y0063201D02*
X0147201Y0063201D01*
X0147408Y0062403D02*
X0144013Y0062403D01*
X0143215Y0061604D02*
X0147408Y0061604D01*
X0147408Y0060806D02*
X0142416Y0060806D01*
X0141618Y0060007D02*
X0147408Y0060007D01*
X0146280Y0059209D02*
X0140819Y0059209D01*
X0137906Y0062026D02*
X0131656Y0062026D01*
X0130406Y0063276D01*
X0102281Y0063276D01*
X0096656Y0057651D01*
X0054781Y0057651D01*
X0046656Y0065776D01*
X0046656Y0067651D01*
X0042378Y0065575D02*
X0042134Y0065676D01*
X0041179Y0065676D01*
X0040297Y0065310D01*
X0039622Y0064635D01*
X0039256Y0063753D01*
X0039256Y0062798D01*
X0039551Y0062087D01*
X0034669Y0062087D01*
X0034669Y0062157D01*
X0034453Y0062373D01*
X0034679Y0062599D01*
X0034936Y0063044D01*
X0035069Y0063541D01*
X0035069Y0064335D01*
X0026084Y0064335D01*
X0026084Y0064913D01*
X0035069Y0064913D01*
X0035069Y0065708D01*
X0034936Y0066204D01*
X0034679Y0066649D01*
X0034453Y0066876D01*
X0034640Y0067063D01*
X0034827Y0066876D01*
X0041077Y0066876D01*
X0042378Y0065575D01*
X0042355Y0065597D02*
X0042324Y0065597D01*
X0041557Y0066395D02*
X0034826Y0066395D01*
X0035069Y0065597D02*
X0040989Y0065597D01*
X0039785Y0064798D02*
X0026084Y0064798D01*
X0025506Y0064798D02*
X0012628Y0064798D01*
X0012628Y0064000D02*
X0016521Y0064000D01*
X0016521Y0064335D02*
X0016521Y0063541D01*
X0016654Y0063044D01*
X0016911Y0062599D01*
X0017138Y0062373D01*
X0016921Y0062157D01*
X0016921Y0060119D01*
X0012989Y0060119D01*
X0012628Y0060480D01*
X0012628Y0100489D01*
X0012833Y0100626D01*
X0016921Y0100626D01*
X0016921Y0098588D01*
X0017420Y0098089D01*
X0016921Y0097590D01*
X0016921Y0094651D01*
X0017420Y0094152D01*
X0016921Y0093653D01*
X0016921Y0090714D01*
X0017420Y0090215D01*
X0016921Y0089716D01*
X0016921Y0086777D01*
X0017420Y0086278D01*
X0016921Y0085779D01*
X0016921Y0082840D01*
X0017420Y0082341D01*
X0016921Y0081842D01*
X0016921Y0078903D01*
X0017420Y0078404D01*
X0016921Y0077905D01*
X0016921Y0074966D01*
X0017420Y0074467D01*
X0016921Y0073968D01*
X0016921Y0071029D01*
X0017420Y0070530D01*
X0016921Y0070031D01*
X0016921Y0067092D01*
X0017138Y0066876D01*
X0016911Y0066649D01*
X0016654Y0066204D01*
X0016521Y0065708D01*
X0016521Y0064913D01*
X0025506Y0064913D01*
X0025506Y0064335D01*
X0016521Y0064335D01*
X0016612Y0063201D02*
X0012628Y0063201D01*
X0012628Y0062403D02*
X0017108Y0062403D01*
X0016921Y0061604D02*
X0012628Y0061604D01*
X0012628Y0060806D02*
X0016921Y0060806D01*
X0016521Y0065597D02*
X0012628Y0065597D01*
X0012628Y0066395D02*
X0016765Y0066395D01*
X0016921Y0067194D02*
X0012628Y0067194D01*
X0012628Y0067992D02*
X0016921Y0067992D01*
X0016921Y0068791D02*
X0012628Y0068791D01*
X0012628Y0069589D02*
X0016921Y0069589D01*
X0017279Y0070388D02*
X0012628Y0070388D01*
X0012628Y0071186D02*
X0016921Y0071186D01*
X0016921Y0071985D02*
X0012628Y0071985D01*
X0012628Y0072784D02*
X0016921Y0072784D01*
X0016921Y0073582D02*
X0012628Y0073582D01*
X0012628Y0074381D02*
X0017334Y0074381D01*
X0016921Y0075179D02*
X0012628Y0075179D01*
X0012628Y0075978D02*
X0016921Y0075978D01*
X0016921Y0076776D02*
X0012628Y0076776D01*
X0012628Y0077575D02*
X0016921Y0077575D01*
X0017390Y0078373D02*
X0012628Y0078373D01*
X0012628Y0079172D02*
X0016921Y0079172D01*
X0016921Y0079970D02*
X0012628Y0079970D01*
X0012628Y0080769D02*
X0016921Y0080769D01*
X0016921Y0081567D02*
X0012628Y0081567D01*
X0012628Y0082366D02*
X0017396Y0082366D01*
X0016921Y0083164D02*
X0012628Y0083164D01*
X0012628Y0083963D02*
X0016921Y0083963D01*
X0016921Y0084761D02*
X0012628Y0084761D01*
X0012628Y0085560D02*
X0016921Y0085560D01*
X0017340Y0086358D02*
X0012628Y0086358D01*
X0012628Y0087157D02*
X0016921Y0087157D01*
X0016921Y0087955D02*
X0012628Y0087955D01*
X0012628Y0088754D02*
X0016921Y0088754D01*
X0016921Y0089552D02*
X0012628Y0089552D01*
X0012628Y0090351D02*
X0017284Y0090351D01*
X0016921Y0091149D02*
X0012628Y0091149D01*
X0012628Y0091948D02*
X0016921Y0091948D01*
X0016921Y0092746D02*
X0012628Y0092746D01*
X0012628Y0093545D02*
X0016921Y0093545D01*
X0017229Y0094343D02*
X0012628Y0094343D01*
X0012628Y0095142D02*
X0016921Y0095142D01*
X0016921Y0095940D02*
X0012628Y0095940D01*
X0012628Y0096739D02*
X0016921Y0096739D01*
X0016921Y0097537D02*
X0012628Y0097537D01*
X0012628Y0098336D02*
X0017173Y0098336D01*
X0016921Y0099134D02*
X0012628Y0099134D01*
X0012628Y0099933D02*
X0016921Y0099933D01*
X0062906Y0073276D02*
X0136031Y0073276D01*
X0137906Y0071401D01*
X0147281Y0071401D01*
X0149156Y0073276D01*
X0156268Y0073276D01*
X0156282Y0073261D01*
X0147408Y0073508D02*
X0146702Y0072801D01*
X0138486Y0072801D01*
X0137431Y0073856D01*
X0136611Y0074676D01*
X0132777Y0074676D01*
X0133129Y0074822D01*
X0136980Y0078672D01*
X0137158Y0078672D01*
X0137978Y0079492D01*
X0142233Y0083748D01*
X0147408Y0083720D01*
X0147408Y0083181D01*
X0147486Y0083104D01*
X0147408Y0083026D01*
X0147408Y0079244D01*
X0147486Y0079167D01*
X0147408Y0079089D01*
X0147408Y0075307D01*
X0147486Y0075230D01*
X0147408Y0075152D01*
X0147408Y0073508D01*
X0147408Y0073582D02*
X0137705Y0073582D01*
X0136907Y0074381D02*
X0147408Y0074381D01*
X0147436Y0075179D02*
X0133487Y0075179D01*
X0134285Y0075978D02*
X0147408Y0075978D01*
X0147408Y0076776D02*
X0135084Y0076776D01*
X0135882Y0077575D02*
X0147408Y0077575D01*
X0147408Y0078373D02*
X0136681Y0078373D01*
X0137657Y0079172D02*
X0147481Y0079172D01*
X0147408Y0079970D02*
X0138456Y0079970D01*
X0139254Y0080769D02*
X0147408Y0080769D01*
X0147408Y0081567D02*
X0140053Y0081567D01*
X0140851Y0082366D02*
X0147408Y0082366D01*
X0147426Y0083164D02*
X0141650Y0083164D01*
X0141656Y0085151D02*
X0136578Y0080072D01*
X0135328Y0080072D01*
X0134781Y0080151D01*
X0141656Y0085151D02*
X0156282Y0085072D01*
X0134156Y0067651D02*
X0130406Y0071401D01*
X0097906Y0071401D01*
X0094156Y0067651D01*
X0090406Y0071401D01*
X0060406Y0071401D01*
X0059781Y0072026D01*
X0057381Y0072021D02*
X0057381Y0071548D01*
X0057747Y0070666D01*
X0058422Y0069991D01*
X0059304Y0069626D01*
X0060259Y0069626D01*
X0061141Y0069991D01*
X0061151Y0070001D01*
X0089827Y0070001D01*
X0089884Y0069944D01*
X0089331Y0068611D01*
X0089331Y0066691D01*
X0090066Y0064918D01*
X0091423Y0063560D01*
X0093197Y0062826D01*
X0095116Y0062826D01*
X0096890Y0063560D01*
X0098247Y0064918D01*
X0098981Y0066691D01*
X0098981Y0068611D01*
X0098429Y0069944D01*
X0098486Y0070001D01*
X0129827Y0070001D01*
X0129884Y0069944D01*
X0129331Y0068611D01*
X0129331Y0066691D01*
X0130066Y0064918D01*
X0130308Y0064676D01*
X0110826Y0064676D01*
X0111191Y0065041D01*
X0111556Y0065923D01*
X0111556Y0066878D01*
X0111191Y0067760D01*
X0110516Y0068435D01*
X0109634Y0068801D01*
X0108679Y0068801D01*
X0107797Y0068435D01*
X0107122Y0067760D01*
X0106756Y0066878D01*
X0106756Y0066551D01*
X0101077Y0066551D01*
X0100256Y0065731D01*
X0096702Y0062176D01*
X0057401Y0062176D01*
X0056766Y0062810D01*
X0055998Y0063128D01*
X0056721Y0063852D01*
X0057406Y0065506D01*
X0057406Y0067296D01*
X0056721Y0068950D01*
X0055516Y0070155D01*
X0056181Y0070821D01*
X0057381Y0072021D01*
X0057381Y0071985D02*
X0057346Y0071985D01*
X0057531Y0071186D02*
X0056547Y0071186D01*
X0055749Y0070388D02*
X0058025Y0070388D01*
X0056082Y0069589D02*
X0089737Y0069589D01*
X0089406Y0068791D02*
X0056787Y0068791D01*
X0057118Y0067992D02*
X0089331Y0067992D01*
X0089331Y0067194D02*
X0057406Y0067194D01*
X0057406Y0066395D02*
X0089454Y0066395D01*
X0089785Y0065597D02*
X0057406Y0065597D01*
X0057114Y0064798D02*
X0090185Y0064798D01*
X0090984Y0064000D02*
X0056783Y0064000D01*
X0056071Y0063201D02*
X0092290Y0063201D01*
X0096023Y0063201D02*
X0097727Y0063201D01*
X0097329Y0064000D02*
X0098526Y0064000D01*
X0098128Y0064798D02*
X0099324Y0064798D01*
X0098528Y0065597D02*
X0100123Y0065597D01*
X0100921Y0066395D02*
X0098859Y0066395D01*
X0098981Y0067194D02*
X0106887Y0067194D01*
X0107354Y0067992D02*
X0098981Y0067992D01*
X0098907Y0068791D02*
X0108655Y0068791D01*
X0109658Y0068791D02*
X0129406Y0068791D01*
X0129331Y0067992D02*
X0110959Y0067992D01*
X0111426Y0067194D02*
X0129331Y0067194D01*
X0129454Y0066395D02*
X0111556Y0066395D01*
X0111421Y0065597D02*
X0129785Y0065597D01*
X0130185Y0064798D02*
X0110948Y0064798D01*
X0109156Y0066401D02*
X0107906Y0065151D01*
X0101656Y0065151D01*
X0097281Y0060776D01*
X0055406Y0060776D01*
X0057174Y0062403D02*
X0096929Y0062403D01*
X0104781Y0059526D02*
X0099156Y0053901D01*
X0053531Y0053901D01*
X0044156Y0063276D01*
X0041656Y0063276D01*
X0039420Y0062403D02*
X0034483Y0062403D01*
X0034978Y0063201D02*
X0039256Y0063201D01*
X0039359Y0064000D02*
X0035069Y0064000D01*
X0044245Y0060687D02*
X0025795Y0060687D01*
X0044245Y0060687D02*
X0052906Y0052026D01*
X0100406Y0052026D01*
X0106031Y0057651D01*
X0119156Y0057651D01*
X0124156Y0052651D01*
X0147281Y0052651D01*
X0156081Y0061450D01*
X0156282Y0061450D01*
X0155584Y0058974D02*
X0162678Y0058974D01*
X0162678Y0050659D01*
X0150004Y0050659D01*
X0149304Y0051358D01*
X0149304Y0051361D01*
X0148894Y0051768D01*
X0148636Y0052026D01*
X0148681Y0052071D01*
X0155584Y0058974D01*
X0155021Y0058410D02*
X0162678Y0058410D01*
X0162678Y0057612D02*
X0154222Y0057612D01*
X0153424Y0056813D02*
X0162678Y0056813D01*
X0162678Y0056015D02*
X0152625Y0056015D01*
X0151827Y0055216D02*
X0162678Y0055216D01*
X0162678Y0054418D02*
X0151028Y0054418D01*
X0150230Y0053619D02*
X0162678Y0053619D01*
X0162678Y0052821D02*
X0149431Y0052821D01*
X0148640Y0052022D02*
X0162678Y0052022D01*
X0162678Y0051224D02*
X0149438Y0051224D01*
X0147906Y0050776D02*
X0123625Y0050682D01*
X0118531Y0055776D01*
X0107281Y0055776D01*
X0101656Y0050151D01*
X0052281Y0050151D01*
X0050406Y0052026D01*
X0046656Y0052026D01*
X0043507Y0048876D01*
X0025795Y0048876D01*
X0025795Y0044939D02*
X0033320Y0044939D01*
X0035406Y0047026D01*
X0044156Y0047026D01*
X0047281Y0050151D01*
X0049781Y0050151D01*
X0051656Y0048276D01*
X0102906Y0048276D01*
X0108531Y0053901D01*
X0117906Y0053901D01*
X0122906Y0048901D01*
X0144156Y0048901D01*
X0148812Y0044245D01*
X0156282Y0044245D01*
X0156282Y0048182D02*
X0150500Y0048182D01*
X0147906Y0050776D01*
X0143531Y0045776D02*
X0142281Y0047026D01*
X0122906Y0047026D01*
X0116656Y0040776D01*
X0104156Y0040776D01*
X0100406Y0044526D01*
X0041656Y0044526D01*
X0041031Y0043901D01*
X0039156Y0041401D02*
X0036656Y0041401D01*
X0036031Y0042026D01*
X0039156Y0041401D02*
X0039781Y0040776D01*
X0042906Y0040776D01*
X0044781Y0042651D01*
X0099781Y0042651D01*
X0103531Y0038901D01*
X0117281Y0038901D01*
X0123531Y0045151D01*
X0139781Y0045151D01*
X0142906Y0042026D01*
X0144781Y0042026D01*
X0147008Y0041131D02*
X0147008Y0040646D01*
X0155944Y0040646D01*
X0155944Y0039970D01*
X0147008Y0039970D01*
X0147008Y0038648D01*
X0147104Y0038292D01*
X0147288Y0037972D01*
X0147408Y0037852D01*
X0147408Y0037771D01*
X0146016Y0037771D01*
X0145556Y0038231D01*
X0144736Y0039051D01*
X0142236Y0039051D01*
X0139931Y0041356D01*
X0139111Y0042176D01*
X0126077Y0042176D01*
X0125452Y0041551D01*
X0121911Y0041551D01*
X0124111Y0043751D01*
X0139202Y0043751D01*
X0142327Y0040626D01*
X0142787Y0040626D01*
X0143422Y0039991D01*
X0144304Y0039626D01*
X0145259Y0039626D01*
X0146141Y0039991D01*
X0146816Y0040666D01*
X0147008Y0041131D01*
X0147008Y0040843D02*
X0146889Y0040843D01*
X0146194Y0040045D02*
X0155944Y0040045D01*
X0156282Y0036371D02*
X0145436Y0036371D01*
X0144156Y0037651D01*
X0141656Y0037651D01*
X0138531Y0040776D01*
X0126656Y0040776D01*
X0126031Y0040151D01*
X0121031Y0040151D01*
X0117906Y0037026D01*
X0102906Y0037026D01*
X0099156Y0040776D01*
X0045406Y0040776D01*
X0043531Y0038901D01*
X0039156Y0038901D01*
X0038531Y0039526D01*
X0036031Y0039526D01*
X0033531Y0037026D01*
X0025835Y0037026D01*
X0025795Y0037065D01*
X0025506Y0033417D02*
X0025506Y0032839D01*
X0016521Y0032839D01*
X0016521Y0032045D01*
X0016654Y0031548D01*
X0016911Y0031103D01*
X0017138Y0030877D01*
X0016921Y0030660D01*
X0016921Y0027722D01*
X0017420Y0027223D01*
X0016921Y0026723D01*
X0016921Y0024686D01*
X0012989Y0024686D01*
X0012628Y0025047D01*
X0012628Y0049084D01*
X0012989Y0049445D01*
X0016921Y0049445D01*
X0016921Y0047407D01*
X0017420Y0046908D01*
X0016921Y0046408D01*
X0016921Y0043470D01*
X0017138Y0043254D01*
X0016911Y0043027D01*
X0016654Y0042582D01*
X0016521Y0042086D01*
X0016521Y0041291D01*
X0025506Y0041291D01*
X0025506Y0040713D01*
X0016521Y0040713D01*
X0016521Y0039919D01*
X0016654Y0039422D01*
X0016911Y0038977D01*
X0017138Y0038751D01*
X0016921Y0038534D01*
X0016921Y0035596D01*
X0017138Y0035380D01*
X0016911Y0035153D01*
X0016654Y0034708D01*
X0016521Y0034212D01*
X0016521Y0033417D01*
X0025506Y0033417D01*
X0025506Y0032858D02*
X0012628Y0032858D01*
X0012628Y0033656D02*
X0016521Y0033656D01*
X0016586Y0034455D02*
X0012628Y0034455D01*
X0012628Y0035253D02*
X0017012Y0035253D01*
X0016921Y0036052D02*
X0012628Y0036052D01*
X0012628Y0036850D02*
X0016921Y0036850D01*
X0016921Y0037649D02*
X0012628Y0037649D01*
X0012628Y0038448D02*
X0016921Y0038448D01*
X0016756Y0039246D02*
X0012628Y0039246D01*
X0012628Y0040045D02*
X0016521Y0040045D01*
X0016521Y0041642D02*
X0012628Y0041642D01*
X0012628Y0042440D02*
X0016616Y0042440D01*
X0017123Y0043239D02*
X0012628Y0043239D01*
X0012628Y0044037D02*
X0016921Y0044037D01*
X0016921Y0044836D02*
X0012628Y0044836D01*
X0012628Y0045634D02*
X0016921Y0045634D01*
X0016945Y0046433D02*
X0012628Y0046433D01*
X0012628Y0047231D02*
X0017097Y0047231D01*
X0016921Y0048030D02*
X0012628Y0048030D01*
X0012628Y0048828D02*
X0016921Y0048828D01*
X0012628Y0040843D02*
X0025506Y0040843D01*
X0034669Y0036184D02*
X0034926Y0036441D01*
X0035247Y0035666D01*
X0035922Y0034991D01*
X0036804Y0034626D01*
X0037759Y0034626D01*
X0038641Y0034991D01*
X0039276Y0035626D01*
X0041058Y0035626D01*
X0040297Y0035310D01*
X0039622Y0034635D01*
X0039256Y0033753D01*
X0039256Y0032798D01*
X0039622Y0031916D01*
X0040297Y0031241D01*
X0041071Y0030920D01*
X0040742Y0030591D01*
X0034669Y0030591D01*
X0034669Y0030660D01*
X0034453Y0030877D01*
X0034679Y0031103D01*
X0034936Y0031548D01*
X0035069Y0032045D01*
X0035069Y0032839D01*
X0026084Y0032839D01*
X0026084Y0033417D01*
X0035069Y0033417D01*
X0035069Y0034212D01*
X0034936Y0034708D01*
X0034679Y0035153D01*
X0034453Y0035380D01*
X0034669Y0035596D01*
X0034669Y0036184D01*
X0034669Y0036052D02*
X0035087Y0036052D01*
X0034579Y0035253D02*
X0035660Y0035253D01*
X0035004Y0034455D02*
X0039547Y0034455D01*
X0039256Y0033656D02*
X0035069Y0033656D01*
X0035069Y0032059D02*
X0039563Y0032059D01*
X0039256Y0032858D02*
X0026084Y0032858D01*
X0025795Y0029191D02*
X0041322Y0029191D01*
X0047281Y0035151D01*
X0097281Y0035151D01*
X0101031Y0031401D01*
X0127281Y0031401D01*
X0131031Y0035151D01*
X0136656Y0035151D01*
X0141031Y0030776D01*
X0141031Y0027651D01*
X0142281Y0026401D01*
X0145406Y0026401D01*
X0147281Y0028276D01*
X0156061Y0028276D01*
X0156282Y0028497D01*
X0155944Y0032096D02*
X0147008Y0032096D01*
X0147008Y0030774D01*
X0147104Y0030417D01*
X0147288Y0030098D01*
X0147408Y0029978D01*
X0147408Y0029676D01*
X0146702Y0029676D01*
X0146456Y0029430D01*
X0146556Y0029673D01*
X0146556Y0030628D01*
X0146191Y0031510D01*
X0145516Y0032185D01*
X0144634Y0032551D01*
X0143736Y0032551D01*
X0138681Y0037606D01*
X0137861Y0038426D01*
X0130306Y0038426D01*
X0130306Y0038753D01*
X0130049Y0039376D01*
X0137952Y0039376D01*
X0141077Y0036251D01*
X0143577Y0036251D01*
X0144856Y0034971D01*
X0147408Y0034971D01*
X0147408Y0034891D01*
X0147288Y0034770D01*
X0147104Y0034451D01*
X0147008Y0034095D01*
X0147008Y0032772D01*
X0155944Y0032772D01*
X0155944Y0032096D01*
X0147008Y0032059D02*
X0145642Y0032059D01*
X0146294Y0031261D02*
X0147008Y0031261D01*
X0147092Y0030462D02*
X0146556Y0030462D01*
X0146553Y0029664D02*
X0146690Y0029664D01*
X0144156Y0030151D02*
X0137281Y0037026D01*
X0130406Y0037026D01*
X0126656Y0033276D01*
X0101656Y0033276D01*
X0097906Y0037026D01*
X0046656Y0037026D01*
X0042906Y0033276D01*
X0041656Y0033276D01*
X0040240Y0035253D02*
X0038903Y0035253D01*
X0037281Y0037026D02*
X0044156Y0037026D01*
X0046031Y0038901D01*
X0098531Y0038901D01*
X0102281Y0035151D01*
X0124781Y0035151D01*
X0127906Y0038276D01*
X0130102Y0039246D02*
X0138081Y0039246D01*
X0138880Y0038448D02*
X0130306Y0038448D01*
X0125542Y0041642D02*
X0122002Y0041642D01*
X0122801Y0042440D02*
X0140512Y0042440D01*
X0139714Y0043239D02*
X0123599Y0043239D01*
X0119535Y0045634D02*
X0118544Y0045634D01*
X0118247Y0044918D02*
X0118981Y0046691D01*
X0118981Y0048611D01*
X0118247Y0050384D01*
X0116890Y0051741D01*
X0115116Y0052476D01*
X0113197Y0052476D01*
X0111423Y0051741D01*
X0110066Y0050384D01*
X0109331Y0048611D01*
X0109331Y0046691D01*
X0110066Y0044918D01*
X0111423Y0043560D01*
X0113197Y0042826D01*
X0115116Y0042826D01*
X0116890Y0043560D01*
X0118247Y0044918D01*
X0118165Y0044836D02*
X0118736Y0044836D01*
X0117938Y0044037D02*
X0117366Y0044037D01*
X0117139Y0043239D02*
X0116113Y0043239D01*
X0116341Y0042440D02*
X0104472Y0042440D01*
X0104736Y0042176D02*
X0101806Y0045106D01*
X0100986Y0045926D01*
X0045036Y0045926D01*
X0047861Y0048751D01*
X0049202Y0048751D01*
X0051077Y0046876D01*
X0103486Y0046876D01*
X0104306Y0047696D01*
X0109111Y0052501D01*
X0117327Y0052501D01*
X0121506Y0048321D01*
X0121506Y0048321D01*
X0121864Y0047963D01*
X0121506Y0047606D01*
X0116077Y0042176D01*
X0104736Y0042176D01*
X0103674Y0043239D02*
X0112200Y0043239D01*
X0110947Y0044037D02*
X0102875Y0044037D01*
X0102077Y0044836D02*
X0110148Y0044836D01*
X0109769Y0045634D02*
X0101278Y0045634D01*
X0103842Y0047231D02*
X0109331Y0047231D01*
X0109331Y0048030D02*
X0104640Y0048030D01*
X0105439Y0048828D02*
X0109422Y0048828D01*
X0109752Y0049627D02*
X0106237Y0049627D01*
X0107036Y0050425D02*
X0110107Y0050425D01*
X0110906Y0051224D02*
X0107834Y0051224D01*
X0108633Y0052022D02*
X0112102Y0052022D01*
X0116211Y0052022D02*
X0117805Y0052022D01*
X0117407Y0051224D02*
X0118604Y0051224D01*
X0118206Y0050425D02*
X0119402Y0050425D01*
X0120201Y0049627D02*
X0118561Y0049627D01*
X0118891Y0048828D02*
X0120999Y0048828D01*
X0121798Y0048030D02*
X0118981Y0048030D01*
X0118981Y0047231D02*
X0121132Y0047231D01*
X0121506Y0047606D02*
X0121506Y0047606D01*
X0120333Y0046433D02*
X0118874Y0046433D01*
X0109439Y0046433D02*
X0045543Y0046433D01*
X0046342Y0047231D02*
X0050721Y0047231D01*
X0049923Y0048030D02*
X0047140Y0048030D01*
X0047906Y0033276D02*
X0096656Y0033276D01*
X0100406Y0029526D01*
X0127906Y0029526D01*
X0131656Y0033276D01*
X0136031Y0033276D01*
X0139156Y0030151D01*
X0139156Y0027026D01*
X0141656Y0024526D01*
X0156248Y0024526D01*
X0156282Y0024560D01*
X0147008Y0032858D02*
X0143429Y0032858D01*
X0142631Y0033656D02*
X0147008Y0033656D01*
X0147106Y0034455D02*
X0141832Y0034455D01*
X0141034Y0035253D02*
X0144574Y0035253D01*
X0143775Y0036052D02*
X0140235Y0036052D01*
X0140477Y0036850D02*
X0139437Y0036850D01*
X0139678Y0037649D02*
X0138638Y0037649D01*
X0141243Y0040045D02*
X0143369Y0040045D01*
X0142109Y0040843D02*
X0140444Y0040843D01*
X0139646Y0041642D02*
X0141311Y0041642D01*
X0142041Y0039246D02*
X0147008Y0039246D01*
X0147062Y0038448D02*
X0145340Y0038448D01*
X0134156Y0027651D02*
X0094156Y0027651D01*
X0089754Y0025671D02*
X0065731Y0025671D01*
X0065731Y0024941D02*
X0065731Y0027876D01*
X0062432Y0027876D01*
X0062432Y0028676D01*
X0065731Y0028676D01*
X0065731Y0031610D01*
X0065660Y0031876D01*
X0091748Y0031876D01*
X0091423Y0031741D01*
X0090066Y0030384D01*
X0089331Y0028611D01*
X0089331Y0026691D01*
X0090066Y0024918D01*
X0090308Y0024676D01*
X0065660Y0024676D01*
X0065731Y0024941D01*
X0065713Y0024873D02*
X0090111Y0024873D01*
X0089423Y0026470D02*
X0065731Y0026470D01*
X0065731Y0027268D02*
X0089331Y0027268D01*
X0089331Y0028067D02*
X0062432Y0028067D01*
X0065731Y0028865D02*
X0089437Y0028865D01*
X0089768Y0029664D02*
X0065731Y0029664D01*
X0065731Y0030462D02*
X0090145Y0030462D01*
X0090943Y0031261D02*
X0065731Y0031261D01*
X0056656Y0030151D02*
X0056656Y0029526D01*
X0056031Y0028276D01*
X0050031Y0028276D02*
X0046031Y0027651D01*
X0047906Y0033276D02*
X0039885Y0025254D01*
X0025795Y0025254D01*
X0017375Y0027268D02*
X0012628Y0027268D01*
X0012628Y0026470D02*
X0016921Y0026470D01*
X0016921Y0025671D02*
X0012628Y0025671D01*
X0012802Y0024873D02*
X0016921Y0024873D01*
X0016921Y0028067D02*
X0012628Y0028067D01*
X0012628Y0028865D02*
X0016921Y0028865D01*
X0016921Y0029664D02*
X0012628Y0029664D01*
X0012628Y0030462D02*
X0016921Y0030462D01*
X0016820Y0031261D02*
X0012628Y0031261D01*
X0012628Y0032059D02*
X0016521Y0032059D01*
X0034770Y0031261D02*
X0040277Y0031261D01*
X0104781Y0059526D02*
X0119781Y0059526D01*
X0124781Y0054526D01*
X0144781Y0054526D01*
X0147281Y0057026D01*
X0144881Y0056813D02*
X0124474Y0056813D01*
X0125272Y0056015D02*
X0144291Y0056015D01*
X0144926Y0057612D02*
X0123675Y0057612D01*
X0122877Y0058410D02*
X0145272Y0058410D01*
X0137906Y0062026D02*
X0144156Y0068276D01*
X0129737Y0069589D02*
X0098576Y0069589D01*
X0122078Y0059209D02*
X0129994Y0059209D01*
D18*
X0131656Y0077026D02*
X0134781Y0080151D01*
X0131656Y0077026D02*
X0072281Y0077026D01*
M02*
