G04 EAGLE Gerber RS-274X export*
G75*
%MOMM*%
%FSLAX34Y34*%
%LPD*%
%IN*%
%IPPOS*%
%AMOC8*
5,1,8,0,0,1.08239X$1,22.5*%
G01*
%ADD10C,0.254000*%


D10*
X0Y30000D02*
X114Y27385D01*
X456Y24791D01*
X1022Y22235D01*
X1809Y19739D01*
X2811Y17321D01*
X4019Y15000D01*
X5425Y12793D01*
X7019Y10716D01*
X8787Y8787D01*
X10716Y7019D01*
X12793Y5425D01*
X15000Y4019D01*
X17321Y2811D01*
X19739Y1809D01*
X22235Y1022D01*
X24791Y456D01*
X27385Y114D01*
X30000Y0D01*
X820000Y0D01*
X822615Y114D01*
X825209Y456D01*
X827765Y1022D01*
X830261Y1809D01*
X832679Y2811D01*
X835000Y4019D01*
X837207Y5425D01*
X839284Y7019D01*
X841213Y8787D01*
X842981Y10716D01*
X844575Y12793D01*
X845981Y15000D01*
X847189Y17321D01*
X848191Y19739D01*
X848978Y22235D01*
X849544Y24791D01*
X849886Y27385D01*
X850000Y30000D01*
X850000Y530000D01*
X849886Y532615D01*
X849544Y535209D01*
X848978Y537765D01*
X848191Y540261D01*
X847189Y542679D01*
X845981Y545000D01*
X844575Y547207D01*
X842981Y549284D01*
X841213Y551213D01*
X839284Y552981D01*
X837207Y554575D01*
X835000Y555981D01*
X832679Y557189D01*
X830261Y558191D01*
X827765Y558978D01*
X825209Y559544D01*
X822615Y559886D01*
X820000Y560000D01*
X30000Y560000D01*
X27385Y559886D01*
X24791Y559544D01*
X22235Y558978D01*
X19739Y558191D01*
X17321Y557189D01*
X15000Y555981D01*
X12793Y554575D01*
X10716Y552981D01*
X8787Y551213D01*
X7019Y549284D01*
X5425Y547207D01*
X4019Y545000D01*
X2811Y542679D01*
X1809Y540261D01*
X1022Y537765D01*
X456Y535209D01*
X114Y532615D01*
X0Y530000D01*
X0Y30000D01*
X737000Y494325D02*
X737048Y493236D01*
X737190Y492154D01*
X737426Y491090D01*
X737754Y490050D01*
X738171Y489042D01*
X738675Y488075D01*
X739261Y487155D01*
X739924Y486290D01*
X740661Y485486D01*
X741465Y484749D01*
X742330Y484086D01*
X743250Y483500D01*
X744217Y482996D01*
X745225Y482579D01*
X746265Y482251D01*
X747329Y482015D01*
X748411Y481873D01*
X749500Y481825D01*
X814500Y481825D01*
X815589Y481873D01*
X816671Y482015D01*
X817735Y482251D01*
X818775Y482579D01*
X819783Y482996D01*
X820750Y483500D01*
X821670Y484086D01*
X822535Y484749D01*
X823339Y485486D01*
X824076Y486290D01*
X824739Y487155D01*
X825325Y488075D01*
X825829Y489042D01*
X826246Y490050D01*
X826574Y491090D01*
X826810Y492154D01*
X826952Y493236D01*
X827000Y494325D01*
X826952Y495414D01*
X826810Y496496D01*
X826574Y497560D01*
X826246Y498600D01*
X825829Y499608D01*
X825325Y500575D01*
X824739Y501495D01*
X824076Y502360D01*
X823339Y503164D01*
X822535Y503901D01*
X821670Y504564D01*
X820750Y505150D01*
X819783Y505654D01*
X818775Y506071D01*
X817735Y506399D01*
X816671Y506635D01*
X815589Y506777D01*
X814500Y506825D01*
X762000Y506825D01*
X762000Y537500D01*
X761952Y538589D01*
X761810Y539671D01*
X761574Y540735D01*
X761246Y541775D01*
X760829Y542783D01*
X760325Y543750D01*
X759739Y544670D01*
X759076Y545535D01*
X758339Y546339D01*
X757535Y547076D01*
X756670Y547739D01*
X755750Y548325D01*
X754783Y548829D01*
X753775Y549246D01*
X752735Y549574D01*
X751671Y549810D01*
X750589Y549952D01*
X749500Y550000D01*
X748411Y549952D01*
X747329Y549810D01*
X746265Y549574D01*
X745225Y549246D01*
X744217Y548829D01*
X743250Y548325D01*
X742330Y547739D01*
X741465Y547076D01*
X740661Y546339D01*
X739924Y545535D01*
X739261Y544670D01*
X738675Y543750D01*
X738171Y542783D01*
X737754Y541775D01*
X737426Y540735D01*
X737190Y539671D01*
X737048Y538589D01*
X737000Y537500D01*
X737000Y494325D01*
M02*
