G04 EAGLE Gerber RS-274X export*
G75*
%MOMM*%
%FSLAX34Y34*%
%LPD*%
%INSilkscreen Top*%
%IPPOS*%
%AMOC8*
5,1,8,0,0,1.08239X$1,22.5*%
G01*
%ADD10C,0.101600*%
%ADD11C,0.152400*%
%ADD12C,0.076200*%
%ADD13C,0.127000*%
%ADD14R,0.700000X0.800000*%
%ADD15C,0.350000*%
%ADD16R,0.549100X0.757000*%
%ADD17R,0.534300X0.771800*%
%ADD18R,0.534300X0.757000*%
%ADD19R,0.133600X0.756900*%
%ADD20R,0.549100X0.756900*%
%ADD21C,0.203200*%
%ADD22C,0.762000*%
%ADD23R,0.508000X0.762000*%
%ADD24R,1.016000X0.762000*%

G36*
X42256Y591858D02*
X42256Y591858D01*
X42260Y591861D01*
X42268Y591860D01*
X43584Y592241D01*
X43589Y592247D01*
X43601Y592249D01*
X45962Y593819D01*
X45964Y593822D01*
X45968Y593823D01*
X47539Y595163D01*
X47540Y595167D01*
X47545Y595169D01*
X48220Y595914D01*
X48221Y595919D01*
X48227Y595923D01*
X49317Y597696D01*
X49317Y597698D01*
X49319Y597700D01*
X50041Y599068D01*
X50041Y599071D01*
X50044Y599074D01*
X50241Y599588D01*
X50240Y599591D01*
X50243Y599595D01*
X50603Y601036D01*
X50602Y601037D01*
X50604Y601039D01*
X50792Y602033D01*
X50791Y602036D01*
X50793Y602039D01*
X50827Y602417D01*
X50825Y602419D01*
X50827Y602422D01*
X50840Y605287D01*
X50840Y605288D01*
X50840Y607996D01*
X50833Y609415D01*
X50819Y614761D01*
X50813Y618688D01*
X50812Y620210D01*
X50797Y623199D01*
X50783Y624666D01*
X50783Y624667D01*
X50783Y624669D01*
X50776Y624791D01*
X50772Y624796D01*
X50773Y624806D01*
X50280Y626434D01*
X50278Y626436D01*
X50278Y626441D01*
X49820Y627488D01*
X49815Y627491D01*
X49814Y627499D01*
X49568Y627846D01*
X49558Y627850D01*
X49545Y627866D01*
X48282Y628496D01*
X48277Y628496D01*
X48271Y628500D01*
X47253Y628785D01*
X47247Y628783D01*
X47239Y628787D01*
X46737Y628814D01*
X46728Y628809D01*
X46713Y628811D01*
X44426Y628038D01*
X44424Y628035D01*
X44418Y628035D01*
X42791Y627226D01*
X42790Y627224D01*
X42787Y627224D01*
X41728Y626608D01*
X40954Y626157D01*
X40951Y626150D01*
X40944Y626149D01*
X40931Y626120D01*
X40929Y626118D01*
X40929Y626116D01*
X40923Y626101D01*
X40927Y625900D01*
X40935Y617701D01*
X40925Y610374D01*
X40909Y610108D01*
X40336Y608290D01*
X39804Y607157D01*
X39468Y606634D01*
X38109Y605539D01*
X37095Y604980D01*
X36552Y604796D01*
X35061Y604813D01*
X33943Y604958D01*
X33387Y605095D01*
X27427Y608302D01*
X22162Y611340D01*
X16889Y614382D01*
X11832Y617347D01*
X10089Y618398D01*
X10086Y618398D01*
X10085Y618400D01*
X10033Y618402D01*
X9909Y618353D01*
X9906Y618347D01*
X9875Y618318D01*
X9854Y618266D01*
X9856Y618256D01*
X9849Y618239D01*
X9889Y617483D01*
X9862Y616834D01*
X9862Y616833D01*
X9862Y616832D01*
X9856Y616168D01*
X9851Y615532D01*
X9852Y615530D01*
X9851Y615528D01*
X10030Y612403D01*
X10032Y612401D01*
X10031Y612398D01*
X10222Y610998D01*
X10223Y610996D01*
X10223Y610995D01*
X10383Y610130D01*
X10388Y610125D01*
X10388Y610115D01*
X11534Y607634D01*
X11537Y607632D01*
X11538Y607626D01*
X12502Y606125D01*
X12505Y606124D01*
X12506Y606120D01*
X13153Y605305D01*
X13159Y605303D01*
X13163Y605295D01*
X14889Y603888D01*
X14892Y603888D01*
X14895Y603884D01*
X16139Y603085D01*
X16140Y603084D01*
X17215Y602423D01*
X17216Y602423D01*
X26858Y596768D01*
X26859Y596768D01*
X34576Y592297D01*
X34580Y592297D01*
X34583Y592294D01*
X34932Y592144D01*
X34940Y592146D01*
X34950Y592140D01*
X39428Y591643D01*
X39432Y591645D01*
X39439Y591643D01*
X42256Y591858D01*
G37*
G36*
X35739Y606864D02*
X35739Y606864D01*
X35748Y606871D01*
X35768Y606874D01*
X36945Y607653D01*
X36947Y607657D01*
X36955Y607660D01*
X37710Y608400D01*
X37711Y608406D01*
X37719Y608410D01*
X37993Y608832D01*
X37993Y608841D01*
X38002Y608854D01*
X38477Y611221D01*
X38475Y611225D01*
X38478Y611229D01*
X38591Y613043D01*
X38590Y613045D01*
X38591Y613047D01*
X38587Y614272D01*
X38583Y615168D01*
X38579Y615174D01*
X38582Y615181D01*
X38565Y615203D01*
X38564Y615211D01*
X38557Y615214D01*
X38551Y615223D01*
X38375Y615319D01*
X31270Y619413D01*
X24929Y623085D01*
X24707Y623232D01*
X23420Y624637D01*
X22704Y625664D01*
X22419Y626217D01*
X22150Y627942D01*
X22173Y629099D01*
X22285Y629661D01*
X23046Y630944D01*
X23730Y631840D01*
X24127Y632253D01*
X29885Y635811D01*
X35147Y638851D01*
X40419Y641896D01*
X45515Y644794D01*
X47297Y645778D01*
X47298Y645780D01*
X47301Y645780D01*
X47329Y645824D01*
X47347Y645956D01*
X47344Y645962D01*
X47334Y646003D01*
X47300Y646047D01*
X47290Y646051D01*
X47279Y646064D01*
X46604Y646409D01*
X46056Y646756D01*
X46055Y646756D01*
X46054Y646758D01*
X45482Y647095D01*
X44933Y647417D01*
X44931Y647417D01*
X44930Y647419D01*
X42134Y648826D01*
X42132Y648826D01*
X42130Y648828D01*
X40821Y649363D01*
X40820Y649362D01*
X40818Y649364D01*
X39989Y649657D01*
X39983Y649655D01*
X39974Y649660D01*
X37252Y649908D01*
X37248Y649906D01*
X37243Y649909D01*
X35461Y649824D01*
X35459Y649823D01*
X35455Y649824D01*
X34425Y649671D01*
X34421Y649667D01*
X34412Y649667D01*
X32331Y648876D01*
X32329Y648873D01*
X32324Y648873D01*
X31010Y648195D01*
X31010Y648194D01*
X31009Y648194D01*
X29899Y647594D01*
X29899Y647593D01*
X29898Y647593D01*
X20180Y642070D01*
X20179Y642070D01*
X12449Y637622D01*
X12447Y637619D01*
X12443Y637618D01*
X12139Y637390D01*
X12136Y637383D01*
X12126Y637377D01*
X9457Y633747D01*
X9456Y633742D01*
X9451Y633737D01*
X8229Y631191D01*
X8229Y631185D01*
X8224Y631179D01*
X7897Y629849D01*
X7899Y629841D01*
X7895Y629830D01*
X8074Y627000D01*
X8076Y626998D01*
X8074Y626993D01*
X8450Y624962D01*
X8452Y624960D01*
X8452Y624955D01*
X8759Y623997D01*
X8763Y623994D01*
X8764Y623987D01*
X9755Y622156D01*
X9756Y622155D01*
X9757Y622152D01*
X10580Y620843D01*
X10583Y620842D01*
X10584Y620840D01*
X10584Y620839D01*
X10584Y620837D01*
X10930Y620410D01*
X10934Y620409D01*
X10936Y620404D01*
X12004Y619373D01*
X12005Y619372D01*
X12006Y619370D01*
X12773Y618710D01*
X12776Y618710D01*
X12778Y618707D01*
X13088Y618489D01*
X13090Y618488D01*
X13092Y618486D01*
X15567Y617041D01*
X17913Y615687D01*
X19145Y614984D01*
X23782Y612322D01*
X27186Y610365D01*
X28504Y609605D01*
X28504Y609604D01*
X31100Y608123D01*
X32378Y607401D01*
X32379Y607401D01*
X32380Y607400D01*
X32490Y607345D01*
X32496Y607346D01*
X32504Y607340D01*
X34160Y606953D01*
X34164Y606954D01*
X34168Y606952D01*
X35303Y606824D01*
X35308Y606827D01*
X35316Y606824D01*
X35739Y606864D01*
G37*
G36*
X52933Y599213D02*
X52933Y599213D01*
X52941Y599220D01*
X52959Y599222D01*
X53594Y599635D01*
X54170Y599936D01*
X54170Y599937D01*
X54171Y599937D01*
X54750Y600264D01*
X55303Y600578D01*
X55304Y600580D01*
X55306Y600580D01*
X57923Y602297D01*
X57924Y602300D01*
X57927Y602300D01*
X59044Y603166D01*
X59044Y603168D01*
X59046Y603168D01*
X59715Y603740D01*
X59717Y603746D01*
X59725Y603751D01*
X61301Y605984D01*
X61301Y605988D01*
X61306Y605992D01*
X62124Y607577D01*
X62124Y607580D01*
X62126Y607583D01*
X62509Y608551D01*
X62508Y608557D01*
X62512Y608564D01*
X62867Y610763D01*
X62866Y610766D01*
X62868Y610770D01*
X62938Y612247D01*
X62938Y612248D01*
X62973Y613509D01*
X62973Y613510D01*
X62973Y613511D01*
X63049Y624689D01*
X63062Y633608D01*
X63060Y633611D01*
X63062Y633615D01*
X63017Y633992D01*
X63012Y633998D01*
X63012Y634010D01*
X61203Y638136D01*
X61198Y638139D01*
X61197Y638147D01*
X59603Y640478D01*
X59598Y640480D01*
X59595Y640488D01*
X58607Y641437D01*
X58599Y641438D01*
X58591Y641447D01*
X56051Y642708D01*
X56048Y642707D01*
X56045Y642710D01*
X54098Y643401D01*
X54095Y643400D01*
X54091Y643403D01*
X53108Y643615D01*
X53103Y643614D01*
X53096Y643617D01*
X51016Y643674D01*
X51014Y643673D01*
X51012Y643674D01*
X49466Y643616D01*
X49463Y643614D01*
X49459Y643615D01*
X48916Y643529D01*
X48913Y643526D01*
X48908Y643527D01*
X47481Y643118D01*
X47480Y643117D01*
X47477Y643117D01*
X46523Y642783D01*
X46521Y642780D01*
X46517Y642780D01*
X46173Y642621D01*
X46172Y642619D01*
X46168Y642619D01*
X43680Y641198D01*
X41335Y639843D01*
X41334Y639843D01*
X40109Y639128D01*
X35486Y636443D01*
X32088Y634474D01*
X30771Y633712D01*
X28190Y632205D01*
X26926Y631459D01*
X26926Y631458D01*
X26924Y631458D01*
X26821Y631390D01*
X26819Y631384D01*
X26810Y631381D01*
X25646Y630140D01*
X25646Y630136D01*
X25642Y630134D01*
X24964Y629214D01*
X24963Y629208D01*
X24957Y629203D01*
X24780Y628817D01*
X24782Y628806D01*
X24774Y628787D01*
X24860Y627378D01*
X24863Y627374D01*
X24862Y627366D01*
X25125Y626342D01*
X25129Y626338D01*
X25130Y626329D01*
X25357Y625881D01*
X25365Y625876D01*
X25372Y625862D01*
X27185Y624267D01*
X27189Y624267D01*
X27191Y624262D01*
X28706Y623257D01*
X28707Y623257D01*
X28709Y623255D01*
X29772Y622646D01*
X30549Y622201D01*
X30557Y622202D01*
X30562Y622196D01*
X30613Y622202D01*
X30784Y622306D01*
X37882Y626413D01*
X44232Y630067D01*
X44471Y630187D01*
X46332Y630599D01*
X47579Y630705D01*
X48200Y630676D01*
X49828Y630046D01*
X50819Y629448D01*
X51250Y629069D01*
X51981Y627770D01*
X52414Y626729D01*
X52574Y626179D01*
X52776Y619413D01*
X52778Y613335D01*
X52779Y607248D01*
X52741Y601386D01*
X52702Y599350D01*
X52703Y599348D01*
X52702Y599346D01*
X52726Y599300D01*
X52831Y599218D01*
X52837Y599217D01*
X52878Y599205D01*
X52933Y599213D01*
G37*
D10*
X491397Y315116D02*
X489448Y313167D01*
X489448Y309269D01*
X491397Y307320D01*
X499193Y307320D01*
X501142Y309269D01*
X501142Y313167D01*
X499193Y315116D01*
X493346Y319014D02*
X489448Y322912D01*
X501142Y322912D01*
X501142Y319014D02*
X501142Y326810D01*
X472347Y300404D02*
X470398Y298455D01*
X470398Y294557D01*
X472347Y292608D01*
X480143Y292608D01*
X482092Y294557D01*
X482092Y298455D01*
X480143Y300404D01*
X474296Y304302D02*
X470398Y308200D01*
X482092Y308200D01*
X482092Y304302D02*
X482092Y312098D01*
X480143Y315996D02*
X472347Y315996D01*
X470398Y317945D01*
X470398Y321843D01*
X472347Y323792D01*
X480143Y323792D01*
X482092Y321843D01*
X482092Y317945D01*
X480143Y315996D01*
X472347Y323792D01*
X422123Y250327D02*
X424072Y248378D01*
X422123Y250327D02*
X418225Y250327D01*
X416276Y248378D01*
X416276Y240582D01*
X418225Y238633D01*
X422123Y238633D01*
X424072Y240582D01*
X427970Y246429D02*
X431868Y250327D01*
X431868Y238633D01*
X427970Y238633D02*
X435766Y238633D01*
X439664Y246429D02*
X443562Y250327D01*
X443562Y238633D01*
X439664Y238633D02*
X447460Y238633D01*
X420897Y267428D02*
X418948Y269377D01*
X415050Y269377D01*
X413101Y267428D01*
X413101Y259632D01*
X415050Y257683D01*
X418948Y257683D01*
X420897Y259632D01*
X424795Y265479D02*
X428693Y269377D01*
X428693Y257683D01*
X424795Y257683D02*
X432591Y257683D01*
X436489Y257683D02*
X444285Y257683D01*
X436489Y257683D02*
X444285Y265479D01*
X444285Y267428D01*
X442336Y269377D01*
X438438Y269377D01*
X436489Y267428D01*
X492623Y301630D02*
X494572Y303579D01*
X492623Y301630D02*
X492623Y297732D01*
X494572Y295783D01*
X502368Y295783D01*
X504317Y297732D01*
X504317Y301630D01*
X502368Y303579D01*
X496521Y307477D02*
X492623Y311375D01*
X504317Y311375D01*
X504317Y307477D02*
X504317Y315273D01*
X494572Y319171D02*
X492623Y321120D01*
X492623Y325018D01*
X494572Y326967D01*
X496521Y326967D01*
X498470Y325018D01*
X498470Y323069D01*
X498470Y325018D02*
X500419Y326967D01*
X502368Y326967D01*
X504317Y325018D01*
X504317Y321120D01*
X502368Y319171D01*
X512035Y152610D02*
X510086Y150661D01*
X510086Y146763D01*
X512035Y144814D01*
X519831Y144814D01*
X521780Y146763D01*
X521780Y150661D01*
X519831Y152610D01*
X513984Y156508D02*
X510086Y160405D01*
X521780Y160405D01*
X521780Y156508D02*
X521780Y164303D01*
X521780Y174048D02*
X510086Y174048D01*
X515933Y168201D01*
X515933Y175997D01*
X470398Y313167D02*
X472347Y315116D01*
X470398Y313167D02*
X470398Y309269D01*
X472347Y307320D01*
X480143Y307320D01*
X482092Y309269D01*
X482092Y313167D01*
X480143Y315116D01*
X482092Y319014D02*
X482092Y326810D01*
X482092Y319014D02*
X474296Y326810D01*
X472347Y326810D01*
X470398Y324861D01*
X470398Y320963D01*
X472347Y319014D01*
X594223Y300467D02*
X596172Y302416D01*
X594223Y300467D02*
X594223Y296569D01*
X596172Y294620D01*
X603968Y294620D01*
X605917Y296569D01*
X605917Y300467D01*
X603968Y302416D01*
X596172Y306314D02*
X594223Y308263D01*
X594223Y312161D01*
X596172Y314110D01*
X598121Y314110D01*
X600070Y312161D01*
X600070Y310212D01*
X600070Y312161D02*
X602019Y314110D01*
X603968Y314110D01*
X605917Y312161D01*
X605917Y308263D01*
X603968Y306314D01*
X554897Y350041D02*
X552948Y348092D01*
X552948Y344194D01*
X554897Y342245D01*
X562693Y342245D01*
X564642Y344194D01*
X564642Y348092D01*
X562693Y350041D01*
X564642Y359786D02*
X552948Y359786D01*
X558795Y353939D01*
X558795Y361735D01*
X234222Y84929D02*
X232273Y82980D01*
X232273Y79082D01*
X234222Y77133D01*
X242018Y77133D01*
X243967Y79082D01*
X243967Y82980D01*
X242018Y84929D01*
X232273Y88827D02*
X232273Y96622D01*
X232273Y88827D02*
X238120Y88827D01*
X236171Y92724D01*
X236171Y94673D01*
X238120Y96622D01*
X242018Y96622D01*
X243967Y94673D01*
X243967Y90775D01*
X242018Y88827D01*
X145322Y84929D02*
X143373Y82980D01*
X143373Y79082D01*
X145322Y77133D01*
X153118Y77133D01*
X155067Y79082D01*
X155067Y82980D01*
X153118Y84929D01*
X145322Y92724D02*
X143373Y96622D01*
X145322Y92724D02*
X149220Y88827D01*
X153118Y88827D01*
X155067Y90775D01*
X155067Y94673D01*
X153118Y96622D01*
X151169Y96622D01*
X149220Y94673D01*
X149220Y88827D01*
X199297Y29366D02*
X197348Y27417D01*
X197348Y23519D01*
X199297Y21570D01*
X207093Y21570D01*
X209042Y23519D01*
X209042Y27417D01*
X207093Y29366D01*
X197348Y33264D02*
X197348Y41060D01*
X199297Y41060D01*
X207093Y33264D01*
X209042Y33264D01*
X433817Y193177D02*
X435766Y191228D01*
X433817Y193177D02*
X429919Y193177D01*
X427970Y191228D01*
X427970Y183432D01*
X429919Y181483D01*
X433817Y181483D01*
X435766Y183432D01*
X439664Y191228D02*
X441613Y193177D01*
X445511Y193177D01*
X447460Y191228D01*
X447460Y189279D01*
X445511Y187330D01*
X447460Y185381D01*
X447460Y183432D01*
X445511Y181483D01*
X441613Y181483D01*
X439664Y183432D01*
X439664Y185381D01*
X441613Y187330D01*
X439664Y189279D01*
X439664Y191228D01*
X441613Y187330D02*
X445511Y187330D01*
X427829Y210278D02*
X425880Y212227D01*
X421982Y212227D01*
X420033Y210278D01*
X420033Y202482D01*
X421982Y200533D01*
X425880Y200533D01*
X427829Y202482D01*
X431727Y202482D02*
X433675Y200533D01*
X437573Y200533D01*
X439522Y202482D01*
X439522Y210278D01*
X437573Y212227D01*
X433675Y212227D01*
X431727Y210278D01*
X431727Y208329D01*
X433675Y206380D01*
X439522Y206380D01*
D11*
X519811Y268478D02*
X519811Y271018D01*
X519811Y188722D02*
X519811Y186182D01*
X494919Y268478D02*
X494919Y271018D01*
X494919Y188722D02*
X494919Y186182D01*
X469773Y268478D02*
X469773Y271018D01*
X469773Y188722D02*
X469773Y186182D01*
X544703Y243586D02*
X547243Y243586D01*
X464947Y243586D02*
X462407Y243586D01*
X544703Y218694D02*
X547243Y218694D01*
X464947Y218694D02*
X462407Y218694D01*
X544703Y193548D02*
X547243Y193548D01*
X464947Y193548D02*
X462407Y193548D01*
X542417Y268478D02*
X544703Y266192D01*
X464947Y268478D02*
X464947Y188722D01*
X544703Y188722D01*
X544703Y268478D01*
X464947Y268478D01*
D12*
X533908Y286131D02*
X541873Y286131D01*
X545856Y282148D01*
X541873Y278166D01*
X533908Y278166D01*
X539882Y278166D02*
X539882Y286131D01*
X475752Y286131D02*
X463804Y286131D01*
X475752Y286131D02*
X475752Y280157D01*
X473761Y278166D01*
X469778Y278166D01*
X467787Y280157D01*
X467787Y286131D01*
X467787Y282148D02*
X463804Y278166D01*
X551434Y265648D02*
X555417Y269631D01*
X555417Y257683D01*
X559399Y257683D02*
X551434Y257683D01*
X555417Y199527D02*
X551434Y195544D01*
X555417Y199527D02*
X555417Y187579D01*
X559399Y187579D02*
X551434Y187579D01*
X563128Y199527D02*
X571093Y199527D01*
X563128Y199527D02*
X563128Y193553D01*
X567111Y195544D01*
X569102Y195544D01*
X571093Y193553D01*
X571093Y189570D01*
X569102Y187579D01*
X565119Y187579D01*
X563128Y189570D01*
X498856Y257002D02*
X498856Y260985D01*
X498856Y258994D02*
X510804Y258994D01*
X510804Y260985D02*
X510804Y257002D01*
X510804Y247215D02*
X508813Y245224D01*
X510804Y247215D02*
X510804Y251198D01*
X508813Y253189D01*
X500847Y253189D01*
X498856Y251198D01*
X498856Y247215D01*
X500847Y245224D01*
X506821Y241495D02*
X510804Y237512D01*
X498856Y237512D01*
X498856Y233530D02*
X498856Y241495D01*
D10*
X150622Y72668D02*
X150622Y68771D01*
X150622Y70719D02*
X138928Y70719D01*
X138928Y68771D02*
X138928Y72668D01*
X138928Y82413D02*
X140877Y84362D01*
X138928Y82413D02*
X138928Y78515D01*
X140877Y76566D01*
X148673Y76566D01*
X150622Y78515D01*
X150622Y82413D01*
X148673Y84362D01*
X150622Y88260D02*
X150622Y96056D01*
X150622Y88260D02*
X142826Y96056D01*
X140877Y96056D01*
X138928Y94107D01*
X138928Y90209D01*
X140877Y88260D01*
D11*
X809625Y422275D02*
X809625Y434975D01*
X815975Y441325D01*
X828675Y441325D01*
X835025Y434975D01*
X809625Y396875D02*
X815975Y390525D01*
X809625Y396875D02*
X809625Y409575D01*
X815975Y415925D01*
X828675Y415925D01*
X835025Y409575D01*
X835025Y396875D01*
X828675Y390525D01*
X815975Y415925D02*
X809625Y422275D01*
X828675Y415925D02*
X835025Y422275D01*
X835025Y434975D01*
X809625Y358775D02*
X809625Y346075D01*
X809625Y358775D02*
X815975Y365125D01*
X828675Y365125D01*
X835025Y358775D01*
X815975Y365125D02*
X809625Y371475D01*
X809625Y384175D01*
X815975Y390525D01*
X828675Y390525D01*
X835025Y384175D01*
X835025Y371475D01*
X828675Y365125D01*
X809625Y320675D02*
X815975Y314325D01*
X809625Y320675D02*
X809625Y333375D01*
X815975Y339725D01*
X828675Y339725D01*
X835025Y333375D01*
X835025Y320675D01*
X828675Y314325D01*
X815975Y339725D02*
X809625Y346075D01*
X828675Y339725D02*
X835025Y346075D01*
X835025Y358775D01*
X809625Y282575D02*
X809625Y269875D01*
X809625Y282575D02*
X815975Y288925D01*
X828675Y288925D01*
X835025Y282575D01*
X815975Y288925D02*
X809625Y295275D01*
X809625Y307975D01*
X815975Y314325D01*
X828675Y314325D01*
X835025Y307975D01*
X835025Y295275D01*
X828675Y288925D01*
X828675Y263525D02*
X815975Y263525D01*
X809625Y269875D01*
X828675Y263525D02*
X835025Y269875D01*
X835025Y282575D01*
X809625Y447675D02*
X809625Y460375D01*
X815975Y466725D01*
X828675Y466725D01*
X835025Y460375D01*
X815975Y441325D02*
X809625Y447675D01*
X828675Y441325D02*
X835025Y447675D01*
X835025Y460375D01*
D13*
X803402Y265305D02*
X801495Y263398D01*
X803402Y265305D02*
X803402Y267211D01*
X801495Y269118D01*
X791962Y269118D01*
X791962Y267211D02*
X791962Y271025D01*
X791962Y275092D02*
X803402Y275092D01*
X791962Y275092D02*
X791962Y280812D01*
X793869Y282718D01*
X797682Y282718D01*
X799589Y280812D01*
X799589Y275092D01*
X795776Y286786D02*
X791962Y290599D01*
X803402Y290599D01*
X803402Y286786D02*
X803402Y294412D01*
X83601Y494375D02*
X79788Y490562D01*
X83601Y494375D02*
X83601Y482935D01*
X79788Y482935D02*
X87415Y482935D01*
X49154Y477935D02*
X47247Y479842D01*
X49154Y477935D02*
X51060Y477935D01*
X52967Y479842D01*
X52967Y489375D01*
X51060Y489375D02*
X54874Y489375D01*
X58941Y487468D02*
X60848Y489375D01*
X64661Y489375D01*
X66568Y487468D01*
X66568Y485562D01*
X64661Y483655D01*
X66568Y481748D01*
X66568Y479842D01*
X64661Y477935D01*
X60848Y477935D01*
X58941Y479842D01*
X58941Y481748D01*
X60848Y483655D01*
X58941Y485562D01*
X58941Y487468D01*
X60848Y483655D02*
X64661Y483655D01*
X558941Y492468D02*
X560848Y494375D01*
X564661Y494375D01*
X566568Y492468D01*
X566568Y490562D01*
X564661Y488655D01*
X562754Y488655D01*
X564661Y488655D02*
X566568Y486748D01*
X566568Y484842D01*
X564661Y482935D01*
X560848Y482935D01*
X558941Y484842D01*
X570635Y484842D02*
X572542Y482935D01*
X576355Y482935D01*
X578262Y484842D01*
X578262Y492468D01*
X576355Y494375D01*
X572542Y494375D01*
X570635Y492468D01*
X570635Y490562D01*
X572542Y488655D01*
X578262Y488655D01*
X202754Y494375D02*
X198941Y490562D01*
X202754Y494375D02*
X202754Y482935D01*
X198941Y482935D02*
X206568Y482935D01*
X210635Y490562D02*
X214448Y494375D01*
X214448Y482935D01*
X210635Y482935D02*
X218262Y482935D01*
X328941Y482935D02*
X336568Y482935D01*
X328941Y482935D02*
X336568Y490562D01*
X336568Y492468D01*
X334661Y494375D01*
X330848Y494375D01*
X328941Y492468D01*
X340635Y490562D02*
X344448Y494375D01*
X344448Y482935D01*
X340635Y482935D02*
X348262Y482935D01*
X453941Y492468D02*
X455848Y494375D01*
X459661Y494375D01*
X461568Y492468D01*
X461568Y490562D01*
X459661Y488655D01*
X457754Y488655D01*
X459661Y488655D02*
X461568Y486748D01*
X461568Y484842D01*
X459661Y482935D01*
X455848Y482935D01*
X453941Y484842D01*
X465635Y490562D02*
X469448Y494375D01*
X469448Y482935D01*
X465635Y482935D02*
X473262Y482935D01*
X240635Y252075D02*
X240635Y240635D01*
X240635Y252075D02*
X246355Y252075D01*
X248262Y250168D01*
X248262Y246355D01*
X246355Y244448D01*
X240635Y244448D01*
X258049Y252075D02*
X259955Y250168D01*
X258049Y252075D02*
X254236Y252075D01*
X252329Y250168D01*
X252329Y242542D01*
X254236Y240635D01*
X258049Y240635D01*
X259955Y242542D01*
X264023Y240635D02*
X264023Y252075D01*
X269743Y252075D01*
X271649Y250168D01*
X271649Y248262D01*
X269743Y246355D01*
X271649Y244448D01*
X271649Y242542D01*
X269743Y240635D01*
X264023Y240635D01*
X264023Y246355D02*
X269743Y246355D01*
X275717Y248262D02*
X279530Y252075D01*
X279530Y240635D01*
X275717Y240635D02*
X283343Y240635D01*
X536450Y279800D02*
X536450Y329800D01*
X568450Y329800D01*
X568450Y279800D01*
X536450Y279800D01*
D14*
X562450Y287800D03*
D10*
X527993Y276308D02*
X520197Y276308D01*
X518248Y278257D01*
X518248Y282155D01*
X520197Y284104D01*
X527993Y284104D01*
X529942Y282155D01*
X529942Y278257D01*
X527993Y276308D01*
X526044Y280206D02*
X529942Y284104D01*
X522146Y288002D02*
X518248Y291900D01*
X529942Y291900D01*
X529942Y288002D02*
X529942Y295798D01*
D15*
X473075Y285750D03*
D10*
X460445Y273053D02*
X460445Y265257D01*
X460445Y273053D02*
X462394Y275002D01*
X466292Y275002D01*
X468241Y273053D01*
X468241Y265257D01*
X466292Y263308D01*
X462394Y263308D01*
X460445Y265257D01*
X464343Y267206D02*
X468241Y263308D01*
X472139Y263308D02*
X479935Y263308D01*
X472139Y263308D02*
X479935Y271104D01*
X479935Y273053D01*
X477986Y275002D01*
X474088Y275002D01*
X472139Y273053D01*
X172530Y138621D02*
X160836Y138621D01*
X160836Y144467D01*
X162785Y146416D01*
X166683Y146416D01*
X168632Y144467D01*
X168632Y138621D01*
X168632Y142518D02*
X172530Y146416D01*
X164734Y150314D02*
X160836Y154212D01*
X172530Y154212D01*
X172530Y150314D02*
X172530Y158110D01*
X216398Y81471D02*
X228092Y81471D01*
X216398Y81471D02*
X216398Y87317D01*
X218347Y89266D01*
X222245Y89266D01*
X224194Y87317D01*
X224194Y81471D01*
X224194Y85368D02*
X228092Y89266D01*
X228092Y93164D02*
X228092Y100960D01*
X228092Y93164D02*
X220296Y100960D01*
X218347Y100960D01*
X216398Y99011D01*
X216398Y95113D01*
X218347Y93164D01*
X238623Y62421D02*
X250317Y62421D01*
X238623Y62421D02*
X238623Y68267D01*
X240572Y70216D01*
X244470Y70216D01*
X246419Y68267D01*
X246419Y62421D01*
X246419Y66318D02*
X250317Y70216D01*
X240572Y74114D02*
X238623Y76063D01*
X238623Y79961D01*
X240572Y81910D01*
X242521Y81910D01*
X244470Y79961D01*
X244470Y78012D01*
X244470Y79961D02*
X246419Y81910D01*
X248368Y81910D01*
X250317Y79961D01*
X250317Y76063D01*
X248368Y74114D01*
X148717Y25908D02*
X137023Y25908D01*
X137023Y31755D01*
X138972Y33704D01*
X142870Y33704D01*
X144819Y31755D01*
X144819Y25908D01*
X144819Y29806D02*
X148717Y33704D01*
X148717Y43449D02*
X137023Y43449D01*
X142870Y37602D01*
X142870Y45398D01*
X260848Y15220D02*
X272542Y15220D01*
X260848Y15220D02*
X260848Y21067D01*
X262797Y23016D01*
X266695Y23016D01*
X268644Y21067D01*
X268644Y15220D01*
X268644Y19118D02*
X272542Y23016D01*
X260848Y26914D02*
X260848Y34710D01*
X260848Y26914D02*
X266695Y26914D01*
X264746Y30812D01*
X264746Y32761D01*
X266695Y34710D01*
X270593Y34710D01*
X272542Y32761D01*
X272542Y28863D01*
X270593Y26914D01*
X283073Y15220D02*
X294767Y15220D01*
X283073Y15220D02*
X283073Y21067D01*
X285022Y23016D01*
X288920Y23016D01*
X290869Y21067D01*
X290869Y15220D01*
X290869Y19118D02*
X294767Y23016D01*
X285022Y30812D02*
X283073Y34710D01*
X285022Y30812D02*
X288920Y26914D01*
X292818Y26914D01*
X294767Y28863D01*
X294767Y32761D01*
X292818Y34710D01*
X290869Y34710D01*
X288920Y32761D01*
X288920Y26914D01*
X725923Y70795D02*
X737617Y70795D01*
X725923Y70795D02*
X725923Y76642D01*
X727872Y78591D01*
X731770Y78591D01*
X733719Y76642D01*
X733719Y70795D01*
X733719Y74693D02*
X737617Y78591D01*
X725923Y82489D02*
X725923Y90285D01*
X727872Y90285D01*
X735668Y82489D01*
X737617Y82489D01*
X421620Y219583D02*
X421620Y231277D01*
X427467Y231277D01*
X429416Y229328D01*
X429416Y225430D01*
X427467Y223481D01*
X421620Y223481D01*
X425518Y223481D02*
X429416Y219583D01*
X433314Y229328D02*
X435263Y231277D01*
X439161Y231277D01*
X441110Y229328D01*
X441110Y227379D01*
X439161Y225430D01*
X441110Y223481D01*
X441110Y221532D01*
X439161Y219583D01*
X435263Y219583D01*
X433314Y221532D01*
X433314Y223481D01*
X435263Y225430D01*
X433314Y227379D01*
X433314Y229328D01*
X435263Y225430D02*
X439161Y225430D01*
X421620Y174127D02*
X421620Y162433D01*
X421620Y174127D02*
X427467Y174127D01*
X429416Y172178D01*
X429416Y168280D01*
X427467Y166331D01*
X421620Y166331D01*
X425518Y166331D02*
X429416Y162433D01*
X433314Y164382D02*
X435263Y162433D01*
X439161Y162433D01*
X441110Y164382D01*
X441110Y172178D01*
X439161Y174127D01*
X435263Y174127D01*
X433314Y172178D01*
X433314Y170229D01*
X435263Y168280D01*
X441110Y168280D01*
X749094Y170481D02*
X804306Y170481D01*
X804306Y150444D01*
X808462Y150444D01*
X808462Y130704D01*
X804306Y130704D01*
X804306Y110519D01*
X749094Y110519D01*
X749094Y127142D01*
X747906Y128330D01*
X747906Y152522D01*
X749094Y153710D01*
X749094Y170481D01*
X787386Y112894D02*
X803861Y112894D01*
X787386Y112894D02*
X787386Y113933D01*
X765865Y113933D01*
X765865Y111113D01*
X765420Y112894D02*
X749688Y112894D01*
X787386Y112894D02*
X787386Y110965D01*
X787386Y168106D02*
X803861Y168106D01*
X787386Y168106D02*
X787386Y167067D01*
X765865Y167067D01*
X765865Y169887D01*
X765420Y168106D02*
X749688Y168106D01*
X787386Y168106D02*
X787386Y170036D01*
X763936Y140500D02*
X763940Y140813D01*
X763951Y141126D01*
X763971Y141439D01*
X763997Y141751D01*
X764032Y142062D01*
X764074Y142373D01*
X764124Y142682D01*
X764181Y142990D01*
X764246Y143297D01*
X764319Y143601D01*
X764398Y143904D01*
X764486Y144205D01*
X764580Y144504D01*
X764682Y144800D01*
X764791Y145094D01*
X764908Y145385D01*
X765031Y145673D01*
X765161Y145957D01*
X765299Y146239D01*
X765443Y146517D01*
X765594Y146791D01*
X765752Y147062D01*
X765916Y147329D01*
X766087Y147591D01*
X766264Y147850D01*
X766448Y148104D01*
X766638Y148353D01*
X766833Y148597D01*
X767035Y148837D01*
X767242Y149072D01*
X767456Y149301D01*
X767674Y149526D01*
X767899Y149744D01*
X768128Y149958D01*
X768363Y150165D01*
X768603Y150367D01*
X768847Y150562D01*
X769096Y150752D01*
X769350Y150936D01*
X769609Y151113D01*
X769871Y151284D01*
X770138Y151448D01*
X770409Y151606D01*
X770683Y151757D01*
X770961Y151901D01*
X771243Y152039D01*
X771527Y152169D01*
X771815Y152292D01*
X772106Y152409D01*
X772400Y152518D01*
X772696Y152620D01*
X772995Y152714D01*
X773296Y152802D01*
X773599Y152881D01*
X773903Y152954D01*
X774210Y153019D01*
X774518Y153076D01*
X774827Y153126D01*
X775138Y153168D01*
X775449Y153203D01*
X775761Y153229D01*
X776074Y153249D01*
X776387Y153260D01*
X776700Y153264D01*
X777013Y153260D01*
X777326Y153249D01*
X777639Y153229D01*
X777951Y153203D01*
X778262Y153168D01*
X778573Y153126D01*
X778882Y153076D01*
X779190Y153019D01*
X779497Y152954D01*
X779801Y152881D01*
X780104Y152802D01*
X780405Y152714D01*
X780704Y152620D01*
X781000Y152518D01*
X781294Y152409D01*
X781585Y152292D01*
X781873Y152169D01*
X782157Y152039D01*
X782439Y151901D01*
X782717Y151757D01*
X782991Y151606D01*
X783262Y151448D01*
X783529Y151284D01*
X783791Y151113D01*
X784050Y150936D01*
X784304Y150752D01*
X784553Y150562D01*
X784797Y150367D01*
X785037Y150165D01*
X785272Y149958D01*
X785501Y149744D01*
X785726Y149526D01*
X785944Y149301D01*
X786158Y149072D01*
X786365Y148837D01*
X786567Y148597D01*
X786762Y148353D01*
X786952Y148104D01*
X787136Y147850D01*
X787313Y147591D01*
X787484Y147329D01*
X787648Y147062D01*
X787806Y146791D01*
X787957Y146517D01*
X788101Y146239D01*
X788239Y145957D01*
X788369Y145673D01*
X788492Y145385D01*
X788609Y145094D01*
X788718Y144800D01*
X788820Y144504D01*
X788914Y144205D01*
X789002Y143904D01*
X789081Y143601D01*
X789154Y143297D01*
X789219Y142990D01*
X789276Y142682D01*
X789326Y142373D01*
X789368Y142062D01*
X789403Y141751D01*
X789429Y141439D01*
X789449Y141126D01*
X789460Y140813D01*
X789464Y140500D01*
X789460Y140187D01*
X789449Y139874D01*
X789429Y139561D01*
X789403Y139249D01*
X789368Y138938D01*
X789326Y138627D01*
X789276Y138318D01*
X789219Y138010D01*
X789154Y137703D01*
X789081Y137399D01*
X789002Y137096D01*
X788914Y136795D01*
X788820Y136496D01*
X788718Y136200D01*
X788609Y135906D01*
X788492Y135615D01*
X788369Y135327D01*
X788239Y135043D01*
X788101Y134761D01*
X787957Y134483D01*
X787806Y134209D01*
X787648Y133938D01*
X787484Y133671D01*
X787313Y133409D01*
X787136Y133150D01*
X786952Y132896D01*
X786762Y132647D01*
X786567Y132403D01*
X786365Y132163D01*
X786158Y131928D01*
X785944Y131699D01*
X785726Y131474D01*
X785501Y131256D01*
X785272Y131042D01*
X785037Y130835D01*
X784797Y130633D01*
X784553Y130438D01*
X784304Y130248D01*
X784050Y130064D01*
X783791Y129887D01*
X783529Y129716D01*
X783262Y129552D01*
X782991Y129394D01*
X782717Y129243D01*
X782439Y129099D01*
X782157Y128961D01*
X781873Y128831D01*
X781585Y128708D01*
X781294Y128591D01*
X781000Y128482D01*
X780704Y128380D01*
X780405Y128286D01*
X780104Y128198D01*
X779801Y128119D01*
X779497Y128046D01*
X779190Y127981D01*
X778882Y127924D01*
X778573Y127874D01*
X778262Y127832D01*
X777951Y127797D01*
X777639Y127771D01*
X777326Y127751D01*
X777013Y127740D01*
X776700Y127736D01*
X776387Y127740D01*
X776074Y127751D01*
X775761Y127771D01*
X775449Y127797D01*
X775138Y127832D01*
X774827Y127874D01*
X774518Y127924D01*
X774210Y127981D01*
X773903Y128046D01*
X773599Y128119D01*
X773296Y128198D01*
X772995Y128286D01*
X772696Y128380D01*
X772400Y128482D01*
X772106Y128591D01*
X771815Y128708D01*
X771527Y128831D01*
X771243Y128961D01*
X770961Y129099D01*
X770683Y129243D01*
X770409Y129394D01*
X770138Y129552D01*
X769871Y129716D01*
X769609Y129887D01*
X769350Y130064D01*
X769096Y130248D01*
X768847Y130438D01*
X768603Y130633D01*
X768363Y130835D01*
X768128Y131042D01*
X767899Y131256D01*
X767674Y131474D01*
X767456Y131699D01*
X767242Y131928D01*
X767035Y132163D01*
X766833Y132403D01*
X766638Y132647D01*
X766448Y132896D01*
X766264Y133150D01*
X766087Y133409D01*
X765916Y133671D01*
X765752Y133938D01*
X765594Y134209D01*
X765443Y134483D01*
X765299Y134761D01*
X765161Y135043D01*
X765031Y135327D01*
X764908Y135615D01*
X764791Y135906D01*
X764682Y136200D01*
X764580Y136496D01*
X764486Y136795D01*
X764398Y137096D01*
X764319Y137399D01*
X764246Y137703D01*
X764181Y138010D01*
X764124Y138318D01*
X764074Y138627D01*
X764032Y138938D01*
X763997Y139249D01*
X763971Y139561D01*
X763951Y139874D01*
X763940Y140187D01*
X763936Y140500D01*
X760225Y140500D02*
X760230Y140904D01*
X760245Y141308D01*
X760270Y141712D01*
X760304Y142115D01*
X760349Y142517D01*
X760403Y142917D01*
X760468Y143317D01*
X760542Y143714D01*
X760625Y144110D01*
X760719Y144503D01*
X760822Y144894D01*
X760934Y145282D01*
X761057Y145668D01*
X761188Y146050D01*
X761329Y146429D01*
X761479Y146805D01*
X761638Y147176D01*
X761807Y147544D01*
X761984Y147907D01*
X762170Y148266D01*
X762365Y148620D01*
X762569Y148970D01*
X762781Y149314D01*
X763002Y149653D01*
X763230Y149986D01*
X763467Y150314D01*
X763712Y150636D01*
X763965Y150952D01*
X764225Y151261D01*
X764493Y151564D01*
X764768Y151860D01*
X765050Y152150D01*
X765340Y152432D01*
X765636Y152707D01*
X765939Y152975D01*
X766248Y153235D01*
X766564Y153488D01*
X766886Y153733D01*
X767214Y153970D01*
X767547Y154198D01*
X767886Y154419D01*
X768230Y154631D01*
X768580Y154835D01*
X768934Y155030D01*
X769293Y155216D01*
X769656Y155393D01*
X770024Y155562D01*
X770395Y155721D01*
X770771Y155871D01*
X771150Y156012D01*
X771532Y156143D01*
X771918Y156266D01*
X772306Y156378D01*
X772697Y156481D01*
X773090Y156575D01*
X773486Y156658D01*
X773883Y156732D01*
X774283Y156797D01*
X774683Y156851D01*
X775085Y156896D01*
X775488Y156930D01*
X775892Y156955D01*
X776296Y156970D01*
X776700Y156975D01*
X777104Y156970D01*
X777508Y156955D01*
X777912Y156930D01*
X778315Y156896D01*
X778717Y156851D01*
X779117Y156797D01*
X779517Y156732D01*
X779914Y156658D01*
X780310Y156575D01*
X780703Y156481D01*
X781094Y156378D01*
X781482Y156266D01*
X781868Y156143D01*
X782250Y156012D01*
X782629Y155871D01*
X783005Y155721D01*
X783376Y155562D01*
X783744Y155393D01*
X784107Y155216D01*
X784466Y155030D01*
X784820Y154835D01*
X785170Y154631D01*
X785514Y154419D01*
X785853Y154198D01*
X786186Y153970D01*
X786514Y153733D01*
X786836Y153488D01*
X787152Y153235D01*
X787461Y152975D01*
X787764Y152707D01*
X788060Y152432D01*
X788350Y152150D01*
X788632Y151860D01*
X788907Y151564D01*
X789175Y151261D01*
X789435Y150952D01*
X789688Y150636D01*
X789933Y150314D01*
X790170Y149986D01*
X790398Y149653D01*
X790619Y149314D01*
X790831Y148970D01*
X791035Y148620D01*
X791230Y148266D01*
X791416Y147907D01*
X791593Y147544D01*
X791762Y147176D01*
X791921Y146805D01*
X792071Y146429D01*
X792212Y146050D01*
X792343Y145668D01*
X792466Y145282D01*
X792578Y144894D01*
X792681Y144503D01*
X792775Y144110D01*
X792858Y143714D01*
X792932Y143317D01*
X792997Y142917D01*
X793051Y142517D01*
X793096Y142115D01*
X793130Y141712D01*
X793155Y141308D01*
X793170Y140904D01*
X793175Y140500D01*
X793170Y140096D01*
X793155Y139692D01*
X793130Y139288D01*
X793096Y138885D01*
X793051Y138483D01*
X792997Y138083D01*
X792932Y137683D01*
X792858Y137286D01*
X792775Y136890D01*
X792681Y136497D01*
X792578Y136106D01*
X792466Y135718D01*
X792343Y135332D01*
X792212Y134950D01*
X792071Y134571D01*
X791921Y134195D01*
X791762Y133824D01*
X791593Y133456D01*
X791416Y133093D01*
X791230Y132734D01*
X791035Y132380D01*
X790831Y132030D01*
X790619Y131686D01*
X790398Y131347D01*
X790170Y131014D01*
X789933Y130686D01*
X789688Y130364D01*
X789435Y130048D01*
X789175Y129739D01*
X788907Y129436D01*
X788632Y129140D01*
X788350Y128850D01*
X788060Y128568D01*
X787764Y128293D01*
X787461Y128025D01*
X787152Y127765D01*
X786836Y127512D01*
X786514Y127267D01*
X786186Y127030D01*
X785853Y126802D01*
X785514Y126581D01*
X785170Y126369D01*
X784820Y126165D01*
X784466Y125970D01*
X784107Y125784D01*
X783744Y125607D01*
X783376Y125438D01*
X783005Y125279D01*
X782629Y125129D01*
X782250Y124988D01*
X781868Y124857D01*
X781482Y124734D01*
X781094Y124622D01*
X780703Y124519D01*
X780310Y124425D01*
X779914Y124342D01*
X779517Y124268D01*
X779117Y124203D01*
X778717Y124149D01*
X778315Y124104D01*
X777912Y124070D01*
X777508Y124045D01*
X777104Y124030D01*
X776700Y124025D01*
X776296Y124030D01*
X775892Y124045D01*
X775488Y124070D01*
X775085Y124104D01*
X774683Y124149D01*
X774283Y124203D01*
X773883Y124268D01*
X773486Y124342D01*
X773090Y124425D01*
X772697Y124519D01*
X772306Y124622D01*
X771918Y124734D01*
X771532Y124857D01*
X771150Y124988D01*
X770771Y125129D01*
X770395Y125279D01*
X770024Y125438D01*
X769656Y125607D01*
X769293Y125784D01*
X768934Y125970D01*
X768580Y126165D01*
X768230Y126369D01*
X767886Y126581D01*
X767547Y126802D01*
X767214Y127030D01*
X766886Y127267D01*
X766564Y127512D01*
X766248Y127765D01*
X765939Y128025D01*
X765636Y128293D01*
X765340Y128568D01*
X765050Y128850D01*
X764768Y129140D01*
X764493Y129436D01*
X764225Y129739D01*
X763965Y130048D01*
X763712Y130364D01*
X763467Y130686D01*
X763230Y131014D01*
X763002Y131347D01*
X762781Y131686D01*
X762569Y132030D01*
X762365Y132380D01*
X762170Y132734D01*
X761984Y133093D01*
X761807Y133456D01*
X761638Y133824D01*
X761479Y134195D01*
X761329Y134571D01*
X761188Y134950D01*
X761057Y135332D01*
X760934Y135718D01*
X760822Y136106D01*
X760719Y136497D01*
X760625Y136890D01*
X760542Y137286D01*
X760468Y137683D01*
X760403Y138083D01*
X760349Y138483D01*
X760304Y138885D01*
X760270Y139288D01*
X760245Y139692D01*
X760230Y140096D01*
X760225Y140500D01*
D16*
X746200Y161056D03*
D17*
X746126Y120018D03*
D18*
X807275Y161056D03*
D19*
X809278Y140575D03*
D20*
X807201Y120093D03*
D10*
X759604Y182503D02*
X757655Y184452D01*
X753757Y184452D01*
X751808Y182503D01*
X751808Y180554D01*
X753757Y178605D01*
X757655Y178605D01*
X759604Y176656D01*
X759604Y174707D01*
X757655Y172758D01*
X753757Y172758D01*
X751808Y174707D01*
X763502Y180554D02*
X767400Y184452D01*
X767400Y172758D01*
X763502Y172758D02*
X771298Y172758D01*
X749094Y97456D02*
X804306Y97456D01*
X804306Y77419D01*
X808462Y77419D01*
X808462Y57679D01*
X804306Y57679D01*
X804306Y37494D01*
X749094Y37494D01*
X749094Y54117D01*
X747906Y55305D01*
X747906Y79497D01*
X749094Y80685D01*
X749094Y97456D01*
X787386Y39869D02*
X803861Y39869D01*
X787386Y39869D02*
X787386Y40908D01*
X765865Y40908D01*
X765865Y38088D01*
X765420Y39869D02*
X749688Y39869D01*
X787386Y39869D02*
X787386Y37940D01*
X787386Y95081D02*
X803861Y95081D01*
X787386Y95081D02*
X787386Y94042D01*
X765865Y94042D01*
X765865Y96862D01*
X765420Y95081D02*
X749688Y95081D01*
X787386Y95081D02*
X787386Y97011D01*
X763936Y67475D02*
X763940Y67788D01*
X763951Y68101D01*
X763971Y68414D01*
X763997Y68726D01*
X764032Y69037D01*
X764074Y69348D01*
X764124Y69657D01*
X764181Y69965D01*
X764246Y70272D01*
X764319Y70576D01*
X764398Y70879D01*
X764486Y71180D01*
X764580Y71479D01*
X764682Y71775D01*
X764791Y72069D01*
X764908Y72360D01*
X765031Y72648D01*
X765161Y72932D01*
X765299Y73214D01*
X765443Y73492D01*
X765594Y73766D01*
X765752Y74037D01*
X765916Y74304D01*
X766087Y74566D01*
X766264Y74825D01*
X766448Y75079D01*
X766638Y75328D01*
X766833Y75572D01*
X767035Y75812D01*
X767242Y76047D01*
X767456Y76276D01*
X767674Y76501D01*
X767899Y76719D01*
X768128Y76933D01*
X768363Y77140D01*
X768603Y77342D01*
X768847Y77537D01*
X769096Y77727D01*
X769350Y77911D01*
X769609Y78088D01*
X769871Y78259D01*
X770138Y78423D01*
X770409Y78581D01*
X770683Y78732D01*
X770961Y78876D01*
X771243Y79014D01*
X771527Y79144D01*
X771815Y79267D01*
X772106Y79384D01*
X772400Y79493D01*
X772696Y79595D01*
X772995Y79689D01*
X773296Y79777D01*
X773599Y79856D01*
X773903Y79929D01*
X774210Y79994D01*
X774518Y80051D01*
X774827Y80101D01*
X775138Y80143D01*
X775449Y80178D01*
X775761Y80204D01*
X776074Y80224D01*
X776387Y80235D01*
X776700Y80239D01*
X777013Y80235D01*
X777326Y80224D01*
X777639Y80204D01*
X777951Y80178D01*
X778262Y80143D01*
X778573Y80101D01*
X778882Y80051D01*
X779190Y79994D01*
X779497Y79929D01*
X779801Y79856D01*
X780104Y79777D01*
X780405Y79689D01*
X780704Y79595D01*
X781000Y79493D01*
X781294Y79384D01*
X781585Y79267D01*
X781873Y79144D01*
X782157Y79014D01*
X782439Y78876D01*
X782717Y78732D01*
X782991Y78581D01*
X783262Y78423D01*
X783529Y78259D01*
X783791Y78088D01*
X784050Y77911D01*
X784304Y77727D01*
X784553Y77537D01*
X784797Y77342D01*
X785037Y77140D01*
X785272Y76933D01*
X785501Y76719D01*
X785726Y76501D01*
X785944Y76276D01*
X786158Y76047D01*
X786365Y75812D01*
X786567Y75572D01*
X786762Y75328D01*
X786952Y75079D01*
X787136Y74825D01*
X787313Y74566D01*
X787484Y74304D01*
X787648Y74037D01*
X787806Y73766D01*
X787957Y73492D01*
X788101Y73214D01*
X788239Y72932D01*
X788369Y72648D01*
X788492Y72360D01*
X788609Y72069D01*
X788718Y71775D01*
X788820Y71479D01*
X788914Y71180D01*
X789002Y70879D01*
X789081Y70576D01*
X789154Y70272D01*
X789219Y69965D01*
X789276Y69657D01*
X789326Y69348D01*
X789368Y69037D01*
X789403Y68726D01*
X789429Y68414D01*
X789449Y68101D01*
X789460Y67788D01*
X789464Y67475D01*
X789460Y67162D01*
X789449Y66849D01*
X789429Y66536D01*
X789403Y66224D01*
X789368Y65913D01*
X789326Y65602D01*
X789276Y65293D01*
X789219Y64985D01*
X789154Y64678D01*
X789081Y64374D01*
X789002Y64071D01*
X788914Y63770D01*
X788820Y63471D01*
X788718Y63175D01*
X788609Y62881D01*
X788492Y62590D01*
X788369Y62302D01*
X788239Y62018D01*
X788101Y61736D01*
X787957Y61458D01*
X787806Y61184D01*
X787648Y60913D01*
X787484Y60646D01*
X787313Y60384D01*
X787136Y60125D01*
X786952Y59871D01*
X786762Y59622D01*
X786567Y59378D01*
X786365Y59138D01*
X786158Y58903D01*
X785944Y58674D01*
X785726Y58449D01*
X785501Y58231D01*
X785272Y58017D01*
X785037Y57810D01*
X784797Y57608D01*
X784553Y57413D01*
X784304Y57223D01*
X784050Y57039D01*
X783791Y56862D01*
X783529Y56691D01*
X783262Y56527D01*
X782991Y56369D01*
X782717Y56218D01*
X782439Y56074D01*
X782157Y55936D01*
X781873Y55806D01*
X781585Y55683D01*
X781294Y55566D01*
X781000Y55457D01*
X780704Y55355D01*
X780405Y55261D01*
X780104Y55173D01*
X779801Y55094D01*
X779497Y55021D01*
X779190Y54956D01*
X778882Y54899D01*
X778573Y54849D01*
X778262Y54807D01*
X777951Y54772D01*
X777639Y54746D01*
X777326Y54726D01*
X777013Y54715D01*
X776700Y54711D01*
X776387Y54715D01*
X776074Y54726D01*
X775761Y54746D01*
X775449Y54772D01*
X775138Y54807D01*
X774827Y54849D01*
X774518Y54899D01*
X774210Y54956D01*
X773903Y55021D01*
X773599Y55094D01*
X773296Y55173D01*
X772995Y55261D01*
X772696Y55355D01*
X772400Y55457D01*
X772106Y55566D01*
X771815Y55683D01*
X771527Y55806D01*
X771243Y55936D01*
X770961Y56074D01*
X770683Y56218D01*
X770409Y56369D01*
X770138Y56527D01*
X769871Y56691D01*
X769609Y56862D01*
X769350Y57039D01*
X769096Y57223D01*
X768847Y57413D01*
X768603Y57608D01*
X768363Y57810D01*
X768128Y58017D01*
X767899Y58231D01*
X767674Y58449D01*
X767456Y58674D01*
X767242Y58903D01*
X767035Y59138D01*
X766833Y59378D01*
X766638Y59622D01*
X766448Y59871D01*
X766264Y60125D01*
X766087Y60384D01*
X765916Y60646D01*
X765752Y60913D01*
X765594Y61184D01*
X765443Y61458D01*
X765299Y61736D01*
X765161Y62018D01*
X765031Y62302D01*
X764908Y62590D01*
X764791Y62881D01*
X764682Y63175D01*
X764580Y63471D01*
X764486Y63770D01*
X764398Y64071D01*
X764319Y64374D01*
X764246Y64678D01*
X764181Y64985D01*
X764124Y65293D01*
X764074Y65602D01*
X764032Y65913D01*
X763997Y66224D01*
X763971Y66536D01*
X763951Y66849D01*
X763940Y67162D01*
X763936Y67475D01*
X760225Y67475D02*
X760230Y67879D01*
X760245Y68283D01*
X760270Y68687D01*
X760304Y69090D01*
X760349Y69492D01*
X760403Y69892D01*
X760468Y70292D01*
X760542Y70689D01*
X760625Y71085D01*
X760719Y71478D01*
X760822Y71869D01*
X760934Y72257D01*
X761057Y72643D01*
X761188Y73025D01*
X761329Y73404D01*
X761479Y73780D01*
X761638Y74151D01*
X761807Y74519D01*
X761984Y74882D01*
X762170Y75241D01*
X762365Y75595D01*
X762569Y75945D01*
X762781Y76289D01*
X763002Y76628D01*
X763230Y76961D01*
X763467Y77289D01*
X763712Y77611D01*
X763965Y77927D01*
X764225Y78236D01*
X764493Y78539D01*
X764768Y78835D01*
X765050Y79125D01*
X765340Y79407D01*
X765636Y79682D01*
X765939Y79950D01*
X766248Y80210D01*
X766564Y80463D01*
X766886Y80708D01*
X767214Y80945D01*
X767547Y81173D01*
X767886Y81394D01*
X768230Y81606D01*
X768580Y81810D01*
X768934Y82005D01*
X769293Y82191D01*
X769656Y82368D01*
X770024Y82537D01*
X770395Y82696D01*
X770771Y82846D01*
X771150Y82987D01*
X771532Y83118D01*
X771918Y83241D01*
X772306Y83353D01*
X772697Y83456D01*
X773090Y83550D01*
X773486Y83633D01*
X773883Y83707D01*
X774283Y83772D01*
X774683Y83826D01*
X775085Y83871D01*
X775488Y83905D01*
X775892Y83930D01*
X776296Y83945D01*
X776700Y83950D01*
X777104Y83945D01*
X777508Y83930D01*
X777912Y83905D01*
X778315Y83871D01*
X778717Y83826D01*
X779117Y83772D01*
X779517Y83707D01*
X779914Y83633D01*
X780310Y83550D01*
X780703Y83456D01*
X781094Y83353D01*
X781482Y83241D01*
X781868Y83118D01*
X782250Y82987D01*
X782629Y82846D01*
X783005Y82696D01*
X783376Y82537D01*
X783744Y82368D01*
X784107Y82191D01*
X784466Y82005D01*
X784820Y81810D01*
X785170Y81606D01*
X785514Y81394D01*
X785853Y81173D01*
X786186Y80945D01*
X786514Y80708D01*
X786836Y80463D01*
X787152Y80210D01*
X787461Y79950D01*
X787764Y79682D01*
X788060Y79407D01*
X788350Y79125D01*
X788632Y78835D01*
X788907Y78539D01*
X789175Y78236D01*
X789435Y77927D01*
X789688Y77611D01*
X789933Y77289D01*
X790170Y76961D01*
X790398Y76628D01*
X790619Y76289D01*
X790831Y75945D01*
X791035Y75595D01*
X791230Y75241D01*
X791416Y74882D01*
X791593Y74519D01*
X791762Y74151D01*
X791921Y73780D01*
X792071Y73404D01*
X792212Y73025D01*
X792343Y72643D01*
X792466Y72257D01*
X792578Y71869D01*
X792681Y71478D01*
X792775Y71085D01*
X792858Y70689D01*
X792932Y70292D01*
X792997Y69892D01*
X793051Y69492D01*
X793096Y69090D01*
X793130Y68687D01*
X793155Y68283D01*
X793170Y67879D01*
X793175Y67475D01*
X793170Y67071D01*
X793155Y66667D01*
X793130Y66263D01*
X793096Y65860D01*
X793051Y65458D01*
X792997Y65058D01*
X792932Y64658D01*
X792858Y64261D01*
X792775Y63865D01*
X792681Y63472D01*
X792578Y63081D01*
X792466Y62693D01*
X792343Y62307D01*
X792212Y61925D01*
X792071Y61546D01*
X791921Y61170D01*
X791762Y60799D01*
X791593Y60431D01*
X791416Y60068D01*
X791230Y59709D01*
X791035Y59355D01*
X790831Y59005D01*
X790619Y58661D01*
X790398Y58322D01*
X790170Y57989D01*
X789933Y57661D01*
X789688Y57339D01*
X789435Y57023D01*
X789175Y56714D01*
X788907Y56411D01*
X788632Y56115D01*
X788350Y55825D01*
X788060Y55543D01*
X787764Y55268D01*
X787461Y55000D01*
X787152Y54740D01*
X786836Y54487D01*
X786514Y54242D01*
X786186Y54005D01*
X785853Y53777D01*
X785514Y53556D01*
X785170Y53344D01*
X784820Y53140D01*
X784466Y52945D01*
X784107Y52759D01*
X783744Y52582D01*
X783376Y52413D01*
X783005Y52254D01*
X782629Y52104D01*
X782250Y51963D01*
X781868Y51832D01*
X781482Y51709D01*
X781094Y51597D01*
X780703Y51494D01*
X780310Y51400D01*
X779914Y51317D01*
X779517Y51243D01*
X779117Y51178D01*
X778717Y51124D01*
X778315Y51079D01*
X777912Y51045D01*
X777508Y51020D01*
X777104Y51005D01*
X776700Y51000D01*
X776296Y51005D01*
X775892Y51020D01*
X775488Y51045D01*
X775085Y51079D01*
X774683Y51124D01*
X774283Y51178D01*
X773883Y51243D01*
X773486Y51317D01*
X773090Y51400D01*
X772697Y51494D01*
X772306Y51597D01*
X771918Y51709D01*
X771532Y51832D01*
X771150Y51963D01*
X770771Y52104D01*
X770395Y52254D01*
X770024Y52413D01*
X769656Y52582D01*
X769293Y52759D01*
X768934Y52945D01*
X768580Y53140D01*
X768230Y53344D01*
X767886Y53556D01*
X767547Y53777D01*
X767214Y54005D01*
X766886Y54242D01*
X766564Y54487D01*
X766248Y54740D01*
X765939Y55000D01*
X765636Y55268D01*
X765340Y55543D01*
X765050Y55825D01*
X764768Y56115D01*
X764493Y56411D01*
X764225Y56714D01*
X763965Y57023D01*
X763712Y57339D01*
X763467Y57661D01*
X763230Y57989D01*
X763002Y58322D01*
X762781Y58661D01*
X762569Y59005D01*
X762365Y59355D01*
X762170Y59709D01*
X761984Y60068D01*
X761807Y60431D01*
X761638Y60799D01*
X761479Y61170D01*
X761329Y61546D01*
X761188Y61925D01*
X761057Y62307D01*
X760934Y62693D01*
X760822Y63081D01*
X760719Y63472D01*
X760625Y63865D01*
X760542Y64261D01*
X760468Y64658D01*
X760403Y65058D01*
X760349Y65458D01*
X760304Y65860D01*
X760270Y66263D01*
X760245Y66667D01*
X760230Y67071D01*
X760225Y67475D01*
D16*
X746200Y88031D03*
D17*
X746126Y46993D03*
D18*
X807275Y88031D03*
D19*
X809278Y67550D03*
D20*
X807201Y47068D03*
D10*
X759604Y109478D02*
X757655Y111427D01*
X753757Y111427D01*
X751808Y109478D01*
X751808Y107529D01*
X753757Y105580D01*
X757655Y105580D01*
X759604Y103631D01*
X759604Y101682D01*
X757655Y99733D01*
X753757Y99733D01*
X751808Y101682D01*
X763502Y99733D02*
X771298Y99733D01*
X763502Y99733D02*
X771298Y107529D01*
X771298Y109478D01*
X769349Y111427D01*
X765451Y111427D01*
X763502Y109478D01*
D11*
X248920Y484823D02*
X220980Y484823D01*
X218440Y467043D02*
X218442Y466943D01*
X218448Y466844D01*
X218458Y466744D01*
X218471Y466646D01*
X218489Y466547D01*
X218510Y466450D01*
X218535Y466354D01*
X218564Y466258D01*
X218597Y466164D01*
X218633Y466071D01*
X218673Y465980D01*
X218717Y465890D01*
X218764Y465802D01*
X218814Y465716D01*
X218868Y465632D01*
X218925Y465550D01*
X218985Y465471D01*
X219049Y465393D01*
X219115Y465319D01*
X219184Y465247D01*
X219256Y465178D01*
X219330Y465112D01*
X219408Y465048D01*
X219487Y464988D01*
X219569Y464931D01*
X219653Y464877D01*
X219739Y464827D01*
X219827Y464780D01*
X219917Y464736D01*
X220008Y464696D01*
X220101Y464660D01*
X220195Y464627D01*
X220291Y464598D01*
X220387Y464573D01*
X220484Y464552D01*
X220583Y464534D01*
X220681Y464521D01*
X220781Y464511D01*
X220880Y464505D01*
X220980Y464503D01*
X248920Y464503D02*
X249020Y464505D01*
X249119Y464511D01*
X249219Y464521D01*
X249317Y464534D01*
X249416Y464552D01*
X249513Y464573D01*
X249609Y464598D01*
X249705Y464627D01*
X249799Y464660D01*
X249892Y464696D01*
X249983Y464736D01*
X250073Y464780D01*
X250161Y464827D01*
X250247Y464877D01*
X250331Y464931D01*
X250413Y464988D01*
X250492Y465048D01*
X250570Y465112D01*
X250644Y465178D01*
X250716Y465247D01*
X250785Y465319D01*
X250851Y465393D01*
X250915Y465471D01*
X250975Y465550D01*
X251032Y465632D01*
X251086Y465716D01*
X251136Y465802D01*
X251183Y465890D01*
X251227Y465980D01*
X251267Y466071D01*
X251303Y466164D01*
X251336Y466258D01*
X251365Y466354D01*
X251390Y466450D01*
X251411Y466547D01*
X251429Y466646D01*
X251442Y466744D01*
X251452Y466844D01*
X251458Y466943D01*
X251460Y467043D01*
X251460Y482283D02*
X251458Y482383D01*
X251452Y482482D01*
X251442Y482582D01*
X251429Y482680D01*
X251411Y482779D01*
X251390Y482876D01*
X251365Y482972D01*
X251336Y483068D01*
X251303Y483162D01*
X251267Y483255D01*
X251227Y483346D01*
X251183Y483436D01*
X251136Y483524D01*
X251086Y483610D01*
X251032Y483694D01*
X250975Y483776D01*
X250915Y483855D01*
X250851Y483933D01*
X250785Y484007D01*
X250716Y484079D01*
X250644Y484148D01*
X250570Y484214D01*
X250492Y484278D01*
X250413Y484338D01*
X250331Y484395D01*
X250247Y484449D01*
X250161Y484499D01*
X250073Y484546D01*
X249983Y484590D01*
X249892Y484630D01*
X249799Y484666D01*
X249705Y484699D01*
X249609Y484728D01*
X249513Y484753D01*
X249416Y484774D01*
X249317Y484792D01*
X249219Y484805D01*
X249119Y484815D01*
X249020Y484821D01*
X248920Y484823D01*
X220980Y484823D02*
X220880Y484821D01*
X220781Y484815D01*
X220681Y484805D01*
X220583Y484792D01*
X220484Y484774D01*
X220387Y484753D01*
X220291Y484728D01*
X220195Y484699D01*
X220101Y484666D01*
X220008Y484630D01*
X219917Y484590D01*
X219827Y484546D01*
X219739Y484499D01*
X219653Y484449D01*
X219569Y484395D01*
X219487Y484338D01*
X219408Y484278D01*
X219330Y484214D01*
X219256Y484148D01*
X219184Y484079D01*
X219115Y484007D01*
X219049Y483933D01*
X218985Y483855D01*
X218925Y483776D01*
X218868Y483694D01*
X218814Y483610D01*
X218764Y483524D01*
X218717Y483436D01*
X218673Y483346D01*
X218633Y483255D01*
X218597Y483162D01*
X218564Y483068D01*
X218535Y482972D01*
X218510Y482876D01*
X218489Y482779D01*
X218471Y482680D01*
X218458Y482582D01*
X218448Y482482D01*
X218442Y482383D01*
X218440Y482283D01*
X218440Y467043D01*
X251460Y467043D02*
X251460Y482283D01*
X248920Y464503D02*
X220980Y464503D01*
D13*
X222733Y462607D02*
X224640Y460701D01*
X222733Y462607D02*
X218920Y462607D01*
X217013Y460701D01*
X217013Y458794D01*
X218920Y456887D01*
X222733Y456887D01*
X224640Y454981D01*
X224640Y453074D01*
X222733Y451168D01*
X218920Y451168D01*
X217013Y453074D01*
X228707Y453074D02*
X230614Y451168D01*
X232520Y451168D01*
X234427Y453074D01*
X234427Y462607D01*
X232520Y462607D02*
X236334Y462607D01*
X240401Y458794D02*
X244214Y462607D01*
X244214Y451168D01*
X240401Y451168D02*
X248027Y451168D01*
D11*
X248920Y445453D02*
X220980Y445453D01*
X248920Y465773D02*
X249020Y465771D01*
X249119Y465765D01*
X249219Y465755D01*
X249317Y465742D01*
X249416Y465724D01*
X249513Y465703D01*
X249609Y465678D01*
X249705Y465649D01*
X249799Y465616D01*
X249892Y465580D01*
X249983Y465540D01*
X250073Y465496D01*
X250161Y465449D01*
X250247Y465399D01*
X250331Y465345D01*
X250413Y465288D01*
X250492Y465228D01*
X250570Y465164D01*
X250644Y465098D01*
X250716Y465029D01*
X250785Y464957D01*
X250851Y464883D01*
X250915Y464805D01*
X250975Y464726D01*
X251032Y464644D01*
X251086Y464560D01*
X251136Y464474D01*
X251183Y464386D01*
X251227Y464296D01*
X251267Y464205D01*
X251303Y464112D01*
X251336Y464018D01*
X251365Y463922D01*
X251390Y463826D01*
X251411Y463729D01*
X251429Y463630D01*
X251442Y463532D01*
X251452Y463432D01*
X251458Y463333D01*
X251460Y463233D01*
X220980Y465773D02*
X220880Y465771D01*
X220781Y465765D01*
X220681Y465755D01*
X220583Y465742D01*
X220484Y465724D01*
X220387Y465703D01*
X220291Y465678D01*
X220195Y465649D01*
X220101Y465616D01*
X220008Y465580D01*
X219917Y465540D01*
X219827Y465496D01*
X219739Y465449D01*
X219653Y465399D01*
X219569Y465345D01*
X219487Y465288D01*
X219408Y465228D01*
X219330Y465164D01*
X219256Y465098D01*
X219184Y465029D01*
X219115Y464957D01*
X219049Y464883D01*
X218985Y464805D01*
X218925Y464726D01*
X218868Y464644D01*
X218814Y464560D01*
X218764Y464474D01*
X218717Y464386D01*
X218673Y464296D01*
X218633Y464205D01*
X218597Y464112D01*
X218564Y464018D01*
X218535Y463922D01*
X218510Y463826D01*
X218489Y463729D01*
X218471Y463630D01*
X218458Y463532D01*
X218448Y463432D01*
X218442Y463333D01*
X218440Y463233D01*
X218440Y447993D02*
X218442Y447893D01*
X218448Y447794D01*
X218458Y447694D01*
X218471Y447596D01*
X218489Y447497D01*
X218510Y447400D01*
X218535Y447304D01*
X218564Y447208D01*
X218597Y447114D01*
X218633Y447021D01*
X218673Y446930D01*
X218717Y446840D01*
X218764Y446752D01*
X218814Y446666D01*
X218868Y446582D01*
X218925Y446500D01*
X218985Y446421D01*
X219049Y446343D01*
X219115Y446269D01*
X219184Y446197D01*
X219256Y446128D01*
X219330Y446062D01*
X219408Y445998D01*
X219487Y445938D01*
X219569Y445881D01*
X219653Y445827D01*
X219739Y445777D01*
X219827Y445730D01*
X219917Y445686D01*
X220008Y445646D01*
X220101Y445610D01*
X220195Y445577D01*
X220291Y445548D01*
X220387Y445523D01*
X220484Y445502D01*
X220583Y445484D01*
X220681Y445471D01*
X220781Y445461D01*
X220880Y445455D01*
X220980Y445453D01*
X248920Y445453D02*
X249020Y445455D01*
X249119Y445461D01*
X249219Y445471D01*
X249317Y445484D01*
X249416Y445502D01*
X249513Y445523D01*
X249609Y445548D01*
X249705Y445577D01*
X249799Y445610D01*
X249892Y445646D01*
X249983Y445686D01*
X250073Y445730D01*
X250161Y445777D01*
X250247Y445827D01*
X250331Y445881D01*
X250413Y445938D01*
X250492Y445998D01*
X250570Y446062D01*
X250644Y446128D01*
X250716Y446197D01*
X250785Y446269D01*
X250851Y446343D01*
X250915Y446421D01*
X250975Y446500D01*
X251032Y446582D01*
X251086Y446666D01*
X251136Y446752D01*
X251183Y446840D01*
X251227Y446930D01*
X251267Y447021D01*
X251303Y447114D01*
X251336Y447208D01*
X251365Y447304D01*
X251390Y447400D01*
X251411Y447497D01*
X251429Y447596D01*
X251442Y447694D01*
X251452Y447794D01*
X251458Y447893D01*
X251460Y447993D01*
X251460Y463233D01*
X218440Y463233D02*
X218440Y447993D01*
X220980Y465773D02*
X248920Y465773D01*
D13*
X226702Y477211D02*
X224795Y479117D01*
X220982Y479117D01*
X219075Y477211D01*
X219075Y475304D01*
X220982Y473397D01*
X224795Y473397D01*
X226702Y471491D01*
X226702Y469584D01*
X224795Y467678D01*
X220982Y467678D01*
X219075Y469584D01*
X230769Y469584D02*
X232676Y467678D01*
X234582Y467678D01*
X236489Y469584D01*
X236489Y479117D01*
X238395Y479117D02*
X234582Y479117D01*
X242463Y467678D02*
X250089Y467678D01*
X242463Y467678D02*
X250089Y475304D01*
X250089Y477211D01*
X248183Y479117D01*
X244370Y479117D01*
X242463Y477211D01*
D21*
X221930Y45270D02*
X209870Y45270D01*
X221930Y45270D02*
X221930Y18230D01*
X209870Y18230D01*
X209870Y45270D01*
D10*
X195392Y18656D02*
X183698Y18656D01*
X183698Y14758D02*
X183698Y22554D01*
X187596Y26452D02*
X183698Y30350D01*
X195392Y30350D01*
X195392Y26452D02*
X195392Y34248D01*
D21*
X216220Y130943D02*
X228280Y130943D01*
X216220Y130943D02*
X216220Y157983D01*
X228280Y157983D01*
X228280Y130943D01*
D10*
X242748Y142981D02*
X254442Y142981D01*
X242748Y139083D02*
X242748Y146879D01*
X254442Y150777D02*
X254442Y158572D01*
X254442Y150777D02*
X246646Y158572D01*
X244697Y158572D01*
X242748Y156623D01*
X242748Y152725D01*
X244697Y150777D01*
D13*
X0Y167100D02*
X0Y417100D01*
X0Y167100D02*
X-110000Y167100D01*
X-110000Y417100D01*
X0Y417100D01*
D12*
X-80381Y205446D02*
X-92329Y197481D01*
X-92329Y205446D02*
X-80381Y197481D01*
X-88346Y209175D02*
X-92329Y213158D01*
X-80381Y213158D01*
X-80381Y217140D02*
X-80381Y209175D01*
D10*
X227521Y387858D02*
X231418Y387858D01*
X229469Y387858D02*
X229469Y399552D01*
X227521Y399552D02*
X231418Y399552D01*
X241163Y399552D02*
X243112Y397603D01*
X241163Y399552D02*
X237265Y399552D01*
X235316Y397603D01*
X235316Y389807D01*
X237265Y387858D01*
X241163Y387858D01*
X243112Y389807D01*
X247010Y397603D02*
X248959Y399552D01*
X252857Y399552D01*
X254806Y397603D01*
X254806Y395654D01*
X252857Y393705D01*
X250908Y393705D01*
X252857Y393705D02*
X254806Y391756D01*
X254806Y389807D01*
X252857Y387858D01*
X248959Y387858D01*
X247010Y389807D01*
X160689Y336052D02*
X160689Y324358D01*
X160689Y336052D02*
X166536Y336052D01*
X168485Y334103D01*
X168485Y330205D01*
X166536Y328256D01*
X160689Y328256D01*
X164587Y328256D02*
X168485Y324358D01*
X172383Y332154D02*
X176280Y336052D01*
X176280Y324358D01*
X172383Y324358D02*
X180178Y324358D01*
X184076Y326307D02*
X184076Y334103D01*
X186025Y336052D01*
X189923Y336052D01*
X191872Y334103D01*
X191872Y326307D01*
X189923Y324358D01*
X186025Y324358D01*
X184076Y326307D01*
X191872Y334103D01*
X160689Y349758D02*
X160689Y361452D01*
X166536Y361452D01*
X168485Y359503D01*
X168485Y355605D01*
X166536Y353656D01*
X160689Y353656D01*
X164587Y353656D02*
X168485Y349758D01*
X172383Y357554D02*
X176280Y361452D01*
X176280Y349758D01*
X172383Y349758D02*
X180178Y349758D01*
X184076Y357554D02*
X187974Y361452D01*
X187974Y349758D01*
X184076Y349758D02*
X191872Y349758D01*
X160689Y317002D02*
X160689Y305308D01*
X160689Y317002D02*
X166536Y317002D01*
X168485Y315053D01*
X168485Y311155D01*
X166536Y309206D01*
X160689Y309206D01*
X164587Y309206D02*
X168485Y305308D01*
X172383Y313104D02*
X176280Y317002D01*
X176280Y305308D01*
X172383Y305308D02*
X180178Y305308D01*
X184076Y305308D02*
X191872Y305308D01*
X184076Y305308D02*
X191872Y313104D01*
X191872Y315053D01*
X189923Y317002D01*
X186025Y317002D01*
X184076Y315053D01*
X148146Y406908D02*
X148146Y418602D01*
X153992Y418602D01*
X155941Y416653D01*
X155941Y412755D01*
X153992Y410806D01*
X148146Y410806D01*
X152043Y410806D02*
X155941Y406908D01*
X159839Y414704D02*
X163737Y418602D01*
X163737Y406908D01*
X159839Y406908D02*
X167635Y406908D01*
X171533Y416653D02*
X173482Y418602D01*
X177380Y418602D01*
X179329Y416653D01*
X179329Y414704D01*
X177380Y412755D01*
X175431Y412755D01*
X177380Y412755D02*
X179329Y410806D01*
X179329Y408857D01*
X177380Y406908D01*
X173482Y406908D01*
X171533Y408857D01*
X148146Y336052D02*
X148146Y324358D01*
X148146Y336052D02*
X153992Y336052D01*
X155941Y334103D01*
X155941Y330205D01*
X153992Y328256D01*
X148146Y328256D01*
X152043Y328256D02*
X155941Y324358D01*
X159839Y332154D02*
X163737Y336052D01*
X163737Y324358D01*
X159839Y324358D02*
X167635Y324358D01*
X177380Y324358D02*
X177380Y336052D01*
X171533Y330205D01*
X179329Y330205D01*
X148146Y317002D02*
X148146Y305308D01*
X148146Y317002D02*
X153992Y317002D01*
X155941Y315053D01*
X155941Y311155D01*
X153992Y309206D01*
X148146Y309206D01*
X152043Y309206D02*
X155941Y305308D01*
X159839Y313104D02*
X163737Y317002D01*
X163737Y305308D01*
X159839Y305308D02*
X167635Y305308D01*
X171533Y317002D02*
X179329Y317002D01*
X171533Y317002D02*
X171533Y311155D01*
X175431Y313104D01*
X177380Y313104D01*
X179329Y311155D01*
X179329Y307257D01*
X177380Y305308D01*
X173482Y305308D01*
X171533Y307257D01*
X148146Y425958D02*
X148146Y437652D01*
X153992Y437652D01*
X155941Y435703D01*
X155941Y431805D01*
X153992Y429856D01*
X148146Y429856D01*
X152043Y429856D02*
X155941Y425958D01*
X159839Y433754D02*
X163737Y437652D01*
X163737Y425958D01*
X159839Y425958D02*
X167635Y425958D01*
X175431Y435703D02*
X179329Y437652D01*
X175431Y435703D02*
X171533Y431805D01*
X171533Y427907D01*
X173482Y425958D01*
X177380Y425958D01*
X179329Y427907D01*
X179329Y429856D01*
X177380Y431805D01*
X171533Y431805D01*
X182567Y418602D02*
X184516Y416653D01*
X182567Y418602D02*
X178669Y418602D01*
X176721Y416653D01*
X176721Y408857D01*
X178669Y406908D01*
X182567Y406908D01*
X184516Y408857D01*
X188414Y414704D02*
X192312Y418602D01*
X192312Y406908D01*
X188414Y406908D02*
X196210Y406908D01*
X200108Y418602D02*
X207904Y418602D01*
X200108Y418602D02*
X200108Y412755D01*
X204006Y414704D01*
X205955Y414704D01*
X207904Y412755D01*
X207904Y408857D01*
X205955Y406908D01*
X202057Y406908D01*
X200108Y408857D01*
X182567Y336052D02*
X184516Y334103D01*
X182567Y336052D02*
X178669Y336052D01*
X176721Y334103D01*
X176721Y326307D01*
X178669Y324358D01*
X182567Y324358D01*
X184516Y326307D01*
X188414Y332154D02*
X192312Y336052D01*
X192312Y324358D01*
X188414Y324358D02*
X196210Y324358D01*
X204006Y334103D02*
X207904Y336052D01*
X204006Y334103D02*
X200108Y330205D01*
X200108Y326307D01*
X202057Y324358D01*
X205955Y324358D01*
X207904Y326307D01*
X207904Y328256D01*
X205955Y330205D01*
X200108Y330205D01*
X174835Y397603D02*
X172886Y399552D01*
X168988Y399552D01*
X167039Y397603D01*
X167039Y389807D01*
X168988Y387858D01*
X172886Y387858D01*
X174835Y389807D01*
X178733Y395654D02*
X182630Y399552D01*
X182630Y387858D01*
X178733Y387858D02*
X186528Y387858D01*
X190426Y399552D02*
X198222Y399552D01*
X198222Y397603D01*
X190426Y389807D01*
X190426Y387858D01*
X172886Y278902D02*
X174835Y276953D01*
X172886Y278902D02*
X168988Y278902D01*
X167039Y276953D01*
X167039Y269157D01*
X168988Y267208D01*
X172886Y267208D01*
X174835Y269157D01*
X178733Y275004D02*
X182630Y278902D01*
X182630Y267208D01*
X178733Y267208D02*
X186528Y267208D01*
X190426Y276953D02*
X192375Y278902D01*
X196273Y278902D01*
X198222Y276953D01*
X198222Y275004D01*
X196273Y273055D01*
X198222Y271106D01*
X198222Y269157D01*
X196273Y267208D01*
X192375Y267208D01*
X190426Y269157D01*
X190426Y271106D01*
X192375Y273055D01*
X190426Y275004D01*
X190426Y276953D01*
X192375Y273055D02*
X196273Y273055D01*
X231985Y378553D02*
X230036Y380502D01*
X226138Y380502D01*
X224189Y378553D01*
X224189Y370757D01*
X226138Y368808D01*
X230036Y368808D01*
X231985Y370757D01*
X235883Y376604D02*
X239780Y380502D01*
X239780Y368808D01*
X235883Y368808D02*
X243678Y368808D01*
X247576Y370757D02*
X249525Y368808D01*
X253423Y368808D01*
X255372Y370757D01*
X255372Y378553D01*
X253423Y380502D01*
X249525Y380502D01*
X247576Y378553D01*
X247576Y376604D01*
X249525Y374655D01*
X255372Y374655D01*
X177443Y239903D02*
X173546Y239903D01*
X175494Y239903D02*
X175494Y251597D01*
X173546Y251597D02*
X177443Y251597D01*
X187188Y251597D02*
X189137Y249648D01*
X187188Y251597D02*
X183290Y251597D01*
X181341Y249648D01*
X181341Y241852D01*
X183290Y239903D01*
X187188Y239903D01*
X189137Y241852D01*
X198882Y239903D02*
X198882Y251597D01*
X193035Y245750D01*
X200831Y245750D01*
X159830Y178151D02*
X148136Y178151D01*
X148136Y183998D01*
X150085Y185947D01*
X153983Y185947D01*
X155932Y183998D01*
X155932Y178151D01*
X155932Y182049D02*
X159830Y185947D01*
X152034Y189845D02*
X148136Y193743D01*
X159830Y193743D01*
X159830Y189845D02*
X159830Y197641D01*
X148136Y201539D02*
X148136Y209335D01*
X150085Y209335D01*
X157881Y201539D01*
X159830Y201539D01*
X140780Y178151D02*
X129086Y178151D01*
X129086Y183998D01*
X131035Y185947D01*
X134933Y185947D01*
X136882Y183998D01*
X136882Y178151D01*
X136882Y182049D02*
X140780Y185947D01*
X132984Y189845D02*
X129086Y193743D01*
X140780Y193743D01*
X140780Y189845D02*
X140780Y197641D01*
X131035Y201539D02*
X129086Y203488D01*
X129086Y207386D01*
X131035Y209335D01*
X132984Y209335D01*
X134933Y207386D01*
X136882Y209335D01*
X138831Y209335D01*
X140780Y207386D01*
X140780Y203488D01*
X138831Y201539D01*
X136882Y201539D01*
X134933Y203488D01*
X132984Y201539D01*
X131035Y201539D01*
X134933Y203488D02*
X134933Y207386D01*
X148136Y214664D02*
X159830Y214664D01*
X148136Y214664D02*
X148136Y220511D01*
X150085Y222460D01*
X153983Y222460D01*
X155932Y220511D01*
X155932Y214664D01*
X155932Y218562D02*
X159830Y222460D01*
X152034Y226358D02*
X148136Y230255D01*
X159830Y230255D01*
X159830Y226358D02*
X159830Y234153D01*
X157881Y238051D02*
X159830Y240000D01*
X159830Y243898D01*
X157881Y245847D01*
X150085Y245847D01*
X148136Y243898D01*
X148136Y240000D01*
X150085Y238051D01*
X152034Y238051D01*
X153983Y240000D01*
X153983Y245847D01*
X189421Y264033D02*
X189421Y275727D01*
X195267Y275727D01*
X197216Y273778D01*
X197216Y269880D01*
X195267Y267931D01*
X189421Y267931D01*
X193318Y267931D02*
X197216Y264033D01*
X201114Y264033D02*
X208910Y264033D01*
X201114Y264033D02*
X208910Y271829D01*
X208910Y273778D01*
X206961Y275727D01*
X203063Y275727D01*
X201114Y273778D01*
X212808Y273778D02*
X212808Y265982D01*
X212808Y273778D02*
X214757Y275727D01*
X218655Y275727D01*
X220604Y273778D01*
X220604Y265982D01*
X218655Y264033D01*
X214757Y264033D01*
X212808Y265982D01*
X220604Y273778D01*
X224336Y213233D02*
X236030Y213233D01*
X224336Y213233D02*
X224336Y219080D01*
X226285Y221029D01*
X230183Y221029D01*
X232132Y219080D01*
X232132Y213233D01*
X232132Y217131D02*
X236030Y221029D01*
X236030Y224927D02*
X236030Y232723D01*
X236030Y224927D02*
X228234Y232723D01*
X226285Y232723D01*
X224336Y230774D01*
X224336Y226876D01*
X226285Y224927D01*
X228234Y236621D02*
X224336Y240519D01*
X236030Y240519D01*
X236030Y236621D02*
X236030Y244417D01*
X265611Y200533D02*
X277305Y200533D01*
X265611Y200533D02*
X265611Y206380D01*
X267560Y208329D01*
X271458Y208329D01*
X273407Y206380D01*
X273407Y200533D01*
X273407Y204431D02*
X277305Y208329D01*
X277305Y212227D02*
X277305Y220023D01*
X277305Y212227D02*
X269509Y220023D01*
X267560Y220023D01*
X265611Y218074D01*
X265611Y214176D01*
X267560Y212227D01*
X277305Y223921D02*
X277305Y231717D01*
X277305Y223921D02*
X269509Y231717D01*
X267560Y231717D01*
X265611Y229768D01*
X265611Y225870D01*
X267560Y223921D01*
X284661Y178151D02*
X296355Y178151D01*
X284661Y178151D02*
X284661Y183998D01*
X286610Y185947D01*
X290508Y185947D01*
X292457Y183998D01*
X292457Y178151D01*
X292457Y182049D02*
X296355Y185947D01*
X296355Y189845D02*
X296355Y197641D01*
X296355Y189845D02*
X288559Y197641D01*
X286610Y197641D01*
X284661Y195692D01*
X284661Y191794D01*
X286610Y189845D01*
X286610Y201539D02*
X284661Y203488D01*
X284661Y207386D01*
X286610Y209335D01*
X288559Y209335D01*
X290508Y207386D01*
X290508Y205437D01*
X290508Y207386D02*
X292457Y209335D01*
X294406Y209335D01*
X296355Y207386D01*
X296355Y203488D01*
X294406Y201539D01*
X222460Y235678D02*
X220511Y237627D01*
X216613Y237627D01*
X214664Y235678D01*
X214664Y227882D01*
X216613Y225933D01*
X220511Y225933D01*
X222460Y227882D01*
X226358Y225933D02*
X234153Y225933D01*
X226358Y225933D02*
X234153Y233729D01*
X234153Y235678D01*
X232204Y237627D01*
X228306Y237627D01*
X226358Y235678D01*
X238051Y235678D02*
X238051Y227882D01*
X238051Y235678D02*
X240000Y237627D01*
X243898Y237627D01*
X245847Y235678D01*
X245847Y227882D01*
X243898Y225933D01*
X240000Y225933D01*
X238051Y227882D01*
X245847Y235678D01*
X737398Y585508D02*
X749092Y593304D01*
X749092Y585508D02*
X737398Y593304D01*
X749092Y597202D02*
X749092Y604998D01*
X749092Y597202D02*
X741296Y604998D01*
X739347Y604998D01*
X737398Y603049D01*
X737398Y599151D01*
X739347Y597202D01*
D13*
X270950Y684200D02*
X270950Y785800D01*
X309050Y785800D01*
X309050Y684200D01*
X270950Y684200D01*
X280000Y685000D02*
X280000Y697000D01*
X280000Y707000D02*
X280000Y719000D01*
X280000Y729000D02*
X280000Y741000D01*
X280000Y751000D02*
X280000Y763000D01*
X280000Y773000D02*
X280000Y785000D01*
X300000Y697000D02*
X300000Y685000D01*
X300000Y707000D02*
X300000Y719000D01*
X300000Y729000D02*
X300000Y741000D01*
X300000Y751000D02*
X300000Y763000D01*
X300000Y773000D02*
X300000Y785000D01*
D10*
X264092Y694956D02*
X252398Y694956D01*
X252398Y691058D02*
X252398Y698854D01*
X252398Y702752D02*
X264092Y702752D01*
X252398Y702752D02*
X252398Y708599D01*
X254347Y710548D01*
X258245Y710548D01*
X260194Y708599D01*
X260194Y702752D01*
X256296Y714446D02*
X252398Y718344D01*
X264092Y718344D01*
X264092Y714446D02*
X264092Y722242D01*
X258406Y672602D02*
X258406Y660908D01*
X254508Y672602D02*
X262304Y672602D01*
X266202Y672602D02*
X273998Y672602D01*
X266202Y672602D02*
X266202Y660908D01*
X273998Y660908D01*
X270100Y666755D02*
X266202Y666755D01*
X283743Y672602D02*
X285692Y670653D01*
X283743Y672602D02*
X279845Y672602D01*
X277896Y670653D01*
X277896Y668704D01*
X279845Y666755D01*
X283743Y666755D01*
X285692Y664806D01*
X285692Y662857D01*
X283743Y660908D01*
X279845Y660908D01*
X277896Y662857D01*
X293488Y660908D02*
X293488Y672602D01*
X289590Y672602D02*
X297386Y672602D01*
X301284Y672602D02*
X301284Y660908D01*
X301284Y672602D02*
X307131Y672602D01*
X309080Y670653D01*
X309080Y666755D01*
X307131Y664806D01*
X301284Y664806D01*
X312978Y660908D02*
X312978Y672602D01*
X312978Y660908D02*
X320774Y660908D01*
X324672Y662857D02*
X324672Y672602D01*
X324672Y662857D02*
X326621Y660908D01*
X330519Y660908D01*
X332468Y662857D01*
X332468Y672602D01*
X342213Y672602D02*
X344162Y670653D01*
X342213Y672602D02*
X338315Y672602D01*
X336366Y670653D01*
X336366Y662857D01*
X338315Y660908D01*
X342213Y660908D01*
X344162Y662857D01*
X344162Y666755D01*
X340264Y666755D01*
X348060Y660908D02*
X355856Y660908D01*
X348060Y660908D02*
X355856Y668704D01*
X355856Y670653D01*
X353907Y672602D01*
X350009Y672602D01*
X348060Y670653D01*
X359754Y672602D02*
X359754Y660908D01*
X363652Y668704D02*
X359754Y672602D01*
X363652Y668704D02*
X367550Y672602D01*
X367550Y660908D01*
X371448Y660908D02*
X371448Y672602D01*
X375346Y668704D01*
X379244Y672602D01*
X379244Y660908D01*
D13*
X360950Y684200D02*
X360950Y785800D01*
X399050Y785800D01*
X399050Y684200D01*
X360950Y684200D01*
X370000Y685000D02*
X370000Y697000D01*
X370000Y707000D02*
X370000Y719000D01*
X370000Y729000D02*
X370000Y741000D01*
X370000Y751000D02*
X370000Y763000D01*
X370000Y773000D02*
X370000Y785000D01*
X390000Y697000D02*
X390000Y685000D01*
X390000Y707000D02*
X390000Y719000D01*
X390000Y729000D02*
X390000Y741000D01*
X390000Y751000D02*
X390000Y763000D01*
X390000Y773000D02*
X390000Y785000D01*
D10*
X354092Y694956D02*
X342398Y694956D01*
X342398Y691058D02*
X342398Y698854D01*
X342398Y702752D02*
X354092Y702752D01*
X342398Y702752D02*
X342398Y708599D01*
X344347Y710548D01*
X348245Y710548D01*
X350194Y708599D01*
X350194Y702752D01*
X354092Y714446D02*
X354092Y722242D01*
X354092Y714446D02*
X346296Y722242D01*
X344347Y722242D01*
X342398Y720293D01*
X342398Y716395D01*
X344347Y714446D01*
X258406Y672602D02*
X258406Y660908D01*
X254508Y672602D02*
X262304Y672602D01*
X266202Y672602D02*
X273998Y672602D01*
X266202Y672602D02*
X266202Y660908D01*
X273998Y660908D01*
X270100Y666755D02*
X266202Y666755D01*
X283743Y672602D02*
X285692Y670653D01*
X283743Y672602D02*
X279845Y672602D01*
X277896Y670653D01*
X277896Y668704D01*
X279845Y666755D01*
X283743Y666755D01*
X285692Y664806D01*
X285692Y662857D01*
X283743Y660908D01*
X279845Y660908D01*
X277896Y662857D01*
X293488Y660908D02*
X293488Y672602D01*
X289590Y672602D02*
X297386Y672602D01*
X301284Y672602D02*
X301284Y660908D01*
X301284Y672602D02*
X307131Y672602D01*
X309080Y670653D01*
X309080Y666755D01*
X307131Y664806D01*
X301284Y664806D01*
X312978Y660908D02*
X312978Y672602D01*
X312978Y660908D02*
X320774Y660908D01*
X324672Y662857D02*
X324672Y672602D01*
X324672Y662857D02*
X326621Y660908D01*
X330519Y660908D01*
X332468Y662857D01*
X332468Y672602D01*
X342213Y672602D02*
X344162Y670653D01*
X342213Y672602D02*
X338315Y672602D01*
X336366Y670653D01*
X336366Y662857D01*
X338315Y660908D01*
X342213Y660908D01*
X344162Y662857D01*
X344162Y666755D01*
X340264Y666755D01*
X348060Y660908D02*
X355856Y660908D01*
X348060Y660908D02*
X355856Y668704D01*
X355856Y670653D01*
X353907Y672602D01*
X350009Y672602D01*
X348060Y670653D01*
X359754Y672602D02*
X359754Y660908D01*
X363652Y668704D02*
X359754Y672602D01*
X363652Y668704D02*
X367550Y672602D01*
X367550Y660908D01*
X371448Y660908D02*
X371448Y672602D01*
X375346Y668704D01*
X379244Y672602D01*
X379244Y660908D01*
D13*
X450950Y684200D02*
X450950Y785800D01*
X489050Y785800D01*
X489050Y684200D01*
X450950Y684200D01*
X460000Y685000D02*
X460000Y697000D01*
X460000Y707000D02*
X460000Y719000D01*
X460000Y729000D02*
X460000Y741000D01*
X460000Y751000D02*
X460000Y763000D01*
X460000Y773000D02*
X460000Y785000D01*
X480000Y697000D02*
X480000Y685000D01*
X480000Y707000D02*
X480000Y719000D01*
X480000Y729000D02*
X480000Y741000D01*
X480000Y751000D02*
X480000Y763000D01*
X480000Y773000D02*
X480000Y785000D01*
D10*
X444092Y694956D02*
X432398Y694956D01*
X432398Y691058D02*
X432398Y698854D01*
X432398Y702752D02*
X444092Y702752D01*
X432398Y702752D02*
X432398Y708599D01*
X434347Y710548D01*
X438245Y710548D01*
X440194Y708599D01*
X440194Y702752D01*
X434347Y714446D02*
X432398Y716395D01*
X432398Y720293D01*
X434347Y722242D01*
X436296Y722242D01*
X438245Y720293D01*
X438245Y718344D01*
X438245Y720293D02*
X440194Y722242D01*
X442143Y722242D01*
X444092Y720293D01*
X444092Y716395D01*
X442143Y714446D01*
X258406Y672602D02*
X258406Y660908D01*
X254508Y672602D02*
X262304Y672602D01*
X266202Y672602D02*
X273998Y672602D01*
X266202Y672602D02*
X266202Y660908D01*
X273998Y660908D01*
X270100Y666755D02*
X266202Y666755D01*
X283743Y672602D02*
X285692Y670653D01*
X283743Y672602D02*
X279845Y672602D01*
X277896Y670653D01*
X277896Y668704D01*
X279845Y666755D01*
X283743Y666755D01*
X285692Y664806D01*
X285692Y662857D01*
X283743Y660908D01*
X279845Y660908D01*
X277896Y662857D01*
X293488Y660908D02*
X293488Y672602D01*
X289590Y672602D02*
X297386Y672602D01*
X301284Y672602D02*
X301284Y660908D01*
X301284Y672602D02*
X307131Y672602D01*
X309080Y670653D01*
X309080Y666755D01*
X307131Y664806D01*
X301284Y664806D01*
X312978Y660908D02*
X312978Y672602D01*
X312978Y660908D02*
X320774Y660908D01*
X324672Y662857D02*
X324672Y672602D01*
X324672Y662857D02*
X326621Y660908D01*
X330519Y660908D01*
X332468Y662857D01*
X332468Y672602D01*
X342213Y672602D02*
X344162Y670653D01*
X342213Y672602D02*
X338315Y672602D01*
X336366Y670653D01*
X336366Y662857D01*
X338315Y660908D01*
X342213Y660908D01*
X344162Y662857D01*
X344162Y666755D01*
X340264Y666755D01*
X348060Y660908D02*
X355856Y660908D01*
X348060Y660908D02*
X355856Y668704D01*
X355856Y670653D01*
X353907Y672602D01*
X350009Y672602D01*
X348060Y670653D01*
X359754Y672602D02*
X359754Y660908D01*
X363652Y668704D02*
X359754Y672602D01*
X363652Y668704D02*
X367550Y672602D01*
X367550Y660908D01*
X371448Y660908D02*
X371448Y672602D01*
X375346Y668704D01*
X379244Y672602D01*
X379244Y660908D01*
D13*
X540950Y684200D02*
X540950Y785800D01*
X579050Y785800D01*
X579050Y684200D01*
X540950Y684200D01*
X550000Y685000D02*
X550000Y697000D01*
X550000Y707000D02*
X550000Y719000D01*
X550000Y729000D02*
X550000Y741000D01*
X550000Y751000D02*
X550000Y763000D01*
X550000Y773000D02*
X550000Y785000D01*
X570000Y697000D02*
X570000Y685000D01*
X570000Y707000D02*
X570000Y719000D01*
X570000Y729000D02*
X570000Y741000D01*
X570000Y751000D02*
X570000Y763000D01*
X570000Y773000D02*
X570000Y785000D01*
D10*
X534092Y694956D02*
X522398Y694956D01*
X522398Y691058D02*
X522398Y698854D01*
X522398Y702752D02*
X534092Y702752D01*
X522398Y702752D02*
X522398Y708599D01*
X524347Y710548D01*
X528245Y710548D01*
X530194Y708599D01*
X530194Y702752D01*
X534092Y720293D02*
X522398Y720293D01*
X528245Y714446D01*
X528245Y722242D01*
X258406Y672602D02*
X258406Y660908D01*
X254508Y672602D02*
X262304Y672602D01*
X266202Y672602D02*
X273998Y672602D01*
X266202Y672602D02*
X266202Y660908D01*
X273998Y660908D01*
X270100Y666755D02*
X266202Y666755D01*
X283743Y672602D02*
X285692Y670653D01*
X283743Y672602D02*
X279845Y672602D01*
X277896Y670653D01*
X277896Y668704D01*
X279845Y666755D01*
X283743Y666755D01*
X285692Y664806D01*
X285692Y662857D01*
X283743Y660908D01*
X279845Y660908D01*
X277896Y662857D01*
X293488Y660908D02*
X293488Y672602D01*
X289590Y672602D02*
X297386Y672602D01*
X301284Y672602D02*
X301284Y660908D01*
X301284Y672602D02*
X307131Y672602D01*
X309080Y670653D01*
X309080Y666755D01*
X307131Y664806D01*
X301284Y664806D01*
X312978Y660908D02*
X312978Y672602D01*
X312978Y660908D02*
X320774Y660908D01*
X324672Y662857D02*
X324672Y672602D01*
X324672Y662857D02*
X326621Y660908D01*
X330519Y660908D01*
X332468Y662857D01*
X332468Y672602D01*
X342213Y672602D02*
X344162Y670653D01*
X342213Y672602D02*
X338315Y672602D01*
X336366Y670653D01*
X336366Y662857D01*
X338315Y660908D01*
X342213Y660908D01*
X344162Y662857D01*
X344162Y666755D01*
X340264Y666755D01*
X348060Y660908D02*
X355856Y660908D01*
X348060Y660908D02*
X355856Y668704D01*
X355856Y670653D01*
X353907Y672602D01*
X350009Y672602D01*
X348060Y670653D01*
X359754Y672602D02*
X359754Y660908D01*
X363652Y668704D02*
X359754Y672602D01*
X363652Y668704D02*
X367550Y672602D01*
X367550Y660908D01*
X371448Y660908D02*
X371448Y672602D01*
X375346Y668704D01*
X379244Y672602D01*
X379244Y660908D01*
D13*
X90950Y684200D02*
X90950Y785800D01*
X129050Y785800D01*
X129050Y684200D01*
X90950Y684200D01*
X100000Y685000D02*
X100000Y697000D01*
X100000Y707000D02*
X100000Y719000D01*
X100000Y729000D02*
X100000Y741000D01*
X100000Y751000D02*
X100000Y763000D01*
X100000Y773000D02*
X100000Y785000D01*
X120000Y697000D02*
X120000Y685000D01*
X120000Y707000D02*
X120000Y719000D01*
X120000Y729000D02*
X120000Y741000D01*
X120000Y751000D02*
X120000Y763000D01*
X120000Y773000D02*
X120000Y785000D01*
D10*
X84092Y694956D02*
X72398Y694956D01*
X72398Y691058D02*
X72398Y698854D01*
X72398Y702752D02*
X84092Y702752D01*
X72398Y702752D02*
X72398Y708599D01*
X74347Y710548D01*
X78245Y710548D01*
X80194Y708599D01*
X80194Y702752D01*
X72398Y714446D02*
X72398Y722242D01*
X72398Y714446D02*
X78245Y714446D01*
X76296Y718344D01*
X76296Y720293D01*
X78245Y722242D01*
X82143Y722242D01*
X84092Y720293D01*
X84092Y716395D01*
X82143Y714446D01*
X258406Y672602D02*
X258406Y660908D01*
X254508Y672602D02*
X262304Y672602D01*
X266202Y672602D02*
X273998Y672602D01*
X266202Y672602D02*
X266202Y660908D01*
X273998Y660908D01*
X270100Y666755D02*
X266202Y666755D01*
X283743Y672602D02*
X285692Y670653D01*
X283743Y672602D02*
X279845Y672602D01*
X277896Y670653D01*
X277896Y668704D01*
X279845Y666755D01*
X283743Y666755D01*
X285692Y664806D01*
X285692Y662857D01*
X283743Y660908D01*
X279845Y660908D01*
X277896Y662857D01*
X293488Y660908D02*
X293488Y672602D01*
X289590Y672602D02*
X297386Y672602D01*
X301284Y672602D02*
X301284Y660908D01*
X301284Y672602D02*
X307131Y672602D01*
X309080Y670653D01*
X309080Y666755D01*
X307131Y664806D01*
X301284Y664806D01*
X312978Y660908D02*
X312978Y672602D01*
X312978Y660908D02*
X320774Y660908D01*
X324672Y662857D02*
X324672Y672602D01*
X324672Y662857D02*
X326621Y660908D01*
X330519Y660908D01*
X332468Y662857D01*
X332468Y672602D01*
X342213Y672602D02*
X344162Y670653D01*
X342213Y672602D02*
X338315Y672602D01*
X336366Y670653D01*
X336366Y662857D01*
X338315Y660908D01*
X342213Y660908D01*
X344162Y662857D01*
X344162Y666755D01*
X340264Y666755D01*
X348060Y660908D02*
X355856Y660908D01*
X348060Y660908D02*
X355856Y668704D01*
X355856Y670653D01*
X353907Y672602D01*
X350009Y672602D01*
X348060Y670653D01*
X359754Y672602D02*
X359754Y660908D01*
X363652Y668704D02*
X359754Y672602D01*
X363652Y668704D02*
X367550Y672602D01*
X367550Y660908D01*
X371448Y660908D02*
X371448Y672602D01*
X375346Y668704D01*
X379244Y672602D01*
X379244Y660908D01*
D13*
X180950Y684200D02*
X180950Y785800D01*
X219050Y785800D01*
X219050Y684200D01*
X180950Y684200D01*
X190000Y685000D02*
X190000Y697000D01*
X190000Y707000D02*
X190000Y719000D01*
X190000Y729000D02*
X190000Y741000D01*
X190000Y751000D02*
X190000Y763000D01*
X190000Y773000D02*
X190000Y785000D01*
X210000Y697000D02*
X210000Y685000D01*
X210000Y707000D02*
X210000Y719000D01*
X210000Y729000D02*
X210000Y741000D01*
X210000Y751000D02*
X210000Y763000D01*
X210000Y773000D02*
X210000Y785000D01*
D10*
X174092Y694956D02*
X162398Y694956D01*
X162398Y691058D02*
X162398Y698854D01*
X162398Y702752D02*
X174092Y702752D01*
X162398Y702752D02*
X162398Y708599D01*
X164347Y710548D01*
X168245Y710548D01*
X170194Y708599D01*
X170194Y702752D01*
X164347Y718344D02*
X162398Y722242D01*
X164347Y718344D02*
X168245Y714446D01*
X172143Y714446D01*
X174092Y716395D01*
X174092Y720293D01*
X172143Y722242D01*
X170194Y722242D01*
X168245Y720293D01*
X168245Y714446D01*
X258406Y672602D02*
X258406Y660908D01*
X254508Y672602D02*
X262304Y672602D01*
X266202Y672602D02*
X273998Y672602D01*
X266202Y672602D02*
X266202Y660908D01*
X273998Y660908D01*
X270100Y666755D02*
X266202Y666755D01*
X283743Y672602D02*
X285692Y670653D01*
X283743Y672602D02*
X279845Y672602D01*
X277896Y670653D01*
X277896Y668704D01*
X279845Y666755D01*
X283743Y666755D01*
X285692Y664806D01*
X285692Y662857D01*
X283743Y660908D01*
X279845Y660908D01*
X277896Y662857D01*
X293488Y660908D02*
X293488Y672602D01*
X289590Y672602D02*
X297386Y672602D01*
X301284Y672602D02*
X301284Y660908D01*
X301284Y672602D02*
X307131Y672602D01*
X309080Y670653D01*
X309080Y666755D01*
X307131Y664806D01*
X301284Y664806D01*
X312978Y660908D02*
X312978Y672602D01*
X312978Y660908D02*
X320774Y660908D01*
X324672Y662857D02*
X324672Y672602D01*
X324672Y662857D02*
X326621Y660908D01*
X330519Y660908D01*
X332468Y662857D01*
X332468Y672602D01*
X342213Y672602D02*
X344162Y670653D01*
X342213Y672602D02*
X338315Y672602D01*
X336366Y670653D01*
X336366Y662857D01*
X338315Y660908D01*
X342213Y660908D01*
X344162Y662857D01*
X344162Y666755D01*
X340264Y666755D01*
X348060Y660908D02*
X355856Y660908D01*
X348060Y660908D02*
X355856Y668704D01*
X355856Y670653D01*
X353907Y672602D01*
X350009Y672602D01*
X348060Y670653D01*
X359754Y672602D02*
X359754Y660908D01*
X363652Y668704D02*
X359754Y672602D01*
X363652Y668704D02*
X367550Y672602D01*
X367550Y660908D01*
X371448Y660908D02*
X371448Y672602D01*
X375346Y668704D01*
X379244Y672602D01*
X379244Y660908D01*
D13*
X950Y684200D02*
X950Y785800D01*
X39050Y785800D01*
X39050Y684200D01*
X950Y684200D01*
X10000Y685000D02*
X10000Y697000D01*
X10000Y707000D02*
X10000Y719000D01*
X10000Y729000D02*
X10000Y741000D01*
X10000Y751000D02*
X10000Y763000D01*
X10000Y773000D02*
X10000Y785000D01*
X30000Y697000D02*
X30000Y685000D01*
X30000Y707000D02*
X30000Y719000D01*
X30000Y729000D02*
X30000Y741000D01*
X30000Y751000D02*
X30000Y763000D01*
X30000Y773000D02*
X30000Y785000D01*
D10*
X-5908Y694956D02*
X-17602Y694956D01*
X-17602Y691058D02*
X-17602Y698854D01*
X-17602Y702752D02*
X-5908Y702752D01*
X-17602Y702752D02*
X-17602Y708599D01*
X-15653Y710548D01*
X-11755Y710548D01*
X-9806Y708599D01*
X-9806Y702752D01*
X-17602Y714446D02*
X-17602Y722242D01*
X-15653Y722242D01*
X-7857Y714446D01*
X-5908Y714446D01*
X258406Y672602D02*
X258406Y660908D01*
X254508Y672602D02*
X262304Y672602D01*
X266202Y672602D02*
X273998Y672602D01*
X266202Y672602D02*
X266202Y660908D01*
X273998Y660908D01*
X270100Y666755D02*
X266202Y666755D01*
X283743Y672602D02*
X285692Y670653D01*
X283743Y672602D02*
X279845Y672602D01*
X277896Y670653D01*
X277896Y668704D01*
X279845Y666755D01*
X283743Y666755D01*
X285692Y664806D01*
X285692Y662857D01*
X283743Y660908D01*
X279845Y660908D01*
X277896Y662857D01*
X293488Y660908D02*
X293488Y672602D01*
X289590Y672602D02*
X297386Y672602D01*
X301284Y672602D02*
X301284Y660908D01*
X301284Y672602D02*
X307131Y672602D01*
X309080Y670653D01*
X309080Y666755D01*
X307131Y664806D01*
X301284Y664806D01*
X312978Y660908D02*
X312978Y672602D01*
X312978Y660908D02*
X320774Y660908D01*
X324672Y662857D02*
X324672Y672602D01*
X324672Y662857D02*
X326621Y660908D01*
X330519Y660908D01*
X332468Y662857D01*
X332468Y672602D01*
X342213Y672602D02*
X344162Y670653D01*
X342213Y672602D02*
X338315Y672602D01*
X336366Y670653D01*
X336366Y662857D01*
X338315Y660908D01*
X342213Y660908D01*
X344162Y662857D01*
X344162Y666755D01*
X340264Y666755D01*
X348060Y660908D02*
X355856Y660908D01*
X348060Y660908D02*
X355856Y668704D01*
X355856Y670653D01*
X353907Y672602D01*
X350009Y672602D01*
X348060Y670653D01*
X359754Y672602D02*
X359754Y660908D01*
X363652Y668704D02*
X359754Y672602D01*
X363652Y668704D02*
X367550Y672602D01*
X367550Y660908D01*
X371448Y660908D02*
X371448Y672602D01*
X375346Y668704D01*
X379244Y672602D01*
X379244Y660908D01*
X567236Y138464D02*
X578930Y138464D01*
X567236Y138464D02*
X567236Y144311D01*
X569185Y146260D01*
X573083Y146260D01*
X575032Y144311D01*
X575032Y138464D01*
X575032Y142362D02*
X578930Y146260D01*
X578930Y150158D02*
X578930Y157953D01*
X578930Y150158D02*
X571134Y157953D01*
X569185Y157953D01*
X567236Y156004D01*
X567236Y152106D01*
X569185Y150158D01*
X567236Y167698D02*
X578930Y167698D01*
X573083Y161851D02*
X567236Y167698D01*
X573083Y169647D02*
X573083Y161851D01*
X191580Y430564D02*
X179886Y430564D01*
X179886Y436411D01*
X181835Y438360D01*
X185733Y438360D01*
X187682Y436411D01*
X187682Y430564D01*
X187682Y434462D02*
X191580Y438360D01*
X191580Y442258D02*
X191580Y450053D01*
X191580Y442258D02*
X183784Y450053D01*
X181835Y450053D01*
X179886Y448104D01*
X179886Y444206D01*
X181835Y442258D01*
X179886Y453951D02*
X179886Y461747D01*
X179886Y453951D02*
X185733Y453951D01*
X183784Y457849D01*
X183784Y459798D01*
X185733Y461747D01*
X189631Y461747D01*
X191580Y459798D01*
X191580Y455900D01*
X189631Y453951D01*
X198936Y430564D02*
X210630Y430564D01*
X198936Y430564D02*
X198936Y436411D01*
X200885Y438360D01*
X204783Y438360D01*
X206732Y436411D01*
X206732Y430564D01*
X206732Y434462D02*
X210630Y438360D01*
X210630Y442258D02*
X210630Y450053D01*
X210630Y442258D02*
X202834Y450053D01*
X200885Y450053D01*
X198936Y448104D01*
X198936Y444206D01*
X200885Y442258D01*
X200885Y457849D02*
X198936Y461747D01*
X200885Y457849D02*
X204783Y453951D01*
X208681Y453951D01*
X210630Y455900D01*
X210630Y459798D01*
X208681Y461747D01*
X206732Y461747D01*
X204783Y459798D01*
X204783Y453951D01*
D11*
X516890Y460693D02*
X516890Y488633D01*
X537210Y460693D02*
X537208Y460593D01*
X537202Y460494D01*
X537192Y460394D01*
X537179Y460296D01*
X537161Y460197D01*
X537140Y460100D01*
X537115Y460004D01*
X537086Y459908D01*
X537053Y459814D01*
X537017Y459721D01*
X536977Y459630D01*
X536933Y459540D01*
X536886Y459452D01*
X536836Y459366D01*
X536782Y459282D01*
X536725Y459200D01*
X536665Y459121D01*
X536601Y459043D01*
X536535Y458969D01*
X536466Y458897D01*
X536394Y458828D01*
X536320Y458762D01*
X536242Y458698D01*
X536163Y458638D01*
X536081Y458581D01*
X535997Y458527D01*
X535911Y458477D01*
X535823Y458430D01*
X535733Y458386D01*
X535642Y458346D01*
X535549Y458310D01*
X535455Y458277D01*
X535359Y458248D01*
X535263Y458223D01*
X535166Y458202D01*
X535067Y458184D01*
X534969Y458171D01*
X534869Y458161D01*
X534770Y458155D01*
X534670Y458153D01*
X537210Y488633D02*
X537208Y488733D01*
X537202Y488832D01*
X537192Y488932D01*
X537179Y489030D01*
X537161Y489129D01*
X537140Y489226D01*
X537115Y489322D01*
X537086Y489418D01*
X537053Y489512D01*
X537017Y489605D01*
X536977Y489696D01*
X536933Y489786D01*
X536886Y489874D01*
X536836Y489960D01*
X536782Y490044D01*
X536725Y490126D01*
X536665Y490205D01*
X536601Y490283D01*
X536535Y490357D01*
X536466Y490429D01*
X536394Y490498D01*
X536320Y490564D01*
X536242Y490628D01*
X536163Y490688D01*
X536081Y490745D01*
X535997Y490799D01*
X535911Y490849D01*
X535823Y490896D01*
X535733Y490940D01*
X535642Y490980D01*
X535549Y491016D01*
X535455Y491049D01*
X535359Y491078D01*
X535263Y491103D01*
X535166Y491124D01*
X535067Y491142D01*
X534969Y491155D01*
X534869Y491165D01*
X534770Y491171D01*
X534670Y491173D01*
X519430Y491173D02*
X519330Y491171D01*
X519231Y491165D01*
X519131Y491155D01*
X519033Y491142D01*
X518934Y491124D01*
X518837Y491103D01*
X518741Y491078D01*
X518645Y491049D01*
X518551Y491016D01*
X518458Y490980D01*
X518367Y490940D01*
X518277Y490896D01*
X518189Y490849D01*
X518103Y490799D01*
X518019Y490745D01*
X517937Y490688D01*
X517858Y490628D01*
X517780Y490564D01*
X517706Y490498D01*
X517634Y490429D01*
X517565Y490357D01*
X517499Y490283D01*
X517435Y490205D01*
X517375Y490126D01*
X517318Y490044D01*
X517264Y489960D01*
X517214Y489874D01*
X517167Y489786D01*
X517123Y489696D01*
X517083Y489605D01*
X517047Y489512D01*
X517014Y489418D01*
X516985Y489322D01*
X516960Y489226D01*
X516939Y489129D01*
X516921Y489030D01*
X516908Y488932D01*
X516898Y488832D01*
X516892Y488733D01*
X516890Y488633D01*
X516890Y460693D02*
X516892Y460593D01*
X516898Y460494D01*
X516908Y460394D01*
X516921Y460296D01*
X516939Y460197D01*
X516960Y460100D01*
X516985Y460004D01*
X517014Y459908D01*
X517047Y459814D01*
X517083Y459721D01*
X517123Y459630D01*
X517167Y459540D01*
X517214Y459452D01*
X517264Y459366D01*
X517318Y459282D01*
X517375Y459200D01*
X517435Y459121D01*
X517499Y459043D01*
X517565Y458969D01*
X517634Y458897D01*
X517706Y458828D01*
X517780Y458762D01*
X517858Y458698D01*
X517937Y458638D01*
X518019Y458581D01*
X518103Y458527D01*
X518189Y458477D01*
X518277Y458430D01*
X518367Y458386D01*
X518458Y458346D01*
X518551Y458310D01*
X518645Y458277D01*
X518741Y458248D01*
X518837Y458223D01*
X518934Y458202D01*
X519033Y458184D01*
X519131Y458171D01*
X519231Y458161D01*
X519330Y458155D01*
X519430Y458153D01*
X534670Y458153D01*
X534670Y491173D02*
X519430Y491173D01*
X537210Y488633D02*
X537210Y460693D01*
D13*
X539105Y462445D02*
X541012Y464352D01*
X539105Y462445D02*
X539105Y458632D01*
X541012Y456726D01*
X542919Y456726D01*
X544825Y458632D01*
X544825Y462445D01*
X546732Y464352D01*
X548638Y464352D01*
X550545Y462445D01*
X550545Y458632D01*
X548638Y456726D01*
X548638Y468420D02*
X550545Y470326D01*
X550545Y472233D01*
X548638Y474139D01*
X539105Y474139D01*
X539105Y472233D02*
X539105Y476046D01*
X541012Y480113D02*
X539105Y482020D01*
X539105Y485833D01*
X541012Y487740D01*
X542919Y487740D01*
X544825Y485833D01*
X544825Y483927D01*
X544825Y485833D02*
X546732Y487740D01*
X548638Y487740D01*
X550545Y485833D01*
X550545Y482020D01*
X548638Y480113D01*
D11*
X542290Y488633D02*
X542290Y460693D01*
X560070Y458153D02*
X560170Y458155D01*
X560269Y458161D01*
X560369Y458171D01*
X560467Y458184D01*
X560566Y458202D01*
X560663Y458223D01*
X560759Y458248D01*
X560855Y458277D01*
X560949Y458310D01*
X561042Y458346D01*
X561133Y458386D01*
X561223Y458430D01*
X561311Y458477D01*
X561397Y458527D01*
X561481Y458581D01*
X561563Y458638D01*
X561642Y458698D01*
X561720Y458762D01*
X561794Y458828D01*
X561866Y458897D01*
X561935Y458969D01*
X562001Y459043D01*
X562065Y459121D01*
X562125Y459200D01*
X562182Y459282D01*
X562236Y459366D01*
X562286Y459452D01*
X562333Y459540D01*
X562377Y459630D01*
X562417Y459721D01*
X562453Y459814D01*
X562486Y459908D01*
X562515Y460004D01*
X562540Y460100D01*
X562561Y460197D01*
X562579Y460296D01*
X562592Y460394D01*
X562602Y460494D01*
X562608Y460593D01*
X562610Y460693D01*
X562610Y488633D02*
X562608Y488733D01*
X562602Y488832D01*
X562592Y488932D01*
X562579Y489030D01*
X562561Y489129D01*
X562540Y489226D01*
X562515Y489322D01*
X562486Y489418D01*
X562453Y489512D01*
X562417Y489605D01*
X562377Y489696D01*
X562333Y489786D01*
X562286Y489874D01*
X562236Y489960D01*
X562182Y490044D01*
X562125Y490126D01*
X562065Y490205D01*
X562001Y490283D01*
X561935Y490357D01*
X561866Y490429D01*
X561794Y490498D01*
X561720Y490564D01*
X561642Y490628D01*
X561563Y490688D01*
X561481Y490745D01*
X561397Y490799D01*
X561311Y490849D01*
X561223Y490896D01*
X561133Y490940D01*
X561042Y490980D01*
X560949Y491016D01*
X560855Y491049D01*
X560759Y491078D01*
X560663Y491103D01*
X560566Y491124D01*
X560467Y491142D01*
X560369Y491155D01*
X560269Y491165D01*
X560170Y491171D01*
X560070Y491173D01*
X544830Y491173D02*
X544730Y491171D01*
X544631Y491165D01*
X544531Y491155D01*
X544433Y491142D01*
X544334Y491124D01*
X544237Y491103D01*
X544141Y491078D01*
X544045Y491049D01*
X543951Y491016D01*
X543858Y490980D01*
X543767Y490940D01*
X543677Y490896D01*
X543589Y490849D01*
X543503Y490799D01*
X543419Y490745D01*
X543337Y490688D01*
X543258Y490628D01*
X543180Y490564D01*
X543106Y490498D01*
X543034Y490429D01*
X542965Y490357D01*
X542899Y490283D01*
X542835Y490205D01*
X542775Y490126D01*
X542718Y490044D01*
X542664Y489960D01*
X542614Y489874D01*
X542567Y489786D01*
X542523Y489696D01*
X542483Y489605D01*
X542447Y489512D01*
X542414Y489418D01*
X542385Y489322D01*
X542360Y489226D01*
X542339Y489129D01*
X542321Y489030D01*
X542308Y488932D01*
X542298Y488832D01*
X542292Y488733D01*
X542290Y488633D01*
X542290Y460693D02*
X542292Y460593D01*
X542298Y460494D01*
X542308Y460394D01*
X542321Y460296D01*
X542339Y460197D01*
X542360Y460100D01*
X542385Y460004D01*
X542414Y459908D01*
X542447Y459814D01*
X542483Y459721D01*
X542523Y459630D01*
X542567Y459540D01*
X542614Y459452D01*
X542664Y459366D01*
X542718Y459282D01*
X542775Y459200D01*
X542835Y459121D01*
X542899Y459043D01*
X542965Y458969D01*
X543034Y458897D01*
X543106Y458828D01*
X543180Y458762D01*
X543258Y458698D01*
X543337Y458638D01*
X543419Y458581D01*
X543503Y458527D01*
X543589Y458477D01*
X543677Y458430D01*
X543767Y458386D01*
X543858Y458346D01*
X543951Y458310D01*
X544045Y458277D01*
X544141Y458248D01*
X544237Y458223D01*
X544334Y458202D01*
X544433Y458184D01*
X544531Y458171D01*
X544631Y458161D01*
X544730Y458155D01*
X544830Y458153D01*
X560070Y458153D01*
X560070Y491173D02*
X544830Y491173D01*
X562610Y488633D02*
X562610Y460693D01*
D13*
X564505Y462445D02*
X566412Y464352D01*
X564505Y462445D02*
X564505Y458632D01*
X566412Y456726D01*
X568319Y456726D01*
X570225Y458632D01*
X570225Y462445D01*
X572132Y464352D01*
X574038Y464352D01*
X575945Y462445D01*
X575945Y458632D01*
X574038Y456726D01*
X574038Y468420D02*
X575945Y470326D01*
X575945Y472233D01*
X574038Y474139D01*
X564505Y474139D01*
X564505Y472233D02*
X564505Y476046D01*
X564505Y485833D02*
X575945Y485833D01*
X570225Y480113D02*
X564505Y485833D01*
X570225Y487740D02*
X570225Y480113D01*
D11*
X95885Y315913D02*
X75565Y315913D01*
X98425Y262573D02*
X98425Y242253D01*
X98425Y262573D02*
X95885Y265113D01*
X73025Y262573D02*
X73025Y242253D01*
X73025Y262573D02*
X75565Y265113D01*
X73025Y242253D02*
X75565Y239713D01*
X95885Y239713D02*
X98425Y242253D01*
X95885Y239713D02*
X75565Y239713D01*
X95885Y265113D02*
X98425Y267653D01*
X98425Y287973D01*
X95885Y290513D01*
X98425Y293053D01*
X98425Y313373D02*
X95885Y315913D01*
X98425Y313373D02*
X98425Y293053D01*
X73025Y267653D02*
X75565Y265113D01*
X73025Y287973D02*
X75565Y290513D01*
X73025Y293053D01*
X73025Y313373D02*
X75565Y315913D01*
X73025Y287973D02*
X73025Y267653D01*
X73025Y293053D02*
X73025Y313373D01*
D13*
X59683Y297607D02*
X62564Y294726D01*
X59683Y297607D02*
X68326Y297607D01*
X68326Y294726D02*
X68326Y300488D01*
X68326Y275088D02*
X68326Y269326D01*
X62564Y275088D01*
X61123Y275088D01*
X59683Y273648D01*
X59683Y270767D01*
X61123Y269326D01*
X59683Y245367D02*
X61123Y243926D01*
X59683Y245367D02*
X59683Y248248D01*
X61123Y249688D01*
X62564Y249688D01*
X64004Y248248D01*
X64004Y246807D01*
X64004Y248248D02*
X65445Y249688D01*
X66885Y249688D01*
X68326Y248248D01*
X68326Y245367D01*
X66885Y243926D01*
X112393Y278926D02*
X114300Y280832D01*
X114300Y282739D01*
X112393Y284645D01*
X102860Y284645D01*
X102860Y282739D02*
X102860Y286552D01*
X102860Y290620D02*
X114300Y290620D01*
X102860Y290620D02*
X102860Y296339D01*
X104767Y298246D01*
X108580Y298246D01*
X110487Y296339D01*
X110487Y290620D01*
X114300Y302313D02*
X114300Y309940D01*
X106674Y309940D02*
X114300Y302313D01*
X106674Y309940D02*
X104767Y309940D01*
X102860Y308033D01*
X102860Y304220D01*
X104767Y302313D01*
D11*
X70485Y315913D02*
X50165Y315913D01*
X73025Y262573D02*
X73025Y242253D01*
X73025Y262573D02*
X70485Y265113D01*
X47625Y262573D02*
X47625Y242253D01*
X47625Y262573D02*
X50165Y265113D01*
X47625Y242253D02*
X50165Y239713D01*
X70485Y239713D02*
X73025Y242253D01*
X70485Y239713D02*
X50165Y239713D01*
X70485Y265113D02*
X73025Y267653D01*
X73025Y287973D01*
X70485Y290513D01*
X73025Y293053D01*
X73025Y313373D02*
X70485Y315913D01*
X73025Y313373D02*
X73025Y293053D01*
X47625Y267653D02*
X50165Y265113D01*
X47625Y287973D02*
X50165Y290513D01*
X47625Y293053D01*
X47625Y313373D02*
X50165Y315913D01*
X47625Y287973D02*
X47625Y267653D01*
X47625Y293053D02*
X47625Y313373D01*
D13*
X34283Y297607D02*
X37164Y294726D01*
X34283Y297607D02*
X42926Y297607D01*
X42926Y294726D02*
X42926Y300488D01*
X42926Y275088D02*
X42926Y269326D01*
X37164Y275088D01*
X35723Y275088D01*
X34283Y273648D01*
X34283Y270767D01*
X35723Y269326D01*
X34283Y245367D02*
X35723Y243926D01*
X34283Y245367D02*
X34283Y248248D01*
X35723Y249688D01*
X37164Y249688D01*
X38604Y248248D01*
X38604Y246807D01*
X38604Y248248D02*
X40045Y249688D01*
X41485Y249688D01*
X42926Y248248D01*
X42926Y245367D01*
X41485Y243926D01*
X86993Y278926D02*
X88900Y280832D01*
X88900Y282739D01*
X86993Y284645D01*
X77460Y284645D01*
X77460Y282739D02*
X77460Y286552D01*
X77460Y290620D02*
X88900Y290620D01*
X77460Y290620D02*
X77460Y296339D01*
X79367Y298246D01*
X83180Y298246D01*
X85087Y296339D01*
X85087Y290620D01*
X79367Y302313D02*
X77460Y304220D01*
X77460Y308033D01*
X79367Y309940D01*
X81274Y309940D01*
X83180Y308033D01*
X83180Y306127D01*
X83180Y308033D02*
X85087Y309940D01*
X86993Y309940D01*
X88900Y308033D01*
X88900Y304220D01*
X86993Y302313D01*
D11*
X75565Y319405D02*
X75565Y347345D01*
X95885Y319405D02*
X95883Y319305D01*
X95877Y319206D01*
X95867Y319106D01*
X95854Y319008D01*
X95836Y318909D01*
X95815Y318812D01*
X95790Y318716D01*
X95761Y318620D01*
X95728Y318526D01*
X95692Y318433D01*
X95652Y318342D01*
X95608Y318252D01*
X95561Y318164D01*
X95511Y318078D01*
X95457Y317994D01*
X95400Y317912D01*
X95340Y317833D01*
X95276Y317755D01*
X95210Y317681D01*
X95141Y317609D01*
X95069Y317540D01*
X94995Y317474D01*
X94917Y317410D01*
X94838Y317350D01*
X94756Y317293D01*
X94672Y317239D01*
X94586Y317189D01*
X94498Y317142D01*
X94408Y317098D01*
X94317Y317058D01*
X94224Y317022D01*
X94130Y316989D01*
X94034Y316960D01*
X93938Y316935D01*
X93841Y316914D01*
X93742Y316896D01*
X93644Y316883D01*
X93544Y316873D01*
X93445Y316867D01*
X93345Y316865D01*
X95885Y347345D02*
X95883Y347445D01*
X95877Y347544D01*
X95867Y347644D01*
X95854Y347742D01*
X95836Y347841D01*
X95815Y347938D01*
X95790Y348034D01*
X95761Y348130D01*
X95728Y348224D01*
X95692Y348317D01*
X95652Y348408D01*
X95608Y348498D01*
X95561Y348586D01*
X95511Y348672D01*
X95457Y348756D01*
X95400Y348838D01*
X95340Y348917D01*
X95276Y348995D01*
X95210Y349069D01*
X95141Y349141D01*
X95069Y349210D01*
X94995Y349276D01*
X94917Y349340D01*
X94838Y349400D01*
X94756Y349457D01*
X94672Y349511D01*
X94586Y349561D01*
X94498Y349608D01*
X94408Y349652D01*
X94317Y349692D01*
X94224Y349728D01*
X94130Y349761D01*
X94034Y349790D01*
X93938Y349815D01*
X93841Y349836D01*
X93742Y349854D01*
X93644Y349867D01*
X93544Y349877D01*
X93445Y349883D01*
X93345Y349885D01*
X78105Y349885D02*
X78005Y349883D01*
X77906Y349877D01*
X77806Y349867D01*
X77708Y349854D01*
X77609Y349836D01*
X77512Y349815D01*
X77416Y349790D01*
X77320Y349761D01*
X77226Y349728D01*
X77133Y349692D01*
X77042Y349652D01*
X76952Y349608D01*
X76864Y349561D01*
X76778Y349511D01*
X76694Y349457D01*
X76612Y349400D01*
X76533Y349340D01*
X76455Y349276D01*
X76381Y349210D01*
X76309Y349141D01*
X76240Y349069D01*
X76174Y348995D01*
X76110Y348917D01*
X76050Y348838D01*
X75993Y348756D01*
X75939Y348672D01*
X75889Y348586D01*
X75842Y348498D01*
X75798Y348408D01*
X75758Y348317D01*
X75722Y348224D01*
X75689Y348130D01*
X75660Y348034D01*
X75635Y347938D01*
X75614Y347841D01*
X75596Y347742D01*
X75583Y347644D01*
X75573Y347544D01*
X75567Y347445D01*
X75565Y347345D01*
X75565Y319405D02*
X75567Y319305D01*
X75573Y319206D01*
X75583Y319106D01*
X75596Y319008D01*
X75614Y318909D01*
X75635Y318812D01*
X75660Y318716D01*
X75689Y318620D01*
X75722Y318526D01*
X75758Y318433D01*
X75798Y318342D01*
X75842Y318252D01*
X75889Y318164D01*
X75939Y318078D01*
X75993Y317994D01*
X76050Y317912D01*
X76110Y317833D01*
X76174Y317755D01*
X76240Y317681D01*
X76309Y317609D01*
X76381Y317540D01*
X76455Y317474D01*
X76533Y317410D01*
X76612Y317350D01*
X76694Y317293D01*
X76778Y317239D01*
X76864Y317189D01*
X76952Y317142D01*
X77042Y317098D01*
X77133Y317058D01*
X77226Y317022D01*
X77320Y316989D01*
X77416Y316960D01*
X77512Y316935D01*
X77609Y316914D01*
X77708Y316896D01*
X77806Y316883D01*
X77906Y316873D01*
X78005Y316867D01*
X78105Y316865D01*
X93345Y316865D01*
X93345Y349885D02*
X78105Y349885D01*
X95885Y347345D02*
X95885Y319405D01*
D13*
X97780Y321158D02*
X99687Y323065D01*
X97780Y321158D02*
X97780Y317345D01*
X99687Y315438D01*
X101594Y315438D01*
X103500Y317345D01*
X103500Y321158D01*
X105407Y323065D01*
X107313Y323065D01*
X109220Y321158D01*
X109220Y317345D01*
X107313Y315438D01*
X107313Y327132D02*
X109220Y329039D01*
X109220Y330945D01*
X107313Y332852D01*
X97780Y332852D01*
X97780Y330945D02*
X97780Y334759D01*
X97780Y338826D02*
X97780Y346452D01*
X97780Y338826D02*
X103500Y338826D01*
X101594Y342639D01*
X101594Y344546D01*
X103500Y346452D01*
X107313Y346452D01*
X109220Y344546D01*
X109220Y340733D01*
X107313Y338826D01*
D11*
X50165Y347345D02*
X50165Y319405D01*
X67945Y316865D02*
X68045Y316867D01*
X68144Y316873D01*
X68244Y316883D01*
X68342Y316896D01*
X68441Y316914D01*
X68538Y316935D01*
X68634Y316960D01*
X68730Y316989D01*
X68824Y317022D01*
X68917Y317058D01*
X69008Y317098D01*
X69098Y317142D01*
X69186Y317189D01*
X69272Y317239D01*
X69356Y317293D01*
X69438Y317350D01*
X69517Y317410D01*
X69595Y317474D01*
X69669Y317540D01*
X69741Y317609D01*
X69810Y317681D01*
X69876Y317755D01*
X69940Y317833D01*
X70000Y317912D01*
X70057Y317994D01*
X70111Y318078D01*
X70161Y318164D01*
X70208Y318252D01*
X70252Y318342D01*
X70292Y318433D01*
X70328Y318526D01*
X70361Y318620D01*
X70390Y318716D01*
X70415Y318812D01*
X70436Y318909D01*
X70454Y319008D01*
X70467Y319106D01*
X70477Y319206D01*
X70483Y319305D01*
X70485Y319405D01*
X70485Y347345D02*
X70483Y347445D01*
X70477Y347544D01*
X70467Y347644D01*
X70454Y347742D01*
X70436Y347841D01*
X70415Y347938D01*
X70390Y348034D01*
X70361Y348130D01*
X70328Y348224D01*
X70292Y348317D01*
X70252Y348408D01*
X70208Y348498D01*
X70161Y348586D01*
X70111Y348672D01*
X70057Y348756D01*
X70000Y348838D01*
X69940Y348917D01*
X69876Y348995D01*
X69810Y349069D01*
X69741Y349141D01*
X69669Y349210D01*
X69595Y349276D01*
X69517Y349340D01*
X69438Y349400D01*
X69356Y349457D01*
X69272Y349511D01*
X69186Y349561D01*
X69098Y349608D01*
X69008Y349652D01*
X68917Y349692D01*
X68824Y349728D01*
X68730Y349761D01*
X68634Y349790D01*
X68538Y349815D01*
X68441Y349836D01*
X68342Y349854D01*
X68244Y349867D01*
X68144Y349877D01*
X68045Y349883D01*
X67945Y349885D01*
X52705Y349885D02*
X52605Y349883D01*
X52506Y349877D01*
X52406Y349867D01*
X52308Y349854D01*
X52209Y349836D01*
X52112Y349815D01*
X52016Y349790D01*
X51920Y349761D01*
X51826Y349728D01*
X51733Y349692D01*
X51642Y349652D01*
X51552Y349608D01*
X51464Y349561D01*
X51378Y349511D01*
X51294Y349457D01*
X51212Y349400D01*
X51133Y349340D01*
X51055Y349276D01*
X50981Y349210D01*
X50909Y349141D01*
X50840Y349069D01*
X50774Y348995D01*
X50710Y348917D01*
X50650Y348838D01*
X50593Y348756D01*
X50539Y348672D01*
X50489Y348586D01*
X50442Y348498D01*
X50398Y348408D01*
X50358Y348317D01*
X50322Y348224D01*
X50289Y348130D01*
X50260Y348034D01*
X50235Y347938D01*
X50214Y347841D01*
X50196Y347742D01*
X50183Y347644D01*
X50173Y347544D01*
X50167Y347445D01*
X50165Y347345D01*
X50165Y319405D02*
X50167Y319305D01*
X50173Y319206D01*
X50183Y319106D01*
X50196Y319008D01*
X50214Y318909D01*
X50235Y318812D01*
X50260Y318716D01*
X50289Y318620D01*
X50322Y318526D01*
X50358Y318433D01*
X50398Y318342D01*
X50442Y318252D01*
X50489Y318164D01*
X50539Y318078D01*
X50593Y317994D01*
X50650Y317912D01*
X50710Y317833D01*
X50774Y317755D01*
X50840Y317681D01*
X50909Y317609D01*
X50981Y317540D01*
X51055Y317474D01*
X51133Y317410D01*
X51212Y317350D01*
X51294Y317293D01*
X51378Y317239D01*
X51464Y317189D01*
X51552Y317142D01*
X51642Y317098D01*
X51733Y317058D01*
X51826Y317022D01*
X51920Y316989D01*
X52016Y316960D01*
X52112Y316935D01*
X52209Y316914D01*
X52308Y316896D01*
X52406Y316883D01*
X52506Y316873D01*
X52605Y316867D01*
X52705Y316865D01*
X67945Y316865D01*
X67945Y349885D02*
X52705Y349885D01*
X70485Y347345D02*
X70485Y319405D01*
D13*
X72380Y321158D02*
X74287Y323065D01*
X72380Y321158D02*
X72380Y317345D01*
X74287Y315438D01*
X76194Y315438D01*
X78100Y317345D01*
X78100Y321158D01*
X80007Y323065D01*
X81913Y323065D01*
X83820Y321158D01*
X83820Y317345D01*
X81913Y315438D01*
X81913Y327132D02*
X83820Y329039D01*
X83820Y330945D01*
X81913Y332852D01*
X72380Y332852D01*
X72380Y330945D02*
X72380Y334759D01*
X74287Y342639D02*
X72380Y346452D01*
X74287Y342639D02*
X78100Y338826D01*
X81913Y338826D01*
X83820Y340733D01*
X83820Y344546D01*
X81913Y346452D01*
X80007Y346452D01*
X78100Y344546D01*
X78100Y338826D01*
X802563Y542050D02*
X832563Y542050D01*
X832563Y512050D01*
X802563Y512050D01*
X802563Y542050D01*
X808103Y515050D02*
X827023Y515050D01*
X808103Y515050D02*
X808003Y515052D01*
X807904Y515058D01*
X807804Y515068D01*
X807706Y515081D01*
X807607Y515099D01*
X807510Y515120D01*
X807414Y515145D01*
X807318Y515174D01*
X807224Y515207D01*
X807131Y515243D01*
X807040Y515283D01*
X806950Y515327D01*
X806862Y515374D01*
X806776Y515424D01*
X806692Y515478D01*
X806610Y515535D01*
X806531Y515595D01*
X806453Y515659D01*
X806379Y515725D01*
X806307Y515794D01*
X806238Y515866D01*
X806172Y515940D01*
X806108Y516018D01*
X806048Y516097D01*
X805991Y516179D01*
X805937Y516263D01*
X805887Y516349D01*
X805840Y516437D01*
X805796Y516527D01*
X805756Y516618D01*
X805720Y516711D01*
X805687Y516805D01*
X805658Y516901D01*
X805633Y516997D01*
X805612Y517094D01*
X805594Y517193D01*
X805581Y517291D01*
X805571Y517391D01*
X805565Y517490D01*
X805563Y517590D01*
X805563Y536510D01*
X805565Y536610D01*
X805571Y536709D01*
X805581Y536809D01*
X805594Y536907D01*
X805612Y537006D01*
X805633Y537103D01*
X805658Y537199D01*
X805687Y537295D01*
X805720Y537389D01*
X805756Y537482D01*
X805796Y537573D01*
X805840Y537663D01*
X805887Y537751D01*
X805937Y537837D01*
X805991Y537921D01*
X806048Y538003D01*
X806108Y538082D01*
X806172Y538160D01*
X806238Y538234D01*
X806307Y538306D01*
X806379Y538375D01*
X806453Y538441D01*
X806531Y538505D01*
X806610Y538565D01*
X806692Y538622D01*
X806776Y538676D01*
X806862Y538726D01*
X806950Y538773D01*
X807040Y538817D01*
X807131Y538857D01*
X807224Y538893D01*
X807318Y538926D01*
X807414Y538955D01*
X807510Y538980D01*
X807607Y539001D01*
X807706Y539019D01*
X807804Y539032D01*
X807904Y539042D01*
X808003Y539048D01*
X808103Y539050D01*
X827023Y539050D01*
X827123Y539048D01*
X827222Y539042D01*
X827322Y539032D01*
X827420Y539019D01*
X827519Y539001D01*
X827616Y538980D01*
X827712Y538955D01*
X827808Y538926D01*
X827902Y538893D01*
X827995Y538857D01*
X828086Y538817D01*
X828176Y538773D01*
X828264Y538726D01*
X828350Y538676D01*
X828434Y538622D01*
X828516Y538565D01*
X828595Y538505D01*
X828673Y538441D01*
X828747Y538375D01*
X828819Y538306D01*
X828888Y538234D01*
X828954Y538160D01*
X829018Y538082D01*
X829078Y538003D01*
X829135Y537921D01*
X829189Y537837D01*
X829239Y537751D01*
X829286Y537663D01*
X829330Y537573D01*
X829370Y537482D01*
X829406Y537389D01*
X829439Y537295D01*
X829468Y537199D01*
X829493Y537103D01*
X829514Y537006D01*
X829532Y536907D01*
X829545Y536809D01*
X829555Y536709D01*
X829561Y536610D01*
X829563Y536510D01*
X829563Y517590D01*
X829561Y517490D01*
X829555Y517391D01*
X829545Y517291D01*
X829532Y517193D01*
X829514Y517094D01*
X829493Y516997D01*
X829468Y516901D01*
X829439Y516805D01*
X829406Y516711D01*
X829370Y516618D01*
X829330Y516527D01*
X829286Y516437D01*
X829239Y516349D01*
X829189Y516263D01*
X829135Y516179D01*
X829078Y516097D01*
X829018Y516018D01*
X828954Y515940D01*
X828888Y515866D01*
X828819Y515794D01*
X828747Y515725D01*
X828673Y515659D01*
X828595Y515595D01*
X828516Y515535D01*
X828434Y515478D01*
X828350Y515424D01*
X828264Y515374D01*
X828176Y515327D01*
X828086Y515283D01*
X827995Y515243D01*
X827902Y515207D01*
X827808Y515174D01*
X827712Y515145D01*
X827616Y515120D01*
X827519Y515099D01*
X827420Y515081D01*
X827322Y515068D01*
X827222Y515058D01*
X827123Y515052D01*
X827023Y515050D01*
X823563Y535050D02*
X823565Y535139D01*
X823571Y535228D01*
X823581Y535317D01*
X823595Y535405D01*
X823612Y535492D01*
X823634Y535578D01*
X823660Y535664D01*
X823689Y535748D01*
X823722Y535831D01*
X823758Y535912D01*
X823799Y535992D01*
X823842Y536069D01*
X823889Y536145D01*
X823940Y536218D01*
X823993Y536289D01*
X824050Y536358D01*
X824110Y536424D01*
X824173Y536488D01*
X824238Y536548D01*
X824306Y536606D01*
X824377Y536660D01*
X824450Y536711D01*
X824525Y536759D01*
X824602Y536804D01*
X824681Y536845D01*
X824762Y536882D01*
X824844Y536916D01*
X824928Y536947D01*
X825013Y536973D01*
X825099Y536996D01*
X825186Y537014D01*
X825274Y537029D01*
X825363Y537040D01*
X825452Y537047D01*
X825541Y537050D01*
X825630Y537049D01*
X825719Y537044D01*
X825807Y537035D01*
X825896Y537022D01*
X825983Y537005D01*
X826070Y536985D01*
X826156Y536960D01*
X826240Y536932D01*
X826323Y536900D01*
X826405Y536864D01*
X826485Y536825D01*
X826563Y536782D01*
X826639Y536736D01*
X826713Y536686D01*
X826785Y536633D01*
X826854Y536577D01*
X826921Y536518D01*
X826985Y536456D01*
X827046Y536392D01*
X827105Y536324D01*
X827160Y536254D01*
X827212Y536182D01*
X827261Y536107D01*
X827306Y536031D01*
X827348Y535952D01*
X827386Y535872D01*
X827421Y535790D01*
X827452Y535706D01*
X827480Y535621D01*
X827503Y535535D01*
X827523Y535448D01*
X827539Y535361D01*
X827551Y535272D01*
X827559Y535184D01*
X827563Y535095D01*
X827563Y535005D01*
X827559Y534916D01*
X827551Y534828D01*
X827539Y534739D01*
X827523Y534652D01*
X827503Y534565D01*
X827480Y534479D01*
X827452Y534394D01*
X827421Y534310D01*
X827386Y534228D01*
X827348Y534148D01*
X827306Y534069D01*
X827261Y533993D01*
X827212Y533918D01*
X827160Y533846D01*
X827105Y533776D01*
X827046Y533708D01*
X826985Y533644D01*
X826921Y533582D01*
X826854Y533523D01*
X826785Y533467D01*
X826713Y533414D01*
X826639Y533364D01*
X826563Y533318D01*
X826485Y533275D01*
X826405Y533236D01*
X826323Y533200D01*
X826240Y533168D01*
X826156Y533140D01*
X826070Y533115D01*
X825983Y533095D01*
X825896Y533078D01*
X825807Y533065D01*
X825719Y533056D01*
X825630Y533051D01*
X825541Y533050D01*
X825452Y533053D01*
X825363Y533060D01*
X825274Y533071D01*
X825186Y533086D01*
X825099Y533104D01*
X825013Y533127D01*
X824928Y533153D01*
X824844Y533184D01*
X824762Y533218D01*
X824681Y533255D01*
X824602Y533296D01*
X824525Y533341D01*
X824450Y533389D01*
X824377Y533440D01*
X824306Y533494D01*
X824238Y533552D01*
X824173Y533612D01*
X824110Y533676D01*
X824050Y533742D01*
X823993Y533811D01*
X823940Y533882D01*
X823889Y533955D01*
X823842Y534031D01*
X823799Y534108D01*
X823758Y534188D01*
X823722Y534269D01*
X823689Y534352D01*
X823660Y534436D01*
X823634Y534522D01*
X823612Y534608D01*
X823595Y534695D01*
X823581Y534783D01*
X823571Y534872D01*
X823565Y534961D01*
X823563Y535050D01*
D12*
X805401Y546431D02*
X802944Y546431D01*
X804172Y546431D02*
X804172Y553803D01*
X802944Y553803D02*
X805401Y553803D01*
X811619Y553803D02*
X812848Y552575D01*
X811619Y553803D02*
X809162Y553803D01*
X807933Y552575D01*
X807933Y547660D01*
X809162Y546431D01*
X811619Y546431D01*
X812848Y547660D01*
X815417Y553803D02*
X820332Y553803D01*
X815417Y553803D02*
X815417Y550117D01*
X817875Y551346D01*
X819103Y551346D01*
X820332Y550117D01*
X820332Y547660D01*
X819103Y546431D01*
X816646Y546431D01*
X815417Y547660D01*
X793419Y546231D02*
X793419Y553603D01*
X797105Y553603D01*
X798333Y552375D01*
X798333Y551146D01*
X797105Y549917D01*
X798333Y548688D01*
X798333Y547460D01*
X797105Y546231D01*
X793419Y546231D01*
X793419Y549917D02*
X797105Y549917D01*
X800903Y546231D02*
X800903Y553603D01*
X803360Y551146D01*
X805818Y553603D01*
X805818Y546231D01*
X808387Y553603D02*
X813302Y553603D01*
X808387Y553603D02*
X808387Y546231D01*
X813302Y546231D01*
X810844Y549917D02*
X808387Y549917D01*
X818328Y552375D02*
X820786Y553603D01*
X818328Y552375D02*
X815871Y549917D01*
X815871Y547460D01*
X817100Y546231D01*
X819557Y546231D01*
X820786Y547460D01*
X820786Y548688D01*
X819557Y549917D01*
X815871Y549917D01*
X823355Y552375D02*
X824584Y553603D01*
X827041Y553603D01*
X828270Y552375D01*
X828270Y551146D01*
X827041Y549917D01*
X828270Y548688D01*
X828270Y547460D01*
X827041Y546231D01*
X824584Y546231D01*
X823355Y547460D01*
X823355Y548688D01*
X824584Y549917D01*
X823355Y551146D01*
X823355Y552375D01*
X824584Y549917D02*
X827041Y549917D01*
X830839Y547460D02*
X830839Y552375D01*
X832068Y553603D01*
X834525Y553603D01*
X835754Y552375D01*
X835754Y547460D01*
X834525Y546231D01*
X832068Y546231D01*
X830839Y547460D01*
X835754Y552375D01*
D10*
X320523Y18552D02*
X322472Y16603D01*
X320523Y18552D02*
X316625Y18552D01*
X314676Y16603D01*
X314676Y8807D01*
X316625Y6858D01*
X320523Y6858D01*
X322472Y8807D01*
X326370Y6858D02*
X334166Y6858D01*
X326370Y6858D02*
X334166Y14654D01*
X334166Y16603D01*
X332217Y18552D01*
X328319Y18552D01*
X326370Y16603D01*
X338064Y14654D02*
X341962Y18552D01*
X341962Y6858D01*
X338064Y6858D02*
X345860Y6858D01*
X178010Y162653D02*
X176061Y164602D01*
X172163Y164602D01*
X170214Y162653D01*
X170214Y154857D01*
X172163Y152908D01*
X176061Y152908D01*
X178010Y154857D01*
X181908Y152908D02*
X189703Y152908D01*
X181908Y152908D02*
X189703Y160704D01*
X189703Y162653D01*
X187754Y164602D01*
X183856Y164602D01*
X181908Y162653D01*
X193601Y152908D02*
X201397Y152908D01*
X193601Y152908D02*
X201397Y160704D01*
X201397Y162653D01*
X199448Y164602D01*
X195550Y164602D01*
X193601Y162653D01*
X765023Y526552D02*
X766972Y524603D01*
X765023Y526552D02*
X761125Y526552D01*
X759176Y524603D01*
X759176Y516807D01*
X761125Y514858D01*
X765023Y514858D01*
X766972Y516807D01*
X770870Y514858D02*
X778666Y514858D01*
X770870Y514858D02*
X778666Y522654D01*
X778666Y524603D01*
X776717Y526552D01*
X772819Y526552D01*
X770870Y524603D01*
X782564Y524603D02*
X784513Y526552D01*
X788411Y526552D01*
X790360Y524603D01*
X790360Y522654D01*
X788411Y520705D01*
X786462Y520705D01*
X788411Y520705D02*
X790360Y518756D01*
X790360Y516807D01*
X788411Y514858D01*
X784513Y514858D01*
X782564Y516807D01*
X766972Y505553D02*
X765023Y507502D01*
X761125Y507502D01*
X759176Y505553D01*
X759176Y497757D01*
X761125Y495808D01*
X765023Y495808D01*
X766972Y497757D01*
X770870Y495808D02*
X778666Y495808D01*
X770870Y495808D02*
X778666Y503604D01*
X778666Y505553D01*
X776717Y507502D01*
X772819Y507502D01*
X770870Y505553D01*
X788411Y507502D02*
X788411Y495808D01*
X782564Y501655D02*
X788411Y507502D01*
X790360Y501655D02*
X782564Y501655D01*
D11*
X647050Y150700D02*
X634350Y150700D01*
X647050Y150700D02*
X653400Y144350D01*
X653400Y131650D01*
X647050Y125300D01*
X653400Y144350D02*
X659750Y150700D01*
X672450Y150700D01*
X678800Y144350D01*
X678800Y131650D01*
X672450Y125300D01*
X659750Y125300D01*
X653400Y131650D01*
X608950Y150700D02*
X602600Y144350D01*
X608950Y150700D02*
X621650Y150700D01*
X628000Y144350D01*
X628000Y131650D01*
X621650Y125300D01*
X608950Y125300D01*
X602600Y131650D01*
X628000Y144350D02*
X634350Y150700D01*
X628000Y131650D02*
X634350Y125300D01*
X647050Y125300D01*
X570850Y150700D02*
X558150Y150700D01*
X570850Y150700D02*
X577200Y144350D01*
X577200Y131650D01*
X570850Y125300D01*
X577200Y144350D02*
X583550Y150700D01*
X596250Y150700D01*
X602600Y144350D01*
X602600Y131650D01*
X596250Y125300D01*
X583550Y125300D01*
X577200Y131650D01*
X551800Y131650D02*
X551800Y144350D01*
X558150Y150700D01*
X551800Y131650D02*
X558150Y125300D01*
X570850Y125300D01*
X685150Y150700D02*
X697850Y150700D01*
X704200Y144350D01*
X704200Y131650D01*
X697850Y125300D01*
X678800Y144350D02*
X685150Y150700D01*
X678800Y131650D02*
X685150Y125300D01*
X697850Y125300D01*
D13*
X553580Y156923D02*
X551673Y158830D01*
X553580Y156923D02*
X555486Y156923D01*
X557393Y158830D01*
X557393Y168363D01*
X555486Y168363D02*
X559300Y168363D01*
X563367Y168363D02*
X563367Y156923D01*
X563367Y168363D02*
X569087Y168363D01*
X570993Y166456D01*
X570993Y162643D01*
X569087Y160736D01*
X563367Y160736D01*
X580781Y156923D02*
X580781Y168363D01*
X575061Y162643D01*
X582687Y162643D01*
D11*
X634350Y379300D02*
X647050Y379300D01*
X653400Y372950D01*
X653400Y360250D01*
X647050Y353900D01*
X653400Y372950D02*
X659750Y379300D01*
X672450Y379300D01*
X678800Y372950D01*
X678800Y360250D01*
X672450Y353900D01*
X659750Y353900D01*
X653400Y360250D01*
X608950Y379300D02*
X602600Y372950D01*
X608950Y379300D02*
X621650Y379300D01*
X628000Y372950D01*
X628000Y360250D01*
X621650Y353900D01*
X608950Y353900D01*
X602600Y360250D01*
X628000Y372950D02*
X634350Y379300D01*
X628000Y360250D02*
X634350Y353900D01*
X647050Y353900D01*
X570850Y379300D02*
X558150Y379300D01*
X570850Y379300D02*
X577200Y372950D01*
X577200Y360250D01*
X570850Y353900D01*
X577200Y372950D02*
X583550Y379300D01*
X596250Y379300D01*
X602600Y372950D01*
X602600Y360250D01*
X596250Y353900D01*
X583550Y353900D01*
X577200Y360250D01*
X551800Y360250D02*
X551800Y372950D01*
X558150Y379300D01*
X551800Y360250D02*
X558150Y353900D01*
X570850Y353900D01*
X685150Y379300D02*
X697850Y379300D01*
X704200Y372950D01*
X704200Y360250D01*
X697850Y353900D01*
X678800Y372950D02*
X685150Y379300D01*
X678800Y360250D02*
X685150Y353900D01*
X697850Y353900D01*
D13*
X553580Y385523D02*
X551673Y387430D01*
X553580Y385523D02*
X555486Y385523D01*
X557393Y387430D01*
X557393Y396963D01*
X555486Y396963D02*
X559300Y396963D01*
X563367Y396963D02*
X563367Y385523D01*
X563367Y396963D02*
X569087Y396963D01*
X570993Y395056D01*
X570993Y391243D01*
X569087Y389336D01*
X563367Y389336D01*
X575061Y396963D02*
X582687Y396963D01*
X575061Y396963D02*
X575061Y391243D01*
X578874Y393150D01*
X580781Y393150D01*
X582687Y391243D01*
X582687Y387430D01*
X580781Y385523D01*
X576968Y385523D01*
X575061Y387430D01*
D11*
X100965Y347345D02*
X100965Y319405D01*
X118745Y316865D02*
X118845Y316867D01*
X118944Y316873D01*
X119044Y316883D01*
X119142Y316896D01*
X119241Y316914D01*
X119338Y316935D01*
X119434Y316960D01*
X119530Y316989D01*
X119624Y317022D01*
X119717Y317058D01*
X119808Y317098D01*
X119898Y317142D01*
X119986Y317189D01*
X120072Y317239D01*
X120156Y317293D01*
X120238Y317350D01*
X120317Y317410D01*
X120395Y317474D01*
X120469Y317540D01*
X120541Y317609D01*
X120610Y317681D01*
X120676Y317755D01*
X120740Y317833D01*
X120800Y317912D01*
X120857Y317994D01*
X120911Y318078D01*
X120961Y318164D01*
X121008Y318252D01*
X121052Y318342D01*
X121092Y318433D01*
X121128Y318526D01*
X121161Y318620D01*
X121190Y318716D01*
X121215Y318812D01*
X121236Y318909D01*
X121254Y319008D01*
X121267Y319106D01*
X121277Y319206D01*
X121283Y319305D01*
X121285Y319405D01*
X121285Y347345D02*
X121283Y347445D01*
X121277Y347544D01*
X121267Y347644D01*
X121254Y347742D01*
X121236Y347841D01*
X121215Y347938D01*
X121190Y348034D01*
X121161Y348130D01*
X121128Y348224D01*
X121092Y348317D01*
X121052Y348408D01*
X121008Y348498D01*
X120961Y348586D01*
X120911Y348672D01*
X120857Y348756D01*
X120800Y348838D01*
X120740Y348917D01*
X120676Y348995D01*
X120610Y349069D01*
X120541Y349141D01*
X120469Y349210D01*
X120395Y349276D01*
X120317Y349340D01*
X120238Y349400D01*
X120156Y349457D01*
X120072Y349511D01*
X119986Y349561D01*
X119898Y349608D01*
X119808Y349652D01*
X119717Y349692D01*
X119624Y349728D01*
X119530Y349761D01*
X119434Y349790D01*
X119338Y349815D01*
X119241Y349836D01*
X119142Y349854D01*
X119044Y349867D01*
X118944Y349877D01*
X118845Y349883D01*
X118745Y349885D01*
X103505Y349885D02*
X103405Y349883D01*
X103306Y349877D01*
X103206Y349867D01*
X103108Y349854D01*
X103009Y349836D01*
X102912Y349815D01*
X102816Y349790D01*
X102720Y349761D01*
X102626Y349728D01*
X102533Y349692D01*
X102442Y349652D01*
X102352Y349608D01*
X102264Y349561D01*
X102178Y349511D01*
X102094Y349457D01*
X102012Y349400D01*
X101933Y349340D01*
X101855Y349276D01*
X101781Y349210D01*
X101709Y349141D01*
X101640Y349069D01*
X101574Y348995D01*
X101510Y348917D01*
X101450Y348838D01*
X101393Y348756D01*
X101339Y348672D01*
X101289Y348586D01*
X101242Y348498D01*
X101198Y348408D01*
X101158Y348317D01*
X101122Y348224D01*
X101089Y348130D01*
X101060Y348034D01*
X101035Y347938D01*
X101014Y347841D01*
X100996Y347742D01*
X100983Y347644D01*
X100973Y347544D01*
X100967Y347445D01*
X100965Y347345D01*
X100965Y319405D02*
X100967Y319305D01*
X100973Y319206D01*
X100983Y319106D01*
X100996Y319008D01*
X101014Y318909D01*
X101035Y318812D01*
X101060Y318716D01*
X101089Y318620D01*
X101122Y318526D01*
X101158Y318433D01*
X101198Y318342D01*
X101242Y318252D01*
X101289Y318164D01*
X101339Y318078D01*
X101393Y317994D01*
X101450Y317912D01*
X101510Y317833D01*
X101574Y317755D01*
X101640Y317681D01*
X101709Y317609D01*
X101781Y317540D01*
X101855Y317474D01*
X101933Y317410D01*
X102012Y317350D01*
X102094Y317293D01*
X102178Y317239D01*
X102264Y317189D01*
X102352Y317142D01*
X102442Y317098D01*
X102533Y317058D01*
X102626Y317022D01*
X102720Y316989D01*
X102816Y316960D01*
X102912Y316935D01*
X103009Y316914D01*
X103108Y316896D01*
X103206Y316883D01*
X103306Y316873D01*
X103405Y316867D01*
X103505Y316865D01*
X118745Y316865D01*
X118745Y349885D02*
X103505Y349885D01*
X121285Y347345D02*
X121285Y319405D01*
D13*
X123180Y321158D02*
X125087Y323065D01*
X123180Y321158D02*
X123180Y317345D01*
X125087Y315438D01*
X126994Y315438D01*
X128900Y317345D01*
X128900Y321158D01*
X130807Y323065D01*
X132713Y323065D01*
X134620Y321158D01*
X134620Y317345D01*
X132713Y315438D01*
X132713Y327132D02*
X134620Y329039D01*
X134620Y330945D01*
X132713Y332852D01*
X123180Y332852D01*
X123180Y330945D02*
X123180Y334759D01*
X123180Y338826D02*
X123180Y346452D01*
X125087Y346452D01*
X132713Y338826D01*
X134620Y338826D01*
D10*
X324924Y30988D02*
X328822Y30988D01*
X326873Y30988D02*
X326873Y42682D01*
X324924Y42682D02*
X328822Y42682D01*
X338567Y42682D02*
X340516Y40733D01*
X338567Y42682D02*
X334669Y42682D01*
X332720Y40733D01*
X332720Y32937D01*
X334669Y30988D01*
X338567Y30988D01*
X340516Y32937D01*
X344414Y42682D02*
X352210Y42682D01*
X352210Y40733D01*
X344414Y32937D01*
X344414Y30988D01*
D13*
X433388Y0D02*
X433388Y101600D01*
X471488Y101600D01*
X471488Y0D01*
X433388Y0D01*
X442438Y800D02*
X442438Y12800D01*
X442438Y22800D02*
X442438Y34800D01*
X442438Y44800D02*
X442438Y56800D01*
X442438Y66800D02*
X442438Y78800D01*
X442438Y88800D02*
X442438Y100800D01*
X462438Y12800D02*
X462438Y800D01*
X462438Y22800D02*
X462438Y34800D01*
X462438Y44800D02*
X462438Y56800D01*
X462438Y66800D02*
X462438Y78800D01*
X462438Y88800D02*
X462438Y100800D01*
D10*
X426530Y10756D02*
X414836Y10756D01*
X414836Y6858D02*
X414836Y14654D01*
X414836Y18552D02*
X426530Y18552D01*
X414836Y18552D02*
X414836Y24399D01*
X416785Y26348D01*
X420683Y26348D01*
X422632Y24399D01*
X422632Y18552D01*
X416785Y30246D02*
X414836Y32195D01*
X414836Y36093D01*
X416785Y38042D01*
X418734Y38042D01*
X420683Y36093D01*
X422632Y38042D01*
X424581Y38042D01*
X426530Y36093D01*
X426530Y32195D01*
X424581Y30246D01*
X422632Y30246D01*
X420683Y32195D01*
X418734Y30246D01*
X416785Y30246D01*
X420683Y32195D02*
X420683Y36093D01*
D12*
X449447Y12363D02*
X456819Y12363D01*
X449447Y9906D02*
X449447Y14821D01*
X449447Y17390D02*
X449447Y22305D01*
X449447Y17390D02*
X456819Y17390D01*
X456819Y22305D01*
X453133Y19848D02*
X453133Y17390D01*
X449447Y28560D02*
X450675Y29789D01*
X449447Y28560D02*
X449447Y26103D01*
X450675Y24874D01*
X451904Y24874D01*
X453133Y26103D01*
X453133Y28560D01*
X454362Y29789D01*
X455590Y29789D01*
X456819Y28560D01*
X456819Y26103D01*
X455590Y24874D01*
X456819Y34816D02*
X449447Y34816D01*
X449447Y37273D02*
X449447Y32358D01*
X449447Y39843D02*
X456819Y39843D01*
X449447Y39843D02*
X449447Y43529D01*
X450675Y44757D01*
X453133Y44757D01*
X454362Y43529D01*
X454362Y39843D01*
X456819Y47327D02*
X449447Y47327D01*
X456819Y47327D02*
X456819Y52242D01*
X455590Y54811D02*
X449447Y54811D01*
X455590Y54811D02*
X456819Y56040D01*
X456819Y58497D01*
X455590Y59726D01*
X449447Y59726D01*
X449447Y65981D02*
X450675Y67210D01*
X449447Y65981D02*
X449447Y63524D01*
X450675Y62295D01*
X455590Y62295D01*
X456819Y63524D01*
X456819Y65981D01*
X455590Y67210D01*
X453133Y67210D01*
X453133Y64753D01*
X456819Y69779D02*
X456819Y74694D01*
X456819Y69779D02*
X451904Y74694D01*
X450675Y74694D01*
X449447Y73465D01*
X449447Y71008D01*
X450675Y69779D01*
X449447Y77263D02*
X456819Y77263D01*
X451904Y79721D02*
X449447Y77263D01*
X451904Y79721D02*
X449447Y82178D01*
X456819Y82178D01*
X456819Y84748D02*
X449447Y84748D01*
X451904Y87205D01*
X449447Y89662D01*
X456819Y89662D01*
D21*
X429297Y124175D02*
X429144Y124177D01*
X428991Y124183D01*
X428838Y124193D01*
X428685Y124206D01*
X428533Y124224D01*
X428381Y124245D01*
X428230Y124271D01*
X428080Y124300D01*
X427930Y124333D01*
X427781Y124370D01*
X427633Y124410D01*
X427487Y124455D01*
X427341Y124503D01*
X427197Y124555D01*
X427054Y124610D01*
X426913Y124669D01*
X426773Y124732D01*
X426635Y124798D01*
X426498Y124868D01*
X426364Y124941D01*
X426231Y125018D01*
X426100Y125098D01*
X425972Y125181D01*
X425845Y125267D01*
X425721Y125357D01*
X425599Y125450D01*
X425480Y125546D01*
X425363Y125645D01*
X425248Y125747D01*
X425136Y125852D01*
X425027Y125960D01*
X424921Y126070D01*
X424818Y126183D01*
X424717Y126299D01*
X424620Y126417D01*
X424525Y126538D01*
X424434Y126661D01*
X424346Y126786D01*
X424261Y126914D01*
X424179Y127043D01*
X424101Y127175D01*
X424026Y127309D01*
X423954Y127444D01*
X423886Y127582D01*
X423822Y127721D01*
X423761Y127861D01*
X423704Y128003D01*
X423650Y128147D01*
X423600Y128292D01*
X423554Y128438D01*
X423511Y128585D01*
X423473Y128733D01*
X423438Y128883D01*
X423407Y129033D01*
X423379Y129183D01*
X423356Y129335D01*
X423337Y129487D01*
X423321Y129639D01*
X423309Y129792D01*
X423301Y129945D01*
X423297Y130098D01*
X423297Y130252D01*
X423301Y130405D01*
X423309Y130558D01*
X423321Y130711D01*
X423337Y130863D01*
X423356Y131015D01*
X423379Y131167D01*
X423407Y131317D01*
X423438Y131467D01*
X423473Y131617D01*
X423511Y131765D01*
X423554Y131912D01*
X423600Y132058D01*
X423650Y132203D01*
X423704Y132347D01*
X423761Y132489D01*
X423822Y132629D01*
X423886Y132768D01*
X423954Y132906D01*
X424026Y133041D01*
X424101Y133175D01*
X424179Y133307D01*
X424261Y133436D01*
X424346Y133564D01*
X424434Y133689D01*
X424525Y133812D01*
X424620Y133933D01*
X424717Y134051D01*
X424818Y134167D01*
X424921Y134280D01*
X425027Y134390D01*
X425136Y134498D01*
X425248Y134603D01*
X425363Y134705D01*
X425480Y134804D01*
X425599Y134900D01*
X425721Y134993D01*
X425845Y135083D01*
X425972Y135169D01*
X426100Y135252D01*
X426231Y135332D01*
X426364Y135409D01*
X426498Y135482D01*
X426635Y135552D01*
X426773Y135618D01*
X426913Y135681D01*
X427054Y135740D01*
X427197Y135795D01*
X427341Y135847D01*
X427487Y135895D01*
X427633Y135940D01*
X427781Y135980D01*
X427930Y136017D01*
X428080Y136050D01*
X428230Y136079D01*
X428381Y136105D01*
X428533Y136126D01*
X428685Y136144D01*
X428838Y136157D01*
X428991Y136167D01*
X429144Y136173D01*
X429297Y136175D01*
X380329Y151659D02*
X380329Y108691D01*
X429297Y108691D01*
X429297Y151659D01*
X380329Y151659D01*
D10*
X448755Y135147D02*
X448755Y131249D01*
X448755Y133198D02*
X437061Y133198D01*
X437061Y131249D02*
X437061Y135147D01*
X437061Y144892D02*
X439010Y146841D01*
X437061Y144892D02*
X437061Y140994D01*
X439010Y139045D01*
X446806Y139045D01*
X448755Y140994D01*
X448755Y144892D01*
X446806Y146841D01*
X439010Y154637D02*
X437061Y158535D01*
X439010Y154637D02*
X442908Y150739D01*
X446806Y150739D01*
X448755Y152688D01*
X448755Y156586D01*
X446806Y158535D01*
X444857Y158535D01*
X442908Y156586D01*
X442908Y150739D01*
X383447Y122447D02*
X381498Y120498D01*
X381498Y116600D01*
X383447Y114651D01*
X391243Y114651D01*
X393192Y116600D01*
X393192Y120498D01*
X391243Y122447D01*
X393192Y126345D02*
X393192Y134141D01*
X393192Y126345D02*
X385396Y134141D01*
X383447Y134141D01*
X381498Y132192D01*
X381498Y128294D01*
X383447Y126345D01*
X381498Y138039D02*
X381498Y145835D01*
X381498Y138039D02*
X387345Y138039D01*
X385396Y141937D01*
X385396Y143886D01*
X387345Y145835D01*
X391243Y145835D01*
X393192Y143886D01*
X393192Y139988D01*
X391243Y138039D01*
X362810Y120860D02*
X360861Y118911D01*
X360861Y115013D01*
X362810Y113064D01*
X370606Y113064D01*
X372555Y115013D01*
X372555Y118911D01*
X370606Y120860D01*
X372555Y124758D02*
X372555Y132553D01*
X372555Y124758D02*
X364759Y132553D01*
X362810Y132553D01*
X360861Y130604D01*
X360861Y126706D01*
X362810Y124758D01*
X362810Y140349D02*
X360861Y144247D01*
X362810Y140349D02*
X366708Y136451D01*
X370606Y136451D01*
X372555Y138400D01*
X372555Y142298D01*
X370606Y144247D01*
X368657Y144247D01*
X366708Y142298D01*
X366708Y136451D01*
X456111Y130023D02*
X458060Y131972D01*
X456111Y130023D02*
X456111Y126125D01*
X458060Y124176D01*
X465856Y124176D01*
X467805Y126125D01*
X467805Y130023D01*
X465856Y131972D01*
X467805Y135870D02*
X467805Y143666D01*
X467805Y135870D02*
X460009Y143666D01*
X458060Y143666D01*
X456111Y141717D01*
X456111Y137819D01*
X458060Y135870D01*
X456111Y147564D02*
X456111Y155360D01*
X458060Y155360D01*
X465856Y147564D01*
X467805Y147564D01*
X478697Y127210D02*
X476748Y125261D01*
X476748Y121363D01*
X478697Y119414D01*
X486493Y119414D01*
X488442Y121363D01*
X488442Y125261D01*
X486493Y127210D01*
X488442Y131108D02*
X488442Y138903D01*
X488442Y131108D02*
X480646Y138903D01*
X478697Y138903D01*
X476748Y136954D01*
X476748Y133056D01*
X478697Y131108D01*
X478697Y142801D02*
X476748Y144750D01*
X476748Y148648D01*
X478697Y150597D01*
X480646Y150597D01*
X482595Y148648D01*
X484544Y150597D01*
X486493Y150597D01*
X488442Y148648D01*
X488442Y144750D01*
X486493Y142801D01*
X484544Y142801D01*
X482595Y144750D01*
X480646Y142801D01*
X478697Y142801D01*
X482595Y144750D02*
X482595Y148648D01*
X340585Y120860D02*
X338636Y118911D01*
X338636Y115013D01*
X340585Y113064D01*
X348381Y113064D01*
X350330Y115013D01*
X350330Y118911D01*
X348381Y120860D01*
X350330Y124758D02*
X350330Y132553D01*
X350330Y124758D02*
X342534Y132553D01*
X340585Y132553D01*
X338636Y130604D01*
X338636Y126706D01*
X340585Y124758D01*
X348381Y136451D02*
X350330Y138400D01*
X350330Y142298D01*
X348381Y144247D01*
X340585Y144247D01*
X338636Y142298D01*
X338636Y138400D01*
X340585Y136451D01*
X342534Y136451D01*
X344483Y138400D01*
X344483Y144247D01*
X443987Y423101D02*
X447885Y423101D01*
X445936Y423101D02*
X445936Y434794D01*
X443987Y434794D02*
X447885Y434794D01*
X457629Y434794D02*
X459578Y432845D01*
X457629Y434794D02*
X453731Y434794D01*
X451783Y432845D01*
X451783Y425049D01*
X453731Y423101D01*
X457629Y423101D01*
X459578Y425049D01*
X463476Y432845D02*
X465425Y434794D01*
X469323Y434794D01*
X471272Y432845D01*
X471272Y430896D01*
X469323Y428947D01*
X471272Y426998D01*
X471272Y425049D01*
X469323Y423101D01*
X465425Y423101D01*
X463476Y425049D01*
X463476Y426998D01*
X465425Y428947D01*
X463476Y430896D01*
X463476Y432845D01*
X465425Y428947D02*
X469323Y428947D01*
X426530Y422626D02*
X414836Y422626D01*
X414836Y428473D01*
X416785Y430422D01*
X420683Y430422D01*
X422632Y428473D01*
X422632Y422626D01*
X422632Y426524D02*
X426530Y430422D01*
X426530Y434320D02*
X426530Y442116D01*
X426530Y434320D02*
X418734Y442116D01*
X416785Y442116D01*
X414836Y440167D01*
X414836Y436269D01*
X416785Y434320D01*
X414836Y446014D02*
X414836Y453810D01*
X416785Y453810D01*
X424581Y446014D01*
X426530Y446014D01*
D13*
X363223Y494983D02*
X363223Y506422D01*
X359410Y506422D02*
X367037Y506422D01*
X371104Y506422D02*
X371104Y494983D01*
X371104Y506422D02*
X376824Y506422D01*
X378730Y504516D01*
X378730Y500702D01*
X376824Y498796D01*
X371104Y498796D01*
X382798Y496889D02*
X384705Y494983D01*
X388518Y494983D01*
X390424Y496889D01*
X390424Y504516D01*
X388518Y506422D01*
X384705Y506422D01*
X382798Y504516D01*
X382798Y502609D01*
X384705Y500702D01*
X390424Y500702D01*
D10*
X449267Y451939D02*
X451216Y449990D01*
X449267Y451939D02*
X445369Y451939D01*
X443421Y449990D01*
X443421Y442194D01*
X445369Y440246D01*
X449267Y440246D01*
X451216Y442194D01*
X455114Y449990D02*
X457063Y451939D01*
X460961Y451939D01*
X462910Y449990D01*
X462910Y448041D01*
X460961Y446092D01*
X459012Y446092D01*
X460961Y446092D02*
X462910Y444143D01*
X462910Y442194D01*
X460961Y440246D01*
X457063Y440246D01*
X455114Y442194D01*
X466808Y442194D02*
X466808Y449990D01*
X468757Y451939D01*
X472655Y451939D01*
X474604Y449990D01*
X474604Y442194D01*
X472655Y440246D01*
X468757Y440246D01*
X466808Y442194D01*
X474604Y449990D01*
D13*
X363223Y461645D02*
X363223Y473085D01*
X359410Y473085D02*
X367037Y473085D01*
X371104Y473085D02*
X371104Y461645D01*
X371104Y473085D02*
X376824Y473085D01*
X378730Y471178D01*
X378730Y467365D01*
X376824Y465458D01*
X371104Y465458D01*
X382798Y469272D02*
X386611Y473085D01*
X386611Y461645D01*
X382798Y461645D02*
X390424Y461645D01*
X394492Y463552D02*
X394492Y471178D01*
X396399Y473085D01*
X400212Y473085D01*
X402118Y471178D01*
X402118Y463552D01*
X400212Y461645D01*
X396399Y461645D01*
X394492Y463552D01*
X402118Y471178D01*
D11*
X85725Y125413D02*
X85725Y100013D01*
X85725Y125413D02*
X60325Y125413D01*
X60325Y100013D01*
X85725Y100013D01*
D22*
X53975Y112713D02*
X-3175Y112713D01*
D11*
X85725Y125413D02*
X85725Y150813D01*
X60325Y150813D01*
X60325Y125413D01*
D22*
X53975Y138113D02*
X-3175Y138113D01*
D23*
X57785Y112713D03*
X57785Y138113D03*
D24*
X90805Y112713D03*
X90805Y138113D03*
D13*
X70328Y83504D02*
X72235Y81598D01*
X74141Y81598D01*
X76048Y83504D01*
X76048Y93037D01*
X74141Y93037D02*
X77955Y93037D01*
X82022Y93037D02*
X82022Y81598D01*
X82022Y93037D02*
X87742Y93037D01*
X89649Y91131D01*
X89649Y87317D01*
X87742Y85411D01*
X82022Y85411D01*
X97529Y91131D02*
X101342Y93037D01*
X97529Y91131D02*
X93716Y87317D01*
X93716Y83504D01*
X95623Y81598D01*
X99436Y81598D01*
X101342Y83504D01*
X101342Y85411D01*
X99436Y87317D01*
X93716Y87317D01*
D11*
X84138Y434975D02*
X84138Y460375D01*
X58738Y460375D01*
X58738Y434975D01*
X84138Y434975D01*
D22*
X52388Y447675D02*
X-4763Y447675D01*
D11*
X84138Y460375D02*
X84138Y485775D01*
X58738Y485775D01*
X58738Y460375D01*
D22*
X52388Y473075D02*
X-4763Y473075D01*
D23*
X56198Y447675D03*
X56198Y473075D03*
D24*
X89218Y447675D03*
X89218Y473075D03*
D13*
X68741Y418467D02*
X70647Y416560D01*
X72554Y416560D01*
X74460Y418467D01*
X74460Y428000D01*
X72554Y428000D02*
X76367Y428000D01*
X80435Y428000D02*
X80435Y416560D01*
X80435Y428000D02*
X86154Y428000D01*
X88061Y426093D01*
X88061Y422280D01*
X86154Y420373D01*
X80435Y420373D01*
X92128Y428000D02*
X99755Y428000D01*
X99755Y426093D01*
X92128Y418467D01*
X92128Y416560D01*
M02*
