G04 EAGLE Gerber RS-274X export*
G75*
%MOMM*%
%FSLAX34Y34*%
%LPD*%
%INSilkscreen Bottom*%
%IPPOS*%
%AMOC8*
5,1,8,0,0,1.08239X$1,22.5*%
G01*
%ADD10C,0.076200*%
%ADD11C,0.127000*%
%ADD12C,0.152400*%


D10*
X533908Y275209D02*
X541873Y275209D01*
X545856Y279192D01*
X541873Y283174D01*
X533908Y283174D01*
X539882Y283174D02*
X539882Y275209D01*
X475752Y275209D02*
X463804Y275209D01*
X475752Y275209D02*
X475752Y281183D01*
X473761Y283174D01*
X469778Y283174D01*
X467787Y281183D01*
X467787Y275209D01*
X467787Y279192D02*
X463804Y283174D01*
X551434Y261656D02*
X555417Y257673D01*
X555417Y269621D01*
X559399Y269621D02*
X551434Y269621D01*
X551434Y191552D02*
X555417Y187569D01*
X555417Y199517D01*
X559399Y199517D02*
X551434Y199517D01*
X563128Y187569D02*
X571093Y187569D01*
X563128Y187569D02*
X563128Y193543D01*
X567111Y191552D01*
X569102Y191552D01*
X571093Y193543D01*
X571093Y197526D01*
X569102Y199517D01*
X565119Y199517D01*
X563128Y197526D01*
D11*
X325000Y510000D02*
X325000Y540000D01*
X310000Y525000D02*
X340000Y525000D01*
D12*
X90050Y550400D02*
X77350Y550400D01*
X90050Y550400D02*
X96400Y544050D01*
X102750Y550400D01*
X115450Y550400D01*
X121800Y544050D01*
X77350Y550400D02*
X71000Y544050D01*
X121800Y544050D02*
X128150Y550400D01*
X140850Y550400D01*
X147200Y544050D01*
X153550Y550400D02*
X166250Y550400D01*
X172600Y544050D01*
X178950Y550400D01*
X191650Y550400D01*
X198000Y544050D01*
X153550Y550400D02*
X147200Y544050D01*
X198000Y544050D02*
X204350Y550400D01*
X217050Y550400D01*
X223400Y544050D01*
X96400Y505950D02*
X90050Y499600D01*
X115450Y499600D02*
X121800Y505950D01*
X115450Y499600D02*
X102750Y499600D01*
X96400Y505950D01*
X71000Y505950D02*
X71000Y544050D01*
X71000Y505950D02*
X77350Y499600D01*
X90050Y499600D01*
X140850Y499600D02*
X147200Y505950D01*
X140850Y499600D02*
X128150Y499600D01*
X121800Y505950D01*
X166250Y499600D02*
X172600Y505950D01*
X191650Y499600D02*
X198000Y505950D01*
X191650Y499600D02*
X178950Y499600D01*
X172600Y505950D01*
X153550Y499600D02*
X147200Y505950D01*
X153550Y499600D02*
X166250Y499600D01*
X217050Y499600D02*
X223400Y505950D01*
X217050Y499600D02*
X204350Y499600D01*
X198000Y505950D01*
X242450Y550400D02*
X248800Y544050D01*
X242450Y550400D02*
X229750Y550400D01*
X223400Y544050D01*
X223400Y505950D02*
X229750Y499600D01*
X242450Y499600D01*
X248800Y505950D01*
X255150Y550400D02*
X267850Y550400D01*
X274200Y544050D01*
X280550Y550400D01*
X293250Y550400D01*
X299600Y544050D01*
X255150Y550400D02*
X248800Y544050D01*
X299600Y544050D02*
X305950Y550400D01*
X318650Y550400D01*
X325000Y544050D01*
X331350Y550400D02*
X344050Y550400D01*
X350400Y544050D01*
X356750Y550400D01*
X369450Y550400D01*
X375800Y544050D01*
X331350Y550400D02*
X325000Y544050D01*
X375800Y544050D02*
X382150Y550400D01*
X394850Y550400D01*
X401200Y544050D01*
X274200Y505950D02*
X267850Y499600D01*
X293250Y499600D02*
X299600Y505950D01*
X293250Y499600D02*
X280550Y499600D01*
X274200Y505950D01*
X255150Y499600D02*
X248800Y505950D01*
X255150Y499600D02*
X267850Y499600D01*
X318650Y499600D02*
X325000Y505950D01*
X318650Y499600D02*
X305950Y499600D01*
X299600Y505950D01*
X344050Y499600D02*
X350400Y505950D01*
X369450Y499600D02*
X375800Y505950D01*
X369450Y499600D02*
X356750Y499600D01*
X350400Y505950D01*
X331350Y499600D02*
X325000Y505950D01*
X331350Y499600D02*
X344050Y499600D01*
X394850Y499600D02*
X401200Y505950D01*
X394850Y499600D02*
X382150Y499600D01*
X375800Y505950D01*
X420250Y550400D02*
X426600Y544050D01*
X420250Y550400D02*
X407550Y550400D01*
X401200Y544050D01*
X401200Y505950D02*
X407550Y499600D01*
X420250Y499600D01*
X426600Y505950D01*
X432950Y550400D02*
X445650Y550400D01*
X452000Y544050D01*
X458350Y550400D01*
X471050Y550400D01*
X477400Y544050D01*
X432950Y550400D02*
X426600Y544050D01*
X477400Y544050D02*
X483750Y550400D01*
X496450Y550400D01*
X502800Y544050D01*
X509150Y550400D02*
X521850Y550400D01*
X528200Y544050D01*
X534550Y550400D01*
X547250Y550400D01*
X553600Y544050D01*
X509150Y550400D02*
X502800Y544050D01*
X553600Y544050D02*
X559950Y550400D01*
X572650Y550400D01*
X452000Y505950D02*
X445650Y499600D01*
X471050Y499600D02*
X477400Y505950D01*
X471050Y499600D02*
X458350Y499600D01*
X452000Y505950D01*
X432950Y499600D02*
X426600Y505950D01*
X432950Y499600D02*
X445650Y499600D01*
X496450Y499600D02*
X502800Y505950D01*
X496450Y499600D02*
X483750Y499600D01*
X477400Y505950D01*
X521850Y499600D02*
X528200Y505950D01*
X547250Y499600D02*
X553600Y505950D01*
X547250Y499600D02*
X534550Y499600D01*
X528200Y505950D01*
X509150Y499600D02*
X502800Y505950D01*
X509150Y499600D02*
X521850Y499600D01*
X559950Y499600D02*
X572650Y499600D01*
X559950Y499600D02*
X553600Y505950D01*
X579000Y505950D02*
X579000Y544050D01*
X572650Y550400D01*
X579000Y505950D02*
X572650Y499600D01*
D10*
X-37671Y197481D02*
X-49619Y205446D01*
X-49619Y197481D02*
X-37671Y205446D01*
X-41654Y209175D02*
X-37671Y213158D01*
X-49619Y213158D01*
X-49619Y217140D02*
X-49619Y209175D01*
M02*
