G04 EAGLE Gerber RS-274X export*
G75*
%MOMM*%
%FSLAX34Y34*%
%LPD*%
%INSolderpaste Top*%
%IPPOS*%
%AMOC8*
5,1,8,0,0,1.08239X$1,22.5*%
G01*
%ADD10C,0.101600*%
%ADD11R,1.500000X1.300000*%
%ADD12R,1.300000X1.500000*%
%ADD13R,1.600000X1.800000*%
%ADD14R,1.800000X1.600000*%
%ADD15C,0.304800*%
%ADD16R,0.600000X2.200000*%
%ADD17R,1.300000X1.600000*%
%ADD18R,0.700000X1.400000*%
%ADD19R,2.700000X1.600000*%
%ADD20R,1.600000X1.400000*%
%ADD21R,1.168400X1.600200*%
%ADD22R,1.400000X1.000000*%
%ADD23R,4.000000X0.750000*%
%ADD24R,2.200000X0.600000*%
%ADD25R,1.600200X1.168400*%
%ADD26R,0.400000X0.400000*%
%ADD27R,0.350000X0.900000*%


D10*
X418974Y69034D02*
X418974Y80728D01*
X426770Y80728D01*
X422872Y74881D02*
X418974Y74881D01*
X430668Y76830D02*
X430668Y69034D01*
X430668Y76830D02*
X434566Y80728D01*
X438464Y76830D01*
X438464Y69034D01*
X438464Y74881D02*
X430668Y74881D01*
X442362Y69034D02*
X442362Y80728D01*
X448209Y80728D01*
X450158Y78779D01*
X450158Y76830D01*
X448209Y74881D01*
X450158Y72932D01*
X450158Y70983D01*
X448209Y69034D01*
X442362Y69034D01*
X442362Y74881D02*
X448209Y74881D01*
X454056Y80728D02*
X454056Y69034D01*
X461852Y69034D01*
X465750Y69034D02*
X465750Y76830D01*
X469648Y80728D01*
X473546Y76830D01*
X473546Y69034D01*
X473546Y74881D02*
X465750Y74881D01*
X477444Y69034D02*
X477444Y80728D01*
X483291Y80728D01*
X485240Y78779D01*
X485240Y76830D01*
X483291Y74881D01*
X485240Y72932D01*
X485240Y70983D01*
X483291Y69034D01*
X477444Y69034D01*
X477444Y74881D02*
X483291Y74881D01*
X500832Y69034D02*
X500832Y80728D01*
X504730Y76830D01*
X508628Y80728D01*
X508628Y69034D01*
X512526Y70983D02*
X512526Y80728D01*
X512526Y70983D02*
X514475Y69034D01*
X518373Y69034D01*
X520322Y70983D01*
X520322Y80728D01*
X518373Y82677D02*
X518373Y84626D01*
X514475Y84626D02*
X514475Y82677D01*
X524220Y80728D02*
X524220Y69034D01*
X532016Y69034D02*
X524220Y80728D01*
X532016Y80728D02*
X532016Y69034D01*
X543710Y78779D02*
X541761Y80728D01*
X537863Y80728D01*
X535914Y78779D01*
X535914Y70983D01*
X537863Y69034D01*
X541761Y69034D01*
X543710Y70983D01*
X547608Y69034D02*
X547608Y80728D01*
X547608Y74881D02*
X555404Y74881D01*
X555404Y80728D02*
X555404Y69034D01*
X559302Y80728D02*
X567098Y80728D01*
X559302Y80728D02*
X559302Y69034D01*
X567098Y69034D01*
X563200Y74881D02*
X559302Y74881D01*
X570996Y69034D02*
X570996Y80728D01*
X578792Y69034D01*
X578792Y80728D01*
X426770Y61922D02*
X424821Y63871D01*
X420923Y63871D01*
X418974Y61922D01*
X418974Y54126D01*
X420923Y52177D01*
X424821Y52177D01*
X426770Y54126D01*
X426770Y58024D01*
X422872Y58024D01*
X430668Y52177D02*
X430668Y63871D01*
X430668Y58024D02*
X438464Y58024D01*
X438464Y63871D02*
X438464Y52177D01*
X458549Y56075D02*
X458549Y63871D01*
X458549Y56075D02*
X462447Y52177D01*
X466345Y56075D01*
X466345Y63871D01*
X470243Y59973D02*
X474141Y63871D01*
X474141Y52177D01*
X470243Y52177D02*
X478039Y52177D01*
X426770Y33122D02*
X418974Y33122D01*
X426770Y40918D01*
X426770Y42867D01*
X424821Y44816D01*
X420923Y44816D01*
X418974Y42867D01*
X430668Y42867D02*
X430668Y35071D01*
X430668Y42867D02*
X432617Y44816D01*
X436515Y44816D01*
X438464Y42867D01*
X438464Y35071D01*
X436515Y33122D01*
X432617Y33122D01*
X430668Y35071D01*
X438464Y42867D01*
X442362Y40918D02*
X446260Y44816D01*
X446260Y33122D01*
X442362Y33122D02*
X450158Y33122D01*
X454056Y42867D02*
X456005Y44816D01*
X459903Y44816D01*
X461852Y42867D01*
X461852Y40918D01*
X459903Y38969D01*
X461852Y37020D01*
X461852Y35071D01*
X459903Y33122D01*
X456005Y33122D01*
X454056Y35071D01*
X454056Y37020D01*
X456005Y38969D01*
X454056Y40918D01*
X454056Y42867D01*
X456005Y38969D02*
X459903Y38969D01*
X465750Y33122D02*
X473546Y44816D01*
X477444Y42867D02*
X477444Y35071D01*
X477444Y42867D02*
X479393Y44816D01*
X483291Y44816D01*
X485240Y42867D01*
X485240Y35071D01*
X483291Y33122D01*
X479393Y33122D01*
X477444Y35071D01*
X485240Y42867D01*
X494985Y44816D02*
X494985Y33122D01*
X489138Y38969D02*
X494985Y44816D01*
X496934Y38969D02*
X489138Y38969D01*
X68974Y599034D02*
X68974Y610728D01*
X76770Y610728D01*
X72872Y604881D02*
X68974Y604881D01*
X80668Y606830D02*
X80668Y599034D01*
X80668Y606830D02*
X84566Y610728D01*
X88464Y606830D01*
X88464Y599034D01*
X88464Y604881D02*
X80668Y604881D01*
X92362Y599034D02*
X92362Y610728D01*
X98209Y610728D01*
X100158Y608779D01*
X100158Y606830D01*
X98209Y604881D01*
X100158Y602932D01*
X100158Y600983D01*
X98209Y599034D01*
X92362Y599034D01*
X92362Y604881D02*
X98209Y604881D01*
X104056Y610728D02*
X104056Y599034D01*
X111852Y599034D01*
X115750Y599034D02*
X115750Y606830D01*
X119648Y610728D01*
X123546Y606830D01*
X123546Y599034D01*
X123546Y604881D02*
X115750Y604881D01*
X127444Y599034D02*
X127444Y610728D01*
X133291Y610728D01*
X135240Y608779D01*
X135240Y606830D01*
X133291Y604881D01*
X135240Y602932D01*
X135240Y600983D01*
X133291Y599034D01*
X127444Y599034D01*
X127444Y604881D02*
X133291Y604881D01*
X150832Y599034D02*
X150832Y610728D01*
X154730Y606830D01*
X158628Y610728D01*
X158628Y599034D01*
X162526Y600983D02*
X162526Y610728D01*
X162526Y600983D02*
X164475Y599034D01*
X168373Y599034D01*
X170322Y600983D01*
X170322Y610728D01*
X168373Y612677D02*
X168373Y614626D01*
X164475Y614626D02*
X164475Y612677D01*
X174220Y610728D02*
X174220Y599034D01*
X182016Y599034D02*
X174220Y610728D01*
X182016Y610728D02*
X182016Y599034D01*
X193710Y608779D02*
X191761Y610728D01*
X187863Y610728D01*
X185914Y608779D01*
X185914Y600983D01*
X187863Y599034D01*
X191761Y599034D01*
X193710Y600983D01*
X197608Y599034D02*
X197608Y610728D01*
X197608Y604881D02*
X205404Y604881D01*
X205404Y610728D02*
X205404Y599034D01*
X209302Y610728D02*
X217098Y610728D01*
X209302Y610728D02*
X209302Y599034D01*
X217098Y599034D01*
X213200Y604881D02*
X209302Y604881D01*
X220996Y599034D02*
X220996Y610728D01*
X228792Y599034D01*
X228792Y610728D01*
X176770Y651922D02*
X174821Y653871D01*
X170923Y653871D01*
X168974Y651922D01*
X168974Y644126D01*
X170923Y642177D01*
X174821Y642177D01*
X176770Y644126D01*
X176770Y648024D01*
X172872Y648024D01*
X180668Y642177D02*
X180668Y653871D01*
X180668Y648024D02*
X188464Y648024D01*
X188464Y653871D02*
X188464Y642177D01*
X248974Y643122D02*
X256770Y643122D01*
X248974Y643122D02*
X256770Y650918D01*
X256770Y652867D01*
X254821Y654816D01*
X250923Y654816D01*
X248974Y652867D01*
X260668Y652867D02*
X260668Y645071D01*
X260668Y652867D02*
X262617Y654816D01*
X266515Y654816D01*
X268464Y652867D01*
X268464Y645071D01*
X266515Y643122D01*
X262617Y643122D01*
X260668Y645071D01*
X268464Y652867D01*
X272362Y650918D02*
X276260Y654816D01*
X276260Y643122D01*
X272362Y643122D02*
X280158Y643122D01*
X284056Y652867D02*
X286005Y654816D01*
X289903Y654816D01*
X291852Y652867D01*
X291852Y650918D01*
X289903Y648969D01*
X291852Y647020D01*
X291852Y645071D01*
X289903Y643122D01*
X286005Y643122D01*
X284056Y645071D01*
X284056Y647020D01*
X286005Y648969D01*
X284056Y650918D01*
X284056Y652867D01*
X286005Y648969D02*
X289903Y648969D01*
X295750Y643122D02*
X303546Y654816D01*
X307444Y652867D02*
X307444Y645071D01*
X307444Y652867D02*
X309393Y654816D01*
X313291Y654816D01*
X315240Y652867D01*
X315240Y645071D01*
X313291Y643122D01*
X309393Y643122D01*
X307444Y645071D01*
X315240Y652867D01*
X324985Y654816D02*
X324985Y643122D01*
X319138Y648969D02*
X324985Y654816D01*
X326934Y648969D02*
X319138Y648969D01*
D11*
X476250Y327000D03*
X476250Y308000D03*
X495300Y295300D03*
X495300Y314300D03*
D12*
X447650Y263525D03*
X428650Y263525D03*
D13*
X448975Y282575D03*
X420975Y282575D03*
D14*
X517525Y293975D03*
X517525Y321975D03*
D11*
X496888Y176188D03*
X496888Y157188D03*
X457200Y327000D03*
X457200Y308000D03*
X581025Y314300D03*
X581025Y295300D03*
X539750Y361925D03*
X539750Y342925D03*
X219075Y96813D03*
X219075Y77813D03*
X130175Y96813D03*
X130175Y77813D03*
X184150Y41250D03*
X184150Y22250D03*
D12*
X447650Y206375D03*
X428650Y206375D03*
D13*
X444213Y225425D03*
X416213Y225425D03*
D15*
X539825Y263600D03*
X539825Y258600D03*
X539825Y253600D03*
X539825Y248600D03*
X539825Y243600D03*
X539825Y238600D03*
X539825Y233600D03*
X539825Y228600D03*
X539825Y223600D03*
X539825Y218600D03*
X539825Y213600D03*
X539825Y208600D03*
X539825Y203600D03*
X539825Y198600D03*
X539825Y193600D03*
X534825Y263600D03*
X534825Y258600D03*
X534825Y253600D03*
X534825Y248600D03*
X534825Y243600D03*
X534825Y238600D03*
X534825Y233600D03*
X534825Y228600D03*
X534825Y223600D03*
X534825Y218600D03*
X534825Y213600D03*
X534825Y208600D03*
X534825Y203600D03*
X534825Y198600D03*
X534825Y193600D03*
X529825Y263600D03*
X529825Y258600D03*
X529825Y198600D03*
X529825Y193600D03*
X524825Y263600D03*
X524825Y258600D03*
X524825Y198600D03*
X524825Y193600D03*
X519825Y263600D03*
X519825Y258600D03*
X519825Y198600D03*
X519825Y193600D03*
X514825Y263600D03*
X514825Y258600D03*
X514825Y238600D03*
X514825Y233600D03*
X514825Y228600D03*
X514825Y223600D03*
X514825Y218600D03*
X514825Y198600D03*
X514825Y193600D03*
X509825Y263600D03*
X509825Y258600D03*
X509825Y238600D03*
X509825Y218600D03*
X509825Y198600D03*
X509825Y193600D03*
X504825Y263600D03*
X504825Y258600D03*
X504825Y238600D03*
X504825Y218600D03*
X504825Y198600D03*
X504825Y193600D03*
X499825Y263600D03*
X499825Y258600D03*
X499825Y238600D03*
X499825Y218600D03*
X499825Y198600D03*
X499825Y193600D03*
X494825Y263600D03*
X494825Y258600D03*
X494825Y238600D03*
X494825Y233600D03*
X494825Y228600D03*
X494825Y223600D03*
X494825Y218600D03*
X494825Y198600D03*
X494825Y193600D03*
X489825Y263600D03*
X489825Y258600D03*
X489825Y198600D03*
X489825Y193600D03*
X484825Y263600D03*
X484825Y258600D03*
X484825Y198600D03*
X484825Y193600D03*
X479825Y263600D03*
X479825Y258600D03*
X479825Y198600D03*
X479825Y193600D03*
X474825Y263600D03*
X474825Y258600D03*
X474825Y253600D03*
X474825Y248600D03*
X474825Y243600D03*
X474825Y238600D03*
X474825Y233600D03*
X474825Y228600D03*
X474825Y223600D03*
X474825Y218600D03*
X474825Y213600D03*
X474825Y208600D03*
X474825Y203600D03*
X474825Y198600D03*
X474825Y193600D03*
X469825Y263600D03*
X469825Y258600D03*
X469825Y253600D03*
X469825Y248600D03*
X469825Y243600D03*
X469825Y238600D03*
X469825Y233600D03*
X469825Y228600D03*
X469825Y223600D03*
X469825Y218600D03*
X469825Y213600D03*
X469825Y208600D03*
X469825Y203600D03*
X469825Y198600D03*
X469825Y193600D03*
D16*
X171450Y61313D03*
X171450Y113313D03*
X158750Y61313D03*
X184150Y61313D03*
X196850Y61313D03*
X158750Y113313D03*
X184150Y113313D03*
X196850Y113313D03*
D17*
X540950Y285800D03*
X540950Y323800D03*
X563950Y323800D03*
X563950Y285800D03*
D18*
X481575Y285750D03*
X464575Y285750D03*
D11*
X185738Y134963D03*
X185738Y153963D03*
X241300Y77813D03*
X241300Y96813D03*
D19*
X269875Y73313D03*
X269875Y101313D03*
D11*
X161925Y22250D03*
X161925Y41250D03*
X247650Y41250D03*
X247650Y22250D03*
X269875Y41250D03*
X269875Y22250D03*
X712725Y96825D03*
X712725Y77825D03*
D12*
X447650Y244475D03*
X428650Y244475D03*
X447650Y187325D03*
X428650Y187325D03*
D20*
X734700Y118000D03*
X818700Y118000D03*
X818700Y140500D03*
X818700Y163000D03*
X734700Y163000D03*
X734700Y44975D03*
X818700Y44975D03*
X818700Y67475D03*
X818700Y89975D03*
X734700Y89975D03*
D21*
X242570Y474663D03*
X227330Y474663D03*
X227330Y455613D03*
X242570Y455613D03*
D22*
X226900Y22250D03*
X226900Y41250D03*
X204900Y31750D03*
X211250Y153963D03*
X211250Y134963D03*
X233250Y144463D03*
D23*
X20000Y295150D03*
X20000Y285150D03*
X20000Y275150D03*
X20000Y265150D03*
X20000Y255150D03*
X20000Y245150D03*
X20000Y235150D03*
X20000Y195150D03*
X20000Y225150D03*
X20000Y215150D03*
X20000Y205150D03*
X20000Y328850D03*
X20000Y338850D03*
X20000Y348850D03*
X20000Y358850D03*
X20000Y368850D03*
X20000Y378850D03*
X20000Y388850D03*
D24*
X220063Y361950D03*
X272063Y361950D03*
X220063Y374650D03*
X220063Y349250D03*
X220063Y336550D03*
X272063Y374650D03*
X272063Y349250D03*
X272063Y336550D03*
D12*
X198413Y349250D03*
X179413Y349250D03*
X198413Y374650D03*
X179413Y374650D03*
X198413Y330200D03*
X179413Y330200D03*
X144488Y393700D03*
X163488Y393700D03*
X144488Y311150D03*
X163488Y311150D03*
X144488Y292100D03*
X163488Y292100D03*
X144488Y412750D03*
X163488Y412750D03*
X179413Y393700D03*
X198413Y393700D03*
X179413Y311150D03*
X198413Y311150D03*
X198413Y412750D03*
X179413Y412750D03*
X198413Y292100D03*
X179413Y292100D03*
X255563Y393700D03*
X236563Y393700D03*
D24*
X166088Y219075D03*
X218088Y219075D03*
X166088Y231775D03*
X166088Y206375D03*
X166088Y193675D03*
X218088Y231775D03*
X218088Y206375D03*
X218088Y193675D03*
D11*
X134938Y215875D03*
X134938Y196875D03*
X115888Y215875D03*
X115888Y196875D03*
X134938Y252388D03*
X134938Y233388D03*
D12*
X185763Y250825D03*
X204763Y250825D03*
D11*
X249238Y209575D03*
X249238Y228575D03*
X290513Y196875D03*
X290513Y215875D03*
X271463Y215875D03*
X271463Y196875D03*
D12*
X246038Y250825D03*
X227038Y250825D03*
D11*
X554038Y176188D03*
X554038Y157188D03*
X166688Y468288D03*
X166688Y449288D03*
X185738Y468288D03*
X185738Y449288D03*
D25*
X527050Y482283D03*
X527050Y467043D03*
X552450Y482283D03*
X552450Y467043D03*
X85725Y340995D03*
X85725Y325755D03*
X60325Y340995D03*
X60325Y325755D03*
D26*
X805563Y523050D03*
X805563Y515050D03*
X805563Y531050D03*
X805563Y539050D03*
X829563Y539050D03*
X829563Y531050D03*
X829563Y523050D03*
X829563Y515050D03*
D12*
X346050Y31750D03*
X327050Y31750D03*
X201588Y177800D03*
X182588Y177800D03*
X790550Y539750D03*
X771550Y539750D03*
X790550Y520700D03*
X771550Y520700D03*
D25*
X111125Y340995D03*
X111125Y325755D03*
D24*
X362550Y63500D03*
X310550Y63500D03*
X362550Y50800D03*
X362550Y76200D03*
X362550Y88900D03*
X310550Y50800D03*
X310550Y76200D03*
X310550Y88900D03*
D27*
X424313Y158925D03*
X417813Y158925D03*
X411313Y158925D03*
X404813Y158925D03*
X398313Y158925D03*
X391813Y158925D03*
X385313Y158925D03*
X385313Y101425D03*
X391813Y101425D03*
X398313Y101425D03*
X404813Y101425D03*
X411313Y101425D03*
X417813Y101425D03*
X424313Y101425D03*
D11*
X368300Y146025D03*
X368300Y127025D03*
D14*
X347663Y148938D03*
X347663Y120938D03*
D11*
X442913Y155550D03*
X442913Y136550D03*
D14*
X463550Y155288D03*
X463550Y127288D03*
X325438Y148938D03*
X325438Y120938D03*
D24*
X481613Y455613D03*
X429613Y455613D03*
X481613Y442913D03*
X481613Y468313D03*
X481613Y481013D03*
X429613Y442913D03*
X429613Y468313D03*
X429613Y481013D03*
D11*
X401638Y460350D03*
X401638Y441350D03*
D12*
X446113Y427038D03*
X465113Y427038D03*
M02*
