G04 EAGLE Gerber RS-274X export*
G75*
%MOMM*%
%FSLAX34Y34*%
%LPD*%
%INSoldermask Bottom*%
%IPPOS*%
%AMOC8*
5,1,8,0,0,1.08239X$1,22.5*%
G01*
%ADD10C,1.727200*%
%ADD11C,6.403200*%
%ADD12P,1.869504X8X22.500000*%
%ADD13R,4.203200X0.953200*%
%ADD14C,0.478694*%
%ADD15R,2.184400X2.184400*%
%ADD16C,1.981200*%
%ADD17P,1.869504X8X112.500000*%
%ADD18C,1.727200*%
%ADD19C,0.812800*%
%ADD20C,0.858000*%


D10*
X822325Y276225D03*
X822325Y301625D03*
X822325Y327025D03*
X822325Y352425D03*
X822325Y377825D03*
X822325Y403225D03*
X822325Y428625D03*
X822325Y454025D03*
D11*
X35000Y35000D03*
X615000Y35000D03*
X615000Y525000D03*
X35000Y525000D03*
D12*
X83700Y512300D03*
X109100Y512300D03*
X134500Y512300D03*
X159900Y512300D03*
X185300Y512300D03*
X210700Y512300D03*
X83700Y537700D03*
X109100Y537700D03*
X134500Y537700D03*
X159900Y537700D03*
X185300Y537700D03*
X210700Y537700D03*
X236100Y512300D03*
X236100Y537700D03*
X261500Y512300D03*
X286900Y512300D03*
X312300Y512300D03*
X337700Y512300D03*
X363100Y512300D03*
X388500Y512300D03*
X261500Y537700D03*
X286900Y537700D03*
X312300Y537700D03*
X337700Y537700D03*
X363100Y537700D03*
X388500Y537700D03*
X413900Y512300D03*
X413900Y537700D03*
X439300Y512300D03*
X464700Y512300D03*
X490100Y512300D03*
X515500Y512300D03*
X540900Y512300D03*
X566300Y512300D03*
X439300Y537700D03*
X464700Y537700D03*
X490100Y537700D03*
X515500Y537700D03*
X540900Y537700D03*
X566300Y537700D03*
D13*
X20000Y295150D03*
X20000Y285150D03*
X20000Y275150D03*
X20000Y265150D03*
X20000Y255150D03*
X20000Y245150D03*
X20000Y235150D03*
X20000Y195150D03*
X20000Y225150D03*
X20000Y215150D03*
X20000Y205150D03*
X20000Y328850D03*
X20000Y338850D03*
X20000Y348850D03*
X20000Y358850D03*
X20000Y368850D03*
X20000Y378850D03*
X20000Y388850D03*
D14*
X673877Y592123D02*
X711123Y592123D01*
X711123Y587877D01*
X673877Y587877D01*
X673877Y592123D01*
X673877Y602123D02*
X711123Y602123D01*
X711123Y597877D01*
X673877Y597877D01*
X673877Y602123D01*
X673877Y612123D02*
X711123Y612123D01*
X711123Y607877D01*
X673877Y607877D01*
X673877Y612123D01*
X673877Y622123D02*
X711123Y622123D01*
X711123Y617877D01*
X673877Y617877D01*
X673877Y622123D01*
X673877Y632123D02*
X711123Y632123D01*
X711123Y627877D01*
X673877Y627877D01*
X673877Y632123D01*
X673877Y642123D02*
X711123Y642123D01*
X711123Y637877D01*
X673877Y637877D01*
X673877Y642123D01*
X673877Y652123D02*
X711123Y652123D01*
X711123Y647877D01*
X673877Y647877D01*
X673877Y652123D01*
X673877Y662123D02*
X711123Y662123D01*
X711123Y657877D01*
X673877Y657877D01*
X673877Y662123D01*
X673877Y672123D02*
X711123Y672123D01*
X711123Y667877D01*
X673877Y667877D01*
X673877Y672123D01*
X673877Y682123D02*
X711123Y682123D01*
X711123Y677877D01*
X673877Y677877D01*
X673877Y682123D01*
X673877Y692123D02*
X711123Y692123D01*
X711123Y687877D01*
X673877Y687877D01*
X673877Y692123D01*
X673877Y722123D02*
X711123Y722123D01*
X711123Y717877D01*
X673877Y717877D01*
X673877Y722123D01*
X673877Y732123D02*
X711123Y732123D01*
X711123Y727877D01*
X673877Y727877D01*
X673877Y732123D01*
X673877Y742123D02*
X711123Y742123D01*
X711123Y737877D01*
X673877Y737877D01*
X673877Y742123D01*
X673877Y752123D02*
X711123Y752123D01*
X711123Y747877D01*
X673877Y747877D01*
X673877Y752123D01*
X673877Y762123D02*
X711123Y762123D01*
X711123Y757877D01*
X673877Y757877D01*
X673877Y762123D01*
X673877Y772123D02*
X711123Y772123D01*
X711123Y767877D01*
X673877Y767877D01*
X673877Y772123D01*
X673877Y782123D02*
X711123Y782123D01*
X711123Y777877D01*
X673877Y777877D01*
X673877Y782123D01*
D15*
X290000Y684200D03*
X290000Y785800D03*
X380000Y684200D03*
X380000Y785800D03*
X470000Y684200D03*
X470000Y785800D03*
X560000Y684200D03*
X560000Y785800D03*
X110000Y684200D03*
X110000Y785800D03*
X200000Y684200D03*
X200000Y785800D03*
X20000Y684200D03*
X20000Y785800D03*
D16*
X85725Y303213D03*
X85725Y277813D03*
X85725Y252413D03*
X60325Y303213D03*
X60325Y277813D03*
X60325Y252413D03*
D17*
X564500Y138000D03*
D10*
X589900Y138000D03*
X615300Y138000D03*
X640700Y138000D03*
X666100Y138000D03*
X691500Y138000D03*
D17*
X564500Y366600D03*
D10*
X589900Y366600D03*
X615300Y366600D03*
X640700Y366600D03*
X666100Y366600D03*
X691500Y366600D03*
D15*
X452438Y0D03*
X452438Y101600D03*
D18*
X112395Y112713D02*
X97155Y112713D01*
X97155Y138113D02*
X112395Y138113D01*
X110808Y447675D02*
X95568Y447675D01*
X95568Y473075D02*
X110808Y473075D01*
D19*
X520700Y233363D03*
X527050Y233363D03*
X550863Y233363D03*
X550863Y227013D03*
X557213Y233363D03*
X306388Y288925D03*
X74613Y160338D03*
X500063Y107950D03*
X495300Y103188D03*
X550863Y107950D03*
X550863Y95250D03*
X550863Y101600D03*
X493010Y244682D03*
X776700Y45250D03*
X628650Y238125D03*
X505378Y273356D03*
X735013Y327025D03*
X501650Y282575D03*
X747713Y352425D03*
X511175Y252413D03*
X501650Y252413D03*
X46038Y195263D03*
X79375Y195263D03*
X523875Y250825D03*
X522288Y274638D03*
X486033Y249162D03*
X460375Y273050D03*
X508407Y229446D03*
X508361Y171334D03*
X712725Y61925D03*
X292100Y22225D03*
X142875Y95250D03*
X111125Y160338D03*
X198438Y231775D03*
X290513Y228600D03*
X271463Y396875D03*
X346075Y12700D03*
X565150Y157163D03*
X804863Y549275D03*
X819150Y523875D03*
X166688Y131763D03*
X212725Y177800D03*
X327025Y76200D03*
X474663Y163513D03*
X379413Y101600D03*
X347663Y136525D03*
X431800Y420688D03*
X500519Y211295D03*
X400050Y188913D03*
X280988Y473075D03*
X247650Y490538D03*
X508000Y187325D03*
X390525Y190500D03*
X488533Y217444D03*
X339725Y236538D03*
X463098Y221429D03*
X288925Y249238D03*
X461196Y233198D03*
X269875Y257175D03*
X458870Y240493D03*
X258763Y268288D03*
X460375Y169863D03*
X396875Y169863D03*
X480982Y207946D03*
X354013Y203200D03*
X493544Y252481D03*
X713200Y165900D03*
X654050Y223838D03*
X87313Y407988D03*
X77788Y415925D03*
X87313Y415925D03*
X96838Y415925D03*
X106363Y415925D03*
X115888Y415925D03*
X106363Y407988D03*
X96838Y407988D03*
X100013Y193675D03*
X293688Y288925D03*
X100013Y228600D03*
X501362Y224560D03*
X261938Y238125D03*
X104775Y250825D03*
X20638Y312738D03*
X57150Y379413D03*
X415925Y255588D03*
X480072Y243529D03*
X488950Y209550D03*
X415925Y187325D03*
X508225Y210146D03*
X361950Y180975D03*
X520700Y185738D03*
X515616Y212331D03*
X371475Y192088D03*
X169863Y244475D03*
X119063Y254000D03*
X106363Y238125D03*
X247650Y144463D03*
D20*
X46038Y254000D03*
D19*
X457036Y226150D03*
X46038Y269875D03*
X106363Y271463D03*
X249238Y273050D03*
X111125Y312738D03*
X488834Y225647D03*
X47625Y315913D03*
X106363Y280988D03*
X241300Y279400D03*
X146050Y22225D03*
X288925Y52388D03*
X457200Y206375D03*
X479824Y218853D03*
X166688Y374650D03*
X166688Y330200D03*
X290513Y349250D03*
X338138Y207963D03*
X665000Y740000D03*
X665000Y769525D03*
X665000Y680000D03*
X528638Y204788D03*
X523875Y139700D03*
X404813Y90488D03*
X404813Y74613D03*
X522908Y215164D03*
X530225Y150813D03*
X622300Y328613D03*
X53975Y355600D03*
X98425Y350838D03*
X144463Y350838D03*
X73025Y358775D03*
X93663Y358775D03*
X484951Y232457D03*
X539750Y131763D03*
M02*
